<svg id="ab649883-f1a7-43f9-9105-d4ff0d2051cb" data-name="Layer 3" xmlns="http://www.w3.org/2000/svg" viewBox="0 0 864 360"><defs><style>.aa54fe76-a709-4ba4-8d2a-8df5fd06d7f3{fill:#3c4650;}.e04c0593-757f-49e7-a672-fa84c39ea3ae{fill:none;stroke:#000;stroke-miterlimit:10;}</style></defs><rect class="aa54fe76-a709-4ba4-8d2a-8df5fd06d7f3" x="386.24" y="56.53" width="112.66" height="259.06"/><rect class="aa54fe76-a709-4ba4-8d2a-8df5fd06d7f3" x="611.56" y="268.49" width="109.48" height="46.46"/><rect class="aa54fe76-a709-4ba4-8d2a-8df5fd06d7f3" x="164.06" y="291.7" width="110.64" height="23.89"/><rect class="e04c0593-757f-49e7-a672-fa84c39ea3ae" x="109.31" y="44.11" width="668.76" height="271.27"/><path d="M194.89,30.75l4.63-13h3.18l4.63,13h-3l-1-2.76h-4.39l-1,2.76Zm4.71-5.41h3l-1.5-4.66Z"/><path d="M213,33.83a9.49,9.49,0,0,1-3.93-.63q-1.32-.62-1.32-1.59a1.15,1.15,0,0,1,.25-.77,2,2,0,0,1,.6-.49,3.84,3.84,0,0,1,.63-.26l.34-.11-.43-.24a1.79,1.79,0,0,1-.54-.46,1.12,1.12,0,0,1-.25-.77,1.33,1.33,0,0,1,.5-1,3,3,0,0,1,1.52-.6,3.17,3.17,0,0,1-1.45-1.2,2.78,2.78,0,0,1-.49-1.52,2.21,2.21,0,0,1,.62-1.58,3.76,3.76,0,0,1,1.65-1,7.3,7.3,0,0,1,2.3-.34,5.38,5.38,0,0,1,1.6.2,6.79,6.79,0,0,1,1.13.5l.59-.23.76-.29.81-.33.74-.3,0,2.26-1.59.23a3.38,3.38,0,0,1,.11.48,2.12,2.12,0,0,1,0,.38,2.61,2.61,0,0,1-.49,1.51,3.51,3.51,0,0,1-1.47,1.17,5.55,5.55,0,0,1-2.4.46h-.54c-.22,0-.41,0-.54,0a1.27,1.27,0,0,0-.47.1.19.19,0,0,0-.13.17c0,.14.14.23.41.26s.65.07,1.16.1l.78,0,1.11.07a4.51,4.51,0,0,1,2.69.89,2.36,2.36,0,0,1,.86,1.84,2.59,2.59,0,0,1-1.28,2.2A7,7,0,0,1,213,33.83Zm.49-1.66a3.07,3.07,0,0,0,1.37-.21.69.69,0,0,0,.37-.6.71.71,0,0,0-.34-.58,1.81,1.81,0,0,0-.94-.26l-1.91-.13a1.69,1.69,0,0,0-.75.1.89.89,0,0,0-.42.33.71.71,0,0,0-.14.43c0,.35.22.58.67.72A7.71,7.71,0,0,0,213.5,32.17Zm-.59-6.49a1.29,1.29,0,0,0,1.38-1.37,1.5,1.5,0,0,0-.38-1,1.41,1.41,0,0,0-2,0,1.5,1.5,0,0,0-.38,1,1.36,1.36,0,0,0,.38,1A1.33,1.33,0,0,0,212.91,25.68Z"/><path d="M222.28,26.8a2.51,2.51,0,0,0,.2,1.08,1.46,1.46,0,0,0,.59.66,1.67,1.67,0,0,0,.88.22,2.18,2.18,0,0,0,1-.23,1.51,1.51,0,0,0,.66-.84h2.73a3.42,3.42,0,0,1-.81,1.75A4.53,4.53,0,0,1,226,30.55a5.41,5.41,0,0,1-4.43-.2,4.21,4.21,0,0,1-1.67-1.65,5,5,0,0,1-.6-2.49,5.48,5.48,0,0,1,.55-2.48,4.28,4.28,0,0,1,1.58-1.79,4.47,4.47,0,0,1,2.5-.68,4.58,4.58,0,0,1,2.46.62,3.88,3.88,0,0,1,1.49,1.69,5.86,5.86,0,0,1,.5,2.47v.76Zm0-1.76h3.23a2,2,0,0,0-.18-.85,1.42,1.42,0,0,0-.54-.6,1.66,1.66,0,0,0-.89-.23,1.49,1.49,0,0,0-.85.24,1.78,1.78,0,0,0-.57.62A1.69,1.69,0,0,0,222.27,25Z"/><path d="M234,17.74h3.2l1.09,0a8.65,8.65,0,0,1,3.85.89,5.12,5.12,0,0,1,2.19,2.23,7.51,7.51,0,0,1,.69,3.32,7.64,7.64,0,0,1-.73,3.44,5.29,5.29,0,0,1-2.24,2.3,7.86,7.86,0,0,1-3.82.82H234ZM237,20.18v8.13h1.24a3.69,3.69,0,0,0,1.69-.4,3.14,3.14,0,0,0,1.31-1.32,5,5,0,0,0,.51-2.44,5.23,5.23,0,0,0-.43-2.24,3,3,0,0,0-1.22-1.31,3.84,3.84,0,0,0-1.84-.42Z"/><path d="M249.87,17.74V20.4h-2.94V17.74Zm0,3.7v9.31h-2.93V21.44Z"/><path d="M255.84,30.93a5.82,5.82,0,0,1-1.89-.32,3.87,3.87,0,0,1-1.59-1,3.42,3.42,0,0,1-.84-1.85h2.62a1.3,1.3,0,0,0,.43.73,1.63,1.63,0,0,0,.65.34,2.69,2.69,0,0,0,1.69-.1.62.62,0,0,0,.41-.58.56.56,0,0,0-.26-.5,2.06,2.06,0,0,0-.88-.3L254.67,27a4.48,4.48,0,0,1-2.07-.89,2.3,2.3,0,0,1-.8-1.85,2.68,2.68,0,0,1,.46-1.54,3,3,0,0,1,1.38-1.08,5.48,5.48,0,0,1,2.23-.41,4.71,4.71,0,0,1,2.88.8,2.54,2.54,0,0,1,1.08,2.18h-2.52a1,1,0,0,0-.51-.72,1.77,1.77,0,0,0-1-.25,2.29,2.29,0,0,0-1,.19.63.63,0,0,0-.39.59.53.53,0,0,0,.34.47,4.34,4.34,0,0,0,1.09.33l1.36.28a4.19,4.19,0,0,1,1.36.55,3.06,3.06,0,0,1,.8.75,2.51,2.51,0,0,1,.39.81,2.4,2.4,0,0,1,.11.7,2.55,2.55,0,0,1-.53,1.63,3.22,3.22,0,0,1-1.45,1A5.78,5.78,0,0,1,255.84,30.93Z"/><path d="M267.56,23.54h-2v4.59a.89.89,0,0,0,.08.42.43.43,0,0,0,.24.18,1.43,1.43,0,0,0,.38,0h1.35v1.85a4,4,0,0,1-.58.17,5.75,5.75,0,0,1-1.17.09,5.17,5.17,0,0,1-2.07-.34,2,2,0,0,1-1-.94,3,3,0,0,1-.28-1.33V23.54H261v-2.1h1.62l.78-2.85h2.17v2.84h2Z"/><path d="M269.31,30.75V21.44h3v2.39a4.36,4.36,0,0,1,.63-1.28,3,3,0,0,1,1-.93,2.85,2.85,0,0,1,1.46-.36h.16v2.92l-.15,0a4.46,4.46,0,0,0-1.88.12,1.58,1.58,0,0,0-.9.7,2.13,2.13,0,0,0-.24,1v4.78Z"/><path d="M279.83,17.74V20.4h-2.94V17.74Zm0,3.7v9.31H276.9V21.44Z"/><path d="M287.43,30.93a3.4,3.4,0,0,1-1.1-.16,2.64,2.64,0,0,1-.83-.45,2.81,2.81,0,0,1-.58-.66,3.59,3.59,0,0,1-.38-.82l-.35,1.91H282V17.38h3.08v5.23a1.91,1.91,0,0,1,.47-.58,2.53,2.53,0,0,1,.64-.42,4.74,4.74,0,0,1,.75-.26,3.7,3.7,0,0,1,.83-.09,3.23,3.23,0,0,1,2.69,1.27,5.68,5.68,0,0,1,1,3.51,6.76,6.76,0,0,1-.45,2.58,3.69,3.69,0,0,1-1.34,1.7A3.74,3.74,0,0,1,287.43,30.93Zm-.7-2.17a1.51,1.51,0,0,0,1.22-.61,3.48,3.48,0,0,0,.49-2.12,3.2,3.2,0,0,0-.48-2,1.6,1.6,0,0,0-2.14-.33,1.71,1.71,0,0,0-.56.84,4.64,4.64,0,0,0-.19,1.47,3.84,3.84,0,0,0,.43,2.12A1.41,1.41,0,0,0,286.73,28.76Z"/><path d="M296.3,30.93a4,4,0,0,1-1.22-.2,3.77,3.77,0,0,1-1.15-.58,3,3,0,0,1-.84-.93,2.57,2.57,0,0,1-.32-1.29V21.44h3.07v6.09a1.15,1.15,0,0,0,.36.87,1.45,1.45,0,0,0,1,.34,1.49,1.49,0,0,0,1-.33,1.18,1.18,0,0,0,.38-.91V21.44h3.11l-.07,9.31H299.4L299,28.87a2.48,2.48,0,0,1-.63,1.31,2.31,2.31,0,0,1-1,.6A4.37,4.37,0,0,1,296.3,30.93Z"/><path d="M309.71,23.54h-2v4.59a.78.78,0,0,0,.08.42.43.43,0,0,0,.24.18,1.38,1.38,0,0,0,.38,0h1.35v1.85a4.2,4.2,0,0,1-.59.17,5.57,5.57,0,0,1-1.16.09,5.17,5.17,0,0,1-2.07-.34,2,2,0,0,1-1-.94,3,3,0,0,1-.28-1.33V23.54h-1.52v-2.1h1.62l.79-2.85h2.17v2.84h2Z"/><path d="M314.51,17.74V20.4h-2.95V17.74Zm0,3.7v9.31h-2.93V21.44Z"/><path d="M320.77,30.93a4.77,4.77,0,0,1-2.44-.6,4.09,4.09,0,0,1-1.6-1.67,5.28,5.28,0,0,1-.57-2.51,5.52,5.52,0,0,1,.58-2.56,4.31,4.31,0,0,1,1.62-1.71,5.11,5.11,0,0,1,4.88,0,4.13,4.13,0,0,1,1.59,1.72,5.6,5.6,0,0,1,.56,2.55,5.29,5.29,0,0,1-.56,2.47,4.11,4.11,0,0,1-1.59,1.69A4.65,4.65,0,0,1,320.77,30.93Zm0-2.25a1.24,1.24,0,0,0,1-.39,2.1,2.1,0,0,0,.5-1,5.19,5.19,0,0,0,.15-1.24,5.41,5.41,0,0,0-.14-1.21,2.07,2.07,0,0,0-.49-1,1.49,1.49,0,0,0-2,0,2.18,2.18,0,0,0-.5,1,4.93,4.93,0,0,0-.15,1.23,5.57,5.57,0,0,0,.14,1.22,2.28,2.28,0,0,0,.49,1A1.25,1.25,0,0,0,320.79,28.68Z"/><path d="M326.94,30.75V21.44h3v1.31a3.06,3.06,0,0,1,.53-.63,2.67,2.67,0,0,1,.84-.52,3.25,3.25,0,0,1,1.24-.21,4,4,0,0,1,1.58.32,2.71,2.71,0,0,1,1.2,1,3.29,3.29,0,0,1,.47,1.85v6.16h-3.07V25a1.08,1.08,0,0,0-.4-.92,1.42,1.42,0,0,0-.92-.31,1.77,1.77,0,0,0-.67.13,1.35,1.35,0,0,0-.55.39,1,1,0,0,0-.21.64v5.83Z"/><path d="M345.51,30.93a4.8,4.8,0,0,1-2.44-.6,4.09,4.09,0,0,1-1.6-1.67,5.28,5.28,0,0,1-.57-2.51,5.52,5.52,0,0,1,.58-2.56,4.31,4.31,0,0,1,1.62-1.71,5.11,5.11,0,0,1,4.88,0,4.13,4.13,0,0,1,1.59,1.72,5.6,5.6,0,0,1,.56,2.55,5.29,5.29,0,0,1-.56,2.47A4.11,4.11,0,0,1,348,30.31,4.65,4.65,0,0,1,345.51,30.93Zm0-2.25a1.27,1.27,0,0,0,1-.39,2.19,2.19,0,0,0,.49-1,5.19,5.19,0,0,0,.15-1.24,5.41,5.41,0,0,0-.14-1.21,2.07,2.07,0,0,0-.49-1,1.28,1.28,0,0,0-1-.38,1.3,1.3,0,0,0-1,.37,2.18,2.18,0,0,0-.5,1,4.93,4.93,0,0,0-.15,1.23,5.57,5.57,0,0,0,.14,1.22,2.28,2.28,0,0,0,.49,1A1.25,1.25,0,0,0,345.53,28.68Z"/><path d="M357.33,21.44v2.1H355.5v7.21h-3.07V23.54h-1.61v-2.1h1.61V20.16a2.28,2.28,0,0,1,.71-1.78,2.82,2.82,0,0,1,2-.64h2.3l0,2h-1.15a.82.82,0,0,0-.65.22,1.23,1.23,0,0,0-.18.76v.72Z"/><path d="M362.63,30.75v-13h5a6.22,6.22,0,0,1,2.56.5,4.22,4.22,0,0,1,1.8,1.47,4,4,0,0,1,.67,2.37,4,4,0,0,1-.58,2.21,3.7,3.7,0,0,1-1.61,1.41,5.79,5.79,0,0,1-2.45.49h-2.29v4.56Zm3.05-6.88h2.23a1.8,1.8,0,0,0,1.36-.58,2,2,0,0,0,.53-1.38,1.75,1.75,0,0,0-.57-1.34,1.93,1.93,0,0,0-1.35-.53h-2.2Z"/><path d="M376.66,30.93a3.67,3.67,0,0,1-1.6-.34,2.68,2.68,0,0,1-1.15-1,2.78,2.78,0,0,1-.43-1.59,2.68,2.68,0,0,1,1.18-2.34,6.55,6.55,0,0,1,3.67-.82h.95v-.48a1,1,0,0,0-.31-.82,1.39,1.39,0,0,0-1-.26,2.32,2.32,0,0,0-.94.21,1.3,1.3,0,0,0-.68.78h-2.51a2.75,2.75,0,0,1,.63-1.72,3.32,3.32,0,0,1,1.52-1,6.69,6.69,0,0,1,2.12-.32,6.61,6.61,0,0,1,2.42.37,2.53,2.53,0,0,1,1.28,1,3,3,0,0,1,.38,1.53v6.57h-2.54l-.28-1.54a2.7,2.7,0,0,1-1.1,1.35A3.25,3.25,0,0,1,376.66,30.93Zm1.06-2a1.71,1.71,0,0,0,.59-.11,1.54,1.54,0,0,0,.49-.3,1.74,1.74,0,0,0,.34-.43,1.07,1.07,0,0,0,.14-.5V26.35h-.76a3.76,3.76,0,0,0-1,.13,2.21,2.21,0,0,0-.84.42,1,1,0,0,0-.34.8,1.12,1.12,0,0,0,.4.92A1.45,1.45,0,0,0,377.72,29Z"/><path d="M384.33,30.75V21.44h3v2.39a4.6,4.6,0,0,1,.62-1.28,3.16,3.16,0,0,1,1-.93,2.91,2.91,0,0,1,1.47-.36h.15v2.92l-.14,0a4.44,4.44,0,0,0-1.88.12,1.58,1.58,0,0,0-.9.7,2.13,2.13,0,0,0-.24,1v4.78Z"/><path d="M398.05,23.54h-2v4.59a.89.89,0,0,0,.08.42.43.43,0,0,0,.24.18,1.38,1.38,0,0,0,.38,0h1.35v1.85a4.2,4.2,0,0,1-.59.17,5.57,5.57,0,0,1-1.16.09,5.17,5.17,0,0,1-2.07-.34,2,2,0,0,1-1-.94,3,3,0,0,1-.28-1.33V23.54h-1.51v-2.1h1.62l.78-2.85H396v2.84h2Z"/><path d="M402.85,17.74V20.4h-2.94V17.74Zm0,3.7v9.31h-2.93V21.44Z"/><path d="M409.09,21.26a4.21,4.21,0,0,1,2.14.52,3.67,3.67,0,0,1,1.36,1.38A4.15,4.15,0,0,1,413.1,25h-2.51a2.6,2.6,0,0,0-.2-.66,1.62,1.62,0,0,0-.46-.58,1.25,1.25,0,0,0-.8-.24,1.58,1.58,0,0,0-1.3.63,3.1,3.1,0,0,0-.49,1.92,3.42,3.42,0,0,0,.5,2,1.59,1.59,0,0,0,1.35.71,1.17,1.17,0,0,0,.78-.26,1.93,1.93,0,0,0,.46-.61,2.41,2.41,0,0,0,.19-.6h2.44a3.62,3.62,0,0,1-.49,1.79,3.53,3.53,0,0,1-1.36,1.32,4.23,4.23,0,0,1-2.12.5,4.71,4.71,0,0,1-2.35-.59,4.29,4.29,0,0,1-1.64-1.66,5.16,5.16,0,0,1-.6-2.54,5.35,5.35,0,0,1,.59-2.54,4.31,4.31,0,0,1,1.62-1.71A4.53,4.53,0,0,1,409.09,21.26Z"/><path d="M417.77,17.74V20.4h-2.94V17.74Zm0,3.7v9.31h-2.92V21.44Z"/><path d="M419.93,33.65V21.44H423v1.21a2.62,2.62,0,0,1,.55-.6,2.75,2.75,0,0,1,.69-.43,3.9,3.9,0,0,1,.77-.27,3.63,3.63,0,0,1,.8-.09,3.21,3.21,0,0,1,1.79.52,3.42,3.42,0,0,1,1.26,1.57,7,7,0,0,1,.45,2.7,6.44,6.44,0,0,1-.52,2.81,3.53,3.53,0,0,1-1.39,1.57,3.78,3.78,0,0,1-1.91.5,2.7,2.7,0,0,1-1.42-.38,2.62,2.62,0,0,1-.6-.45,3,3,0,0,1-.49-.62v4.17Zm4.81-4.93a1.53,1.53,0,0,0,1.23-.63,3.24,3.24,0,0,0,.51-2,3.14,3.14,0,0,0-.5-1.92,1.49,1.49,0,0,0-1.24-.69,1.42,1.42,0,0,0-1.32.76,3.8,3.8,0,0,0-.42,1.85,4.5,4.5,0,0,0,.18,1.28,2.39,2.39,0,0,0,.57,1A1.33,1.33,0,0,0,424.74,28.72Z"/><path d="M433.62,30.93a3.67,3.67,0,0,1-1.6-.34,2.74,2.74,0,0,1-1.15-1,2.78,2.78,0,0,1-.43-1.59,2.68,2.68,0,0,1,1.18-2.34,6.53,6.53,0,0,1,3.67-.82h.95v-.48a1,1,0,0,0-.31-.82,1.37,1.37,0,0,0-1-.26,2.32,2.32,0,0,0-.94.21,1.3,1.3,0,0,0-.68.78h-2.51a2.75,2.75,0,0,1,.63-1.72,3.32,3.32,0,0,1,1.52-1,6.71,6.71,0,0,1,2.13-.32,6.59,6.59,0,0,1,2.41.37,2.53,2.53,0,0,1,1.28,1,3,3,0,0,1,.38,1.53v6.57h-2.55l-.26-1.54a2.76,2.76,0,0,1-1.11,1.35A3.25,3.25,0,0,1,433.62,30.93Zm1.06-2a1.67,1.67,0,0,0,.59-.11,1.54,1.54,0,0,0,.49-.3,1.74,1.74,0,0,0,.34-.43,1.07,1.07,0,0,0,.14-.5V26.35h-.76a3.76,3.76,0,0,0-1,.13,2.21,2.21,0,0,0-.84.42,1,1,0,0,0-.34.8,1.12,1.12,0,0,0,.4.92A1.46,1.46,0,0,0,434.68,29Z"/><path d="M441.29,30.75V21.44h3v1.31a3.12,3.12,0,0,1,.54-.63,2.62,2.62,0,0,1,.83-.52,3.28,3.28,0,0,1,1.24-.21,4,4,0,0,1,1.58.32,2.68,2.68,0,0,1,1.21,1,3.29,3.29,0,0,1,.46,1.85v6.16H447.1V25a1.1,1.1,0,0,0-.39-.92,1.46,1.46,0,0,0-.92-.31,1.79,1.79,0,0,0-.68.13,1.26,1.26,0,0,0-.54.39,1,1,0,0,0-.21.64v5.83Z"/><path d="M457.79,23.54h-2v4.59a.89.89,0,0,0,.08.42.43.43,0,0,0,.24.18,1.43,1.43,0,0,0,.38,0h1.35v1.85a4,4,0,0,1-.58.17,5.64,5.64,0,0,1-1.16.09,5.19,5.19,0,0,1-2.08-.34,2,2,0,0,1-1-.94,3.16,3.16,0,0,1-.28-1.33V23.54h-1.51v-2.1h1.62l.78-2.85h2.17v2.84h2Z"/><path d="M459.42,23.16l1.06-2.54-1-.11V17.74h2.93v2.45l-1.95,3Z"/><path d="M467.15,30.93a5.88,5.88,0,0,1-1.9-.32,3.9,3.9,0,0,1-1.58-1,3.5,3.5,0,0,1-.85-1.85h2.63a1.3,1.3,0,0,0,.43.73,1.63,1.63,0,0,0,.65.34,2.56,2.56,0,0,0,.6.09,2.52,2.52,0,0,0,1.08-.19.62.62,0,0,0,.42-.58.59.59,0,0,0-.26-.5,2.06,2.06,0,0,0-.88-.3L466,27a4.57,4.57,0,0,1-2.07-.89,2.32,2.32,0,0,1-.79-1.85,2.68,2.68,0,0,1,.46-1.54A3,3,0,0,1,465,21.67a5.45,5.45,0,0,1,2.23-.41,4.71,4.71,0,0,1,2.88.8,2.59,2.59,0,0,1,1.08,2.18h-2.52a1.09,1.09,0,0,0-.51-.72,1.81,1.81,0,0,0-1-.25,2.28,2.28,0,0,0-1,.19.63.63,0,0,0-.39.59.53.53,0,0,0,.34.47,4.34,4.34,0,0,0,1.09.33l1.36.28a4.13,4.13,0,0,1,1.35.55,3,3,0,0,1,.81.75,2.51,2.51,0,0,1,.39.81,2.79,2.79,0,0,1,.11.7,2.55,2.55,0,0,1-.53,1.63,3.28,3.28,0,0,1-1.45,1A5.78,5.78,0,0,1,467.15,30.93Z"/><path d="M482.24,17.56a5.88,5.88,0,0,1,2.69.6,4.94,4.94,0,0,1,2.78,4H484.5a3,3,0,0,0-.4-1.13,2.21,2.21,0,0,0-.8-.75,2.34,2.34,0,0,0-1.16-.27,2.42,2.42,0,0,0-1.37.39,2.51,2.51,0,0,0-.91,1.3,7.51,7.51,0,0,0-.32,2.41,5.83,5.83,0,0,0,.71,3.31,2.22,2.22,0,0,0,1.89,1,2,2,0,0,0,1.16-.33,2.4,2.4,0,0,0,.8-.87,3.58,3.58,0,0,0,.4-1.18h3.21a8.54,8.54,0,0,1-.45,1.84,4.61,4.61,0,0,1-.95,1.56,4,4,0,0,1-1.61,1.07,6.79,6.79,0,0,1-2.46.39,5.62,5.62,0,0,1-5.32-3.28,8,8,0,0,1-.75-3.55,7.62,7.62,0,0,1,.74-3.47,5.31,5.31,0,0,1,2.1-2.27A6.22,6.22,0,0,1,482.24,17.56Z"/><path d="M495.52,30.93a6.35,6.35,0,0,1-3.27-.81,5.62,5.62,0,0,1-2.14-2.31,7.83,7.83,0,0,1-.75-3.54,7.76,7.76,0,0,1,.76-3.56,5.64,5.64,0,0,1,2.15-2.33,6.25,6.25,0,0,1,3.25-.82,6.12,6.12,0,0,1,3.22.82,5.61,5.61,0,0,1,2.14,2.33,7.76,7.76,0,0,1,.76,3.56,7.83,7.83,0,0,1-.75,3.54,5.45,5.45,0,0,1-2.12,2.31A6.3,6.3,0,0,1,495.52,30.93Zm0-2.48A2.66,2.66,0,0,0,497,28a2.62,2.62,0,0,0,1-1.32,6.69,6.69,0,0,0,.35-2.4,7.3,7.3,0,0,0-.35-2.48,2.69,2.69,0,0,0-1-1.37,2.71,2.71,0,0,0-2.93,0,2.83,2.83,0,0,0-1,1.38,7,7,0,0,0-.36,2.47,6.67,6.67,0,0,0,.36,2.4,2.69,2.69,0,0,0,1,1.32A2.66,2.66,0,0,0,495.52,28.45Z"/><path d="M514.59,17.74l-4.44,13h-3.41l-4.43-13h2.9l3.24,9.43,3.23-9.43Z"/><path d="M516.23,17.74h3.07v13h-3.07Z"/><path d="M522,17.74h3.21l1.09,0a8.57,8.57,0,0,1,3.84.89,5,5,0,0,1,2.19,2.23,7.38,7.38,0,0,1,.7,3.32,7.64,7.64,0,0,1-.74,3.44,5.21,5.21,0,0,1-2.23,2.3,7.9,7.9,0,0,1-3.83.82H522ZM525,20.18v8.13h1.24a3.73,3.73,0,0,0,1.7-.4,3.14,3.14,0,0,0,1.31-1.32,5.1,5.1,0,0,0,.5-2.44,5.08,5.08,0,0,0-.43-2.24,3,3,0,0,0-1.21-1.31,3.89,3.89,0,0,0-1.85-.42Z"/><path d="M540,25v2.19h-5.06V25Z"/><path d="M542.83,30.75V21.27h-2.25V19.62a5.7,5.7,0,0,0,1.81-.24,2.39,2.39,0,0,0,1.08-.65,1.87,1.87,0,0,0,.45-1h2v13Z"/><path d="M553.45,30.88a5.85,5.85,0,0,1-2.38-.48,4.6,4.6,0,0,1-1.8-1.37,3.43,3.43,0,0,1-.73-2.07h2.89a1.82,1.82,0,0,0,1.88,1.53,3,3,0,0,0,1.49-.36,2.23,2.23,0,0,0,1-1.17,4.82,4.82,0,0,0,.23-2.19,2.76,2.76,0,0,1-.7.66,3.18,3.18,0,0,1-1,.43,4.33,4.33,0,0,1-1.24.16,5.34,5.34,0,0,1-2.38-.51,4,4,0,0,1-1.64-1.41,3.88,3.88,0,0,1-.59-2.17,4.05,4.05,0,0,1,.63-2.25,4.31,4.31,0,0,1,1.79-1.55,5.84,5.84,0,0,1,2.65-.56,5.48,5.48,0,0,1,3,.78,5.11,5.11,0,0,1,1.91,2.21,8,8,0,0,1,.66,3.36,9.44,9.44,0,0,1-.7,3.93,4.8,4.8,0,0,1-1.95,2.28A5.82,5.82,0,0,1,553.45,30.88Zm.22-7.26a2.19,2.19,0,0,0,.94-.21,2.66,2.66,0,0,0,.76-.51.86.86,0,0,0,.3-.58,3.31,3.31,0,0,0-.25-1.38,1.81,1.81,0,0,0-.7-.85,1.88,1.88,0,0,0-1-.28,1.83,1.83,0,0,0-1,.25,1.86,1.86,0,0,0-.69.7,2,2,0,0,0-.25,1,1.69,1.69,0,0,0,.55,1.35A2,2,0,0,0,553.67,23.62Z"/><path d="M564.87,30.75v-13h9.28l0,2.55H568V23h5.27v2.5h-5.28v2.72h6.26v2.57Z"/><path d="M576,30.75V21.44h3v2.39a4.92,4.92,0,0,1,.63-1.28,3.06,3.06,0,0,1,1-.93,2.89,2.89,0,0,1,1.47-.36h.15v2.92l-.14,0a4.43,4.43,0,0,0-1.88.12,1.58,1.58,0,0,0-.9.7,2,2,0,0,0-.25,1v4.78Z"/><path d="M586.21,30.93a3.63,3.63,0,0,1-1.59-.34,2.71,2.71,0,0,1-1.16-1A2.85,2.85,0,0,1,583,28a2.69,2.69,0,0,1,1.17-2.34,6.57,6.57,0,0,1,3.68-.82h.94v-.48a1,1,0,0,0-.31-.82,1.37,1.37,0,0,0-1-.26,2.32,2.32,0,0,0-.94.21,1.26,1.26,0,0,0-.67.78h-2.52a2.81,2.81,0,0,1,.63-1.72,3.37,3.37,0,0,1,1.52-1,6.71,6.71,0,0,1,2.13-.32,6.55,6.55,0,0,1,2.41.37,2.48,2.48,0,0,1,1.28,1,2.9,2.9,0,0,1,.39,1.53v6.57h-2.55L589,29.21a2.7,2.7,0,0,1-1.1,1.35A3.29,3.29,0,0,1,586.21,30.93Zm1.07-2a1.66,1.66,0,0,0,.58-.11,1.44,1.44,0,0,0,.49-.3,1.54,1.54,0,0,0,.34-.43,1,1,0,0,0,.14-.5V26.35h-.75a3.65,3.65,0,0,0-1,.13,2.21,2.21,0,0,0-.84.42,1,1,0,0,0-.34.8,1.12,1.12,0,0,0,.4.92A1.43,1.43,0,0,0,587.28,29Z"/><path d="M597.87,30.75v-13h4.52l2.53,8.6,2.57-8.6H612v13H608.9V21.06l-2.83,9.69h-2.29L601,21.08v9.67Z"/><path d="M616.63,26.8a2.51,2.51,0,0,0,.2,1.08,1.52,1.52,0,0,0,.59.66,1.67,1.67,0,0,0,.88.22,2.18,2.18,0,0,0,1-.23,1.56,1.56,0,0,0,.66-.84h2.73a3.35,3.35,0,0,1-.82,1.75,4.4,4.4,0,0,1-1.57,1.11,5.41,5.41,0,0,1-4.43-.2,4.21,4.21,0,0,1-1.67-1.65,5,5,0,0,1-.6-2.49,5.48,5.48,0,0,1,.55-2.48,4.28,4.28,0,0,1,1.58-1.79,4.47,4.47,0,0,1,2.5-.68,4.58,4.58,0,0,1,2.46.62,3.88,3.88,0,0,1,1.49,1.69,5.86,5.86,0,0,1,.5,2.47v.76Zm0-1.76h3.23a2,2,0,0,0-.18-.85,1.42,1.42,0,0,0-.54-.6,1.66,1.66,0,0,0-.89-.23,1.49,1.49,0,0,0-.85.24,1.78,1.78,0,0,0-.57.62A1.69,1.69,0,0,0,616.62,25Z"/><path d="M624.34,30.75V21.44h3v1.31a3.89,3.89,0,0,1,1.18-1.05,3.5,3.5,0,0,1,1.82-.44,2.93,2.93,0,0,1,.95.17,3.18,3.18,0,0,1,.92.5,2.92,2.92,0,0,1,.71.81,3.89,3.89,0,0,1,1.19-1,3.13,3.13,0,0,1,1.62-.44,3.4,3.4,0,0,1,1.07.19,2.78,2.78,0,0,1,1,.58,3,3,0,0,1,.72,1,3.9,3.9,0,0,1,.27,1.54v6.16h-3.07V25a1.19,1.19,0,0,0-.19-.71,1.14,1.14,0,0,0-.49-.41,1.5,1.5,0,0,0-.62-.13,1.46,1.46,0,0,0-.61.13,1.23,1.23,0,0,0-.52.38,1.05,1.05,0,0,0-.21.67v5.83H630V24.87a1,1,0,0,0-.2-.62,1.23,1.23,0,0,0-.49-.38,1.44,1.44,0,0,0-.6-.13,1.5,1.5,0,0,0-.62.13,1.19,1.19,0,0,0-.51.4,1,1,0,0,0-.2.65v5.83Z"/><path d="M644.86,30.93a4.77,4.77,0,0,1-2.44-.6,4,4,0,0,1-1.6-1.67,5.28,5.28,0,0,1-.57-2.51,5.4,5.4,0,0,1,.58-2.56,4.31,4.31,0,0,1,1.62-1.71,5.09,5.09,0,0,1,4.87,0,4.22,4.22,0,0,1,1.6,1.72,5.6,5.6,0,0,1,.55,2.55,5.29,5.29,0,0,1-.55,2.47,4.25,4.25,0,0,1-1.59,1.69A4.65,4.65,0,0,1,644.86,30.93Zm0-2.25a1.25,1.25,0,0,0,1-.39,2.2,2.2,0,0,0,.5-1,5.19,5.19,0,0,0,.15-1.24,5.41,5.41,0,0,0-.14-1.21,2.07,2.07,0,0,0-.49-1,1.49,1.49,0,0,0-2,0,2,2,0,0,0-.5,1,4.93,4.93,0,0,0-.15,1.23,5,5,0,0,0,.14,1.22,2.18,2.18,0,0,0,.49,1A1.25,1.25,0,0,0,644.88,28.68Z"/><path d="M651,30.75V21.44h3v2.39a4.63,4.63,0,0,1,.63-1.28,3,3,0,0,1,1-.93,2.85,2.85,0,0,1,1.46-.36h.16v2.92l-.15,0a4.46,4.46,0,0,0-1.88.12,1.58,1.58,0,0,0-.9.7,2.13,2.13,0,0,0-.24,1v4.78Z"/><path d="M661.55,17.74V20.4h-2.94V17.74Zm0,3.7v9.31h-2.92V21.44Z"/><path d="M666.29,26.8a2.38,2.38,0,0,0,.19,1.08,1.52,1.52,0,0,0,.59.66,1.67,1.67,0,0,0,.88.22,2.18,2.18,0,0,0,1-.23,1.51,1.51,0,0,0,.66-.84h2.73a3.42,3.42,0,0,1-.81,1.75A4.44,4.44,0,0,1,670,30.55a5.41,5.41,0,0,1-4.43-.2,4.21,4.21,0,0,1-1.67-1.65,5,5,0,0,1-.6-2.49,5.48,5.48,0,0,1,.55-2.48,4.35,4.35,0,0,1,1.58-1.79,4.49,4.49,0,0,1,2.5-.68,4.58,4.58,0,0,1,2.46.62,3.88,3.88,0,0,1,1.49,1.69,5.71,5.71,0,0,1,.5,2.47v.76Zm0-1.76h3.23a2,2,0,0,0-.18-.85,1.42,1.42,0,0,0-.54-.6,1.66,1.66,0,0,0-.89-.23,1.49,1.49,0,0,0-.85.24,1.78,1.78,0,0,0-.57.62A1.81,1.81,0,0,0,666.27,25Z"/><path d="M677.81,30.93a5.82,5.82,0,0,1-1.89-.32,3.87,3.87,0,0,1-1.59-1,3.42,3.42,0,0,1-.84-1.85h2.62a1.3,1.3,0,0,0,.43.73,1.63,1.63,0,0,0,.65.34,2.69,2.69,0,0,0,1.69-.1.62.62,0,0,0,.41-.58.56.56,0,0,0-.26-.5,2.06,2.06,0,0,0-.88-.3L676.63,27a4.48,4.48,0,0,1-2.06-.89,2.3,2.3,0,0,1-.8-1.85,2.68,2.68,0,0,1,.46-1.54,3,3,0,0,1,1.38-1.08,5.45,5.45,0,0,1,2.23-.41,4.71,4.71,0,0,1,2.88.8,2.59,2.59,0,0,1,1.08,2.18h-2.52a1.05,1.05,0,0,0-.51-.72,1.8,1.8,0,0,0-1-.25,2.29,2.29,0,0,0-1,.19.63.63,0,0,0-.39.59.53.53,0,0,0,.34.47,4.34,4.34,0,0,0,1.09.33l1.36.28a4.19,4.19,0,0,1,1.36.55,3.06,3.06,0,0,1,.8.75,2.51,2.51,0,0,1,.39.81,2.4,2.4,0,0,1,.11.7,2.55,2.55,0,0,1-.53,1.63,3.22,3.22,0,0,1-1.45,1A5.78,5.78,0,0,1,677.81,30.93Z"/><path d="M70.33,276.76v-2.38H80.45v2.15L74,281h6.49v2.39H70.33V281l6.17-4.28Z"/><path d="M80.59,269.88a3.19,3.19,0,0,1-.15.95,3.55,3.55,0,0,1-.45.89,2.38,2.38,0,0,1-.73.65,1.93,1.93,0,0,1-1,.25H73.21v-2.39H78a.9.9,0,0,0,.67-.27,1.13,1.13,0,0,0,.27-.81,1.18,1.18,0,0,0-.26-.8.93.93,0,0,0-.71-.29H73.21v-2.43l7.24.06v1.78l-1.46.28a1.88,1.88,0,0,1,1,.49,1.8,1.8,0,0,1,.46.8A3.27,3.27,0,0,1,80.59,269.88Z"/><path d="M80.45,264.12H73.21v-2.35h1a3,3,0,0,1-.82-.91,2.79,2.79,0,0,1-.34-1.42,2.45,2.45,0,0,1,.13-.74,2.6,2.6,0,0,1,.39-.71,2.27,2.27,0,0,1,.63-.56,3,3,0,0,1-.81-.92,2.48,2.48,0,0,1-.34-1.26,2.53,2.53,0,0,1,.15-.84,2,2,0,0,1,.45-.76,2.13,2.13,0,0,1,.79-.56,3.07,3.07,0,0,1,1.2-.21h4.79v2.38H76a.92.92,0,0,0-.55.15.9.9,0,0,0-.32.38,1.19,1.19,0,0,0-.1.49,1.14,1.14,0,0,0,.1.47,1,1,0,0,0,.3.41.79.79,0,0,0,.52.16h4.53v2.37H75.88a.76.76,0,0,0-.48.15,1,1,0,0,0-.3.38,1.17,1.17,0,0,0-.1.47,1.19,1.19,0,0,0,.1.49.92.92,0,0,0,.31.39.78.78,0,0,0,.51.16h4.53Z"/><path d="M80.59,247.13a2.79,2.79,0,0,1-.12.86,2.13,2.13,0,0,1-.35.65,2,2,0,0,1-.52.45,3.64,3.64,0,0,1-.63.3l1.48.27v1.71H70.05V249h4.07a1.49,1.49,0,0,1-.45-.37,2.41,2.41,0,0,1-.33-.5,3.6,3.6,0,0,1-.2-.58,3.41,3.41,0,0,1-.07-.65,2.48,2.48,0,0,1,1-2.09,4.39,4.39,0,0,1,2.73-.75,5.3,5.3,0,0,1,2,.35,3,3,0,0,1,1.33,1.05A3,3,0,0,1,80.59,247.13Zm-1.69.55a1.17,1.17,0,0,0-.47-.94,2.66,2.66,0,0,0-1.65-.39,2.54,2.54,0,0,0-1.54.37,1.19,1.19,0,0,0-.47,1,1.16,1.16,0,0,0,.21.7,1.37,1.37,0,0,0,.66.44,3.62,3.62,0,0,0,1.14.15,3,3,0,0,0,1.65-.34A1.08,1.08,0,0,0,78.9,247.68Z"/><path d="M77.38,240.8a2.1,2.1,0,0,0,.84-.15,1.2,1.2,0,0,0,.51-.46,1.29,1.29,0,0,0,.17-.69,1.66,1.66,0,0,0-.18-.78,1.2,1.2,0,0,0-.65-.52v-2.12a2.72,2.72,0,0,1,1.36.63,3.23,3.23,0,0,1,.86,1.23,3.91,3.91,0,0,1,.3,1.51,4,4,0,0,1-.45,1.93,3.29,3.29,0,0,1-1.28,1.31,3.89,3.89,0,0,1-1.94.46,4.24,4.24,0,0,1-1.93-.43,3.31,3.31,0,0,1-1.39-1.23,3.45,3.45,0,0,1-.53-1.94,3.54,3.54,0,0,1,.48-1.91,3,3,0,0,1,1.32-1.16,4.46,4.46,0,0,1,1.91-.39h.6Zm-1.37,0V238.3a1.59,1.59,0,0,0-.66.14,1.06,1.06,0,0,0-.47.42,1.27,1.27,0,0,0-.18.69,1.17,1.17,0,0,0,.19.66,1.27,1.27,0,0,0,.48.44A1.29,1.29,0,0,0,76,240.81Z"/><path d="M80.45,234.81H73.21V232.5h1.86a3.69,3.69,0,0,1-1-.48,2.4,2.4,0,0,1-.72-.8,2.24,2.24,0,0,1-.28-1.14V230a.06.06,0,0,1,0,0h2.27s0,0,0,.11a3.58,3.58,0,0,0,.09,1.46,1.25,1.25,0,0,0,.54.7,1.6,1.6,0,0,0,.77.19h3.72Z"/><path d="M80.59,222.91a3.71,3.71,0,0,1-.46,1.9,3.22,3.22,0,0,1-1.31,1.25,4.13,4.13,0,0,1-1.95.44,4.26,4.26,0,0,1-2-.45,3.3,3.3,0,0,1-1.33-1.26,4,4,0,0,1,0-3.79,3.21,3.21,0,0,1,1.34-1.24,4.31,4.31,0,0,1,2-.44,4.13,4.13,0,0,1,1.93.44A3.3,3.3,0,0,1,80.11,221,3.7,3.7,0,0,1,80.59,222.91Zm-1.75,0a1,1,0,0,0-.3-.76,1.85,1.85,0,0,0-.78-.39,4.42,4.42,0,0,0-1-.11,4.33,4.33,0,0,0-1,.11,1.56,1.56,0,0,0-.76.38,1,1,0,0,0-.29.77,1,1,0,0,0,.29.77,1.69,1.69,0,0,0,.74.39,3.85,3.85,0,0,0,1,.11,4.38,4.38,0,0,0,1-.1,1.8,1.8,0,0,0,.78-.39A1,1,0,0,0,78.84,222.9Z"/><path d="M73.21,213.72h1.63v1.42h5.61v2.39H74.84v1.26H73.21v-1.26h-1a1.75,1.75,0,0,1-1.38-.55,2.21,2.21,0,0,1-.5-1.52v-1.79l1.56,0v.9a.63.63,0,0,0,.17.5.92.92,0,0,0,.59.14h.56Z"/><path d="M70.19,205.28a4.44,4.44,0,0,1,.47-2.09A3.87,3.87,0,0,1,73.79,201v2.49a2.21,2.21,0,0,0-.87.32,1.64,1.64,0,0,0-.59.61,1.88,1.88,0,0,0-.21.91,1.81,1.81,0,0,0,.31,1.06,1.93,1.93,0,0,0,1,.71,5.69,5.69,0,0,0,1.88.25,4.54,4.54,0,0,0,2.57-.55,1.72,1.72,0,0,0,.78-1.47,1.61,1.61,0,0,0-.25-.91,1.91,1.91,0,0,0-.68-.61,2.65,2.65,0,0,0-.92-.32V201a6.11,6.11,0,0,1,1.43.35,3.61,3.61,0,0,1,1.22.73,3.26,3.26,0,0,1,.83,1.26,5.28,5.28,0,0,1,.3,1.91,4.54,4.54,0,0,1-.67,2.5A4.49,4.49,0,0,1,78,209.42a6.19,6.19,0,0,1-2.76.58,6,6,0,0,1-2.7-.57,4.25,4.25,0,0,1-1.77-1.64A4.92,4.92,0,0,1,70.19,205.28Z"/><path d="M80.59,195a4.91,4.91,0,0,1-.63,2.54,4.28,4.28,0,0,1-1.8,1.67,6.7,6.7,0,0,1-5.52,0,4.37,4.37,0,0,1-1.81-1.67,5.28,5.28,0,0,1,0-5,4.41,4.41,0,0,1,1.81-1.66,6.12,6.12,0,0,1,2.77-.59,6,6,0,0,1,2.75.58,4.24,4.24,0,0,1,1.8,1.65A4.92,4.92,0,0,1,80.59,195Zm-1.93,0a2.08,2.08,0,0,0-.32-1.14,2,2,0,0,0-1-.76,5.4,5.4,0,0,0-1.87-.27,5.7,5.7,0,0,0-1.93.27,2.16,2.16,0,0,0-1.07.77,2.09,2.09,0,0,0,0,2.27,2.17,2.17,0,0,0,1.07.77,5.6,5.6,0,0,0,1.92.27,5.4,5.4,0,0,0,1.87-.27A1.93,1.93,0,0,0,78.66,195Z"/><path d="M70.33,180.12l10.12,3.46v2.65l-10.12,3.44v-2.26l7.34-2.51-7.34-2.52Z"/><path d="M70.33,178.84v-2.38H80.45v2.38Z"/><path d="M70.33,174.38V173c0-.36,0-.71,0-1.06s0-.63,0-.85a6.73,6.73,0,0,1,.69-3,4,4,0,0,1,1.74-1.7,5.77,5.77,0,0,1,2.58-.54,5.9,5.9,0,0,1,2.67.57,4.06,4.06,0,0,1,1.79,1.74,6.11,6.11,0,0,1,.64,3v3.29Zm1.9-2.39h6.32v-1a2.84,2.84,0,0,0-.31-1.31,2.39,2.39,0,0,0-1-1,3.94,3.94,0,0,0-1.9-.4,4,4,0,0,0-1.74.34,2.2,2.2,0,0,0-1,1,2.93,2.93,0,0,0-.33,1.43Z"/><path d="M76,160.4h1.71v3.93H76Z"/><path d="M80.45,158.16H73.08v1.74H71.79a4.54,4.54,0,0,0-.18-1.4,1.82,1.82,0,0,0-.51-.84,1.4,1.4,0,0,0-.77-.35v-1.55H80.45Z"/><path d="M80.55,149.9a4.74,4.74,0,0,1-.37,1.85,3.57,3.57,0,0,1-1.07,1.4,2.58,2.58,0,0,1-1.61.56v-2.24a1.51,1.51,0,0,0,.87-.49,1.45,1.45,0,0,0,.32-1,2.34,2.34,0,0,0-.28-1.16,1.74,1.74,0,0,0-.91-.76,3.62,3.62,0,0,0-1.7-.18,1.88,1.88,0,0,1,.51.54,2.51,2.51,0,0,1,.34.76,3.5,3.5,0,0,1,.12,1,4.22,4.22,0,0,1-.39,1.85,3.17,3.17,0,0,1-4.54,1.24,3.47,3.47,0,0,1-1.21-1.38,4.7,4.7,0,0,1-.43-2.07,4.19,4.19,0,0,1,.61-2.31A3.9,3.9,0,0,1,72.53,146a6.2,6.2,0,0,1,2.61-.51,7.5,7.5,0,0,1,3.06.53A3.73,3.73,0,0,1,80,147.56,4.46,4.46,0,0,1,80.55,149.9Zm-5.64-.18a1.73,1.73,0,0,0-.17-.73,2.11,2.11,0,0,0-.4-.59.66.66,0,0,0-.45-.23,2.63,2.63,0,0,0-1.07.19,1.39,1.39,0,0,0-.88,1.36,1.41,1.41,0,0,0,.2.75,1.45,1.45,0,0,0,.54.53,1.62,1.62,0,0,0,.81.19,1.31,1.31,0,0,0,1.05-.43A1.51,1.51,0,0,0,74.91,149.72Z"/><path d="M80.45,141H70.33V137.5l6.69-2-6.69-2V130H80.45v2.39H72.91l7.54,2.21v1.78l-7.52,2.2h7.52Z"/><path d="M77.38,126.42a2.1,2.1,0,0,0,.84-.15,1.2,1.2,0,0,0,.51-.46,1.26,1.26,0,0,0,.17-.69,1.66,1.66,0,0,0-.18-.78,1.2,1.2,0,0,0-.65-.52V121.7a2.65,2.65,0,0,1,1.36.64,3.12,3.12,0,0,1,.86,1.22,3.91,3.91,0,0,1,.3,1.51,4,4,0,0,1-.45,1.93,3.29,3.29,0,0,1-1.28,1.31,3.89,3.89,0,0,1-1.94.46,4.37,4.37,0,0,1-1.93-.42,3.4,3.4,0,0,1-1.39-1.24,3.45,3.45,0,0,1-.53-1.94,3.54,3.54,0,0,1,.48-1.91,3,3,0,0,1,1.32-1.16,4.46,4.46,0,0,1,1.91-.39h.6Zm-1.37,0v-2.51a1.59,1.59,0,0,0-.66.14,1.06,1.06,0,0,0-.47.42,1.27,1.27,0,0,0-.18.69,1.17,1.17,0,0,0,.19.66,1.2,1.2,0,0,0,.48.44A1.29,1.29,0,0,0,76,126.43Z"/><path d="M80.45,120.43H73.21v-2.35h1a2.9,2.9,0,0,1-.82-.91,2.79,2.79,0,0,1-.34-1.42,2.45,2.45,0,0,1,.13-.74,2.6,2.6,0,0,1,.39-.71,2.27,2.27,0,0,1,.63-.56,2.91,2.91,0,0,1-.81-.92,2.48,2.48,0,0,1-.34-1.26,2.43,2.43,0,0,1,.15-.83,2.08,2.08,0,0,1,.45-.77,2.13,2.13,0,0,1,.79-.56,3.07,3.07,0,0,1,1.2-.21h4.79v2.38H76a.92.92,0,0,0-.55.15.87.87,0,0,0-.32.39,1.12,1.12,0,0,0-.1.48,1.1,1.1,0,0,0,.1.47.93.93,0,0,0,.3.41.79.79,0,0,0,.52.16h4.53V116H75.88a.71.71,0,0,0-.48.16.94.94,0,0,0-.3.38,1.1,1.1,0,0,0-.1.47,1.18,1.18,0,0,0,.1.48.92.92,0,0,0,.31.39.78.78,0,0,0,.51.16h4.53Z"/><path d="M80.59,104.47a3.74,3.74,0,0,1-.46,1.9,3.2,3.2,0,0,1-1.31,1.24,4,4,0,0,1-1.95.44,4.26,4.26,0,0,1-2-.45,3.3,3.3,0,0,1-1.33-1.26,4,4,0,0,1,0-3.79,3.21,3.21,0,0,1,1.34-1.24,4.31,4.31,0,0,1,2-.43,4.13,4.13,0,0,1,1.93.43,3.26,3.26,0,0,1,1.31,1.24A3.65,3.65,0,0,1,80.59,104.47Zm-1.75,0a1,1,0,0,0-.3-.76,1.65,1.65,0,0,0-.78-.39,3.89,3.89,0,0,0-1-.12,4.33,4.33,0,0,0-1,.11,1.66,1.66,0,0,0-.76.38,1,1,0,0,0-.29.78,1,1,0,0,0,.29.76,1.51,1.51,0,0,0,.74.39,3.85,3.85,0,0,0,1,.12,4.4,4.4,0,0,0,1-.11,1.78,1.78,0,0,0,.78-.38A1,1,0,0,0,78.84,104.46Z"/><path d="M80.45,99.67H73.21V97.36h1.86a3.69,3.69,0,0,1-1-.48,2.4,2.4,0,0,1-.72-.8,2.25,2.25,0,0,1-.28-1.15v-.08a0,0,0,0,1,0,0h2.27s0,0,0,.11a3.58,3.58,0,0,0,.09,1.46,1.29,1.29,0,0,0,.54.7,1.6,1.6,0,0,0,.77.19h3.72Z"/><path d="M70.33,91.48H72.4v2.29H70.33Zm2.88,0h7.24v2.28H73.21Z"/><path d="M77.38,87.8a1.81,1.81,0,0,0,.84-.15,1.2,1.2,0,0,0,.51-.46,1.25,1.25,0,0,0,.17-.68,1.67,1.67,0,0,0-.18-.79,1.19,1.19,0,0,0-.65-.51V83.08a2.65,2.65,0,0,1,1.36.64A3.23,3.23,0,0,1,80.29,85a3.86,3.86,0,0,1,.3,1.5,4.05,4.05,0,0,1-.45,1.94,3.33,3.33,0,0,1-1.28,1.3,3.89,3.89,0,0,1-1.94.46A4.37,4.37,0,0,1,75,89.73,3.45,3.45,0,0,1,73.6,88.5a3.5,3.5,0,0,1-.53-1.94,3.55,3.55,0,0,1,.48-1.92,3,3,0,0,1,1.32-1.16,4.46,4.46,0,0,1,1.91-.39h.6Zm-1.37,0V85.3a1.59,1.59,0,0,0-.66.14,1.19,1.19,0,0,0-.47.42,1.28,1.28,0,0,0-.18.7,1.16,1.16,0,0,0,.19.65,1.3,1.3,0,0,0,.48.45A1.41,1.41,0,0,0,76,87.82Z"/><path d="M80.59,78.84a4.37,4.37,0,0,1-.25,1.47,2.94,2.94,0,0,1-.81,1.23,2.54,2.54,0,0,1-1.44.66v-2a1,1,0,0,0,.57-.33,1.4,1.4,0,0,0,.27-.51,2.33,2.33,0,0,0,.07-.47,2,2,0,0,0-.15-.84.49.49,0,0,0-.45-.32.43.43,0,0,0-.39.2,1.56,1.56,0,0,0-.23.69l-.22,1.17a3.46,3.46,0,0,1-.7,1.61,1.77,1.77,0,0,1-1.43.62,2,2,0,0,1-1.2-.36,2.35,2.35,0,0,1-.84-1.07,4.24,4.24,0,0,1-.32-1.73,3.68,3.68,0,0,1,.62-2.24,2,2,0,0,1,1.7-.84v2a.81.81,0,0,0-.56.39,1.43,1.43,0,0,0-.2.76,1.67,1.67,0,0,0,.16.75.48.48,0,0,0,.45.31.43.43,0,0,0,.37-.27,3.26,3.26,0,0,0,.25-.85l.22-1.05a3.16,3.16,0,0,1,.43-1.06,2.38,2.38,0,0,1,.58-.63,2.26,2.26,0,0,1,.63-.3,2,2,0,0,1,.55-.08,1.91,1.91,0,0,1,1.26.41,2.49,2.49,0,0,1,.79,1.13A4.6,4.6,0,0,1,80.59,78.84Z"/><path d="M95,310.78a3.22,3.22,0,0,1,1.85.53,3.36,3.36,0,0,1,1.18,1.53,6.5,6.5,0,0,1,.41,2.43,5.18,5.18,0,0,1-.9,3.27,3.39,3.39,0,0,1-5.09,0,5.11,5.11,0,0,1-.92-3.27,6.3,6.3,0,0,1,.42-2.43,3.38,3.38,0,0,1,1.19-1.53A3.25,3.25,0,0,1,95,310.78Zm0,7.29a1,1,0,0,0,1-.63,5.48,5.48,0,0,0,.31-2.16A5.68,5.68,0,0,0,96,313a1,1,0,0,0-1-.66,1.05,1.05,0,0,0-1,.67,5.66,5.66,0,0,0-.32,2.23,5.24,5.24,0,0,0,.32,2.15A1.06,1.06,0,0,0,95,318.07Z"/><path d="M91.5,271.69v-1.43a2.4,2.4,0,0,1,.25-1.14,2.88,2.88,0,0,1,.65-.83,5.13,5.13,0,0,1,.88-.62c.32-.18.64-.34,1-.49s.61-.3.88-.45a2.46,2.46,0,0,0,.65-.49.93.93,0,0,0,.25-.63,1,1,0,0,0-.32-.75,1.25,1.25,0,0,0-.87-.29,1.6,1.6,0,0,0-1,.33A1.64,1.64,0,0,0,93.3,266H91.36a3.18,3.18,0,0,1,.39-1.57,2.77,2.77,0,0,1,1.17-1.1,4.81,4.81,0,0,1,3.72-.07,2.57,2.57,0,0,1,1.13.94,2.48,2.48,0,0,1,.4,1.41,2.44,2.44,0,0,1-.24,1.12,2.6,2.6,0,0,1-.63.8,4.58,4.58,0,0,1-.86.57c-.31.16-.62.31-.93.44s-.6.26-.86.4a2.41,2.41,0,0,0-.63.44.81.81,0,0,0-.24.59V270h4.36v1.69Z"/><path d="M95.43,217h2v5.2h1.3v1.69h-1.3v1.79h-2v-1.79H91.51v-1.63Zm-2.05,5.2h2.1v-2.79Z"/><path d="M95.22,170.43a4,4,0,0,1,1.59.31,2.82,2.82,0,0,1,1.17.89,2.39,2.39,0,0,1,.48,1.41H96.6a1.43,1.43,0,0,0-.49-.77,1.31,1.31,0,0,0-.84-.25,1.35,1.35,0,0,0-.93.32,1.75,1.75,0,0,0-.53.86,3.05,3.05,0,0,0-.06,1.22,1.57,1.57,0,0,1,.51-.36,2.69,2.69,0,0,1,.64-.22,3.2,3.2,0,0,1,.7-.07,3.55,3.55,0,0,1,1.57.33,2.47,2.47,0,0,1,1.42,2.29,2.67,2.67,0,0,1-.44,1.5,3,3,0,0,1-1.21,1,3.91,3.91,0,0,1-1.78.38,3.61,3.61,0,0,1-2-.52,3.29,3.29,0,0,1-1.27-1.48,5.19,5.19,0,0,1-.45-2.23,6.22,6.22,0,0,1,.46-2.49,3.65,3.65,0,0,1,1.3-1.6A3.55,3.55,0,0,1,95.22,170.43Zm-.13,4.83a1.6,1.6,0,0,0-.63.14,1.91,1.91,0,0,0-.5.34.61.61,0,0,0-.2.39,2.29,2.29,0,0,0,.17.92,1.28,1.28,0,0,0,.46.56,1.32,1.32,0,0,0,.69.19,1.4,1.4,0,0,0,1.17-.63,1.31,1.31,0,0,0,.18-.69,1.15,1.15,0,0,0-.19-.69,1.07,1.07,0,0,0-.49-.4A1.85,1.85,0,0,0,95.09,175.26Z"/><path d="M95,123.1a4.5,4.5,0,0,1,1.65.28,2.57,2.57,0,0,1,1.14.83,2.12,2.12,0,0,1,.42,1.34,1.72,1.72,0,0,1-.36,1.11,2.48,2.48,0,0,1-.87.71,1.88,1.88,0,0,1,.76.38,2.64,2.64,0,0,1,.61.75,1.9,1.9,0,0,1,.24.93,2.11,2.11,0,0,1-.45,1.35,2.65,2.65,0,0,1-1.25.88A5.42,5.42,0,0,1,95,132a5.31,5.31,0,0,1-1.87-.31,2.74,2.74,0,0,1-1.26-.88,2.11,2.11,0,0,1-.45-1.35,1.9,1.9,0,0,1,.24-.93,2.48,2.48,0,0,1,.61-.75,1.9,1.9,0,0,1,.75-.38,2.54,2.54,0,0,1-.86-.71,1.73,1.73,0,0,1-.37-1.11,2.12,2.12,0,0,1,.42-1.34,2.6,2.6,0,0,1,1.15-.83A4.52,4.52,0,0,1,95,123.1Zm0,7.37a1.64,1.64,0,0,0,1-.3,1,1,0,0,0,.37-.81,1,1,0,0,0-.17-.59,1.06,1.06,0,0,0-.48-.4,1.79,1.79,0,0,0-.77-.15,1.73,1.73,0,0,0-.75.15,1.09,1.09,0,0,0-.49.4,1,1,0,0,0-.17.59,1,1,0,0,0,.37.81A1.65,1.65,0,0,0,95,130.47Zm0-3.87a1.24,1.24,0,0,0,.85-.29,1,1,0,0,0,.34-.79,1,1,0,0,0-.34-.8,1.34,1.34,0,0,0-1.69,0,1,1,0,0,0-.34.8,1,1,0,0,0,.34.79A1.23,1.23,0,0,0,95,126.6Z"/><path d="M90.43,84.42V78.1H88.94V77a4,4,0,0,0,1.2-.15,1.58,1.58,0,0,0,.72-.44,1.18,1.18,0,0,0,.3-.66h1.33v8.68Z"/><path d="M97.67,75.61a3.1,3.1,0,0,1,1.84.53,3.31,3.31,0,0,1,1.19,1.53,6.43,6.43,0,0,1,.41,2.43,5.11,5.11,0,0,1-.91,3.27,3,3,0,0,1-2.54,1.15,3.07,3.07,0,0,1-2.55-1.15,5.18,5.18,0,0,1-.91-3.27,6.3,6.3,0,0,1,.42-2.43,3.31,3.31,0,0,1,1.19-1.53A3.18,3.18,0,0,1,97.67,75.61Zm0,7.29a1.06,1.06,0,0,0,1-.64,5.47,5.47,0,0,0,.3-2.15,5.69,5.69,0,0,0-.31-2.24,1.1,1.1,0,0,0-2,0,5.63,5.63,0,0,0-.32,2.23,5.28,5.28,0,0,0,.31,2.15A1.08,1.08,0,0,0,97.66,82.9Z"/><line class="e04c0593-757f-49e7-a672-fa84c39ea3ae" x1="118.57" y1="80.08" x2="101.66" y2="80.08"/><line class="e04c0593-757f-49e7-a672-fa84c39ea3ae" x1="118.57" y1="126.52" x2="101.66" y2="126.52"/><line class="e04c0593-757f-49e7-a672-fa84c39ea3ae" x1="118.57" y1="174.05" x2="101.66" y2="174.05"/><line class="e04c0593-757f-49e7-a672-fa84c39ea3ae" x1="118.57" y1="220.85" x2="101.66" y2="220.85"/><line class="e04c0593-757f-49e7-a672-fa84c39ea3ae" x1="118.57" y1="267.65" x2="101.66" y2="267.65"/><line class="e04c0593-757f-49e7-a672-fa84c39ea3ae" x1="118.57" y1="314.82" x2="101.66" y2="314.82"/><path d="M205.91,329v-6.31h-1.5v-1.11a4,4,0,0,0,1.2-.15,1.58,1.58,0,0,0,.72-.44,1.18,1.18,0,0,0,.3-.66H208V329Z"/><path d="M213.26,320.2a4.44,4.44,0,0,1,1.64.28,2.6,2.6,0,0,1,1.15.83,2.12,2.12,0,0,1,.42,1.34,1.72,1.72,0,0,1-.36,1.11,2.48,2.48,0,0,1-.87.71,1.93,1.93,0,0,1,.75.39,2.47,2.47,0,0,1,.61.74,1.9,1.9,0,0,1,.24.93,2.19,2.19,0,0,1-.44,1.36,2.79,2.79,0,0,1-1.26.87,5.18,5.18,0,0,1-1.88.31,5.11,5.11,0,0,1-1.88-.31,2.79,2.79,0,0,1-1.26-.87,2.14,2.14,0,0,1-.45-1.36,1.9,1.9,0,0,1,.24-.93,2.36,2.36,0,0,1,.62-.74,1.81,1.81,0,0,1,.75-.39,2.57,2.57,0,0,1-.87-.71,1.72,1.72,0,0,1-.36-1.11,2.12,2.12,0,0,1,.42-1.34,2.57,2.57,0,0,1,1.14-.83A4.53,4.53,0,0,1,213.26,320.2Zm0,7.37a1.63,1.63,0,0,0,1-.3,1,1,0,0,0,.38-.81,1.07,1.07,0,0,0-.17-.59,1.14,1.14,0,0,0-.49-.4,2,2,0,0,0-1.52,0,1.09,1.09,0,0,0-.49.4,1.07,1.07,0,0,0-.17.59,1,1,0,0,0,.38.81A1.63,1.63,0,0,0,213.26,327.57Zm0-3.87a1.27,1.27,0,0,0,.84-.28,1,1,0,0,0,.34-.8,1,1,0,0,0-.34-.8,1.24,1.24,0,0,0-.84-.3,1.2,1.2,0,0,0-.84.3,1,1,0,0,0-.35.8,1,1,0,0,0,.35.8A1.24,1.24,0,0,0,213.26,323.7Z"/><path d="M221.43,325.17v1.46h-3.37v-1.46Z"/><path d="M222.79,329v-1.43a2.4,2.4,0,0,1,.25-1.14,2.88,2.88,0,0,1,.64-.83,5.65,5.65,0,0,1,.89-.62c.32-.18.64-.34,1-.49s.62-.3.89-.45a2.63,2.63,0,0,0,.65-.49.92.92,0,0,0,.24-.63,1,1,0,0,0-.31-.75,1.25,1.25,0,0,0-.88-.29,1.6,1.6,0,0,0-1,.33,1.65,1.65,0,0,0-.55,1.08h-1.93a3.15,3.15,0,0,1,.39-1.57,2.77,2.77,0,0,1,1.17-1.1,4.81,4.81,0,0,1,3.72-.07,2.63,2.63,0,0,1,1.13.94,2.56,2.56,0,0,1,.4,1.41,2.44,2.44,0,0,1-.24,1.12,2.6,2.6,0,0,1-.63.8,4.58,4.58,0,0,1-.86.57c-.31.16-.62.31-.93.44a8.72,8.72,0,0,0-.86.4,2.11,2.11,0,0,0-.63.44.81.81,0,0,0-.24.59v.05h4.35V329Z"/><path d="M234.39,320.31h2v5.2h1.3v1.69h-1.3V329h-2V327.2h-4v-1.64Zm-2,5.2h2.09v-2.8Z"/><path d="M425,329.55v-1.44a2.45,2.45,0,0,1,.24-1.13,3,3,0,0,1,.65-.84,5.65,5.65,0,0,1,.89-.62c.32-.18.64-.34,1-.49s.62-.3.89-.45a2.63,2.63,0,0,0,.65-.49.92.92,0,0,0,.24-.63,1,1,0,0,0-.32-.75,1.25,1.25,0,0,0-.87-.29,1.6,1.6,0,0,0-1,.33,1.65,1.65,0,0,0-.55,1.08h-1.94a3.3,3.3,0,0,1,.4-1.57,2.75,2.75,0,0,1,1.16-1.1,4.26,4.26,0,0,1,2-.41,4.12,4.12,0,0,1,1.76.34,2.7,2.7,0,0,1,1.13.94,2.58,2.58,0,0,1,.39,1.41,2.44,2.44,0,0,1-.23,1.12,2.6,2.6,0,0,1-.63.8,4.58,4.58,0,0,1-.86.57c-.31.16-.62.31-.93.44s-.6.27-.86.4a2.11,2.11,0,0,0-.63.44.83.83,0,0,0-.24.6v0h4.35v1.7Z"/><path d="M433.62,320.87h5.75l-.09,1.66H435.2l-.15,1.76A7,7,0,0,1,436,324a4,4,0,0,1,.89-.1,3.72,3.72,0,0,1,1.6.33,2.66,2.66,0,0,1,1.1,1,2.77,2.77,0,0,1,.4,1.53,2.82,2.82,0,0,1-.43,1.59,2.66,2.66,0,0,1-1.2,1,4.41,4.41,0,0,1-1.86.36,5.06,5.06,0,0,1-1.63-.26,3.94,3.94,0,0,1-1.3-.69,3.12,3.12,0,0,1-.86-1l1.55-1a5.21,5.21,0,0,0,.53.67,1.88,1.88,0,0,0,1.49.65,1.73,1.73,0,0,0,1.14-.36,1.12,1.12,0,0,0,.43-.9,1.21,1.21,0,0,0-.18-.64,1.33,1.33,0,0,0-.53-.46,1.74,1.74,0,0,0-.82-.18,3,3,0,0,0-.43,0,2.07,2.07,0,0,0-.42.14,3.68,3.68,0,0,0-.5.27.33.33,0,0,1-.14,0l-.15-.05-1.42-.72Z"/><path d="M444.54,325.73v1.46h-3.37v-1.45Z"/><path d="M449.67,320.87h2v5.2H453v1.69h-1.3v1.79H449.7v-1.79h-3.95v-1.63Zm-2.05,5.2h2.1v-2.79Z"/><path d="M457.25,320.74a3.15,3.15,0,0,1,1.85.53,3.36,3.36,0,0,1,1.18,1.53,6.43,6.43,0,0,1,.41,2.43,5.18,5.18,0,0,1-.9,3.27,3.39,3.39,0,0,1-5.09,0,5.11,5.11,0,0,1-.92-3.27,6.3,6.3,0,0,1,.42-2.43,3.38,3.38,0,0,1,1.19-1.53A3.18,3.18,0,0,1,457.25,320.74Zm0,7.29a1,1,0,0,0,1-.63,5.52,5.52,0,0,0,.31-2.16,5.65,5.65,0,0,0-.32-2.24,1,1,0,0,0-1-.67,1.06,1.06,0,0,0-1,.68,5.63,5.63,0,0,0-.32,2.23,5.24,5.24,0,0,0,.32,2.15A1.06,1.06,0,0,0,457.24,328Z"/><path d="M652.69,323.38h2v5.2H656v1.69h-1.29v1.78h-2v-1.78h-4v-1.64Zm-2,5.2h2.09v-2.79Z"/><path d="M658.3,332.05v-6.31h-1.5v-1.11a4,4,0,0,0,1.2-.15,1.58,1.58,0,0,0,.72-.44,1.18,1.18,0,0,0,.3-.66h1.33v8.67Z"/><path d="M665.65,328.24v1.46h-3.38v-1.45Z"/><path d="M667.81,323.38h5.75l-.08,1.66H669.4l-.15,1.76a6.46,6.46,0,0,1,.9-.31,3.46,3.46,0,0,1,.89-.1,3.72,3.72,0,0,1,1.6.33,2.6,2.6,0,0,1,1.1,1,2.77,2.77,0,0,1,.4,1.53,2.82,2.82,0,0,1-.43,1.59,2.72,2.72,0,0,1-1.2,1,4.4,4.4,0,0,1-1.85.35,5,5,0,0,1-1.63-.25,4.08,4.08,0,0,1-1.31-.69,3.12,3.12,0,0,1-.86-1l1.56-1a4.42,4.42,0,0,0,.52.67,2,2,0,0,0,.64.47,1.9,1.9,0,0,0,.85.18,1.69,1.69,0,0,0,1.14-.36,1.12,1.12,0,0,0,.43-.91,1.21,1.21,0,0,0-.18-.63,1.26,1.26,0,0,0-.53-.46,1.73,1.73,0,0,0-.81-.18,2.74,2.74,0,0,0-.43,0,1.73,1.73,0,0,0-.42.14,3.22,3.22,0,0,0-.51.27.34.34,0,0,1-.13,0l-.15-.05-1.43-.72Z"/><path d="M678.62,323.25a3.12,3.12,0,0,1,1.84.53,3.25,3.25,0,0,1,1.18,1.52,6.31,6.31,0,0,1,.42,2.44,5.18,5.18,0,0,1-.91,3.27,3,3,0,0,1-2.54,1.15,3.07,3.07,0,0,1-2.55-1.15,5.11,5.11,0,0,1-.91-3.27,6.3,6.3,0,0,1,.42-2.43,3.25,3.25,0,0,1,1.19-1.53A3.18,3.18,0,0,1,678.62,323.25Zm0,7.29a1,1,0,0,0,1-.64,5.25,5.25,0,0,0,.31-2.15,5.69,5.69,0,0,0-.31-2.24,1,1,0,0,0-1-.67,1.09,1.09,0,0,0-1,.67,5.76,5.76,0,0,0-.31,2.24,5.31,5.31,0,0,0,.31,2.15A1.08,1.08,0,0,0,678.61,330.54Z"/></svg>