<svg id="ef3f142c-3c32-45f5-a852-8d2bd96ab056" data-name="Layer 1" xmlns="http://www.w3.org/2000/svg" viewBox="0 0 329.4 97.9"><defs><style>.e042600a-1e92-478b-94bb-708f3380a564,.fe64dcb2-0c23-49b3-968f-631b26df03e1{fill:#ffd297;}.e042600a-1e92-478b-94bb-708f3380a564,.ea4e902b-3bca-4dfa-845a-52a0f25edefa{stroke:#000;stroke-miterlimit:10;stroke-width:0.2px;}.a0f92f8e-ebe9-44fe-b445-1b7332e6aa5d,.ea4e902b-3bca-4dfa-845a-52a0f25edefa{fill:#26445e;}.f2c06520-b3ac-42a8-a4f7-22200b833d8c{fill:#fff;}</style></defs><path class="e042600a-1e92-478b-94bb-708f3380a564" d="M103.53,57.38l34-4.18a34.34,34.34,0,1,1-34-30.12Z"/><path class="ea4e902b-3bca-4dfa-845a-52a0f25edefa" d="M103.53,57.38V23.08a34,34,0,0,1,34,30.12Z"/><path d="M4.52,1.54a3.66,3.66,0,0,1,1.74.4A3.19,3.19,0,0,1,7.49,3a3.15,3.15,0,0,1,.56,1.53H6.21a2.19,2.19,0,0,0-.3-.81,1.7,1.7,0,0,0-.58-.55A1.83,1.83,0,0,0,4.46,3a1.79,1.79,0,0,0-1,.3,1.79,1.79,0,0,0-.67.94A5.18,5.18,0,0,0,2.51,6,4.13,4.13,0,0,0,3,8.29,1.67,1.67,0,0,0,4.46,9a1.64,1.64,0,0,0,.87-.23,1.82,1.82,0,0,0,.58-.62,2.36,2.36,0,0,0,.3-.83H8.05a4.76,4.76,0,0,1-.3,1.18,3.38,3.38,0,0,1-.63,1,2.91,2.91,0,0,1-1,.69,4.41,4.41,0,0,1-1.55.25,3.79,3.79,0,0,1-2.1-.57A3.7,3.7,0,0,1,1.06,8.31,5.52,5.52,0,0,1,.58,5.93a5.3,5.3,0,0,1,.48-2.35A3.37,3.37,0,0,1,2.41,2.07,4.05,4.05,0,0,1,4.52,1.54Z"/><path d="M12.08,10.46a3.11,3.11,0,0,1-1.58-.39A2.68,2.68,0,0,1,9.45,9a3.57,3.57,0,0,1-.37-1.69,3.71,3.71,0,0,1,.37-1.71,2.67,2.67,0,0,1,1-1.14A3.1,3.1,0,0,1,12.09,4a3,3,0,0,1,1.59.41,2.63,2.63,0,0,1,1,1.13,3.7,3.7,0,0,1,.37,1.72,3.58,3.58,0,0,1-.36,1.65,2.6,2.6,0,0,1-1,1.13A3.09,3.09,0,0,1,12.08,10.46Zm0-1.3a1,1,0,0,0,.74-.27,1.5,1.5,0,0,0,.41-.72,3.23,3.23,0,0,0,.13-1,3.48,3.48,0,0,0-.12-.93,1.5,1.5,0,0,0-.4-.71,1,1,0,0,0-.76-.27,1.09,1.09,0,0,0-.75.26,1.5,1.5,0,0,0-.42.69,3.67,3.67,0,0,0,0,1.9,1.55,1.55,0,0,0,.41.72A1,1,0,0,0,12.09,9.16Z"/><path d="M18.47,10.45a2.74,2.74,0,0,1-.85-.13,2.6,2.6,0,0,1-.76-.39,1.89,1.89,0,0,1-.55-.64,1.75,1.75,0,0,1-.21-.87V4.13h1.76V8.2a1,1,0,0,0,.28.7,1.13,1.13,0,0,0,.83.28,1.21,1.21,0,0,0,.82-.27.94.94,0,0,0,.3-.74v-4h1.77l0,6.2H20.5L20.3,9.1a1.51,1.51,0,0,1-.41.84,1.56,1.56,0,0,1-.67.41A2.5,2.5,0,0,1,18.47,10.45Z"/><path d="M23.35,10.34V4.13h1.72V5a1.84,1.84,0,0,1,.37-.44A2,2,0,0,1,26,4.22a2.4,2.4,0,0,1,.85-.14,2.55,2.55,0,0,1,1.06.22,1.86,1.86,0,0,1,.8.7A2.23,2.23,0,0,1,29,6.25v4.09H27.28V6.46a.92.92,0,0,0-.3-.75,1.08,1.08,0,0,0-.72-.26,1.51,1.51,0,0,0-.56.11,1,1,0,0,0-.44.3.8.8,0,0,0-.17.51v4Z"/><path d="M34,5.35H32.59V8.66a.77.77,0,0,0,.06.34.28.28,0,0,0,.18.14,1.39,1.39,0,0,0,.32,0H34v1.08a2,2,0,0,1-.38.11,4.37,4.37,0,0,1-.71,0,3,3,0,0,1-1.26-.21A1.22,1.22,0,0,1,31,9.61a2.06,2.06,0,0,1-.17-.88V5.35h-1V4.13h1.07l.43-1.87h1.25V4.13H34Z"/><path d="M40.41,10.46a3.12,3.12,0,0,1-1.59-.39,2.6,2.6,0,0,1-1-1.11,3.57,3.57,0,0,1-.38-1.69,3.84,3.84,0,0,1,.37-1.71,2.76,2.76,0,0,1,1-1.14A3,3,0,0,1,40.42,4,3,3,0,0,1,42,4.42a2.65,2.65,0,0,1,1,1.13,3.83,3.83,0,0,1,.36,1.72,3.58,3.58,0,0,1-.35,1.65,2.68,2.68,0,0,1-1,1.13A3,3,0,0,1,40.41,10.46Zm0-1.3a1,1,0,0,0,.74-.27,1.59,1.59,0,0,0,.41-.72,3.6,3.6,0,0,0,.12-1,4,4,0,0,0-.11-.93,1.5,1.5,0,0,0-.4-.71,1,1,0,0,0-.76-.27,1.09,1.09,0,0,0-.76.26,1.4,1.4,0,0,0-.41.69,3.23,3.23,0,0,0-.13,1,3.61,3.61,0,0,0,.12.94,1.54,1.54,0,0,0,.4.72A1.06,1.06,0,0,0,40.42,9.16Z"/><path d="M48.19,4.13V5.35H46.88v5H45.13v-5H44V4.13h1.14V3.24a1.51,1.51,0,0,1,.44-1.16,1.75,1.75,0,0,1,1.25-.42h1.43V2.83h-.81A.56.56,0,0,0,47,3a.86.86,0,0,0-.13.54v.6Z"/><path d="M55.53,1.54a3.66,3.66,0,0,1,1.74.4A3.3,3.3,0,0,1,58.51,3a3.25,3.25,0,0,1,.55,1.53H57.22a2.19,2.19,0,0,0-.3-.81,1.7,1.7,0,0,0-.58-.55,2,2,0,0,0-1.91.1,1.85,1.85,0,0,0-.67.94A5.21,5.21,0,0,0,53.53,6a4,4,0,0,0,.52,2.34A1.64,1.64,0,0,0,55.48,9a1.6,1.6,0,0,0,.86-.23,1.82,1.82,0,0,0,.58-.62,2.36,2.36,0,0,0,.3-.83h1.84a4.76,4.76,0,0,1-.3,1.18,3,3,0,0,1-.63,1,2.83,2.83,0,0,1-1.05.69,4.38,4.38,0,0,1-1.55.25,3.74,3.74,0,0,1-2.09-.57,3.66,3.66,0,0,1-1.37-1.58,5.52,5.52,0,0,1-.48-2.38,5.3,5.3,0,0,1,.48-2.35,3.43,3.43,0,0,1,1.35-1.51A4.05,4.05,0,0,1,55.53,1.54Z"/><path d="M64.24,10.46a4.06,4.06,0,0,1-2.13-.54,3.56,3.56,0,0,1-1.39-1.53A5.25,5.25,0,0,1,60.23,6a5.34,5.34,0,0,1,.49-2.39,3.7,3.7,0,0,1,1.4-1.55,4.05,4.05,0,0,1,2.12-.54,4,4,0,0,1,2.1.54,3.69,3.69,0,0,1,1.38,1.54A5.52,5.52,0,0,1,68.21,6a5.45,5.45,0,0,1-.48,2.37,3.66,3.66,0,0,1-1.38,1.53A4,4,0,0,1,64.24,10.46Zm0-1.44a1.89,1.89,0,0,0,1.09-.31,1.91,1.91,0,0,0,.72-1A4.75,4.75,0,0,0,66.3,6,5.07,5.07,0,0,0,66,4.28a2,2,0,0,0-.71-1,2,2,0,0,0-2.19,0,2,2,0,0,0-.73,1A4.78,4.78,0,0,0,62.15,6a4.61,4.61,0,0,0,.26,1.72,2,2,0,0,0,.73,1A1.92,1.92,0,0,0,64.24,9Z"/><path d="M76.73,1.66l-3,8.68h-2l-3-8.68h1.68L72.74,8.3l2.31-6.64Z"/><path d="M77.93,1.66h1.75v8.68H77.93Z"/><path d="M81.62,1.66h2.6a5.85,5.85,0,0,1,2.57.57,3.36,3.36,0,0,1,1.46,1.48A5,5,0,0,1,88.72,6a5.13,5.13,0,0,1-.5,2.33,3.32,3.32,0,0,1-1.5,1.51,5.4,5.4,0,0,1-2.56.54H81.62Zm1.77,1.42V8.92h.8a3,3,0,0,0,1.35-.29,2.12,2.12,0,0,0,1-.94A3.6,3.6,0,0,0,86.89,6a3.56,3.56,0,0,0-.33-1.65,2,2,0,0,0-.92-.93,3.3,3.3,0,0,0-1.42-.29Z"/><path d="M93.29,6.61V7.89H90V6.61Z"/><path d="M95.26,10.34V3.84H93.71v-1a4.39,4.39,0,0,0,1.2-.14,1.44,1.44,0,0,0,.69-.41,1.19,1.19,0,0,0,.27-.64H97v8.68Z"/><path d="M102,10.41a3.64,3.64,0,0,1-1.51-.31,2.93,2.93,0,0,1-1.15-.86,2.25,2.25,0,0,1-.49-1.33h1.66a1.45,1.45,0,0,0,.48.81A1.4,1.4,0,0,0,102,9a2,2,0,0,0,1.09-.29,1.76,1.76,0,0,0,.71-.93,4,4,0,0,0,.17-1.67,1.78,1.78,0,0,1-.47.56,2.51,2.51,0,0,1-.69.36,2.71,2.71,0,0,1-.88.13,3.58,3.58,0,0,1-1.57-.33,2.57,2.57,0,0,1-1.06-1,2.68,2.68,0,0,1-.39-1.46,2.86,2.86,0,0,1,.41-1.52,2.78,2.78,0,0,1,1.14-1,3.71,3.71,0,0,1,1.71-.37,3.25,3.25,0,0,1,3.14,2,5.64,5.64,0,0,1,.43,2.27,6.61,6.61,0,0,1-.44,2.58A3.29,3.29,0,0,1,104,9.9,3.62,3.62,0,0,1,102,10.41Zm.16-4.61a1.63,1.63,0,0,0,.71-.16,1.76,1.76,0,0,0,.57-.42.84.84,0,0,0,.22-.52,2.32,2.32,0,0,0-.19-1,1.45,1.45,0,0,0-.52-.64,1.53,1.53,0,0,0-1.53,0,1.33,1.33,0,0,0-.51.54,1.69,1.69,0,0,0-.19.8A1.34,1.34,0,0,0,102.2,5.8Z"/><path d="M109.75,10.34V1.66h2.55l2,6.19,2-6.19h2.53v8.68h-1.77V3.71L115,10.34h-1.38l-2.07-6.6v6.6Z"/><path d="M121.82,7.64a2.07,2.07,0,0,0,.15.82,1.17,1.17,0,0,0,.46.54,1.23,1.23,0,0,0,.71.19,1.5,1.5,0,0,0,.78-.19,1.16,1.16,0,0,0,.48-.63H126a2.25,2.25,0,0,1-.54,1.14,2.74,2.74,0,0,1-1,.7,3.12,3.12,0,0,1-1.24.25,3.24,3.24,0,0,1-1.62-.39A2.72,2.72,0,0,1,120.48,9a3.33,3.33,0,0,1-.4-1.67,3.83,3.83,0,0,1,.36-1.68,2.82,2.82,0,0,1,1-1.18A2.94,2.94,0,0,1,123.1,4a3,3,0,0,1,1.59.4,2.55,2.55,0,0,1,1,1.11A3.87,3.87,0,0,1,126,7.16v.48Zm0-1h2.53a1.72,1.72,0,0,0-.14-.68,1.11,1.11,0,0,0-.42-.49,1.22,1.22,0,0,0-.69-.18,1.2,1.2,0,0,0-.7.19,1.25,1.25,0,0,0-.43.51A1.51,1.51,0,0,0,121.82,6.59Z"/><path d="M127.23,10.34V4.13h1.71V5a2.45,2.45,0,0,1,.76-.7,2.23,2.23,0,0,1,1.2-.3,1.91,1.91,0,0,1,.65.12,2,2,0,0,1,.62.33,1.82,1.82,0,0,1,.48.55,2.47,2.47,0,0,1,.79-.71,2.13,2.13,0,0,1,1.78-.17,1.81,1.81,0,0,1,.66.37,1.91,1.91,0,0,1,.49.69,2.73,2.73,0,0,1,.18,1.06v4.09H134.8V6.46a1.07,1.07,0,0,0-.15-.6.82.82,0,0,0-.37-.32,1.29,1.29,0,0,0-.48-.1,1.35,1.35,0,0,0-.47.09,1.12,1.12,0,0,0-.41.3.85.85,0,0,0-.16.54v4H131v-4a.76.76,0,0,0-.15-.48,1,1,0,0,0-.38-.29,1.22,1.22,0,0,0-.45-.1,1.43,1.43,0,0,0-.49.1,1,1,0,0,0-.4.31.79.79,0,0,0-.16.52v4Z"/><path d="M140.66,10.46a3.12,3.12,0,0,1-1.59-.39A2.68,2.68,0,0,1,138,9a3.57,3.57,0,0,1-.37-1.69A3.71,3.71,0,0,1,138,5.56a2.69,2.69,0,0,1,1-1.14,3.29,3.29,0,0,1,3.18,0,2.65,2.65,0,0,1,1,1.13,3.83,3.83,0,0,1,.36,1.72,3.71,3.71,0,0,1-.35,1.65,2.68,2.68,0,0,1-1,1.13A3.08,3.08,0,0,1,140.66,10.46Zm0-1.3a1,1,0,0,0,.75-.27,1.58,1.58,0,0,0,.4-.72,3.23,3.23,0,0,0,.13-1,3.48,3.48,0,0,0-.12-.93,1.49,1.49,0,0,0-.39-.71,1.06,1.06,0,0,0-.77-.27,1.09,1.09,0,0,0-.75.26,1.4,1.4,0,0,0-.41.69,3.23,3.23,0,0,0-.13,1,3.61,3.61,0,0,0,.12.94,1.54,1.54,0,0,0,.4.72A1,1,0,0,0,140.66,9.16Z"/><path d="M144.84,10.34V4.13h1.68V5.6a2.88,2.88,0,0,1,.43-.79,2,2,0,0,1,.69-.58,2.13,2.13,0,0,1,1-.22h.11V5.7l-.11,0a3.14,3.14,0,0,0-1.21.09,1.17,1.17,0,0,0-.63.47,1.38,1.38,0,0,0-.19.7v3.4Z"/><path d="M151.48,1.67V3.25h-1.7V1.67Zm0,2.46v6.21h-1.68V4.13Z"/><path d="M154.52,7.64a2.07,2.07,0,0,0,.15.82,1.17,1.17,0,0,0,.46.54,1.23,1.23,0,0,0,.71.19,1.5,1.5,0,0,0,.78-.19,1.21,1.21,0,0,0,.48-.63h1.58a2.25,2.25,0,0,1-.54,1.14,2.74,2.74,0,0,1-1,.7,3.14,3.14,0,0,1-1.25.25,3.23,3.23,0,0,1-1.61-.39A2.72,2.72,0,0,1,153.18,9a3.33,3.33,0,0,1-.4-1.67,3.83,3.83,0,0,1,.36-1.68,2.82,2.82,0,0,1,1-1.18A2.93,2.93,0,0,1,155.79,4a3,3,0,0,1,1.6.4,2.55,2.55,0,0,1,1,1.11,3.87,3.87,0,0,1,.33,1.64v.48Zm0-1h2.53a1.72,1.72,0,0,0-.14-.68,1.11,1.11,0,0,0-.42-.49,1.25,1.25,0,0,0-.7-.18,1.19,1.19,0,0,0-.69.19,1.25,1.25,0,0,0-.43.51A1.51,1.51,0,0,0,154.52,6.59Z"/><path d="M162.35,10.46a3.77,3.77,0,0,1-1.25-.21,2.51,2.51,0,0,1-1-.68,2.22,2.22,0,0,1-.53-1.19h1.52a1,1,0,0,0,.29.52,1.18,1.18,0,0,0,.47.28,1.8,1.8,0,0,0,.5.08,1.69,1.69,0,0,0,.81-.16.52.52,0,0,0,.31-.49.49.49,0,0,0-.18-.4,1.31,1.31,0,0,0-.6-.23l-1.1-.23a3,3,0,0,1-1.32-.59A1.5,1.5,0,0,1,159.75,6a1.76,1.76,0,0,1,.3-1,2,2,0,0,1,.88-.7A3.55,3.55,0,0,1,162.36,4a3,3,0,0,1,1.83.51,1.68,1.68,0,0,1,.7,1.42h-1.46a.89.89,0,0,0-.36-.56,1.28,1.28,0,0,0-.73-.19,1.54,1.54,0,0,0-.75.16.52.52,0,0,0-.29.49.43.43,0,0,0,.24.39,2.36,2.36,0,0,0,.74.24l1,.23a2.69,2.69,0,0,1,.85.35,1.75,1.75,0,0,1,.5.47,1.64,1.64,0,0,1,.25.52,1.73,1.73,0,0,1,.07.47,1.7,1.7,0,0,1-.33,1.06,2,2,0,0,1-.92.66A3.76,3.76,0,0,1,162.35,10.46Z"/><path d="M175.6,10.34h-1.82L172.37,7h-1.76v3.34h-1.74V1.66h3.66a3.81,3.81,0,0,1,1.7.33,2.17,2.17,0,0,1,1,.92,2.79,2.79,0,0,1,.31,1.34,2.86,2.86,0,0,1-.21,1.16,2.36,2.36,0,0,1-.56.78,3.11,3.11,0,0,1-.75.51Zm-3.38-4.69a1.59,1.59,0,0,0,1.11-.38,1.28,1.28,0,0,0,.41-1,1.18,1.18,0,0,0-.4-.95,1.45,1.45,0,0,0-1-.35h-1.73V5.65Z"/><path d="M178.33,7.64a2.07,2.07,0,0,0,.15.82,1.15,1.15,0,0,0,.45.54,1.29,1.29,0,0,0,.72.19,1.44,1.44,0,0,0,.77-.19,1.18,1.18,0,0,0,.49-.63h1.58A2.25,2.25,0,0,1,182,9.51a2.7,2.7,0,0,1-1,.7,3.09,3.09,0,0,1-1.24.25,3.23,3.23,0,0,1-1.61-.39A2.81,2.81,0,0,1,177,9a3.43,3.43,0,0,1-.39-1.67A3.83,3.83,0,0,1,177,5.63a2.82,2.82,0,0,1,1-1.18A2.93,2.93,0,0,1,179.6,4a3.06,3.06,0,0,1,1.6.4,2.55,2.55,0,0,1,1,1.11,3.87,3.87,0,0,1,.32,1.64v.48Zm0-1h2.54a1.72,1.72,0,0,0-.14-.68,1.11,1.11,0,0,0-.42-.49,1.25,1.25,0,0,0-.7-.18,1.19,1.19,0,0,0-.69.19,1.28,1.28,0,0,0-.44.51A1.51,1.51,0,0,0,178.32,6.59Z"/><path d="M186.39,4a2.74,2.74,0,0,1,1.36.32,2.28,2.28,0,0,1,.89.85A2.64,2.64,0,0,1,189,6.39h-1.46a1.51,1.51,0,0,0-.17-.49A1.18,1.18,0,0,0,187,5.5a1.11,1.11,0,0,0-.6-.15,1.24,1.24,0,0,0-1,.46A2.22,2.22,0,0,0,185,7.24a2.49,2.49,0,0,0,.37,1.45,1.22,1.22,0,0,0,1,.53A.93.93,0,0,0,187,9a1.21,1.21,0,0,0,.37-.41,1.49,1.49,0,0,0,.16-.46H189a2.38,2.38,0,0,1-1.23,2,2.89,2.89,0,0,1-1.37.31,3,3,0,0,1-1.54-.39A2.7,2.7,0,0,1,183.78,9a3.47,3.47,0,0,1-.39-1.7,3.67,3.67,0,0,1,.38-1.7,2.72,2.72,0,0,1,1-1.15A3,3,0,0,1,186.39,4Z"/><path d="M191.67,7.64a2.07,2.07,0,0,0,.15.82,1.17,1.17,0,0,0,.46.54,1.26,1.26,0,0,0,.71.19,1.5,1.5,0,0,0,.78-.19,1.16,1.16,0,0,0,.48-.63h1.58a2.25,2.25,0,0,1-.54,1.14,2.74,2.74,0,0,1-1,.7,3.12,3.12,0,0,1-1.24.25,3.26,3.26,0,0,1-1.62-.39A2.72,2.72,0,0,1,190.33,9a3.44,3.44,0,0,1-.4-1.67,3.83,3.83,0,0,1,.36-1.68,2.82,2.82,0,0,1,1-1.18A2.94,2.94,0,0,1,193,4a3,3,0,0,1,1.59.4,2.55,2.55,0,0,1,1,1.11,3.87,3.87,0,0,1,.33,1.64v.48Zm0-1h2.53a1.72,1.72,0,0,0-.14-.68,1.15,1.15,0,0,0-.41-.49,1.28,1.28,0,0,0-.7-.18,1.2,1.2,0,0,0-.7.19,1.25,1.25,0,0,0-.43.51A1.51,1.51,0,0,0,191.67,6.59Z"/><path d="M198.86,1.67V3.25h-1.71V1.67Zm0,2.46v6.21h-1.67V4.13Z"/><path d="M205.78,4.13l-2.33,6.21h-1.26l-2.34-6.21h1.59l1.35,4h.05l1.34-4Z"/><path d="M207.87,7.64a2.07,2.07,0,0,0,.15.82,1.17,1.17,0,0,0,.46.54,1.26,1.26,0,0,0,.71.19A1.5,1.5,0,0,0,210,9a1.16,1.16,0,0,0,.48-.63H212a2.25,2.25,0,0,1-.54,1.14,2.74,2.74,0,0,1-1,.7,3.12,3.12,0,0,1-1.24.25,3.26,3.26,0,0,1-1.62-.39A2.72,2.72,0,0,1,206.53,9a3.44,3.44,0,0,1-.4-1.67,3.83,3.83,0,0,1,.36-1.68,2.82,2.82,0,0,1,1-1.18A2.94,2.94,0,0,1,209.15,4a3,3,0,0,1,1.59.4,2.55,2.55,0,0,1,1,1.11A3.87,3.87,0,0,1,212,7.16v.48Zm0-1h2.53a1.72,1.72,0,0,0-.14-.68,1.15,1.15,0,0,0-.41-.49,1.28,1.28,0,0,0-.7-.18,1.2,1.2,0,0,0-.7.19,1.25,1.25,0,0,0-.43.51A1.51,1.51,0,0,0,207.87,6.59Z"/><path d="M215.58,10.46a2.36,2.36,0,0,1-1.94-.86,3.71,3.71,0,0,1-.7-2.4,4.57,4.57,0,0,1,.28-1.69,2.41,2.41,0,0,1,.84-1.1,2.29,2.29,0,0,1,1.35-.4,2.45,2.45,0,0,1,.62.08,2.33,2.33,0,0,1,.54.21,1.87,1.87,0,0,1,.42.3,2,2,0,0,1,.29.37V1.42H219v8.92h-1.26l-.21-1.27a2,2,0,0,1-.23.5A2.27,2.27,0,0,1,217,10a2,2,0,0,1-.57.32A2.41,2.41,0,0,1,215.58,10.46ZM216,9.2a1.12,1.12,0,0,0,1-.46,2.78,2.78,0,0,0,.33-1.56,3.18,3.18,0,0,0-.15-1.06,1.23,1.23,0,0,0-.43-.63,1.18,1.18,0,0,0-.72-.2,1.2,1.2,0,0,0-.95.43,2.24,2.24,0,0,0-.38,1.46A2.62,2.62,0,0,0,215,8.71,1.12,1.12,0,0,0,216,9.2Z"/><path d="M226.55,10.46a2.34,2.34,0,0,1-.79-.12,1.75,1.75,0,0,1-.95-.77,2.55,2.55,0,0,1-.24-.5l-.2,1.27H223.1V1.42h1.76V5a1.62,1.62,0,0,1,.29-.37,1.87,1.87,0,0,1,.42-.3,2.25,2.25,0,0,1,.53-.21,2.47,2.47,0,0,1,.63-.08,2.18,2.18,0,0,1,1.81.84,3.69,3.69,0,0,1,.66,2.35,4.52,4.52,0,0,1-.3,1.72,2.38,2.38,0,0,1-2.35,1.54Zm-.38-1.26a1.16,1.16,0,0,0,.94-.47,2.5,2.5,0,0,0,.37-1.55,2.39,2.39,0,0,0-.35-1.43,1.31,1.31,0,0,0-1.69-.26,1.24,1.24,0,0,0-.44.63,3.49,3.49,0,0,0-.14,1.06,2.88,2.88,0,0,0,.32,1.56A1.15,1.15,0,0,0,226.17,9.2Z"/><path d="M231.07,12.32a3.11,3.11,0,0,1-1.16-.21V11l.61,0a2.47,2.47,0,0,0,.65,0,1,1,0,0,0,.38-.17.84.84,0,0,0,.18-.21c0-.08.06-.13.08-.18l.11-.34-2.41-5.95h1.73l1.49,4.05,1.51-4H236l-2.52,6.24a4.37,4.37,0,0,1-.68,1.22,1.87,1.87,0,0,1-.78.57A2.44,2.44,0,0,1,231.07,12.32Z"/><path d="M239.54,10.34V1.66h3.19a4.19,4.19,0,0,1,1.7.33,2.73,2.73,0,0,1,1.18,1,2.7,2.7,0,0,1,.44,1.56A2.69,2.69,0,0,1,245.66,6a2.46,2.46,0,0,1-1.07.94,3.8,3.8,0,0,1-1.63.33H241.3v3.09Zm1.74-4.45h1.63a1.45,1.45,0,0,0,1.5-1.47,1.26,1.26,0,0,0-.45-1A1.55,1.55,0,0,0,242.88,3h-1.6Z"/><path d="M248.79,10.46a2.66,2.66,0,0,1-1.07-.22,1.82,1.82,0,0,1-.75-.65,1.86,1.86,0,0,1-.28-1A1.77,1.77,0,0,1,247.46,7a4.37,4.37,0,0,1,2.41-.55h.77V6.08a.83.83,0,0,0-.25-.66,1.06,1.06,0,0,0-.77-.22,1.55,1.55,0,0,0-.73.18.89.89,0,0,0-.47.6H247a1.92,1.92,0,0,1,.39-1.1,2,2,0,0,1,1-.65A3.92,3.92,0,0,1,249.7,4a4.09,4.09,0,0,1,1.53.24,1.63,1.63,0,0,1,.83.68A2,2,0,0,1,252.32,6v4.36h-1.46l-.15-1.07a1.91,1.91,0,0,1-.79.93A2.36,2.36,0,0,1,248.79,10.46Zm.59-1.15a1.18,1.18,0,0,0,.46-.09,1.52,1.52,0,0,0,.41-.24,1,1,0,0,0,.28-.33.67.67,0,0,0,.11-.38V7.36H250a3.44,3.44,0,0,0-.81.11,1.23,1.23,0,0,0-.61.32.78.78,0,0,0-.23.6.83.83,0,0,0,.29.67A1.08,1.08,0,0,0,249.38,9.31Z"/><path d="M253.9,10.34V4.13h1.69V5.6a2.85,2.85,0,0,1,.42-.79,2,2,0,0,1,1.66-.8h.11V5.7l-.11,0a3.14,3.14,0,0,0-1.21.09,1.25,1.25,0,0,0-.63.47,1.38,1.38,0,0,0-.18.7v3.4Z"/><path d="M262.66,5.35h-1.38V8.66a.77.77,0,0,0,.06.34.28.28,0,0,0,.18.14,1.35,1.35,0,0,0,.31,0h.84v1.08a2,2,0,0,1-.38.11,4.37,4.37,0,0,1-.71,0,3,3,0,0,1-1.26-.21,1.18,1.18,0,0,1-.62-.58,2.07,2.07,0,0,1-.18-.88V5.35h-1V4.13h1.06L260,2.26h1.25V4.13h1.38Z"/><path d="M265.74,1.67V3.25H264V1.67Zm0,2.46v6.21h-1.68V4.13Z"/><path d="M270,4a2.76,2.76,0,0,1,1.36.32,2.32,2.32,0,0,1,.88.85,2.64,2.64,0,0,1,.37,1.21h-1.46a1.3,1.3,0,0,0-.17-.49,1.08,1.08,0,0,0-.36-.41,1.05,1.05,0,0,0-.59-.15,1.26,1.26,0,0,0-1,.46,2.28,2.28,0,0,0-.38,1.43A2.49,2.49,0,0,0,269,8.69a1.24,1.24,0,0,0,1.06.53.88.88,0,0,0,.57-.18,1.21,1.21,0,0,0,.37-.41,1.52,1.52,0,0,0,.17-.46h1.42a2.41,2.41,0,0,1-.34,1.14,2.33,2.33,0,0,1-.89.84,2.87,2.87,0,0,1-1.36.31,3,3,0,0,1-1.54-.39A2.64,2.64,0,0,1,267.39,9a3.47,3.47,0,0,1-.39-1.7,3.67,3.67,0,0,1,.37-1.7,2.85,2.85,0,0,1,1.05-1.15A3,3,0,0,1,270,4Z"/><path d="M275.61,1.67V3.25h-1.7V1.67Zm0,2.46v6.21h-1.67V4.13Z"/><path d="M277.25,12.27V4.13H279V5a2.64,2.64,0,0,1,.34-.41,2.14,2.14,0,0,1,.45-.32,2.17,2.17,0,0,1,.54-.21,2.35,2.35,0,0,1,.6-.08A2.15,2.15,0,0,1,283,5.4a4.39,4.39,0,0,1,.31,1.79A4.47,4.47,0,0,1,283,9a2.38,2.38,0,0,1-.92,1.07,2.55,2.55,0,0,1-1.32.35,2.1,2.1,0,0,1-.56-.08,2,2,0,0,1-.49-.23,2.13,2.13,0,0,1-.4-.33,2.45,2.45,0,0,1-.31-.41v2.86Zm3.09-3.1a1.18,1.18,0,0,0,1-.47,2.33,2.33,0,0,0,.39-1.49,2.42,2.42,0,0,0-.37-1.42,1.16,1.16,0,0,0-1-.5,1.11,1.11,0,0,0-1,.54A2.66,2.66,0,0,0,279,7.21a3.32,3.32,0,0,0,.14,1,1.74,1.74,0,0,0,.45.73A1.08,1.08,0,0,0,280.34,9.17Z"/><path d="M286.28,10.46a2.67,2.67,0,0,1-1.08-.22,1.89,1.89,0,0,1-.75-.65,1.86,1.86,0,0,1-.27-1A1.76,1.76,0,0,1,284.94,7a4.39,4.39,0,0,1,2.41-.55h.77V6.08a.83.83,0,0,0-.25-.66,1.06,1.06,0,0,0-.77-.22,1.58,1.58,0,0,0-.73.18.91.91,0,0,0-.47.6h-1.45a1.79,1.79,0,0,1,.39-1.1,2,2,0,0,1,1-.65A4,4,0,0,1,287.18,4a4.09,4.09,0,0,1,1.53.24,1.7,1.7,0,0,1,.84.68A2,2,0,0,1,289.8,6v4.36h-1.46l-.14-1.07a2,2,0,0,1-.8.93A2.34,2.34,0,0,1,286.28,10.46Zm.58-1.15a1.27,1.27,0,0,0,.47-.09,1.63,1.63,0,0,0,.4-.24,1.15,1.15,0,0,0,.29-.33.75.75,0,0,0,.1-.38V7.36h-.63a3.44,3.44,0,0,0-.81.11,1.27,1.27,0,0,0-.61.32.78.78,0,0,0-.23.6.83.83,0,0,0,.29.67A1.1,1.1,0,0,0,286.86,9.31Z"/><path d="M291.38,10.34V4.13h1.72V5a2.18,2.18,0,0,1,.38-.44,1.83,1.83,0,0,1,.58-.35,2.34,2.34,0,0,1,.84-.14A2.52,2.52,0,0,1,296,4.3a1.88,1.88,0,0,1,.81.7,2.31,2.31,0,0,1,.31,1.25v4.09h-1.76V6.46a.92.92,0,0,0-.3-.75,1.09,1.09,0,0,0-.73-.26,1.46,1.46,0,0,0-.55.11,1,1,0,0,0-.44.3.75.75,0,0,0-.17.51v4Z"/><path d="M302,5.35h-1.38V8.66a.77.77,0,0,0,.06.34.24.24,0,0,0,.18.14,1.3,1.3,0,0,0,.31,0H302v1.08a1.89,1.89,0,0,1-.37.11,4.45,4.45,0,0,1-.71,0,3,3,0,0,1-1.26-.21,1.18,1.18,0,0,1-.62-.58,2.07,2.07,0,0,1-.18-.88V5.35h-1V4.13h1.07l.44-1.87h1.25V4.13H302Z"/><path d="M309.33,10.46a5.31,5.31,0,0,1-1.26-.16,4,4,0,0,1-1.13-.49A3,3,0,0,1,306.1,9a2.47,2.47,0,0,1-.4-1.14h1.8a1.43,1.43,0,0,0,.34.67,1.72,1.72,0,0,0,.63.41,2.35,2.35,0,0,0,.86.14A3,3,0,0,0,310.2,9a1.47,1.47,0,0,0,.64-.36.85.85,0,0,0,.23-.61.76.76,0,0,0-.19-.54,1.42,1.42,0,0,0-.52-.34,4.46,4.46,0,0,0-.75-.22l-1.51-.3a2.84,2.84,0,0,1-1.55-.79,2.28,2.28,0,0,1-.6-1.59,2.28,2.28,0,0,1,.44-1.41,2.73,2.73,0,0,1,1.2-.92,4.23,4.23,0,0,1,1.7-.33,4.59,4.59,0,0,1,1.89.35,2.78,2.78,0,0,1,1.16,1,2.43,2.43,0,0,1,.41,1.34H311a1.3,1.3,0,0,0-.27-.73,1.28,1.28,0,0,0-.59-.39,2.51,2.51,0,0,0-.81-.12,2.38,2.38,0,0,0-.63.07,2,2,0,0,0-.49.22,1.07,1.07,0,0,0-.3.34.86.86,0,0,0-.11.43.83.83,0,0,0,.25.61A2,2,0,0,0,309,5l1.49.31a3.68,3.68,0,0,1,1.27.46,2.47,2.47,0,0,1,.71.69,2.28,2.28,0,0,1,.31.79,4,4,0,0,1,.08.73,2,2,0,0,1-.44,1.26,3,3,0,0,1-1.23.89A4.76,4.76,0,0,1,309.33,10.46Z"/><path d="M315.57,7.64a2.07,2.07,0,0,0,.15.82,1.17,1.17,0,0,0,.46.54,1.23,1.23,0,0,0,.71.19,1.5,1.5,0,0,0,.78-.19,1.21,1.21,0,0,0,.48-.63h1.58a2.25,2.25,0,0,1-.54,1.14,2.74,2.74,0,0,1-1,.7,3.12,3.12,0,0,1-1.24.25,3.24,3.24,0,0,1-1.62-.39A2.72,2.72,0,0,1,314.23,9a3.33,3.33,0,0,1-.4-1.67,3.83,3.83,0,0,1,.36-1.68,2.82,2.82,0,0,1,1-1.18A2.94,2.94,0,0,1,316.85,4a3,3,0,0,1,1.59.4,2.55,2.55,0,0,1,1,1.11,3.87,3.87,0,0,1,.33,1.64v.48Zm0-1h2.53a1.72,1.72,0,0,0-.14-.68,1.11,1.11,0,0,0-.42-.49,1.24,1.24,0,0,0-.69-.18,1.2,1.2,0,0,0-.7.19,1.25,1.25,0,0,0-.43.51A1.51,1.51,0,0,0,315.57,6.59Z"/><path d="M326.53,10.34H324.7l-1.48-2-1.49,2h-1.84l2.39-3.24-2.18-3h1.83l1.29,1.74,1.29-1.74h1.83l-2.19,3Z"/><rect class="fe64dcb2-0c23-49b3-968f-631b26df03e1" x="4.62" y="23.86" width="9.14" height="9.14"/><path d="M18.21,26h3.45v.85H19.24v1.27h2.09v.84H19.24V31h-1Z"/><path d="M23.08,29.45a1.14,1.14,0,0,0,.09.48.7.7,0,0,0,.26.32.82.82,0,0,0,.42.11.94.94,0,0,0,.45-.11.67.67,0,0,0,.28-.37h.92a1.27,1.27,0,0,1-.31.66,1.67,1.67,0,0,1-.59.42,2,2,0,0,1-.73.14,1.92,1.92,0,0,1-.94-.23,1.64,1.64,0,0,1-.64-.64,2,2,0,0,1-.23-1,2.24,2.24,0,0,1,.21-1,1.68,1.68,0,0,1,.6-.69,1.73,1.73,0,0,1,.95-.25,1.78,1.78,0,0,1,.93.23,1.5,1.5,0,0,1,.57.65,2.38,2.38,0,0,1,.19,1v.27Zm0-.61h1.47a.85.85,0,0,0-.08-.39.62.62,0,0,0-.24-.29.76.76,0,0,0-.41-.11.65.65,0,0,0-.4.12.73.73,0,0,0-.26.29A.84.84,0,0,0,23.08,28.84Z"/><path d="M26.23,31V27.41h1v.51a1.38,1.38,0,0,1,.45-.41,1.34,1.34,0,0,1,.7-.17,1.19,1.19,0,0,1,.37.06,1.48,1.48,0,0,1,.37.2.94.94,0,0,1,.27.32,1.55,1.55,0,0,1,.46-.42,1.27,1.27,0,0,1,.64-.16,1.51,1.51,0,0,1,.41.06,1.22,1.22,0,0,1,.38.22,1.07,1.07,0,0,1,.28.4,1.46,1.46,0,0,1,.11.62V31h-1V28.77a.61.61,0,0,0-.09-.35.48.48,0,0,0-.21-.19.71.71,0,0,0-.28-.06.74.74,0,0,0-.28.06.56.56,0,0,0-.24.17.5.5,0,0,0-.09.31V31h-1V28.68a.43.43,0,0,0-.09-.28.52.52,0,0,0-.22-.17.63.63,0,0,0-.27-.06.74.74,0,0,0-.28.06.58.58,0,0,0-.23.18.44.44,0,0,0-.1.3V31Z"/><path d="M33.54,31.1a1.61,1.61,0,0,1-.63-.13,1.08,1.08,0,0,1-.44-.38,1.11,1.11,0,0,1-.16-.6,1,1,0,0,1,.45-.9,2.43,2.43,0,0,1,1.4-.32h.46v-.22a.49.49,0,0,0-.15-.38A.65.65,0,0,0,34,28a1,1,0,0,0-.42.1.55.55,0,0,0-.28.36h-.85a1.07,1.07,0,0,1,.23-.65,1.21,1.21,0,0,1,.56-.38,2.55,2.55,0,0,1,.81-.12,2.28,2.28,0,0,1,.89.14,1,1,0,0,1,.48.39,1.11,1.11,0,0,1,.16.61V31h-.86l-.08-.63a1.14,1.14,0,0,1-.47.55A1.33,1.33,0,0,1,33.54,31.1Zm.34-.67a.92.92,0,0,0,.5-.19.65.65,0,0,0,.17-.2.44.44,0,0,0,.07-.22v-.53h-.37a1.86,1.86,0,0,0-.48.06.74.74,0,0,0-.35.19.47.47,0,0,0-.14.35.46.46,0,0,0,.18.39A.6.6,0,0,0,33.88,30.43Z"/><path d="M37.67,31.09A1.75,1.75,0,0,1,37,31a.88.88,0,0,1-.35-.25.89.89,0,0,1-.14-.35,2.56,2.56,0,0,1,0-.39V25.83h1v4.06a.61.61,0,0,0,.08.32.47.47,0,0,0,.33.15h.16V31a.65.65,0,0,1-.21.06A.76.76,0,0,1,37.67,31.09Z"/><path d="M39.59,29.45a1.14,1.14,0,0,0,.09.48.7.7,0,0,0,.26.32.82.82,0,0,0,.42.11.88.88,0,0,0,.45-.11.73.73,0,0,0,.29-.37H42a1.28,1.28,0,0,1-.32.66,1.67,1.67,0,0,1-.59.42,2,2,0,0,1-1.67-.09,1.55,1.55,0,0,1-.63-.64,1.88,1.88,0,0,1-.23-1,2.24,2.24,0,0,1,.21-1,1.55,1.55,0,0,1,.6-.69,1.69,1.69,0,0,1,.94-.25,1.78,1.78,0,0,1,.93.23,1.5,1.5,0,0,1,.57.65,2.22,2.22,0,0,1,.19,1v.27Zm0-.61h1.48a1,1,0,0,0-.08-.39.71.71,0,0,0-.25-.29.73.73,0,0,0-.41-.11.68.68,0,0,0-.4.12.64.64,0,0,0-.25.29A.85.85,0,0,0,39.59,28.84Z"/><rect class="a0f92f8e-ebe9-44fe-b445-1b7332e6aa5d" x="4.73" y="39.72" width="9.14" height="9.14"/><path d="M18.32,46.89V41.83H19.8L21,45.44l1.17-3.61h1.48v5.06h-1V43l-1.22,3.87h-.8L19.35,43v3.85Z"/><path d="M25.66,47a1.45,1.45,0,0,1-.63-.13,1,1,0,0,1-.43-.38,1.13,1.13,0,0,1,.28-1.5,2.53,2.53,0,0,1,1.41-.32h.45V44.4a.49.49,0,0,0-.15-.38.64.64,0,0,0-.45-.13.88.88,0,0,0-.42.11.51.51,0,0,0-.28.35h-.85a1.13,1.13,0,0,1,.23-.65,1.27,1.27,0,0,1,.56-.38,2.55,2.55,0,0,1,.81-.12,2.44,2.44,0,0,1,.89.14,1,1,0,0,1,.49.39,1.24,1.24,0,0,1,.15.62v2.54h-.86l-.08-.62a1.14,1.14,0,0,1-.46.54A1.4,1.4,0,0,1,25.66,47Zm.34-.67a.76.76,0,0,0,.27,0,1,1,0,0,0,.24-.14.7.7,0,0,0,.16-.19.41.41,0,0,0,.07-.23v-.53h-.37a3.5,3.5,0,0,0-.48.06.91.91,0,0,0-.35.19.47.47,0,0,0-.14.35.49.49,0,0,0,.18.4A.64.64,0,0,0,26,46.29Z"/><path d="M29.79,47a1.75,1.75,0,0,1-.63-.09.88.88,0,0,1-.35-.25.89.89,0,0,1-.14-.35,2.47,2.47,0,0,1,0-.39V41.69h1v4.06a.61.61,0,0,0,.08.32.4.4,0,0,0,.33.15l.17,0v.63l-.22.06Z"/><path d="M31.71,45.31a1.22,1.22,0,0,0,.09.49.68.68,0,0,0,.27.31.76.76,0,0,0,.41.11,1,1,0,0,0,.46-.11.72.72,0,0,0,.28-.37h.92a1.28,1.28,0,0,1-.32.66,1.56,1.56,0,0,1-.59.42,2,2,0,0,1-1.67-.09,1.59,1.59,0,0,1-.63-.63,1.92,1.92,0,0,1-.23-1,2.24,2.24,0,0,1,.21-1,1.68,1.68,0,0,1,.6-.69,1.79,1.79,0,0,1,.95-.25,1.77,1.77,0,0,1,.92.23,1.44,1.44,0,0,1,.57.65,2.25,2.25,0,0,1,.19,1v.27Zm0-.6h1.48a1,1,0,0,0-.08-.4.71.71,0,0,0-.25-.29.72.72,0,0,0-.4-.11.69.69,0,0,0-.41.12.71.71,0,0,0-.25.29A.89.89,0,0,0,31.71,44.71Z"/><path d="M80,68.78H83.2v.72a7.14,7.14,0,0,0-.41.61c-.14.23-.27.48-.4.75s-.24.54-.34.81a5.39,5.39,0,0,0-.25.78,2.94,2.94,0,0,0-.1.67h-1c0-.17.06-.4.12-.67s.16-.56.28-.89a9.12,9.12,0,0,1,.47-1,8,8,0,0,1,.67-1H80Z"/><path d="M85.41,68.72a2.2,2.2,0,0,1,.8.14,1.32,1.32,0,0,1,.56.41,1,1,0,0,1,.2.67.87.87,0,0,1-.18.56,1.19,1.19,0,0,1-.45.35,1,1,0,0,1,.39.2,1.15,1.15,0,0,1,.31.38.88.88,0,0,1,.13.47,1.1,1.1,0,0,1-.22.67,1.38,1.38,0,0,1-.61.43,2.42,2.42,0,0,1-.93.16A2.35,2.35,0,0,1,84.5,73a1.33,1.33,0,0,1-.61-.43,1,1,0,0,1-.22-.67,1,1,0,0,1,.12-.47,1.29,1.29,0,0,1,.31-.38,1,1,0,0,1,.39-.2A1.28,1.28,0,0,1,84,70.5a.88.88,0,0,1-.19-.56,1.05,1.05,0,0,1,.21-.67,1.32,1.32,0,0,1,.56-.41A2.22,2.22,0,0,1,85.41,68.72Zm0,3.79a.94.94,0,0,0,.61-.18.54.54,0,0,0,.21-.45.57.57,0,0,0-.1-.34.58.58,0,0,0-.28-.23,1,1,0,0,0-.44-.08,1,1,0,0,0-.43.08.63.63,0,0,0-.28.23.57.57,0,0,0-.1.34.52.52,0,0,0,.22.45A.9.9,0,0,0,85.41,72.51Zm0-2a.8.8,0,0,0,.5-.15.52.52,0,0,0,.19-.44.55.55,0,0,0-.19-.45.75.75,0,0,0-.5-.16.71.71,0,0,0-.48.16.56.56,0,0,0-.2.45.53.53,0,0,0,.2.44A.76.76,0,0,0,85.41,70.51Z"/><path d="M87.73,73.12v-1h1v1Z"/><path d="M91.13,68.71a1.86,1.86,0,0,1,.75.15,1.44,1.44,0,0,1,.57.43,1.23,1.23,0,0,1,.24.67h-.81a.82.82,0,0,0-.26-.42.85.85,0,0,0-1,0,1,1,0,0,0-.3.49,2,2,0,0,0,0,.74,1,1,0,0,1,.25-.24,1.19,1.19,0,0,1,.34-.16,1.74,1.74,0,0,1,.39,0,1.68,1.68,0,0,1,.77.16,1.25,1.25,0,0,1,.52.47,1.33,1.33,0,0,1,.19.7,1.37,1.37,0,0,1-.21.75A1.4,1.4,0,0,1,92,73a1.84,1.84,0,0,1-.86.19,1.77,1.77,0,0,1-1-.26,1.65,1.65,0,0,1-.61-.74A2.62,2.62,0,0,1,89.31,71a3,3,0,0,1,.22-1.23,1.74,1.74,0,0,1,.62-.8A1.69,1.69,0,0,1,91.13,68.71ZM91.07,71a.77.77,0,0,0-.36.09.74.74,0,0,0-.28.21.4.4,0,0,0-.11.26,1.22,1.22,0,0,0,.09.49.7.7,0,0,0,.26.32.69.69,0,0,0,.4.11.82.82,0,0,0,.38-.09.74.74,0,0,0,.37-.67.72.72,0,0,0-.1-.4.78.78,0,0,0-.27-.24A.92.92,0,0,0,91.07,71Z"/><path d="M94.39,68.72a1,1,0,0,1,.55.16,1.13,1.13,0,0,1,.39.45,1.33,1.33,0,0,1,.15.63,1.26,1.26,0,0,1-.15.62A1.16,1.16,0,0,1,95,71a1.1,1.1,0,0,1-.56.16,1,1,0,0,1-.56-.16,1.21,1.21,0,0,1-.4-.44,1.26,1.26,0,0,1-.14-.62,1.33,1.33,0,0,1,.14-.63,1.24,1.24,0,0,1,.4-.45A1,1,0,0,1,94.39,68.72Zm0,2a.34.34,0,0,0,.34-.2,1.28,1.28,0,0,0,.11-.57,1.35,1.35,0,0,0-.11-.59.36.36,0,0,0-.34-.21.33.33,0,0,0-.25.1.68.68,0,0,0-.15.27,1.81,1.81,0,0,0,0,.43,1.28,1.28,0,0,0,.11.57A.35.35,0,0,0,94.38,70.73Zm3.1-2-2.91,4.41h-.52L97,68.74Zm-.25,2a1,1,0,0,1,.56.16,1.07,1.07,0,0,1,.39.45,1.33,1.33,0,0,1,.15.63,1.26,1.26,0,0,1-.15.62,1.09,1.09,0,0,1-.38.44,1,1,0,0,1-.57.16,1,1,0,0,1-.56-.16,1,1,0,0,1-.39-.44,1.26,1.26,0,0,1-.15-.62,1.33,1.33,0,0,1,.15-.63,1.23,1.23,0,0,1,.39-.45A1,1,0,0,1,97.23,70.72Zm0,2a.37.37,0,0,0,.25-.09.55.55,0,0,0,.15-.27,1.58,1.58,0,0,0,.05-.41,1.73,1.73,0,0,0-.05-.42.82.82,0,0,0-.15-.28.36.36,0,0,0-.5,0,.82.82,0,0,0-.15.28,1.73,1.73,0,0,0,0,.42,1.58,1.58,0,0,0,0,.41.55.55,0,0,0,.15.27A.35.35,0,0,0,97.23,72.73Z"/><path d="M101.75,68.68a6.24,6.24,0,0,0-.51,1.27,5.54,5.54,0,0,0-.18,1.4,4.78,4.78,0,0,0,.17,1.32,7.85,7.85,0,0,0,.49,1.31h-.61a7.45,7.45,0,0,1-.44-.83,3.71,3.71,0,0,1-.29-.85,4.06,4.06,0,0,1-.11-1,4.25,4.25,0,0,1,.24-1.43,5.3,5.3,0,0,1,.61-1.24Z"/><path d="M105.25,68.78h.87v4.34h-.79l-2.06-3v3h-.87V68.78h.87l2,2.88Z"/><path d="M109.79,70.05v.64H107v-.64Zm0,1.37v.64H107v-.64Z"/><path d="M111.17,73.12V69.87h-.78v-.49a2.5,2.5,0,0,0,.61-.07.76.76,0,0,0,.34-.21.51.51,0,0,0,.13-.32h.59v4.34Z"/><path d="M113.74,73.12V69.87H113v-.49a2.35,2.35,0,0,0,.6-.07.74.74,0,0,0,.35-.21.58.58,0,0,0,.13-.32h.58v4.34Z"/><path d="M116,68.68a5,5,0,0,1,.62,1.24,4.25,4.25,0,0,1,.23,1.43,4.07,4.07,0,0,1-.1,1,5,5,0,0,1-.29.85c-.13.27-.27.55-.44.83h-.62a7.13,7.13,0,0,0,.5-1.31,5.19,5.19,0,0,0,.17-1.32,5.14,5.14,0,0,0-.19-1.4,5.7,5.7,0,0,0-.5-1.27Z"/><path class="f2c06520-b3ac-42a8-a4f7-22200b833d8c" d="M109.24,39.2v-.65a1.14,1.14,0,0,1,.13-.57,1.23,1.23,0,0,1,.32-.42,2.83,2.83,0,0,1,.45-.32l.48-.25.45-.24a1.49,1.49,0,0,0,.32-.28.53.53,0,0,0,.12-.35.57.57,0,0,0-.18-.43.69.69,0,0,0-.49-.16.83.83,0,0,0-.56.19.86.86,0,0,0-.28.57h-.84a1.55,1.55,0,0,1,.19-.75,1.42,1.42,0,0,1,.57-.54,2.24,2.24,0,0,1,1.78,0,1.22,1.22,0,0,1,.54.46,1.19,1.19,0,0,1,.2.68,1.18,1.18,0,0,1-.44,1,2.83,2.83,0,0,1-.44.3l-.47.23c-.16.07-.3.15-.43.22a1.23,1.23,0,0,0-.32.25.52.52,0,0,0-.12.34v0h2.21v.74Z"/><path class="f2c06520-b3ac-42a8-a4f7-22200b833d8c" d="M113.75,39.2V36H113v-.49a2.35,2.35,0,0,0,.6-.07.74.74,0,0,0,.35-.21.58.58,0,0,0,.13-.32h.58V39.2Z"/><path class="f2c06520-b3ac-42a8-a4f7-22200b833d8c" d="M115.58,39.2v-1h1v1Z"/><path class="f2c06520-b3ac-42a8-a4f7-22200b833d8c" d="M119.12,34.86H120v2.65h.67v.73H120v1h-.85v-1h-2v-.72ZM118,37.51h1.19V35.92Z"/><path class="f2c06520-b3ac-42a8-a4f7-22200b833d8c" d="M122.19,34.8a1,1,0,0,1,.56.16,1.23,1.23,0,0,1,.39.45,1.33,1.33,0,0,1,.14.63,1.26,1.26,0,0,1-.14.62,1.1,1.1,0,0,1-.39.44,1,1,0,0,1-.56.16,1.1,1.1,0,0,1-.56-.16,1.28,1.28,0,0,1-.39-.44,1.26,1.26,0,0,1-.15-.62,1.33,1.33,0,0,1,.15-.63,1.17,1.17,0,0,1,.4-.45A1,1,0,0,1,122.19,34.8Zm0,2a.37.37,0,0,0,.34-.2,1.28,1.28,0,0,0,.11-.57,1.35,1.35,0,0,0-.11-.59.37.37,0,0,0-.34-.21.37.37,0,0,0-.25.09.58.58,0,0,0-.15.28,1.75,1.75,0,0,0-.05.43,1.28,1.28,0,0,0,.11.57A.36.36,0,0,0,122.19,36.81Zm3.1-2-2.92,4.41h-.51l2.92-4.41Zm-.25,2a1,1,0,0,1,.56.17,1.23,1.23,0,0,1,.39.45,1.33,1.33,0,0,1,.14.63,1.29,1.29,0,0,1-.14.62,1.1,1.1,0,0,1-.39.44,1.06,1.06,0,0,1-1.12,0,1.21,1.21,0,0,1-.4-.44,1.41,1.41,0,0,1-.14-.62,1.33,1.33,0,0,1,.15-.63,1.07,1.07,0,0,1,.39-.45A1,1,0,0,1,125,36.79Zm0,2a.33.33,0,0,0,.25-.1.71.71,0,0,0,.15-.26,1.64,1.64,0,0,0,0-.41,1.33,1.33,0,0,0-.06-.42.54.54,0,0,0-.15-.28.3.3,0,0,0-.24-.1.32.32,0,0,0-.25.1.54.54,0,0,0-.15.28,1.73,1.73,0,0,0,0,.42,1.64,1.64,0,0,0,0,.41.51.51,0,0,0,.15.26A.32.32,0,0,0,125,38.81Z"/><path class="f2c06520-b3ac-42a8-a4f7-22200b833d8c" d="M112,42a5.51,5.51,0,0,0-.5,1.27,5.08,5.08,0,0,0-.19,1.4,4.78,4.78,0,0,0,.17,1.32,7.85,7.85,0,0,0,.49,1.31h-.61a7.45,7.45,0,0,1-.44-.83,4.26,4.26,0,0,1-.29-.85,4.15,4.15,0,0,1-.11-1,4.24,4.24,0,0,1,.24-1.42,5,5,0,0,1,.62-1.24Z"/><path class="f2c06520-b3ac-42a8-a4f7-22200b833d8c" d="M115.51,42.06h.87V46.4h-.79l-2.06-3v3h-.87V42.06h.87l2,2.87Z"/><path class="f2c06520-b3ac-42a8-a4f7-22200b833d8c" d="M120.05,43.33V44h-2.84v-.64Zm0,1.37v.64h-2.84V44.7Z"/><path class="f2c06520-b3ac-42a8-a4f7-22200b833d8c" d="M120.69,43.4a1.31,1.31,0,0,1,.22-.78,1.36,1.36,0,0,1,.59-.46,2.06,2.06,0,0,1,.84-.16,2.55,2.55,0,0,1,.86.13,1.22,1.22,0,0,1,.6.38,1,1,0,0,1,.22.66.91.91,0,0,1-.18.56,1.27,1.27,0,0,1-.61.39,1.6,1.6,0,0,1,.44.2,1,1,0,0,1,.45.85,1,1,0,0,1-.14.56,1.17,1.17,0,0,1-.39.41,2,2,0,0,1-.57.24,3.13,3.13,0,0,1-.7.08,2.14,2.14,0,0,1-.89-.17,1.28,1.28,0,0,1-.57-.48,1.49,1.49,0,0,1-.2-.75h.84a.81.81,0,0,0,.29.53.89.89,0,0,0,.54.17,1,1,0,0,0,.63-.18.53.53,0,0,0,.23-.44.52.52,0,0,0-.11-.32.7.7,0,0,0-.29-.21,1.18,1.18,0,0,0-.43-.08l-.42,0v-.69l.37,0a1.18,1.18,0,0,0,.41-.09.58.58,0,0,0,.27-.21.45.45,0,0,0,.1-.29.4.4,0,0,0-.1-.28.54.54,0,0,0-.27-.18,1,1,0,0,0-.4-.07,1,1,0,0,0-.38.07.65.65,0,0,0-.29.23.8.8,0,0,0-.12.42Z"/><path class="f2c06520-b3ac-42a8-a4f7-22200b833d8c" d="M125.08,42a4.94,4.94,0,0,1,.61,1.24,4.24,4.24,0,0,1,.24,1.42,4.79,4.79,0,0,1-.1,1,4.29,4.29,0,0,1-.3.85c-.12.27-.27.55-.43.83h-.62A7.93,7.93,0,0,0,125,46a5.19,5.19,0,0,0,.17-1.32,5.49,5.49,0,0,0-.19-1.4,6.59,6.59,0,0,0-.5-1.27Z"/></svg>