<svg id="f0163661-c7e2-4f11-bd33-7de7292e4178" data-name="Layer 1" xmlns="http://www.w3.org/2000/svg" viewBox="0 0 377.48 157.73"><defs><style>.b3a6fbd2-e785-4f06-b80c-0dfa240774a0,.b50fcd12-8f89-469e-b6b3-8af9ae1b4d48{fill:#ffd297;}.b3a6fbd2-e785-4f06-b80c-0dfa240774a0,.e41d5cf5-d744-4a7f-b907-63d7d5ae87af{stroke:#000;stroke-miterlimit:10;stroke-width:0.4px;}.e41d5cf5-d744-4a7f-b907-63d7d5ae87af,.f4e587f2-4b8a-486d-a960-34b93dc8e107{fill:#26445e;}.a82648c8-3b88-4f22-abd5-81e62ee5e0f8{fill:#fff;}</style></defs><path class="b3a6fbd2-e785-4f06-b80c-0dfa240774a0" d="M186.45,88.92l68.09-8.36a68.6,68.6,0,1,1-76.45-59.73,66.77,66.77,0,0,1,8.36-.51Z"/><path class="e41d5cf5-d744-4a7f-b907-63d7d5ae87af" d="M186.45,88.92V20.32a68.08,68.08,0,0,1,68.09,60.24Z"/><path d="M5.16,1.76a4.33,4.33,0,0,1,2,.45,3.71,3.71,0,0,1,1.4,1.23A3.67,3.67,0,0,1,9.2,5.18H7.1a2.5,2.5,0,0,0-.35-.91,1.81,1.81,0,0,0-.66-.63,2,2,0,0,0-1-.23,2.1,2.1,0,0,0-1.19.33,2.12,2.12,0,0,0-.77,1.09,5.91,5.91,0,0,0-.27,2,4.63,4.63,0,0,0,.6,2.68,1.9,1.9,0,0,0,1.63.83,1.79,1.79,0,0,0,1-.27,2,2,0,0,0,.66-.7,2.86,2.86,0,0,0,.35-.95H9.2a5.38,5.38,0,0,1-.34,1.34,3.72,3.72,0,0,1-.72,1.15,3.37,3.37,0,0,1-1.2.78A4.71,4.71,0,0,1,5.16,12a4.33,4.33,0,0,1-2.39-.64A4.32,4.32,0,0,1,1.21,9.5,6.46,6.46,0,0,1,.67,6.77a6.13,6.13,0,0,1,.54-2.68A3.87,3.87,0,0,1,2.76,2.37,4.51,4.51,0,0,1,5.16,1.76Z"/><path d="M13.81,12A3.62,3.62,0,0,1,12,11.51a3,3,0,0,1-1.2-1.27,4.13,4.13,0,0,1-.43-1.93,4.28,4.28,0,0,1,.43-1.95A3.15,3.15,0,0,1,12,5.05a3.5,3.5,0,0,1,1.83-.46,3.41,3.41,0,0,1,1.81.46,3,3,0,0,1,1.18,1.29,4.33,4.33,0,0,1,.42,2,4.23,4.23,0,0,1-.4,1.89,3.06,3.06,0,0,1-1.18,1.29A3.47,3.47,0,0,1,13.81,12Zm0-1.49a1.21,1.21,0,0,0,.85-.3,1.78,1.78,0,0,0,.46-.82,3.8,3.8,0,0,0,.15-1.1,4.05,4.05,0,0,0-.14-1.06,1.78,1.78,0,0,0-.45-.81,1.17,1.17,0,0,0-.87-.31,1.24,1.24,0,0,0-.86.29,1.7,1.7,0,0,0-.48.79,3.81,3.81,0,0,0-.14,1.1,4.18,4.18,0,0,0,.13,1.07,1.82,1.82,0,0,0,.46.83A1.19,1.19,0,0,0,13.82,10.46Z"/><path d="M21.11,12a3,3,0,0,1-1-.16,2.75,2.75,0,0,1-.87-.44,2.33,2.33,0,0,1-.63-.73,2,2,0,0,1-.24-1V4.72h2V9.37a1.07,1.07,0,0,0,.33.81,1.29,1.29,0,0,0,.94.31,1.37,1.37,0,0,0,.93-.3A1.09,1.09,0,0,0,23,9.34V4.72h2l0,7.09H23.43L23.2,10.4a1.74,1.74,0,0,1-.47,1,1.77,1.77,0,0,1-.77.47A3.23,3.23,0,0,1,21.11,12Z"/><path d="M26.68,11.81V4.72h2v1a2.19,2.19,0,0,1,.42-.51,2.29,2.29,0,0,1,.67-.4,2.77,2.77,0,0,1,1-.16,2.92,2.92,0,0,1,1.21.26,2.06,2.06,0,0,1,.91.8,2.51,2.51,0,0,1,.36,1.42v4.67h-2V7.39a1.09,1.09,0,0,0-.34-.87A1.27,1.27,0,0,0,30,6.23a1.77,1.77,0,0,0-.64.12,1.19,1.19,0,0,0-.5.35.86.86,0,0,0-.19.58v4.53Z"/><path d="M38.82,6.12H37.25V9.9a.75.75,0,0,0,.07.38.31.31,0,0,0,.2.17,1.79,1.79,0,0,0,.36,0h1v1.24a2.26,2.26,0,0,1-.42.12,5.66,5.66,0,0,1-.82.05,3.47,3.47,0,0,1-1.44-.24,1.37,1.37,0,0,1-.71-.67,2.41,2.41,0,0,1-.2-1V6.12H34.1V4.72h1.22l.5-2.13h1.43V4.72h1.57Z"/><path d="M46.18,12a3.62,3.62,0,0,1-1.81-.44,3,3,0,0,1-1.2-1.27,4.13,4.13,0,0,1-.42-1.93,4.28,4.28,0,0,1,.42-1.95,3.15,3.15,0,0,1,1.19-1.31,3.5,3.5,0,0,1,1.83-.46A3.41,3.41,0,0,1,48,5.05a3,3,0,0,1,1.19,1.29,4.47,4.47,0,0,1,.41,2,4.23,4.23,0,0,1-.4,1.89A3.1,3.1,0,0,1,48,11.49,3.53,3.53,0,0,1,46.18,12Zm0-1.49a1.21,1.21,0,0,0,.85-.3,1.78,1.78,0,0,0,.46-.82,3.8,3.8,0,0,0,.15-1.1,4.52,4.52,0,0,0-.13-1.06,1.71,1.71,0,0,0-.46-.81,1.17,1.17,0,0,0-.87-.31,1.24,1.24,0,0,0-.86.29,1.7,1.7,0,0,0-.48.79,4.43,4.43,0,0,0,0,2.17,1.91,1.91,0,0,0,.46.83A1.19,1.19,0,0,0,46.19,10.46Z"/><path d="M55.08,4.72v1.4h-1.5v5.69h-2V6.12H50.27V4.72h1.31v-1a1.76,1.76,0,0,1,.5-1.33,2,2,0,0,1,1.43-.47h1.63V3.24h-.93a.63.63,0,0,0-.52.18,1,1,0,0,0-.14.62v.68Z"/><path d="M63.46,1.76a4.26,4.26,0,0,1,2,.45,3.76,3.76,0,0,1,2,3H65.39a2.49,2.49,0,0,0-.34-.91,1.76,1.76,0,0,0-.67-.63,1.9,1.9,0,0,0-1-.23,2.1,2.1,0,0,0-1.19.33,2.12,2.12,0,0,0-.77,1.09,5.91,5.91,0,0,0-.27,2,4.72,4.72,0,0,0,.59,2.68,1.92,1.92,0,0,0,1.64.83,1.73,1.73,0,0,0,1-.27,2,2,0,0,0,.67-.7,2.84,2.84,0,0,0,.34-.95H67.5a5.38,5.38,0,0,1-.34,1.34,3.57,3.57,0,0,1-.73,1.15,3.2,3.2,0,0,1-1.2.78,4.62,4.62,0,0,1-1.77.29,4.33,4.33,0,0,1-2.39-.64A4.32,4.32,0,0,1,59.51,9.5,6.46,6.46,0,0,1,59,6.77a6.13,6.13,0,0,1,.54-2.68,4,4,0,0,1,1.55-1.72A4.57,4.57,0,0,1,63.46,1.76Z"/><path d="M73.41,12A4.62,4.62,0,0,1,71,11.34a4,4,0,0,1-1.59-1.75,6.12,6.12,0,0,1-.56-2.71,6,6,0,0,1,.57-2.73A4.21,4.21,0,0,1,71,2.38a4.66,4.66,0,0,1,2.42-.62,4.56,4.56,0,0,1,2.4.62,4.1,4.1,0,0,1,1.58,1.76A6.26,6.26,0,0,1,78,6.88a6.15,6.15,0,0,1-.55,2.71,4.07,4.07,0,0,1-1.58,1.75A4.57,4.57,0,0,1,73.41,12Zm0-1.64A2.23,2.23,0,0,0,74.66,10a2.16,2.16,0,0,0,.82-1.1,5.57,5.57,0,0,0,.29-1.95,5.86,5.86,0,0,0-.29-2,2.27,2.27,0,0,0-.83-1.13,2.13,2.13,0,0,0-1.24-.36,2.16,2.16,0,0,0-1.25.36,2.33,2.33,0,0,0-.84,1.13,5.6,5.6,0,0,0-.3,2,5.38,5.38,0,0,0,.3,2A2.26,2.26,0,0,0,72.16,10,2.23,2.23,0,0,0,73.41,10.31Z"/><path d="M87.69,1.9l-3.43,9.91H82L78.59,1.9h1.92l2.62,7.59L85.77,1.9Z"/><path d="M89.06,1.9h2v9.91h-2Z"/><path d="M93.28,1.9h3a6.81,6.81,0,0,1,3,.65,3.89,3.89,0,0,1,1.67,1.69,5.79,5.79,0,0,1,.53,2.56,5.9,5.9,0,0,1-.56,2.66,3.89,3.89,0,0,1-1.72,1.73,6.21,6.21,0,0,1-2.93.61h-2.9Zm2,1.62V10.2h.92a3.54,3.54,0,0,0,1.54-.33,2.48,2.48,0,0,0,1.12-1.08,4.06,4.06,0,0,0,.42-2,4.26,4.26,0,0,0-.37-1.89,2.36,2.36,0,0,0-1.06-1.06,3.73,3.73,0,0,0-1.63-.33Z"/><path d="M106.62,7.56V9h-3.74V7.56Z"/><path d="M108.86,11.81V4.39h-1.77V3.26a5.12,5.12,0,0,0,1.38-.16,1.65,1.65,0,0,0,.78-.47,1.27,1.27,0,0,0,.31-.73h1.33v9.91Z"/><path d="M116.62,11.9a4.31,4.31,0,0,1-1.73-.35,3.35,3.35,0,0,1-1.31-1A2.6,2.6,0,0,1,113,9h1.91a1.57,1.57,0,0,0,.54.93,1.66,1.66,0,0,0,1.07.35,2.37,2.37,0,0,0,1.26-.33,2.06,2.06,0,0,0,.8-1.06A4.39,4.39,0,0,0,118.78,7a1.86,1.86,0,0,1-.53.63,2.48,2.48,0,0,1-.79.42,3.2,3.2,0,0,1-1,.15,4,4,0,0,1-1.78-.38,2.94,2.94,0,0,1-1.22-1.09A3,3,0,0,1,113,5.09a3.16,3.16,0,0,1,1.77-2.92,4.32,4.32,0,0,1,2-.42,4,4,0,0,1,2.18.59A3.86,3.86,0,0,1,120.32,4a6.4,6.4,0,0,1,.49,2.59,7.38,7.38,0,0,1-.51,2.94,3.61,3.61,0,0,1-1.44,1.75A4.16,4.16,0,0,1,116.62,11.9Zm.17-5.27A2,2,0,0,0,118.26,6a.93.93,0,0,0,.25-.59,2.85,2.85,0,0,0-.21-1.15,1.64,1.64,0,0,0-.6-.72,1.62,1.62,0,0,0-.91-.26,1.7,1.7,0,0,0-.84.22,1.51,1.51,0,0,0-.58.62,1.88,1.88,0,0,0-.21.91,1.6,1.6,0,0,0,.45,1.21A1.63,1.63,0,0,0,116.79,6.63Z"/><path d="M125.43,11.81V1.9h2.9L130.6,9l2.3-7.07h2.9v9.91h-2V4.24l-2.38,7.57h-1.57l-2.38-7.54v7.54Z"/><path d="M139.22,8.73a2.28,2.28,0,0,0,.18.94,1.31,1.31,0,0,0,.51.62,1.54,1.54,0,0,0,.82.22,1.78,1.78,0,0,0,.89-.22,1.37,1.37,0,0,0,.55-.72H144a2.68,2.68,0,0,1-.62,1.3,3.14,3.14,0,0,1-1.16.8,3.63,3.63,0,0,1-1.42.28,3.83,3.83,0,0,1-1.85-.44,3.2,3.2,0,0,1-1.25-1.25,4,4,0,0,1-.44-1.91,4.35,4.35,0,0,1,.4-1.91,3.39,3.39,0,0,1,1.18-1.36,3.4,3.4,0,0,1,1.86-.49A3.44,3.44,0,0,1,142.5,5a2.92,2.92,0,0,1,1.11,1.27A4.44,4.44,0,0,1,144,8.19v.54Zm0-1.19h2.89a1.78,1.78,0,0,0-.16-.78,1.18,1.18,0,0,0-.47-.56,1.44,1.44,0,0,0-.8-.21,1.34,1.34,0,0,0-.79.22,1.4,1.4,0,0,0-.5.58A1.65,1.65,0,0,0,139.22,7.54Z"/><path d="M145.4,11.81V4.72h2v1a2.84,2.84,0,0,1,.87-.81,2.6,2.6,0,0,1,1.37-.33,2.18,2.18,0,0,1,.74.13,2.22,2.22,0,0,1,.71.38,2,2,0,0,1,.54.63,2.78,2.78,0,0,1,.91-.82,2.46,2.46,0,0,1,1.24-.32,2.53,2.53,0,0,1,.8.13,2.15,2.15,0,0,1,.75.42,2.25,2.25,0,0,1,.56.79,3.05,3.05,0,0,1,.21,1.21v4.67h-2V7.39a1.26,1.26,0,0,0-.17-.69,1,1,0,0,0-.42-.37,1.46,1.46,0,0,0-.55-.11,1.37,1.37,0,0,0-.54.11,1,1,0,0,0-.46.34.89.89,0,0,0-.19.61v4.53h-2V7.21a.8.8,0,0,0-.17-.54,1.1,1.1,0,0,0-.43-.34,1.35,1.35,0,0,0-.52-.11,1.5,1.5,0,0,0-.55.11,1.16,1.16,0,0,0-.47.35,1,1,0,0,0-.18.6v4.53Z"/><path d="M160.75,12a3.66,3.66,0,0,1-1.82-.44,3,3,0,0,1-1.19-1.27,4,4,0,0,1-.43-1.93,4.28,4.28,0,0,1,.42-1.95,3.17,3.17,0,0,1,1.2-1.31,3.49,3.49,0,0,1,1.82-.46,3.44,3.44,0,0,1,1.82.46,3,3,0,0,1,1.18,1.29,4.33,4.33,0,0,1,.42,2,4.37,4.37,0,0,1-.4,1.89,3.13,3.13,0,0,1-1.18,1.29A3.47,3.47,0,0,1,160.75,12Zm0-1.49a1.18,1.18,0,0,0,.85-.3,1.71,1.71,0,0,0,.47-.82,3.8,3.8,0,0,0,.15-1.1,4.05,4.05,0,0,0-.14-1.06,1.78,1.78,0,0,0-.45-.81,1.2,1.2,0,0,0-.88-.31,1.28,1.28,0,0,0-.86.29,1.78,1.78,0,0,0-.47.79,3.8,3.8,0,0,0-.15,1.1,4.18,4.18,0,0,0,.14,1.07,1.82,1.82,0,0,0,.46.83A1.16,1.16,0,0,0,160.75,10.46Z"/><path d="M165.53,11.81V4.72h1.92V6.4a3.48,3.48,0,0,1,.49-.91,2.43,2.43,0,0,1,.79-.66,2.38,2.38,0,0,1,1.1-.24H170V6.51l-.12,0a3.34,3.34,0,0,0-1.38.11,1.38,1.38,0,0,0-.73.53,1.57,1.57,0,0,0-.21.8v3.88Z"/><path d="M173.12,1.91v1.8h-2V1.91Zm0,2.81v7.09h-1.91V4.72Z"/><path d="M176.59,8.73a2.28,2.28,0,0,0,.18.94,1.31,1.31,0,0,0,.51.62,1.54,1.54,0,0,0,.82.22,1.78,1.78,0,0,0,.89-.22,1.37,1.37,0,0,0,.55-.72h1.81a2.68,2.68,0,0,1-.62,1.3,3.14,3.14,0,0,1-1.16.8,3.63,3.63,0,0,1-1.42.28,3.83,3.83,0,0,1-1.85-.44,3.2,3.2,0,0,1-1.25-1.25,4,4,0,0,1-.44-1.91,4.35,4.35,0,0,1,.4-1.91,3.39,3.39,0,0,1,1.18-1.36,3.4,3.4,0,0,1,1.86-.49,3.44,3.44,0,0,1,1.82.45A2.92,2.92,0,0,1,181,6.31a4.44,4.44,0,0,1,.37,1.88v.54Zm0-1.19h2.89a1.78,1.78,0,0,0-.16-.78,1.18,1.18,0,0,0-.47-.56,1.44,1.44,0,0,0-.8-.21,1.34,1.34,0,0,0-.79.22,1.4,1.4,0,0,0-.5.58A1.65,1.65,0,0,0,176.59,7.54Z"/><path d="M185.54,12a4.24,4.24,0,0,1-1.42-.24,2.72,2.72,0,0,1-1.16-.77,2.55,2.55,0,0,1-.61-1.36h1.74a1.24,1.24,0,0,0,.32.6,1.46,1.46,0,0,0,.54.31,2.05,2.05,0,0,0,.58.09,2.08,2.08,0,0,0,.93-.18.6.6,0,0,0,.35-.56.57.57,0,0,0-.21-.46,1.63,1.63,0,0,0-.69-.26l-1.24-.26a3.35,3.35,0,0,1-1.51-.68,1.68,1.68,0,0,1-.59-1.35,2.07,2.07,0,0,1,.34-1.15,2.36,2.36,0,0,1,1-.8,4.1,4.1,0,0,1,1.63-.29,3.47,3.47,0,0,1,2.09.57,1.93,1.93,0,0,1,.8,1.63h-1.67a.94.94,0,0,0-.41-.64,1.53,1.53,0,0,0-.83-.22,1.71,1.71,0,0,0-.86.19.6.6,0,0,0-.33.56.49.49,0,0,0,.27.44,2.88,2.88,0,0,0,.85.28l1.15.26a3.26,3.26,0,0,1,1,.39,2.2,2.2,0,0,1,.58.55,2,2,0,0,1,.29.59,2.28,2.28,0,0,1,.08.54,1.93,1.93,0,0,1-.38,1.2,2.24,2.24,0,0,1-1.05.76A4.18,4.18,0,0,1,185.54,12Z"/><path d="M200.68,11.81h-2.07L197,8h-2v3.81h-2V1.9h4.18a4.35,4.35,0,0,1,1.94.38,2.4,2.4,0,0,1,1.11,1,3.21,3.21,0,0,1,.36,1.54,3.24,3.24,0,0,1-.24,1.32,2.87,2.87,0,0,1-.64.9,3.82,3.82,0,0,1-.86.58Zm-3.86-5.36A1.81,1.81,0,0,0,198.09,6a1.46,1.46,0,0,0,.47-1.11,1.33,1.33,0,0,0-.46-1.08,1.64,1.64,0,0,0-1.14-.4h-2v3Z"/><path d="M203.8,8.73a2.29,2.29,0,0,0,.17.94,1.39,1.39,0,0,0,.52.62,1.54,1.54,0,0,0,.82.22,1.8,1.8,0,0,0,.89-.22,1.37,1.37,0,0,0,.55-.72h1.8a2.58,2.58,0,0,1-.61,1.3,3.14,3.14,0,0,1-1.16.8,3.63,3.63,0,0,1-1.42.28,3.8,3.8,0,0,1-1.85-.44,3.2,3.2,0,0,1-1.25-1.25,3.88,3.88,0,0,1-.45-1.91,4.36,4.36,0,0,1,.41-1.91,3.32,3.32,0,0,1,1.18-1.36,3.37,3.37,0,0,1,1.86-.49,3.44,3.44,0,0,1,1.82.45,2.92,2.92,0,0,1,1.11,1.27,4.44,4.44,0,0,1,.37,1.88v.54Zm0-1.19h2.89a1.78,1.78,0,0,0-.16-.78,1.18,1.18,0,0,0-.47-.56,1.44,1.44,0,0,0-.8-.21,1.39,1.39,0,0,0-.8.22,1.45,1.45,0,0,0-.49.58A1.65,1.65,0,0,0,203.8,7.54Z"/><path d="M213,4.59a3.14,3.14,0,0,1,1.55.36,2.72,2.72,0,0,1,1,1A3.27,3.27,0,0,1,216,7.3l-1.68,0a1.72,1.72,0,0,0-.18-.57,1.32,1.32,0,0,0-.42-.46,1.19,1.19,0,0,0-.68-.18,1.45,1.45,0,0,0-1.16.53,2.59,2.59,0,0,0-.43,1.64,2.88,2.88,0,0,0,.42,1.65,1.41,1.41,0,0,0,1.21.6,1,1,0,0,0,.66-.2,1.53,1.53,0,0,0,.41-.47,1.78,1.78,0,0,0,.2-.52H216a2.7,2.7,0,0,1-.39,1.3,2.67,2.67,0,0,1-1,1A3.27,3.27,0,0,1,213,12a3.41,3.41,0,0,1-1.76-.44A3,3,0,0,1,210,10.25a4,4,0,0,1-.45-1.95A4.17,4.17,0,0,1,210,6.36a3.18,3.18,0,0,1,1.19-1.3A3.37,3.37,0,0,1,213,4.59Z"/><path d="M219.05,8.73a2.29,2.29,0,0,0,.17.94,1.39,1.39,0,0,0,.52.62,1.54,1.54,0,0,0,.82.22,1.8,1.8,0,0,0,.89-.22,1.37,1.37,0,0,0,.55-.72h1.8a2.58,2.58,0,0,1-.61,1.3,3.14,3.14,0,0,1-1.16.8,3.63,3.63,0,0,1-1.42.28,3.8,3.8,0,0,1-1.85-.44,3.2,3.2,0,0,1-1.25-1.25,3.88,3.88,0,0,1-.45-1.91,4.36,4.36,0,0,1,.41-1.91,3.32,3.32,0,0,1,1.18-1.36,3.37,3.37,0,0,1,1.86-.49,3.44,3.44,0,0,1,1.82.45,2.92,2.92,0,0,1,1.11,1.27,4.44,4.44,0,0,1,.37,1.88v.54Zm0-1.19h2.89a1.78,1.78,0,0,0-.16-.78,1.18,1.18,0,0,0-.47-.56,1.44,1.44,0,0,0-.8-.21,1.39,1.39,0,0,0-.8.22,1.45,1.45,0,0,0-.49.58A1.65,1.65,0,0,0,219.05,7.54Z"/><path d="M227.26,1.91v1.8h-1.95V1.91Zm0,2.81v7.09h-1.92V4.72Z"/><path d="M235.17,4.72l-2.66,7.09h-1.44L228.4,4.72h1.81l1.55,4.52h.05l1.53-4.52Z"/><path d="M237.57,8.73a2.13,2.13,0,0,0,.17.94,1.33,1.33,0,0,0,.52.62,1.52,1.52,0,0,0,.82.22,1.77,1.77,0,0,0,.88-.22,1.39,1.39,0,0,0,.56-.72h1.8a2.59,2.59,0,0,1-.62,1.3,3.06,3.06,0,0,1-1.16.8,3.6,3.6,0,0,1-1.42.28,3.76,3.76,0,0,1-1.84-.44A3.13,3.13,0,0,1,236,10.26a3.88,3.88,0,0,1-.45-1.91A4.22,4.22,0,0,1,236,6.44a3.25,3.25,0,0,1,1.18-1.36A3.34,3.34,0,0,1,239,4.59a3.44,3.44,0,0,1,1.82.45A2.92,2.92,0,0,1,242,6.31a4.44,4.44,0,0,1,.38,1.88v.54Zm0-1.19h2.89a1.94,1.94,0,0,0-.15-.78,1.26,1.26,0,0,0-.48-.56A1.42,1.42,0,0,0,239,6a1.36,1.36,0,0,0-.79.22,1.48,1.48,0,0,0-.5.58A1.79,1.79,0,0,0,237.56,7.54Z"/><path d="M246.38,12a2.74,2.74,0,0,1-2.23-1,4.26,4.26,0,0,1-.8-2.74,5.16,5.16,0,0,1,.33-1.93,2.8,2.8,0,0,1,1-1.26,2.57,2.57,0,0,1,1.54-.45,3.15,3.15,0,0,1,.71.08,3,3,0,0,1,.61.24,2.2,2.2,0,0,1,.48.35,1.61,1.61,0,0,1,.33.42v-4h2V11.81h-1.45l-.23-1.45a2.34,2.34,0,0,1-.27.58,2.3,2.3,0,0,1-.44.51,1.93,1.93,0,0,1-.65.36A2.43,2.43,0,0,1,246.38,12Zm.44-1.44a1.26,1.26,0,0,0,1.12-.53,3.17,3.17,0,0,0,.37-1.78A3.81,3.81,0,0,0,248.15,7a1.46,1.46,0,0,0-.49-.71,1.48,1.48,0,0,0-1.92.26,2.56,2.56,0,0,0-.43,1.66,3,3,0,0,0,.41,1.75A1.29,1.29,0,0,0,246.82,10.51Z"/><path d="M258.91,12a2.43,2.43,0,0,1-.9-.14,1.93,1.93,0,0,1-.65-.36,2.3,2.3,0,0,1-.44-.51,2.34,2.34,0,0,1-.27-.58l-.23,1.45H255V1.63h2V5.68a1.61,1.61,0,0,1,.33-.42,2.2,2.2,0,0,1,.48-.35,3,3,0,0,1,.61-.24,3.15,3.15,0,0,1,.71-.08,2.5,2.5,0,0,1,2.07,1,4.2,4.2,0,0,1,.76,2.69,5.12,5.12,0,0,1-.35,2,2.82,2.82,0,0,1-1,1.3A2.9,2.9,0,0,1,258.91,12Zm-.44-1.44a1.33,1.33,0,0,0,1.08-.53A2.9,2.9,0,0,0,260,8.2a2.68,2.68,0,0,0-.41-1.63,1.46,1.46,0,0,0-1.93-.29,1.41,1.41,0,0,0-.5.71A3.81,3.81,0,0,0,257,8.2a3.17,3.17,0,0,0,.37,1.78A1.26,1.26,0,0,0,258.47,10.51Z"/><path d="M264.08,14.08a3.54,3.54,0,0,1-1.33-.24V12.56l.7,0a2.73,2.73,0,0,0,.74,0,1.34,1.34,0,0,0,.43-.19.68.68,0,0,0,.21-.25l.09-.2.13-.39-2.76-6.8h2L266,9.35l1.73-4.63h1.95l-2.87,7.14a5.36,5.36,0,0,1-.78,1.38,2.25,2.25,0,0,1-.89.66A2.9,2.9,0,0,1,264.08,14.08Z"/><path d="M273.75,11.81V1.9h3.65a4.8,4.8,0,0,1,1.94.37,3.12,3.12,0,0,1,1.35,1.1,3,3,0,0,1,.5,1.78,3.15,3.15,0,0,1-.44,1.69,2.86,2.86,0,0,1-1.23,1.07,4.32,4.32,0,0,1-1.86.37h-1.89v3.53Zm2-5.08h1.85a1.64,1.64,0,0,0,1.24-.49,1.62,1.62,0,0,0,.48-1.19,1.47,1.47,0,0,0-.51-1.18,1.83,1.83,0,0,0-1.23-.43h-1.83Z"/><path d="M284.33,12a2.83,2.83,0,0,1-1.22-.25,2,2,0,0,1-.86-.74,2.09,2.09,0,0,1-.32-1.17A2,2,0,0,1,282.8,8a5,5,0,0,1,2.76-.62l.88,0V7a1,1,0,0,0-.28-.75,1.22,1.22,0,0,0-.89-.26,1.88,1.88,0,0,0-.83.2,1.12,1.12,0,0,0-.54.7h-1.66a2.14,2.14,0,0,1,.45-1.27,2.36,2.36,0,0,1,1.1-.74,4.81,4.81,0,0,1,1.58-.24,4.67,4.67,0,0,1,1.74.27,1.93,1.93,0,0,1,1,.77,2.32,2.32,0,0,1,.29,1.2v5h-1.67l-.16-1.22a2.3,2.3,0,0,1-.91,1.07A2.76,2.76,0,0,1,284.33,12Zm.67-1.31a1.56,1.56,0,0,0,.53-.1,1.92,1.92,0,0,0,.46-.27,1.31,1.31,0,0,0,.33-.38.88.88,0,0,0,.12-.44v-1h-.72a4.54,4.54,0,0,0-.93.12,1.52,1.52,0,0,0-.69.37.9.9,0,0,0-.27.69.93.93,0,0,0,.34.77A1.3,1.3,0,0,0,285,10.64Z"/><path d="M290.17,11.81V4.72h1.92V6.4a3.48,3.48,0,0,1,.49-.91,2.43,2.43,0,0,1,.79-.66,2.38,2.38,0,0,1,1.1-.24h.13V6.51l-.12,0a3.41,3.41,0,0,0-1.39.11,1.4,1.4,0,0,0-.72.53,1.57,1.57,0,0,0-.21.8v3.88Z"/><path d="M300.18,6.12H298.6V9.9a.88.88,0,0,0,.07.38.3.3,0,0,0,.21.17,1.73,1.73,0,0,0,.36,0h.95v1.24a2.41,2.41,0,0,1-.43.12,5.51,5.51,0,0,1-.81.05,3.52,3.52,0,0,1-1.45-.24,1.41,1.41,0,0,1-.71-.67,2.41,2.41,0,0,1-.19-1V6.12h-1.16V4.72h1.22l.5-2.13h1.43V4.72h1.58Z"/><path d="M303.7,1.91v1.8h-1.95V1.91Zm0,2.81v7.09h-1.91V4.72Z"/><path d="M308.56,4.59a3.16,3.16,0,0,1,1.56.36,2.62,2.62,0,0,1,1,1,3,3,0,0,1,.42,1.38l-1.67,0a1.74,1.74,0,0,0-.19-.57,1.29,1.29,0,0,0-.41-.46,1.21,1.21,0,0,0-.68-.18,1.44,1.44,0,0,0-1.16.53A2.59,2.59,0,0,0,307,8.28a2.81,2.81,0,0,0,.43,1.65,1.39,1.39,0,0,0,1.2.6,1,1,0,0,0,.66-.2,1.44,1.44,0,0,0,.42-.47,1.74,1.74,0,0,0,.19-.52h1.63a2.66,2.66,0,0,1-1.41,2.26,3.27,3.27,0,0,1-1.56.35,3.46,3.46,0,0,1-1.76-.44,3.09,3.09,0,0,1-1.22-1.26,4,4,0,0,1-.44-1.95,4.29,4.29,0,0,1,.42-1.94,3.14,3.14,0,0,1,1.2-1.3A3.36,3.36,0,0,1,308.56,4.59Z"/><path d="M315,1.91v1.8h-2V1.91Zm0,2.81v7.09h-1.91V4.72Z"/><path d="M316.85,14V4.72h2v1a2.5,2.5,0,0,1,.39-.47,2.34,2.34,0,0,1,.51-.36,2.6,2.6,0,0,1,.62-.25,3.08,3.08,0,0,1,.68-.08,2.63,2.63,0,0,1,1.42.39,2.55,2.55,0,0,1,1,1.19,5.22,5.22,0,0,1,.35,2,5.16,5.16,0,0,1-.38,2.12,2.59,2.59,0,0,1-1.05,1.22,2.82,2.82,0,0,1-1.51.4,2.3,2.3,0,0,1-.64-.09,2,2,0,0,1-.55-.26,2.12,2.12,0,0,1-.46-.38,2.3,2.3,0,0,1-.35-.47V14Zm3.54-3.54a1.37,1.37,0,0,0,1.09-.54,2.7,2.7,0,0,0,.44-1.7,2.74,2.74,0,0,0-.42-1.62A1.3,1.3,0,0,0,320.39,6a1.26,1.26,0,0,0-1.16.63,3,3,0,0,0-.38,1.57,3.29,3.29,0,0,0,.17,1.1,1.89,1.89,0,0,0,.51.83A1.21,1.21,0,0,0,320.39,10.48Z"/><path d="M327.17,12a2.88,2.88,0,0,1-1.23-.25,2,2,0,0,1-1.17-1.91A2,2,0,0,1,325.64,8a5,5,0,0,1,2.75-.62l.89,0V7A1,1,0,0,0,329,6.2a1.19,1.19,0,0,0-.88-.26,1.85,1.85,0,0,0-.83.2,1.16,1.16,0,0,0-.55.7h-1.65a2.07,2.07,0,0,1,.44-1.27,2.41,2.41,0,0,1,1.1-.74,4.86,4.86,0,0,1,1.58-.24,4.73,4.73,0,0,1,1.75.27,1.86,1.86,0,0,1,.95.77,2.32,2.32,0,0,1,.3,1.2v5h-1.67l-.17-1.22a2.19,2.19,0,0,1-.91,1.07A2.72,2.72,0,0,1,327.17,12Zm.67-1.31a1.61,1.61,0,0,0,.53-.1,1.92,1.92,0,0,0,.46-.27,1.7,1.7,0,0,0,.33-.38.88.88,0,0,0,.12-.44v-1h-.72a4.45,4.45,0,0,0-.93.12,1.62,1.62,0,0,0-.7.37.9.9,0,0,0-.26.69.93.93,0,0,0,.34.77A1.28,1.28,0,0,0,327.84,10.64Z"/><path d="M333,11.81V4.72h2v1a2.22,2.22,0,0,1,1.09-.91,2.77,2.77,0,0,1,1-.16,2.92,2.92,0,0,1,1.21.26,2.14,2.14,0,0,1,.92.8,2.6,2.6,0,0,1,.35,1.42v4.67h-2V7.39a1.06,1.06,0,0,0-.34-.87,1.27,1.27,0,0,0-.83-.29,1.77,1.77,0,0,0-.64.12,1.19,1.19,0,0,0-.5.35.86.86,0,0,0-.19.58v4.53Z"/><path d="M345.15,6.12h-1.58V9.9a.75.75,0,0,0,.07.38.31.31,0,0,0,.2.17,1.86,1.86,0,0,0,.36,0h1v1.24a2.41,2.41,0,0,1-.43.12,5.61,5.61,0,0,1-.81.05,3.49,3.49,0,0,1-1.45-.24,1.37,1.37,0,0,1-.71-.67,2.41,2.41,0,0,1-.2-1V6.12h-1.15V4.72h1.22l.5-2.13h1.43V4.72h1.58Z"/><path d="M353.52,12a5.8,5.8,0,0,1-1.44-.18,4.67,4.67,0,0,1-1.29-.56,3.25,3.25,0,0,1-1-.92A2.71,2.71,0,0,1,349.37,9h2.05a1.62,1.62,0,0,0,.39.76,1.86,1.86,0,0,0,.73.48,2.7,2.7,0,0,0,1,.16,3.14,3.14,0,0,0,1-.14,1.62,1.62,0,0,0,.73-.41,1,1,0,0,0,.27-.7.89.89,0,0,0-.22-.61,1.64,1.64,0,0,0-.6-.39,4.61,4.61,0,0,0-.86-.25l-1.72-.35a3.19,3.19,0,0,1-1.77-.9,2.55,2.55,0,0,1-.68-1.82,2.53,2.53,0,0,1,.49-1.61,3.19,3.19,0,0,1,1.38-1.05,4.8,4.8,0,0,1,1.94-.37,5.18,5.18,0,0,1,2.16.4A3.13,3.13,0,0,1,357,3.26a2.73,2.73,0,0,1,.46,1.53h-2A1.52,1.52,0,0,0,355.1,4a1.53,1.53,0,0,0-.67-.45,2.94,2.94,0,0,0-.93-.13,2.63,2.63,0,0,0-.72.09,1.64,1.64,0,0,0-.55.25,1.06,1.06,0,0,0-.35.38,1,1,0,0,0-.12.49.91.91,0,0,0,.28.7,2.53,2.53,0,0,0,1.08.44l1.7.35a4.08,4.08,0,0,1,1.45.53,2.45,2.45,0,0,1,.81.79,2.69,2.69,0,0,1,.36.89,5.16,5.16,0,0,1,.08.84,2.29,2.29,0,0,1-.5,1.44,3.4,3.4,0,0,1-1.4,1A5.43,5.43,0,0,1,353.52,12Z"/><path d="M360.65,8.73a2.29,2.29,0,0,0,.17.94,1.33,1.33,0,0,0,.52.62,1.52,1.52,0,0,0,.82.22,1.74,1.74,0,0,0,.88-.22,1.34,1.34,0,0,0,.56-.72h1.8a2.59,2.59,0,0,1-.62,1.3,3.1,3.1,0,0,1-1.15.8,3.67,3.67,0,0,1-1.42.28,3.8,3.8,0,0,1-1.85-.44,3.2,3.2,0,0,1-1.25-1.25,3.88,3.88,0,0,1-.45-1.91,4.36,4.36,0,0,1,.41-1.91,3.25,3.25,0,0,1,1.18-1.36,3.34,3.34,0,0,1,1.85-.49,3.41,3.41,0,0,1,1.82.45A2.8,2.8,0,0,1,365,6.31a4.44,4.44,0,0,1,.38,1.88v.54Zm0-1.19h2.9a1.94,1.94,0,0,0-.16-.78,1.26,1.26,0,0,0-.48-.56,1.42,1.42,0,0,0-.8-.21,1.36,1.36,0,0,0-.79.22,1.48,1.48,0,0,0-.5.58A1.79,1.79,0,0,0,360.64,7.54Z"/><path d="M373.17,11.81h-2.09l-1.69-2.3-1.7,2.3h-2.1l2.73-3.69-2.5-3.4h2.1l1.47,2,1.47-2H373l-2.51,3.4Z"/><rect class="b50fcd12-8f89-469e-b6b3-8af9ae1b4d48" x="25.19" y="44.63" width="9.14" height="9.14"/><path d="M39,46h4.5V47.1H40.3v1.66H43v1.09H40.3v2.74H39Z"/><path d="M45.31,50.54a1.54,1.54,0,0,0,.12.63.91.91,0,0,0,.34.41,1,1,0,0,0,.55.14,1.22,1.22,0,0,0,.59-.14,1,1,0,0,0,.37-.48h1.2a1.69,1.69,0,0,1-.41.86,2,2,0,0,1-.78.54,2.5,2.5,0,0,1-.94.19,2.44,2.44,0,0,1-1.23-.3,2.1,2.1,0,0,1-.84-.83A2.59,2.59,0,0,1,44,50.29,2.93,2.93,0,0,1,44.26,49a2.14,2.14,0,0,1,.78-.9,2.54,2.54,0,0,1,2.45,0,1.81,1.81,0,0,1,.74.85,2.88,2.88,0,0,1,.25,1.25v.36Zm0-.8h1.93a1.27,1.27,0,0,0-.11-.52.88.88,0,0,0-.32-.37,1,1,0,0,0-.53-.14.92.92,0,0,0-.53.15,1,1,0,0,0-.44.88Z"/><path d="M49.43,52.59V47.87h1.3v.67a2,2,0,0,1,.58-.54,1.83,1.83,0,0,1,1.41-.14,1.87,1.87,0,0,1,.48.26,1.48,1.48,0,0,1,.36.42,1.87,1.87,0,0,1,.6-.55,1.65,1.65,0,0,1,.83-.21,2,2,0,0,1,.53.08,1.49,1.49,0,0,1,.5.29,1.36,1.36,0,0,1,.37.52,2,2,0,0,1,.14.81v3.11H55.19v-3a.75.75,0,0,0-.11-.45.57.57,0,0,0-.28-.25.9.9,0,0,0-.36-.08.94.94,0,0,0-.36.08.63.63,0,0,0-.31.22.61.61,0,0,0-.13.41v3H52.31V49.52a.61.61,0,0,0-.11-.36.77.77,0,0,0-.29-.22.85.85,0,0,0-.35-.08,1,1,0,0,0-.37.08.87.87,0,0,0-.31.23.65.65,0,0,0-.12.4v3Z"/><path d="M59,52.69a2,2,0,0,1-.82-.17,1.33,1.33,0,0,1-.78-1.28A1.34,1.34,0,0,1,58,50.06a3.35,3.35,0,0,1,1.84-.42h.59v-.28a.63.63,0,0,0-.19-.5.8.8,0,0,0-.59-.17,1.27,1.27,0,0,0-.55.13.74.74,0,0,0-.37.47h-1.1a1.36,1.36,0,0,1,.29-.85,1.63,1.63,0,0,1,.74-.49,3.68,3.68,0,0,1,2.21,0,1.24,1.24,0,0,1,.64.51,1.58,1.58,0,0,1,.2.8v3.32H60.54l-.11-.81a1.49,1.49,0,0,1-.6.71A1.79,1.79,0,0,1,59,52.69Zm.45-.88a.84.84,0,0,0,.35-.07,1,1,0,0,0,.31-.18,1,1,0,0,0,.22-.25.6.6,0,0,0,.08-.29v-.7H59.9a2.45,2.45,0,0,0-.62.08,1,1,0,0,0-.47.24.64.64,0,0,0-.17.46.61.61,0,0,0,.22.51A.83.83,0,0,0,59.42,51.81Z"/><path d="M64.37,52.68a2.09,2.09,0,0,1-.83-.13,1,1,0,0,1-.45-.32,1.1,1.1,0,0,1-.19-.46,2.74,2.74,0,0,1,0-.5V45.8h1.31v5.3a.78.78,0,0,0,.11.43.58.58,0,0,0,.42.2h.22v.82l-.27.08A1,1,0,0,1,64.37,52.68Z"/><path d="M66.88,50.54a1.54,1.54,0,0,0,.11.63,1,1,0,0,0,.35.41,1,1,0,0,0,.55.14,1.18,1.18,0,0,0,.58-.14.93.93,0,0,0,.38-.48h1.2a1.69,1.69,0,0,1-.41.86,2,2,0,0,1-.78.54,2.5,2.5,0,0,1-.94.19,2.44,2.44,0,0,1-1.23-.3,2.1,2.1,0,0,1-.84-.83,2.59,2.59,0,0,1-.3-1.27A2.8,2.8,0,0,1,65.83,49a2.14,2.14,0,0,1,.78-.9,2.25,2.25,0,0,1,1.24-.33,2.29,2.29,0,0,1,1.21.3,1.81,1.81,0,0,1,.74.85,2.88,2.88,0,0,1,.25,1.25v.36Zm0-.8H68.8a1.27,1.27,0,0,0-.1-.52.88.88,0,0,0-.32-.37,1,1,0,0,0-.53-.14.92.92,0,0,0-.53.15,1,1,0,0,0-.44.88Z"/><rect class="f4e587f2-4b8a-486d-a960-34b93dc8e107" x="25.3" y="60.49" width="9.14" height="9.14"/><path d="M39.06,68.46V61.85H41l1.51,4.71L44,61.85H46v6.61H44.62v-5l-1.59,5H42l-1.59-5v5Z"/><path d="M48.65,68.55a2,2,0,0,1-.82-.17,1.36,1.36,0,0,1-.57-.49,1.43,1.43,0,0,1-.21-.79,1.35,1.35,0,0,1,.58-1.18,3.33,3.33,0,0,1,1.84-.42h.59v-.28a.69.69,0,0,0-.19-.5.86.86,0,0,0-.6-.17,1.21,1.21,0,0,0-.55.14.74.74,0,0,0-.36.46H47.25a1.48,1.48,0,0,1,.3-.85,1.6,1.6,0,0,1,.73-.49,3.15,3.15,0,0,1,1.06-.16,3.1,3.1,0,0,1,1.16.18,1.25,1.25,0,0,1,.64.52,1.54,1.54,0,0,1,.2.79v3.33H50.22l-.11-.82a1.45,1.45,0,0,1-.61.71A1.75,1.75,0,0,1,48.65,68.55Zm.45-.88a.87.87,0,0,0,.35-.07,1.11,1.11,0,0,0,.3-.17.77.77,0,0,0,.22-.26.52.52,0,0,0,.09-.29v-.69h-.48a2.53,2.53,0,0,0-.63.08,1.06,1.06,0,0,0-.46.24.62.62,0,0,0-.18.46.65.65,0,0,0,.23.52A.87.87,0,0,0,49.1,67.67Z"/><path d="M54.05,68.54a2.31,2.31,0,0,1-.83-.12,1,1,0,0,1-.45-.33,1.11,1.11,0,0,1-.19-.45,2.92,2.92,0,0,1,0-.51V61.66h1.31V67a.69.69,0,0,0,.11.42.56.56,0,0,0,.42.2h.22v.82a1.29,1.29,0,0,1-.28.08A.88.88,0,0,1,54.05,68.54Z"/><path d="M56.56,66.4a1.39,1.39,0,0,0,.11.63.88.88,0,0,0,.35.41,1,1,0,0,0,.54.14,1.1,1.1,0,0,0,.59-.14.87.87,0,0,0,.37-.48h1.2a1.61,1.61,0,0,1-.41.86,2,2,0,0,1-.77.54,2.37,2.37,0,0,1-.95.19,2.49,2.49,0,0,1-1.23-.3,2.07,2.07,0,0,1-.83-.83,2.56,2.56,0,0,1-.3-1.27,3,3,0,0,1,.27-1.28,2.16,2.16,0,0,1,.79-.9,2.23,2.23,0,0,1,1.24-.33,2.29,2.29,0,0,1,1.21.3,2,2,0,0,1,.74.85A2.91,2.91,0,0,1,59.73,66v.36Zm0-.8h1.93a1.22,1.22,0,0,0-.1-.51.85.85,0,0,0-.32-.38,1,1,0,0,0-.53-.14.91.91,0,0,0-.86.54A1,1,0,0,0,56.55,65.6Z"/><path d="M152.11,106H157v1.1a7.32,7.32,0,0,0-.63.92c-.21.36-.41.74-.61,1.15s-.36.81-.52,1.22a11,11,0,0,0-.38,1.2,5.24,5.24,0,0,0-.15,1h-1.44a6.5,6.5,0,0,1,.18-1,11.53,11.53,0,0,1,.43-1.36,13,13,0,0,1,.71-1.55,10.09,10.09,0,0,1,1-1.58h-3.54Z"/><path d="M160.41,105.92a3.32,3.32,0,0,1,1.22.21,1.94,1.94,0,0,1,.85.62,1.65,1.65,0,0,1,.31,1,1.28,1.28,0,0,1-.28.85,1.7,1.7,0,0,1-.68.54,1.65,1.65,0,0,1,.59.3,2.1,2.1,0,0,1,.48.58,1.5,1.5,0,0,1,.18.71,1.65,1.65,0,0,1-.33,1,2.1,2.1,0,0,1-.93.66,3.79,3.79,0,0,1-1.41.23,3.72,3.72,0,0,1-1.39-.23,2.1,2.1,0,0,1-.93-.66,1.6,1.6,0,0,1-.34-1,1.4,1.4,0,0,1,.19-.71,1.8,1.8,0,0,1,.48-.58,1.57,1.57,0,0,1,.59-.3,1.81,1.81,0,0,1-.69-.54,1.28,1.28,0,0,1-.28-.85,1.65,1.65,0,0,1,.31-1,1.94,1.94,0,0,1,.85-.62A3.3,3.3,0,0,1,160.41,105.92Zm0,5.76a1.42,1.42,0,0,0,.92-.26.86.86,0,0,0,.33-.7.88.88,0,0,0-.15-.51.94.94,0,0,0-.43-.35,1.54,1.54,0,0,0-.67-.13,1.53,1.53,0,0,0-.66.13,1.06,1.06,0,0,0-.43.35.88.88,0,0,0-.15.51.87.87,0,0,0,.34.7A1.38,1.38,0,0,0,160.41,111.68Zm0-3a1.17,1.17,0,0,0,.76-.24.92.92,0,0,0,0-1.35,1.11,1.11,0,0,0-.75-.25,1.09,1.09,0,0,0-.74.25.85.85,0,0,0-.3.68.81.81,0,0,0,.3.67A1.13,1.13,0,0,0,160.41,108.65Z"/><path d="M163.94,112.62v-1.45h1.46v1.45Z"/><path d="M169.13,105.9a2.86,2.86,0,0,1,1.14.22,2.16,2.16,0,0,1,.86.65,1.8,1.8,0,0,1,.36,1h-1.22a1.08,1.08,0,0,0-1.12-.85,1.18,1.18,0,0,0-.79.27,1.48,1.48,0,0,0-.45.76,2.88,2.88,0,0,0-.07,1.12,1.49,1.49,0,0,1,.38-.37,2.25,2.25,0,0,1,.52-.24,2.35,2.35,0,0,1,.6-.08,2.59,2.59,0,0,1,1.18.25,1.91,1.91,0,0,1,.78.71,2,2,0,0,1,.29,1.06,2.15,2.15,0,0,1-.32,1.16,2.21,2.21,0,0,1-.89.79,2.87,2.87,0,0,1-1.31.29,2.65,2.65,0,0,1-1.45-.4,2.62,2.62,0,0,1-.94-1.13,4.16,4.16,0,0,1-.33-1.72,4.83,4.83,0,0,1,.33-1.88,2.68,2.68,0,0,1,1-1.22A2.59,2.59,0,0,1,169.13,105.9Zm-.1,3.51a1.33,1.33,0,0,0-.55.12,1.78,1.78,0,0,0-.43.32.6.6,0,0,0-.16.4,1.64,1.64,0,0,0,.14.76,1.06,1.06,0,0,0,.4.48,1.08,1.08,0,0,0,.6.17,1.1,1.1,0,0,0,.57-.15,1,1,0,0,0,.42-.41,1.16,1.16,0,0,0,.15-.6,1.17,1.17,0,0,0-.15-.61,1,1,0,0,0-.41-.36A1.34,1.34,0,0,0,169,109.41Z"/><path d="M174.09,105.91a1.46,1.46,0,0,1,.84.25,1.88,1.88,0,0,1,.6.68,2.18,2.18,0,0,1,.22,1,2.11,2.11,0,0,1-.22,1,1.64,1.64,0,0,1-.59.66,1.59,1.59,0,0,1-1.71,0,1.74,1.74,0,0,1-.6-.66,2,2,0,0,1-.22-1,2.05,2.05,0,0,1,.22-1,1.82,1.82,0,0,1,.61-.68A1.47,1.47,0,0,1,174.09,105.91Zm0,3.07a.55.55,0,0,0,.52-.31,1.9,1.9,0,0,0,.16-.87,1.83,1.83,0,0,0-.17-.89.54.54,0,0,0-.51-.33.5.5,0,0,0-.38.15.94.94,0,0,0-.23.42,2.54,2.54,0,0,0-.07.65,1.93,1.93,0,0,0,.16.87A.54.54,0,0,0,174.08,109Zm4.72-3-4.44,6.72-.79,0,4.46-6.7Zm-.38,3a1.47,1.47,0,0,1,.85.26,1.8,1.8,0,0,1,.6.68,2.18,2.18,0,0,1,.22,1,2,2,0,0,1-.22.94,1.61,1.61,0,0,1-.59.67,1.5,1.5,0,0,1-.86.25,1.52,1.52,0,0,1-.86-.25,1.61,1.61,0,0,1-.59-.67,2,2,0,0,1-.22-.94,2.05,2.05,0,0,1,.22-1,1.8,1.8,0,0,1,.6-.68A1.52,1.52,0,0,1,178.42,109Zm0,3.07a.56.56,0,0,0,.39-.14.89.89,0,0,0,.22-.41,1.91,1.91,0,0,0,.08-.62,2.38,2.38,0,0,0-.08-.64.93.93,0,0,0-.23-.43.5.5,0,0,0-.38-.15.5.5,0,0,0-.37.15.93.93,0,0,0-.23.43,2.46,2.46,0,0,0-.07.64,2.25,2.25,0,0,0,.07.62.82.82,0,0,0,.23.41A.53.53,0,0,0,178.41,112Z"/><path d="M185.3,105.85a9,9,0,0,0-.76,1.94,7.66,7.66,0,0,0-.29,2.13,7.39,7.39,0,0,0,.26,2,11.51,11.51,0,0,0,.75,2h-.93a12,12,0,0,1-.67-1.27,6.58,6.58,0,0,1-.45-1.29,6.73,6.73,0,0,1-.16-1.46,6.65,6.65,0,0,1,.36-2.18,8.06,8.06,0,0,1,.94-1.88Z"/><path d="M190.63,106H192v6.61h-1.2l-3.14-4.54v4.54H186.3V106h1.32l3,4.37Z"/><path d="M197.55,107.93v1h-4.32v-1Zm0,2.1v1h-4.32v-1Z"/><path d="M199.66,112.62v-5h-1.18v-.76a3.22,3.22,0,0,0,.91-.1,1.13,1.13,0,0,0,.53-.31.93.93,0,0,0,.2-.49H201v6.61Z"/><path d="M203.57,112.62v-5h-1.18v-.76a3.35,3.35,0,0,0,.92-.1,1.09,1.09,0,0,0,.52-.31A.87.87,0,0,0,204,106h.88v6.61Z"/><path d="M207,105.85a7.69,7.69,0,0,1,.94,1.88,6.65,6.65,0,0,1,.36,2.18,6.16,6.16,0,0,1-.16,1.46,6.55,6.55,0,0,1-.44,1.29,12,12,0,0,1-.67,1.27h-.94a12.47,12.47,0,0,0,.76-2,7.8,7.8,0,0,0,.26-2,8,8,0,0,0-.29-2.13,9.55,9.55,0,0,0-.76-1.94Z"/><path class="a82648c8-3b88-4f22-abd5-81e62ee5e0f8" d="M202.34,51.78v-1a1.83,1.83,0,0,1,.19-.87,2.06,2.06,0,0,1,.49-.64,4.63,4.63,0,0,1,.68-.48c.25-.14.49-.27.74-.39s.47-.24.68-.36a2.07,2.07,0,0,0,.49-.42.79.79,0,0,0,.19-.54.83.83,0,0,0-.28-.65,1.09,1.09,0,0,0-.75-.25,1.31,1.31,0,0,0-.85.29,1.34,1.34,0,0,0-.43.87h-1.27a2.3,2.3,0,0,1,.29-1.14,2,2,0,0,1,.86-.82,3.06,3.06,0,0,1,1.43-.3,3,3,0,0,1,1.28.25,1.85,1.85,0,0,1,.83.7,1.79,1.79,0,0,1,.29,1,1.88,1.88,0,0,1-.18.86,2,2,0,0,1-.48.62,3.92,3.92,0,0,1-.67.45l-.72.36a6.76,6.76,0,0,0-.66.33,1.58,1.58,0,0,0-.48.39.76.76,0,0,0-.18.51v.06h3.37v1.13Z"/><path class="a82648c8-3b88-4f22-abd5-81e62ee5e0f8" d="M209.2,51.78v-5H208v-.76a2.92,2.92,0,0,0,.92-.11,1,1,0,0,0,.52-.31.81.81,0,0,0,.21-.48h.89v6.61Z"/><path class="a82648c8-3b88-4f22-abd5-81e62ee5e0f8" d="M212,51.78V50.32h1.46v1.46Z"/><path class="a82648c8-3b88-4f22-abd5-81e62ee5e0f8" d="M217.38,45.17h1.32v4h1v1.12h-1v1.47h-1.29V50.31h-3V49.22Zm-1.77,4h1.81V46.77Z"/><path class="a82648c8-3b88-4f22-abd5-81e62ee5e0f8" d="M222.07,45.07a1.47,1.47,0,0,1,.85.25,1.77,1.77,0,0,1,.59.68,2,2,0,0,1,.22,1,2.06,2.06,0,0,1-.21.94,1.61,1.61,0,0,1-.59.67,1.64,1.64,0,0,1-1.71,0,1.7,1.7,0,0,1-.6-.67,2,2,0,0,1-.22-.94,2,2,0,0,1,.22-1,1.88,1.88,0,0,1,.6-.68A1.51,1.51,0,0,1,222.07,45.07Zm0,3.07a.56.56,0,0,0,.52-.32,1.83,1.83,0,0,0,.16-.86,2,2,0,0,0-.17-.9.55.55,0,0,0-.51-.32.5.5,0,0,0-.38.15.94.94,0,0,0-.23.42,2.46,2.46,0,0,0-.08.65,1.87,1.87,0,0,0,.17.86A.55.55,0,0,0,222.07,48.14Zm4.72-3-4.44,6.72h-.79L226,45.09Zm-.38,3a1.54,1.54,0,0,1,.85.25,1.84,1.84,0,0,1,.6.69,2.11,2.11,0,0,1,.22,1,2,2,0,0,1-.22,1,1.67,1.67,0,0,1-.59.67,1.5,1.5,0,0,1-.86.25,1.52,1.52,0,0,1-.86-.25A1.67,1.67,0,0,1,225,51a2.16,2.16,0,0,1,0-1.9,1.75,1.75,0,0,1,.6-.69A1.57,1.57,0,0,1,226.41,48.11Zm0,3.07a.56.56,0,0,0,.39-.14.89.89,0,0,0,.22-.41,2.22,2.22,0,0,0,.08-.62,2.51,2.51,0,0,0-.08-.65.94.94,0,0,0-.23-.42.5.5,0,0,0-.38-.15.5.5,0,0,0-.37.15.93.93,0,0,0-.23.43,2.46,2.46,0,0,0-.07.64,2.25,2.25,0,0,0,.07.62A.89.89,0,0,0,226,51,.56.56,0,0,0,226.4,51.18Z"/><path class="a82648c8-3b88-4f22-abd5-81e62ee5e0f8" d="M206.55,56a9.21,9.21,0,0,0-.76,1.94,8,8,0,0,0,0,4.15,11.51,11.51,0,0,0,.75,2h-.93a12,12,0,0,1-.67-1.27,7.3,7.3,0,0,1-.45-1.29,6.75,6.75,0,0,1-.15-1.46,6.91,6.91,0,0,1,.35-2.18A8.34,8.34,0,0,1,205.6,56Z"/><path class="a82648c8-3b88-4f22-abd5-81e62ee5e0f8" d="M211.88,56.14h1.34v6.61H212l-3.14-4.55v4.55h-1.33V56.14h1.32l3,4.37Z"/><path class="a82648c8-3b88-4f22-abd5-81e62ee5e0f8" d="M218.81,58.06v1h-4.32v-1Zm0,2.1v1h-4.32v-1Z"/><path class="a82648c8-3b88-4f22-abd5-81e62ee5e0f8" d="M219.78,58.17a2,2,0,0,1,.34-1.18,2.06,2.06,0,0,1,.9-.71,3.46,3.46,0,0,1,1.27-.23,4.08,4.08,0,0,1,1.32.19,2,2,0,0,1,.91.58,1.48,1.48,0,0,1,.34,1,1.43,1.43,0,0,1-.28.86,1.85,1.85,0,0,1-.93.59,2.33,2.33,0,0,1,.68.31,1.59,1.59,0,0,1,.5.53,1.53,1.53,0,0,1,.18.76,1.71,1.71,0,0,1-.21.86,1.81,1.81,0,0,1-.59.61,3,3,0,0,1-.88.38,4.55,4.55,0,0,1-1.07.12,3.22,3.22,0,0,1-1.35-.26,1.94,1.94,0,0,1-.86-.73,2.11,2.11,0,0,1-.31-1.14H221a1.24,1.24,0,0,0,.44.81,1.4,1.4,0,0,0,.82.25,1.52,1.52,0,0,0,1-.27.77.77,0,0,0,.35-.67.76.76,0,0,0-.16-.49A1.18,1.18,0,0,0,223,60a1.69,1.69,0,0,0-.66-.12l-.63,0V58.81l.57,0a1.67,1.67,0,0,0,.62-.13,1,1,0,0,0,.41-.32.72.72,0,0,0,.15-.45.64.64,0,0,0-.15-.42,1,1,0,0,0-.42-.28,1.57,1.57,0,0,0-.6-.1,1.54,1.54,0,0,0-.58.11.93.93,0,0,0-.44.34,1.18,1.18,0,0,0-.19.64Z"/><path class="a82648c8-3b88-4f22-abd5-81e62ee5e0f8" d="M226.47,56a8.34,8.34,0,0,1,.94,1.89,6.65,6.65,0,0,1,.36,2.18,6.73,6.73,0,0,1-.16,1.46,7.27,7.27,0,0,1-.44,1.29c-.2.42-.42.84-.67,1.27h-.94a11.51,11.51,0,0,0,.75-2,7.39,7.39,0,0,0,.26-2,8.17,8.17,0,0,0-.28-2.14,9.81,9.81,0,0,0-.77-1.94Z"/></svg>