<svg id="f43889e1-d74b-4c0c-b6bf-05f13a9eeb6c" data-name="Layer 1" xmlns="http://www.w3.org/2000/svg" viewBox="0 0 198.52 85.87"><defs><style>.a01816e5-9092-4d1d-bb2d-3ae0cf548bc6,.b404a07b-c0f4-4577-b694-1d4a6d1ed97c{fill:#ffd297;}.a01816e5-9092-4d1d-bb2d-3ae0cf548bc6,.b06a5b24-022b-4c67-a625-7a4815a09f91{stroke:#000;stroke-miterlimit:10;stroke-width:0.2px;}.b06a5b24-022b-4c67-a625-7a4815a09f91,.f81dfcda-a2c6-472b-91ec-4224d79e1fab{fill:#26445e;}.a4bd7a06-e9b5-4d1e-a76a-0d6423c53613{fill:#fff;}</style></defs><path class="a01816e5-9092-4d1d-bb2d-3ae0cf548bc6" d="M63.77,45.35l34-4.18a34.34,34.34,0,1,1-34-30.12Z"/><path class="b06a5b24-022b-4c67-a625-7a4815a09f91" d="M63.77,45.35V11.05a34,34,0,0,1,34,30.12Z"/><path d="M2.64.9a2.21,2.21,0,0,1,1,.23,1.89,1.89,0,0,1,.72.62,2,2,0,0,1,.33.9H3.62a1.31,1.31,0,0,0-.17-.47.87.87,0,0,0-.34-.32,1,1,0,0,0-.51-.12,1.08,1.08,0,0,0-.6.17,1,1,0,0,0-.4.55,3.14,3.14,0,0,0-.13,1,2.42,2.42,0,0,0,.3,1.37,1,1,0,0,0,.83.42.94.94,0,0,0,.51-.13,1.07,1.07,0,0,0,.34-.36,1.58,1.58,0,0,0,.17-.49H4.7A2.7,2.7,0,0,1,4.52,5a1.69,1.69,0,0,1-.37.58,1.55,1.55,0,0,1-.61.4,2.42,2.42,0,0,1-.9.15,2.24,2.24,0,0,1-1.23-.33,2.22,2.22,0,0,1-.79-.92A3.19,3.19,0,0,1,.34,3.46,3,3,0,0,1,.62,2.09a1.94,1.94,0,0,1,.79-.88A2.29,2.29,0,0,1,2.64.9Z"/><path d="M7.05,6.1a1.86,1.86,0,0,1-.93-.23,1.57,1.57,0,0,1-.61-.64,2.19,2.19,0,0,1-.21-1,2.26,2.26,0,0,1,.21-1,1.62,1.62,0,0,1,.61-.66,1.79,1.79,0,0,1,.93-.24A1.74,1.74,0,0,1,8,2.58a1.48,1.48,0,0,1,.6.66,2.2,2.2,0,0,1,.22,1,2.13,2.13,0,0,1-.21,1,1.63,1.63,0,0,1-.6.65A1.75,1.75,0,0,1,7.05,6.1Zm0-.76a.6.6,0,0,0,.44-.16.79.79,0,0,0,.23-.41,2.09,2.09,0,0,0,0-1.11.92.92,0,0,0-.23-.41.65.65,0,0,0-.45-.16.63.63,0,0,0-.44.15.88.88,0,0,0-.24.41,1.91,1.91,0,0,0-.07.56,1.9,1.9,0,0,0,.07.54.9.9,0,0,0,.23.43A.61.61,0,0,0,7.05,5.34Z"/><path d="M10.77,6.1A1.67,1.67,0,0,1,10.28,6a1.42,1.42,0,0,1-.44-.23,1,1,0,0,1-.32-.37,1,1,0,0,1-.13-.51V2.41h1V4.78a.53.53,0,0,0,.16.41.66.66,0,0,0,.49.16.7.7,0,0,0,.47-.15.54.54,0,0,0,.18-.43V2.41h1l0,3.62H12l-.12-.72a.87.87,0,0,1-.24.49,1,1,0,0,1-.39.24A1.67,1.67,0,0,1,10.77,6.1Z"/><path d="M13.62,6V2.41h1v.51a1.27,1.27,0,0,1,.22-.25.89.89,0,0,1,.34-.21,1.54,1.54,0,0,1,1.11,0,1.09,1.09,0,0,1,.47.41,1.28,1.28,0,0,1,.18.72V6h-1V3.77a.53.53,0,0,0-.18-.44.64.64,0,0,0-.42-.15.92.92,0,0,0-.33.06.58.58,0,0,0-.25.18.43.43,0,0,0-.1.29V6Z"/><path d="M19.82,3.12H19V5.05a.49.49,0,0,0,0,.2.15.15,0,0,0,.11.08l.18,0h.49V6L19.61,6a2.26,2.26,0,0,1-.42,0A1.79,1.79,0,0,1,18.46,6a.68.68,0,0,1-.36-.35A1.13,1.13,0,0,1,18,5.09v-2h-.58V2.41H18l.25-1.09H19V2.41h.81Z"/><path d="M23.57,6.1a1.82,1.82,0,0,1-.92-.23A1.45,1.45,0,0,1,22,5.23a2.07,2.07,0,0,1-.22-1,2.26,2.26,0,0,1,.21-1,1.64,1.64,0,0,1,.62-.66,1.9,1.9,0,0,1,1.85,0,1.56,1.56,0,0,1,.61.66,2.2,2.2,0,0,1,.21,1,2.13,2.13,0,0,1-.21,1,1.5,1.5,0,0,1-.6.65A1.75,1.75,0,0,1,23.57,6.1Zm0-.76A.57.57,0,0,0,24,5.18a.88.88,0,0,0,.24-.41,2,2,0,0,0,.07-.56,2,2,0,0,0-.07-.55A.83.83,0,0,0,24,3.25a.7.7,0,0,0-.88,0,.88.88,0,0,0-.24.41,1.89,1.89,0,0,0-.08.56,1.9,1.9,0,0,0,.07.54,1.11,1.11,0,0,0,.23.43A.61.61,0,0,0,23.58,5.34Z"/><path d="M28.11,2.41v.71h-.76V6h-1V3.12h-.67V2.41h.67V1.89a.89.89,0,0,1,.25-.68A1.05,1.05,0,0,1,27.31,1h.83v.68h-.48a.31.31,0,0,0-.27.1.56.56,0,0,0-.07.31v.35Z"/><path d="M32.39.9a2.25,2.25,0,0,1,1,.23,1.86,1.86,0,0,1,1,1.52H33.38a1.15,1.15,0,0,0-.18-.47.81.81,0,0,0-.34-.32,1,1,0,0,0-.5-.12,1.12,1.12,0,0,0-.61.17,1.06,1.06,0,0,0-.39.55,3.1,3.1,0,0,0-.14,1,2.33,2.33,0,0,0,.31,1.37,1,1,0,0,0,.83.42.89.89,0,0,0,.5-.13,1,1,0,0,0,.34-.36,1.37,1.37,0,0,0,.18-.49h1.07a2.68,2.68,0,0,1-.17.69,1.85,1.85,0,0,1-.37.58,1.55,1.55,0,0,1-.61.4,2.44,2.44,0,0,1-.91.15,2.2,2.2,0,0,1-1.22-.33,2.15,2.15,0,0,1-.79-.92,3.19,3.19,0,0,1-.28-1.39,3.19,3.19,0,0,1,.27-1.37,2.05,2.05,0,0,1,.79-.88A2.34,2.34,0,0,1,32.39.9Z"/><path d="M37.47,6.1a2.35,2.35,0,0,1-1.24-.31,2.09,2.09,0,0,1-.81-.9,3.06,3.06,0,0,1-.29-1.38,3.13,3.13,0,0,1,.29-1.39,2.11,2.11,0,0,1,.82-.9A2.26,2.26,0,0,1,37.47.9a2.34,2.34,0,0,1,1.23.31,2.13,2.13,0,0,1,.8.9,3.18,3.18,0,0,1,.29,1.4,3.23,3.23,0,0,1-.28,1.38,2.09,2.09,0,0,1-.81.9A2.29,2.29,0,0,1,37.47,6.1Zm0-.84a1.12,1.12,0,0,0,.64-.18,1.08,1.08,0,0,0,.42-.56,2.73,2.73,0,0,0,.15-1,2.89,2.89,0,0,0-.15-1,1.23,1.23,0,0,0-.42-.58,1.23,1.23,0,0,0-1.28,0,1.23,1.23,0,0,0-.42.58,2.66,2.66,0,0,0-.16,1,2.61,2.61,0,0,0,.16,1,1.1,1.1,0,0,0,.42.55A1.14,1.14,0,0,0,37.47,5.26Z"/><path d="M44.76,1,43,6H41.85L40.12,1h1l1.33,3.87L43.78,1Z"/><path d="M45.46,1h1V6h-1Z"/><path d="M47.61,1h1.52a3.26,3.26,0,0,1,1.5.33,1.86,1.86,0,0,1,.85.86,2.94,2.94,0,0,1,.27,1.31,2.86,2.86,0,0,1-.29,1.35,2,2,0,0,1-.87.89,3.18,3.18,0,0,1-1.5.31H47.61Zm1,.83V5.2h.47A1.86,1.86,0,0,0,49.9,5a1.31,1.31,0,0,0,.57-.55,2.15,2.15,0,0,0,.21-1,2,2,0,0,0-.19-1A1.11,1.11,0,0,0,50,2a1.81,1.81,0,0,0-.83-.17Z"/><path d="M54.42,3.86V4.6H52.51V3.86Z"/><path d="M55.57,6V2.24h-.91V1.66a2.72,2.72,0,0,0,.71-.08.8.8,0,0,0,.4-.24A.68.68,0,0,0,55.92,1h.68V6Z"/><path d="M59.52,6.07a2.2,2.2,0,0,1-.88-.18,1.76,1.76,0,0,1-.67-.5,1.37,1.37,0,0,1-.29-.77h1a.79.79,0,0,0,.28.47.8.8,0,0,0,.54.18,1.2,1.2,0,0,0,.64-.17,1.09,1.09,0,0,0,.41-.54,2.22,2.22,0,0,0,.1-1,.94.94,0,0,1-.27.33,1.39,1.39,0,0,1-.4.21,1.72,1.72,0,0,1-.52.08,2,2,0,0,1-.91-.2,1.51,1.51,0,0,1-.62-.55,1.59,1.59,0,0,1-.23-.85,1.65,1.65,0,0,1,.24-.89,1.6,1.6,0,0,1,.66-.6,2.14,2.14,0,0,1,1-.22,2.06,2.06,0,0,1,1.12.3,1.92,1.92,0,0,1,.71.87,3.14,3.14,0,0,1,.25,1.32,3.85,3.85,0,0,1-.25,1.5,1.89,1.89,0,0,1-.74.89A2.12,2.12,0,0,1,59.52,6.07Zm.1-2.69A1,1,0,0,0,60,3.29,1.06,1.06,0,0,0,60.36,3a.44.44,0,0,0,.13-.3,1.28,1.28,0,0,0-.11-.58.83.83,0,0,0-.3-.38.9.9,0,0,0-.46-.12.77.77,0,0,0-.43.11.75.75,0,0,0-.3.31,1,1,0,0,0-.11.47.81.81,0,0,0,.23.61A.83.83,0,0,0,59.62,3.38Z"/><path d="M64,6V1h1.49l1.15,3.61L67.83,1h1.48V6h-1V2.16L67.06,6h-.8L65.05,2.18V6Z"/><path d="M71.06,4.46a1.21,1.21,0,0,0,.09.48.72.72,0,0,0,.68.42,1,1,0,0,0,.46-.11.68.68,0,0,0,.28-.37h.92a1.35,1.35,0,0,1-.32.67,1.65,1.65,0,0,1-.59.41,2,2,0,0,1-.72.14,1.9,1.9,0,0,1-.94-.23,1.55,1.55,0,0,1-.64-.63,2,2,0,0,1-.23-1,2.27,2.27,0,0,1,.21-1,1.59,1.59,0,0,1,.6-.68,1.71,1.71,0,0,1,1-.26,1.83,1.83,0,0,1,.93.23,1.42,1.42,0,0,1,.56.65,2.25,2.25,0,0,1,.19,1v.28Zm0-.61h1.48a1,1,0,0,0-.08-.4.71.71,0,0,0-.25-.29.7.7,0,0,0-.4-.1.68.68,0,0,0-.41.11.78.78,0,0,0-.25.29A.89.89,0,0,0,71.06,3.85Z"/><path d="M74.22,6V2.41h1v.51a1.45,1.45,0,0,1,.44-.41,1.37,1.37,0,0,1,.7-.17,1.06,1.06,0,0,1,.38.07,1.24,1.24,0,0,1,.36.19,1.08,1.08,0,0,1,.28.32,1.52,1.52,0,0,1,.46-.41,1.24,1.24,0,0,1,.63-.17,1.18,1.18,0,0,1,.41.07,1.06,1.06,0,0,1,.39.21,1.24,1.24,0,0,1,.28.41,1.55,1.55,0,0,1,.11.61V6h-1V3.77a.7.7,0,0,0-.08-.35.5.5,0,0,0-.22-.19.67.67,0,0,0-.28-.06.66.66,0,0,0-.27.06.46.46,0,0,0-.24.17.45.45,0,0,0-.1.31V6h-1V3.68a.51.51,0,0,0-.08-.28.72.72,0,0,0-.22-.17.66.66,0,0,0-.27-.06.71.71,0,0,0-.28.06.55.55,0,0,0-.24.18.49.49,0,0,0-.09.3V6Z"/><path d="M82.05,6.1a1.89,1.89,0,0,1-.93-.23,1.57,1.57,0,0,1-.61-.64,2.19,2.19,0,0,1-.21-1,2.26,2.26,0,0,1,.21-1,1.69,1.69,0,0,1,.61-.66,1.79,1.79,0,0,1,.93-.24,1.74,1.74,0,0,1,.93.24,1.48,1.48,0,0,1,.6.66,2.08,2.08,0,0,1,.22,1,2.13,2.13,0,0,1-.21,1,1.63,1.63,0,0,1-.6.65A1.75,1.75,0,0,1,82.05,6.1Zm0-.76a.6.6,0,0,0,.44-.16.88.88,0,0,0,.24-.41,2,2,0,0,0,.07-.56,2,2,0,0,0-.07-.55.83.83,0,0,0-.23-.41.65.65,0,0,0-.45-.16.61.61,0,0,0-.43.15.82.82,0,0,0-.25.41,1.91,1.91,0,0,0-.07.56,1.9,1.9,0,0,0,.07.54,1,1,0,0,0,.23.43A.61.61,0,0,0,82.05,5.34Z"/><path d="M84.49,6V2.41h1v.86a1.92,1.92,0,0,1,.25-.47,1.2,1.2,0,0,1,1-.46h.06v1h-.06a1.87,1.87,0,0,0-.71.06.64.64,0,0,0-.36.27.72.72,0,0,0-.11.41V6Z"/><path d="M88.36,1v.92h-1V1Zm0,1.44V6h-1V2.41Z"/><path d="M90.14,4.46a1.21,1.21,0,0,0,.09.48.72.72,0,0,0,.26.31.73.73,0,0,0,.42.11.94.94,0,0,0,.45-.11.64.64,0,0,0,.28-.37h.92a1.34,1.34,0,0,1-.31.67,1.65,1.65,0,0,1-.59.41,2,2,0,0,1-.73.14A1.92,1.92,0,0,1,90,5.87a1.68,1.68,0,0,1-.64-.63,2,2,0,0,1-.23-1,2.27,2.27,0,0,1,.21-1,1.59,1.59,0,0,1,.6-.68,1.73,1.73,0,0,1,.95-.26,1.78,1.78,0,0,1,.93.23,1.5,1.5,0,0,1,.57.65,2.42,2.42,0,0,1,.19,1v.28Zm0-.61h1.47a.87.87,0,0,0-.08-.4.62.62,0,0,0-.24-.29.76.76,0,0,0-.41-.1.65.65,0,0,0-.4.11.8.8,0,0,0-.26.29A.88.88,0,0,0,90.14,3.85Z"/><path d="M94.71,6.1A2.19,2.19,0,0,1,94,6a1.51,1.51,0,0,1-.59-.4,1.26,1.26,0,0,1-.31-.69H94a.55.55,0,0,0,.17.3.61.61,0,0,0,.28.16,1.08,1.08,0,0,0,.76,0A.31.31,0,0,0,95.35,5a.28.28,0,0,0-.1-.23.9.9,0,0,0-.35-.14l-.64-.13a1.77,1.77,0,0,1-.77-.34.89.89,0,0,1-.3-.69,1.07,1.07,0,0,1,.17-.59,1.21,1.21,0,0,1,.52-.41,2,2,0,0,1,.83-.15,1.74,1.74,0,0,1,1.07.3,1,1,0,0,1,.41.82h-.86a.44.44,0,0,0-.21-.32A.77.77,0,0,0,94.7,3a1,1,0,0,0-.44.09.31.31,0,0,0-.17.29.25.25,0,0,0,.14.22,1.32,1.32,0,0,0,.43.15l.59.13a1.68,1.68,0,0,1,.5.2,1.11,1.11,0,0,1,.29.28,1.05,1.05,0,0,1,.15.3,1,1,0,0,1,0,.28,1,1,0,0,1-.19.61A1.22,1.22,0,0,1,95.5,6,2.15,2.15,0,0,1,94.71,6.1Z"/><path d="M102.43,6h-1.06l-.82-1.95h-1V6h-1V1h2.13a2.16,2.16,0,0,1,1,.19,1.25,1.25,0,0,1,.57.54,1.63,1.63,0,0,1,.18.78,1.64,1.64,0,0,1-.12.67,1.33,1.33,0,0,1-.33.46,1.9,1.9,0,0,1-.44.3Zm-2-2.74a.92.92,0,0,0,.65-.22.71.71,0,0,0,.24-.56.72.72,0,0,0-.23-.56.9.9,0,0,0-.59-.2h-1V3.29Z"/><path d="M104,4.46a1.06,1.06,0,0,0,.08.48.74.74,0,0,0,.27.31.69.69,0,0,0,.42.11.94.94,0,0,0,.45-.11.68.68,0,0,0,.28-.37h.92a1.34,1.34,0,0,1-.31.67,1.74,1.74,0,0,1-.59.41,2.06,2.06,0,0,1-.73.14,1.9,1.9,0,0,1-.94-.23,1.62,1.62,0,0,1-.64-.63,2,2,0,0,1-.23-1,2.27,2.27,0,0,1,.21-1,1.59,1.59,0,0,1,.6-.68,1.71,1.71,0,0,1,1-.26,1.78,1.78,0,0,1,.93.23,1.5,1.5,0,0,1,.57.65,2.42,2.42,0,0,1,.19,1v.28Zm0-.61h1.48a1,1,0,0,0-.08-.4.62.62,0,0,0-.24-.29.76.76,0,0,0-.41-.1.7.7,0,0,0-.41.11.78.78,0,0,0-.25.29A.89.89,0,0,0,104,3.85Z"/><path d="M108.73,2.34a1.62,1.62,0,0,1,.79.18A1.39,1.39,0,0,1,110,3a1.56,1.56,0,0,1,.22.71h-.86a.76.76,0,0,0-.09-.28.61.61,0,0,0-.21-.24.65.65,0,0,0-.35-.09.72.72,0,0,0-.59.27,1.28,1.28,0,0,0-.23.83,1.5,1.5,0,0,0,.22.85.73.73,0,0,0,.62.31.52.52,0,0,0,.33-.11.74.74,0,0,0,.31-.5h.83a1.28,1.28,0,0,1-.2.66,1.34,1.34,0,0,1-.51.49,1.66,1.66,0,0,1-.8.18,1.82,1.82,0,0,1-.9-.22,1.62,1.62,0,0,1-.62-.65,2,2,0,0,1-.23-1,2.07,2.07,0,0,1,.22-1,1.59,1.59,0,0,1,.61-.67A1.73,1.73,0,0,1,108.73,2.34Z"/><path d="M111.81,4.46a1.21,1.21,0,0,0,.09.48.72.72,0,0,0,.26.31.73.73,0,0,0,.42.11.88.88,0,0,0,.45-.11.69.69,0,0,0,.29-.37h.92a1.44,1.44,0,0,1-.32.67,1.65,1.65,0,0,1-.59.41,2,2,0,0,1-.72.14,1.94,1.94,0,0,1-1-.23,1.59,1.59,0,0,1-.63-.63,1.92,1.92,0,0,1-.23-1,2.42,2.42,0,0,1,.2-1,1.55,1.55,0,0,1,.61-.68,1.67,1.67,0,0,1,.94-.26,1.78,1.78,0,0,1,.93.23,1.5,1.5,0,0,1,.57.65,2.25,2.25,0,0,1,.19,1v.28Zm0-.61h1.47a.87.87,0,0,0-.08-.4.62.62,0,0,0-.24-.29.73.73,0,0,0-.41-.1.65.65,0,0,0-.4.11.7.7,0,0,0-.25.29A.89.89,0,0,0,111.81,3.85Z"/><path d="M116,1v.92h-1V1Zm0,1.44V6h-1V2.41Z"/><path d="M120,2.41,118.68,6h-.74l-1.36-3.62h.93l.79,2.31h0l.78-2.31Z"/><path d="M121.26,4.46a1.21,1.21,0,0,0,.09.48.72.72,0,0,0,.26.31.73.73,0,0,0,.42.11.88.88,0,0,0,.45-.11.69.69,0,0,0,.29-.37h.92a1.35,1.35,0,0,1-.32.67,1.65,1.65,0,0,1-.59.41,2,2,0,0,1-.72.14,1.94,1.94,0,0,1-1-.23,1.59,1.59,0,0,1-.63-.63,1.92,1.92,0,0,1-.23-1,2.42,2.42,0,0,1,.2-1,1.55,1.55,0,0,1,.61-.68,1.67,1.67,0,0,1,.94-.26,1.78,1.78,0,0,1,.93.23,1.5,1.5,0,0,1,.57.65,2.25,2.25,0,0,1,.19,1v.28Zm0-.61h1.47a.87.87,0,0,0-.08-.4.62.62,0,0,0-.24-.29.73.73,0,0,0-.41-.1.65.65,0,0,0-.4.11.7.7,0,0,0-.25.29A.89.89,0,0,0,121.26,3.85Z"/><path d="M125.76,6.1a1.41,1.41,0,0,1-1.14-.5,2.18,2.18,0,0,1-.4-1.4,2.61,2.61,0,0,1,.16-1,1.42,1.42,0,0,1,.49-.65,1.34,1.34,0,0,1,.79-.23,1.36,1.36,0,0,1,.36.05.84.84,0,0,1,.31.12,1.21,1.21,0,0,1,.25.17,1.18,1.18,0,0,1,.17.22V.83h1V6H127l-.12-.74a1.08,1.08,0,0,1-.13.29,1.13,1.13,0,0,1-.23.26,1.06,1.06,0,0,1-.33.19A1.27,1.27,0,0,1,125.76,6.1Zm.22-.73a.67.67,0,0,0,.58-.27,1.71,1.71,0,0,0,.19-.91,1.81,1.81,0,0,0-.09-.62.72.72,0,0,0-.25-.37.74.74,0,0,0-1,.14,1.28,1.28,0,0,0-.22.85,1.6,1.6,0,0,0,.2.89A.67.67,0,0,0,126,5.37Z"/><path d="M132.16,6.1A1.27,1.27,0,0,1,131.7,6a1,1,0,0,1-.34-.19,1.09,1.09,0,0,1-.22-.26,1.11,1.11,0,0,1-.14-.29l-.12.74h-.74V.83h1V2.9a.87.87,0,0,1,.17-.22,1.46,1.46,0,0,1,.24-.17.91.91,0,0,1,.31-.12,1.5,1.5,0,0,1,.37-.05,1.27,1.27,0,0,1,1.06.49,2.19,2.19,0,0,1,.38,1.37,2.75,2.75,0,0,1-.17,1,1.39,1.39,0,0,1-.52.66A1.47,1.47,0,0,1,132.16,6.1Zm-.23-.73a.68.68,0,0,0,.55-.28,1.42,1.42,0,0,0,.22-.9,1.37,1.37,0,0,0-.21-.84.68.68,0,0,0-.56-.27.7.7,0,0,0-.42.12.73.73,0,0,0-.26.37,2.12,2.12,0,0,0-.08.62,1.62,1.62,0,0,0,.19.91A.66.66,0,0,0,131.93,5.37Z"/><path d="M134.79,7.19a1.82,1.82,0,0,1-.67-.13V6.41l.35,0a1.06,1.06,0,0,0,.38,0,.5.5,0,0,0,.22-.09.33.33,0,0,0,.11-.13l0-.1.07-.2-1.41-3.47h1l.87,2.36.88-2.36h1l-1.47,3.64a2.56,2.56,0,0,1-.4.71,1.14,1.14,0,0,1-.45.33A1.51,1.51,0,0,1,134.79,7.19Z"/><path d="M139.73,6V1h1.86a2.4,2.4,0,0,1,1,.19,1.56,1.56,0,0,1,.7.56,1.65,1.65,0,0,1,.25.91,1.69,1.69,0,0,1-.22.86,1.47,1.47,0,0,1-.63.55,2.33,2.33,0,0,1-1,.19h-1V6Zm1-2.6h.95a.82.82,0,0,0,.87-.85.71.71,0,0,0-.26-.6.92.92,0,0,0-.63-.23h-.93Z"/><path d="M145.13,6.1a1.38,1.38,0,0,1-.62-.13,1,1,0,0,1-.44-.38,1,1,0,0,1-.16-.6,1,1,0,0,1,.44-.9,2.57,2.57,0,0,1,1.41-.32h.45V3.55a.5.5,0,0,0-.15-.39.62.62,0,0,0-.45-.13.88.88,0,0,0-.42.11.53.53,0,0,0-.28.35h-.85a1.13,1.13,0,0,1,.23-.65,1.23,1.23,0,0,1,.56-.37,2.3,2.3,0,0,1,.81-.13,2.4,2.4,0,0,1,.89.14.9.9,0,0,1,.49.4,1.17,1.17,0,0,1,.15.61V6h-.85l-.09-.62a1.14,1.14,0,0,1-.46.54A1.4,1.4,0,0,1,145.13,6.1Zm.34-.67a.76.76,0,0,0,.27,0,1,1,0,0,0,.24-.14,1,1,0,0,0,.17-.19.49.49,0,0,0,.06-.23V4.29h-.37a2.21,2.21,0,0,0-.47.07.77.77,0,0,0-.36.18.48.48,0,0,0-.13.35.48.48,0,0,0,.17.4A.68.68,0,0,0,145.47,5.43Z"/><path d="M148.11,6V2.41h1v.86a1.63,1.63,0,0,1,.25-.47,1.2,1.2,0,0,1,1-.46h.06v1h-.06a1.87,1.87,0,0,0-.71.06.64.64,0,0,0-.36.27.72.72,0,0,0-.11.41V6Z"/><path d="M153.22,3.12h-.8V5.05a.35.35,0,0,0,0,.2.14.14,0,0,0,.1.08l.18,0h.49V6L153,6a2.22,2.22,0,0,1-.41,0,1.81,1.81,0,0,1-.74-.12.77.77,0,0,1-.36-.35,1.13,1.13,0,0,1-.1-.51v-2h-.59V2.41h.62l.26-1.09h.73V2.41h.8Z"/><path d="M155,1v.92h-1V1Zm0,1.44V6h-1V2.41Z"/><path d="M157.5,2.34a1.62,1.62,0,0,1,.79.18,1.39,1.39,0,0,1,.52.5,1.56,1.56,0,0,1,.22.71h-.86a.76.76,0,0,0-.09-.28.56.56,0,0,0-.22-.24.59.59,0,0,0-.34-.09.72.72,0,0,0-.59.27,1.28,1.28,0,0,0-.23.83,1.5,1.5,0,0,0,.22.85.73.73,0,0,0,.62.31.52.52,0,0,0,.33-.11.61.61,0,0,0,.21-.24.61.61,0,0,0,.1-.26H159a1.28,1.28,0,0,1-.2.66,1.34,1.34,0,0,1-.51.49,1.66,1.66,0,0,1-.8.18,1.77,1.77,0,0,1-.9-.22,1.62,1.62,0,0,1-.62-.65,2,2,0,0,1-.23-1,2.07,2.07,0,0,1,.22-1,1.59,1.59,0,0,1,.61-.67A1.73,1.73,0,0,1,157.5,2.34Z"/><path d="M160.78,1v.92h-1V1Zm0,1.44V6h-1V2.41Z"/><path d="M161.73,7.16V2.41h1v.52a1.07,1.07,0,0,1,.2-.23,1,1,0,0,1,.26-.19,1.05,1.05,0,0,1,.31-.12,1.35,1.35,0,0,1,1.07.15,1.29,1.29,0,0,1,.5.61,2.59,2.59,0,0,1,.18,1,2.57,2.57,0,0,1-.2,1.08,1.39,1.39,0,0,1-.53.63,1.52,1.52,0,0,1-.77.2,1.2,1.2,0,0,1-.33,0,.9.9,0,0,1-.28-.13,1.12,1.12,0,0,1-.24-.19c-.06-.08-.13-.16-.18-.24V7.16Zm1.8-1.81a.67.67,0,0,0,.56-.28,1.35,1.35,0,0,0,.23-.87,1.33,1.33,0,0,0-.22-.82.7.7,0,0,0-1.16,0,1.53,1.53,0,0,0-.19.8,1.79,1.79,0,0,0,.09.57.91.91,0,0,0,.26.42A.59.59,0,0,0,163.53,5.35Z"/><path d="M167,6.1a1.42,1.42,0,0,1-.63-.13,1.08,1.08,0,0,1-.44-.38,1,1,0,0,1-.16-.6,1,1,0,0,1,.44-.9,2.57,2.57,0,0,1,1.41-.32h.45V3.55a.53.53,0,0,0-.14-.39.65.65,0,0,0-.45-.13,1,1,0,0,0-.43.11.56.56,0,0,0-.28.35h-.84a1.07,1.07,0,0,1,.23-.65,1.13,1.13,0,0,1,.56-.37,2.2,2.2,0,0,1,.8-.13,2.4,2.4,0,0,1,.89.14.9.9,0,0,1,.49.4,1.17,1.17,0,0,1,.15.61V6h-.85l-.08-.62a1.16,1.16,0,0,1-.47.54A1.33,1.33,0,0,1,167,6.1Zm.34-.67a.86.86,0,0,0,.27,0,1.09,1.09,0,0,0,.23-.14.75.75,0,0,0,.17-.19.49.49,0,0,0,.06-.23V4.29h-.36a2.41,2.41,0,0,0-.48.07.77.77,0,0,0-.36.18.48.48,0,0,0-.13.35.51.51,0,0,0,.17.4A.69.69,0,0,0,167.34,5.43Z"/><path d="M170,6V2.41h1v.51a.84.84,0,0,1,.22-.25.89.89,0,0,1,.34-.21,1.4,1.4,0,0,1,.49-.08,1.47,1.47,0,0,1,.62.13,1.15,1.15,0,0,1,.47.41,1.28,1.28,0,0,1,.18.72V6h-1V3.77a.53.53,0,0,0-.18-.44.6.6,0,0,0-.42-.15.87.87,0,0,0-.32.06.61.61,0,0,0-.26.18.48.48,0,0,0-.1.29V6Z"/><path d="M176.17,3.12h-.8V5.05a.46.46,0,0,0,0,.2.14.14,0,0,0,.1.08l.19,0h.48V6L176,6a2.15,2.15,0,0,1-.41,0,1.84,1.84,0,0,1-.74-.12.77.77,0,0,1-.36-.35,1.13,1.13,0,0,1-.1-.51v-2h-.59V2.41h.62l.26-1.09h.73V2.41h.8Z"/><path d="M180.45,6.1a3.06,3.06,0,0,1-.74-.09,2.45,2.45,0,0,1-.66-.29,1.57,1.57,0,0,1-.49-.47,1.34,1.34,0,0,1-.23-.67h1a.9.9,0,0,0,.2.39.88.88,0,0,0,.38.24,1.26,1.26,0,0,0,.49.09,1.61,1.61,0,0,0,.51-.07.88.88,0,0,0,.37-.21.52.52,0,0,0,.14-.36.45.45,0,0,0-.11-.31.87.87,0,0,0-.31-.2,2.19,2.19,0,0,0-.43-.13l-.88-.18a1.67,1.67,0,0,1-.91-.45,1.33,1.33,0,0,1-.34-.93,1.24,1.24,0,0,1,.25-.83,1.58,1.58,0,0,1,.7-.53,2.4,2.4,0,0,1,1-.19,2.58,2.58,0,0,1,1.1.2,1.58,1.58,0,0,1,.68.55,1.38,1.38,0,0,1,.24.78h-1a.76.76,0,0,0-.17-.42.63.63,0,0,0-.34-.23,1.37,1.37,0,0,0-.47-.07,1.4,1.4,0,0,0-.37,0,.91.91,0,0,0-.28.13.57.57,0,0,0-.18.2.49.49,0,0,0-.06.25.48.48,0,0,0,.14.35,1.14,1.14,0,0,0,.55.23l.87.18a2,2,0,0,1,.74.27,1.31,1.31,0,0,1,.41.4,1.22,1.22,0,0,1,.19.46,2.12,2.12,0,0,1,0,.42,1.17,1.17,0,0,1-.26.74,1.75,1.75,0,0,1-.71.52A2.76,2.76,0,0,1,180.45,6.1Z"/><path d="M184.09,4.46a1.06,1.06,0,0,0,.08.48.68.68,0,0,0,.27.31.69.69,0,0,0,.42.11.94.94,0,0,0,.45-.11.68.68,0,0,0,.28-.37h.92a1.43,1.43,0,0,1-.31.67,1.74,1.74,0,0,1-.59.41,2.06,2.06,0,0,1-.73.14,1.9,1.9,0,0,1-.94-.23,1.62,1.62,0,0,1-.64-.63,2,2,0,0,1-.23-1,2.27,2.27,0,0,1,.21-1,1.59,1.59,0,0,1,.6-.68,1.71,1.71,0,0,1,1-.26,1.78,1.78,0,0,1,.93.23,1.42,1.42,0,0,1,.56.65,2.26,2.26,0,0,1,.2,1v.28Zm0-.61h1.48a1,1,0,0,0-.08-.4.68.68,0,0,0-.24-.29.76.76,0,0,0-.41-.1.68.68,0,0,0-.41.11.78.78,0,0,0-.25.29A.89.89,0,0,0,184.08,3.85Z"/><path d="M190.48,6h-1.07l-.86-1.18L187.68,6h-1.07L188,4.14l-1.27-1.73h1.07l.75,1,.75-1h1.07l-1.28,1.73Z"/><rect class="b404a07b-c0f4-4577-b694-1d4a6d1ed97c" x="2.37" y="13.23" width="4.02" height="4.02"/><path d="M7.72,13.71h2v.49H8.31v.72H9.5v.48H8.31v1.2H7.72Z"/><path d="M10.5,15.7a.78.78,0,0,0,.05.28.65.65,0,0,0,.15.18.48.48,0,0,0,.24.06.44.44,0,0,0,.26-.07.35.35,0,0,0,.16-.21h.53a.79.79,0,0,1-.18.38,1,1,0,0,1-.34.24,1.15,1.15,0,0,1-.41.08,1,1,0,0,1-.54-.13.92.92,0,0,1-.37-.36,1.25,1.25,0,0,1-.13-.56A1.28,1.28,0,0,1,10,15a.88.88,0,0,1,.35-.39,1,1,0,0,1,.54-.15,1.09,1.09,0,0,1,.53.13.85.85,0,0,1,.32.38,1.3,1.3,0,0,1,.11.54v.16Zm0-.35h.84a.59.59,0,0,0,0-.23.43.43,0,0,0-.14-.16.41.41,0,0,0-.23-.06.4.4,0,0,0-.24.07.36.36,0,0,0-.14.16A.59.59,0,0,0,10.5,15.35Z"/><path d="M12.3,16.6V14.53h.57v.29a1,1,0,0,1,.26-.23.7.7,0,0,1,.4-.1.52.52,0,0,1,.21,0,.7.7,0,0,1,.21.11.55.55,0,0,1,.16.18.83.83,0,0,1,.26-.23.66.66,0,0,1,.37-.1.66.66,0,0,1,.23,0,.94.94,0,0,1,.22.12.79.79,0,0,1,.16.23,1,1,0,0,1,.06.36V16.6h-.58V15.31a.39.39,0,0,0-.05-.2.28.28,0,0,0-.13-.11.41.41,0,0,0-.16,0l-.15,0a.28.28,0,0,0-.14.1.24.24,0,0,0,0,.18V16.6h-.59V15.26a.21.21,0,0,0-.05-.16.29.29,0,0,0-.12-.1l-.15,0a.51.51,0,0,0-.17,0,.41.41,0,0,0-.13.1.27.27,0,0,0,0,.18V16.6Z"/><path d="M16.48,16.64a.86.86,0,0,1-.36-.07.59.59,0,0,1-.25-.22.62.62,0,0,1-.09-.34.59.59,0,0,1,.25-.52,1.43,1.43,0,0,1,.81-.18h.25v-.12A.27.27,0,0,0,17,15a.33.33,0,0,0-.26-.07.53.53,0,0,0-.24.06.28.28,0,0,0-.16.2h-.48a.63.63,0,0,1,.13-.37.68.68,0,0,1,.32-.22,1.59,1.59,0,0,1,.46-.07,1.43,1.43,0,0,1,.51.08.54.54,0,0,1,.28.23.65.65,0,0,1,.08.35V16.6h-.48l-.05-.36a.6.6,0,0,1-.27.31A.72.72,0,0,1,16.48,16.64Zm.19-.38a.41.41,0,0,0,.16,0,.57.57,0,0,0,.13-.08.52.52,0,0,0,.1-.11.31.31,0,0,0,0-.13v-.3h-.21a1.24,1.24,0,0,0-.27,0,.55.55,0,0,0-.2.11.28.28,0,0,0-.08.2.31.31,0,0,0,.1.23A.41.41,0,0,0,16.67,16.26Z"/><path d="M18.84,16.64a.9.9,0,0,1-.36-.06.38.38,0,0,1-.2-.14.5.5,0,0,1-.08-.2,1.64,1.64,0,0,1,0-.22V13.63h.57V16a.32.32,0,0,0,.05.18.25.25,0,0,0,.19.09h.09v.36l-.12,0Z"/><path d="M19.94,15.7A.61.61,0,0,0,20,16a.39.39,0,0,0,.39.24.46.46,0,0,0,.26-.07.39.39,0,0,0,.16-.21h.52a.65.65,0,0,1-.18.38.88.88,0,0,1-.33.24,1.2,1.2,0,0,1-.42.08,1.08,1.08,0,0,1-.54-.13,1,1,0,0,1-.36-.36,1.13,1.13,0,0,1-.13-.56,1.28,1.28,0,0,1,.12-.56.92.92,0,0,1,.34-.39,1,1,0,0,1,.54-.15,1.06,1.06,0,0,1,.53.13.87.87,0,0,1,.33.38,1.3,1.3,0,0,1,.11.54v.16Zm0-.35h.84a.59.59,0,0,0-.05-.23.36.36,0,0,0-.14-.16.41.41,0,0,0-.23-.06.35.35,0,0,0-.23.07.36.36,0,0,0-.14.16A.44.44,0,0,0,19.94,15.35Z"/><rect class="f81dfcda-a2c6-472b-91ec-4224d79e1fab" x="2.41" y="20.21" width="4.02" height="4.02"/><path d="M7.49,24V21.15h.85L9,23.21l.67-2.06h.85V24H9.93V21.83L9.23,24H8.77l-.69-2.2V24Z"/><path d="M11.69,24.08a.83.83,0,0,1-.36-.08.58.58,0,0,1-.25-.21.64.64,0,0,1-.09-.34.59.59,0,0,1,.25-.52,1.41,1.41,0,0,1,.8-.18h.26v-.12a.29.29,0,0,0-.08-.22.38.38,0,0,0-.26-.08.53.53,0,0,0-.24.06.32.32,0,0,0-.16.2h-.48a.55.55,0,0,1,.13-.36.63.63,0,0,1,.32-.22,1.31,1.31,0,0,1,.46-.07,1.43,1.43,0,0,1,.51.08.58.58,0,0,1,.28.22.78.78,0,0,1,.08.35V24h-.49l0-.36a.64.64,0,0,1-.27.31A.72.72,0,0,1,11.69,24.08Zm.19-.39a.41.41,0,0,0,.16,0,.33.33,0,0,0,.13-.07l.1-.11a.35.35,0,0,0,0-.13V23h-.21l-.27,0a.43.43,0,0,0-.2.11.26.26,0,0,0-.08.2.26.26,0,0,0,.1.22A.35.35,0,0,0,11.88,23.69Z"/><path d="M14.05,24.07a.94.94,0,0,1-.37-.05.47.47,0,0,1-.19-.14.5.5,0,0,1-.08-.2.82.82,0,0,1,0-.22v-2.4H14v2.33a.35.35,0,0,0,0,.18.22.22,0,0,0,.18.09h.1V24l-.12,0Z"/><path d="M15.15,23.14a.49.49,0,0,0,0,.27.34.34,0,0,0,.15.18.43.43,0,0,0,.24.07.49.49,0,0,0,.25-.07.37.37,0,0,0,.17-.21h.52a.65.65,0,0,1-.18.38A1,1,0,0,1,16,24a1.15,1.15,0,0,1-.41.08,1.2,1.2,0,0,1-.54-.13.92.92,0,0,1-.36-.37,1.07,1.07,0,0,1-.13-.55,1.25,1.25,0,0,1,.12-.56.88.88,0,0,1,.34-.4,1,1,0,0,1,.54-.14,1,1,0,0,1,.53.13.91.91,0,0,1,.33.37,1.35,1.35,0,0,1,.1.55v.16Zm0-.35H16a.59.59,0,0,0-.05-.23.31.31,0,0,0-.14-.16.47.47,0,0,0-.46,0,.61.61,0,0,0-.15.17A.54.54,0,0,0,15.14,22.79Z"/><path d="M40.12,57.46h2.16v.47a3.64,3.64,0,0,0-.28.41c-.09.16-.18.32-.26.5a4.16,4.16,0,0,0-.23.54,3.93,3.93,0,0,0-.17.52,2.76,2.76,0,0,0-.07.45h-.63a3.62,3.62,0,0,1,.08-.45c.05-.18.11-.38.19-.59a5.78,5.78,0,0,1,.31-.68,5.92,5.92,0,0,1,.45-.7H40.12Z"/><path d="M43.75,57.42a1.53,1.53,0,0,1,.54.09.85.85,0,0,1,.37.27.72.72,0,0,1,.13.44.6.6,0,0,1-.12.38.76.76,0,0,1-.3.23.67.67,0,0,1,.26.14.87.87,0,0,1,.21.25.68.68,0,0,1,.08.31.72.72,0,0,1-.15.45.94.94,0,0,1-.4.29,1.68,1.68,0,0,1-.62.1,1.66,1.66,0,0,1-.61-.1,1,1,0,0,1-.41-.29.77.77,0,0,1-.14-.45.68.68,0,0,1,.08-.31.64.64,0,0,1,.21-.25.6.6,0,0,1,.26-.14.76.76,0,0,1-.3-.23.55.55,0,0,1-.13-.38.72.72,0,0,1,.14-.44.8.8,0,0,1,.37-.27A1.51,1.51,0,0,1,43.75,57.42Zm0,2.52a.6.6,0,0,0,.4-.12.36.36,0,0,0,.15-.3.4.4,0,0,0-.26-.38.62.62,0,0,0-.29-.06.68.68,0,0,0-.29.06.38.38,0,0,0-.18.15.37.37,0,0,0-.07.23.36.36,0,0,0,.15.3A.59.59,0,0,0,43.75,59.94Zm0-1.33a.54.54,0,0,0,.33-.1.35.35,0,0,0,.13-.3.38.38,0,0,0-.13-.3.52.52,0,0,0-.33-.11.48.48,0,0,0-.32.11.38.38,0,0,0-.13.3.35.35,0,0,0,.13.3A.53.53,0,0,0,43.75,58.61Z"/><path d="M45.29,60.35v-.64h.64v.64Z"/><path d="M47.56,57.4a1.4,1.4,0,0,1,.51.1,1.06,1.06,0,0,1,.37.29.74.74,0,0,1,.16.45h-.53a.57.57,0,0,0-.18-.28.52.52,0,0,0-.31-.09.56.56,0,0,0-.35.11.68.68,0,0,0-.2.33,1.35,1.35,0,0,0,0,.5.55.55,0,0,1,.17-.17.8.8,0,0,1,.23-.1,1.09,1.09,0,0,1,.26,0,1.16,1.16,0,0,1,.51.11,1,1,0,0,1,.35.31,1,1,0,0,1,0,1,.89.89,0,0,1-.39.35,1.26,1.26,0,0,1-.57.13,1.12,1.12,0,0,1-.64-.18,1.18,1.18,0,0,1-.41-.49,1.91,1.91,0,0,1-.14-.76,2.07,2.07,0,0,1,.15-.82,1.09,1.09,0,0,1,1.06-.72Zm0,1.54a.53.53,0,0,0-.24.06.42.42,0,0,0-.18.14.25.25,0,0,0-.08.17.81.81,0,0,0,.06.33.53.53,0,0,0,.18.21.45.45,0,0,0,.26.08.43.43,0,0,0,.25-.07.39.39,0,0,0,.18-.18.44.44,0,0,0,.07-.26.54.54,0,0,0-.06-.27.55.55,0,0,0-.18-.16A.71.71,0,0,0,47.52,58.94Z"/><path d="M49.73,57.41a.65.65,0,0,1,.37.11.83.83,0,0,1,.26.3.82.82,0,0,1,.1.42.91.91,0,0,1-.09.41.74.74,0,0,1-.26.29.7.7,0,0,1-.38.11.7.7,0,0,1-.37-.11.67.67,0,0,1-.26-.29.8.8,0,0,1-.1-.41.82.82,0,0,1,.1-.42.83.83,0,0,1,.26-.3A.7.7,0,0,1,49.73,57.41Zm0,1.34a.25.25,0,0,0,.23-.13.81.81,0,0,0,.07-.38.82.82,0,0,0-.07-.39.24.24,0,0,0-.23-.14.25.25,0,0,0-.17.06.42.42,0,0,0-.09.19.79.79,0,0,0,0,.28,1,1,0,0,0,.07.38A.25.25,0,0,0,49.73,58.75Zm2.07-1.33-1.95,2.94h-.34l2-2.94Zm-.17,1.32a.67.67,0,0,1,.37.11.83.83,0,0,1,.26.3.87.87,0,0,1,.1.42,1,1,0,0,1-.09.42.81.81,0,0,1-.26.29.7.7,0,0,1-.38.11.67.67,0,0,1-.37-.11A.84.84,0,0,1,51,60a1,1,0,0,1-.09-.42.87.87,0,0,1,.1-.42.83.83,0,0,1,.26-.3A.7.7,0,0,1,51.63,58.74Zm0,1.34A.25.25,0,0,0,51.8,60a.55.55,0,0,0,.1-.17,1.14,1.14,0,0,0,0-.28.82.82,0,0,0,0-.28.32.32,0,0,0-.1-.18.2.2,0,0,0-.16-.07.22.22,0,0,0-.17.07.38.38,0,0,0-.09.18.82.82,0,0,0,0,.28,1.14,1.14,0,0,0,0,.28.55.55,0,0,0,.1.17A.25.25,0,0,0,51.63,60.08Z"/><path d="M54.64,57.38a4,4,0,0,0-.33.85,3.33,3.33,0,0,0-.13.94,3.58,3.58,0,0,0,.11.87,5.6,5.6,0,0,0,.33.88h-.41a5.89,5.89,0,0,1-.29-.55,2.93,2.93,0,0,1-.19-.57,2.62,2.62,0,0,1-.07-.64,2.75,2.75,0,0,1,.16-.95,3.38,3.38,0,0,1,.41-.83Z"/><path d="M57,57.46h.59v2.89H57l-1.37-2v2h-.58V57.46h.57L57,59.37Z"/><path d="M60,58.3v.42H58.11V58.3Zm0,.91v.43H58.11v-.43Z"/><path d="M60.92,60.35V58.18h-.51v-.33a1.45,1.45,0,0,0,.4-.05.47.47,0,0,0,.23-.13.4.4,0,0,0,.09-.21h.38v2.89Z"/><path d="M62.63,60.35V58.18h-.51v-.33a1.45,1.45,0,0,0,.4-.05.47.47,0,0,0,.23-.13.4.4,0,0,0,.09-.21h.39v2.89Z"/><path d="M64.12,57.38a3.78,3.78,0,0,1,.41.83,3,3,0,0,1,.16.95,3.22,3.22,0,0,1-.07.64,3,3,0,0,1-.2.57,5.89,5.89,0,0,1-.29.55h-.41a5.6,5.6,0,0,0,.33-.88,3.15,3.15,0,0,0,.11-.87,3.73,3.73,0,0,0-.12-.94,4.57,4.57,0,0,0-.34-.85Z"/><path class="a4bd7a06-e9b5-4d1e-a76a-0d6423c53613" d="M69.37,27.62v-.43a.89.89,0,0,1,.08-.38,1,1,0,0,1,.22-.28,1.61,1.61,0,0,1,.3-.21l.32-.17.3-.16a1,1,0,0,0,.21-.18.37.37,0,0,0,0-.52.44.44,0,0,0-.33-.11.59.59,0,0,0-.37.12.57.57,0,0,0-.18.38h-.56a1.06,1.06,0,0,1,.12-.5.86.86,0,0,1,.38-.35,1.33,1.33,0,0,1,.63-.14,1.36,1.36,0,0,1,.56.11.92.92,0,0,1,.36.31.78.78,0,0,1,.13.46.84.84,0,0,1-.08.37.82.82,0,0,1-.21.27,1.87,1.87,0,0,1-.29.2l-.32.16-.29.14a.92.92,0,0,0-.21.17.36.36,0,0,0-.08.23v0H71.5v.49Z"/><path class="a4bd7a06-e9b5-4d1e-a76a-0d6423c53613" d="M72.37,27.62V25.46h-.51v-.33a1.45,1.45,0,0,0,.4-.05.56.56,0,0,0,.23-.13.4.4,0,0,0,.09-.22H73v2.89Z"/><path class="a4bd7a06-e9b5-4d1e-a76a-0d6423c53613" d="M73.6,27.62V27h.63v.63Z"/><path class="a4bd7a06-e9b5-4d1e-a76a-0d6423c53613" d="M76,24.73h.58v1.76H77V27h-.44v.64H76V27H74.64V26.5Zm-.77,1.76H76V25.43Z"/><path class="a4bd7a06-e9b5-4d1e-a76a-0d6423c53613" d="M78,24.69a.7.7,0,0,1,.37.11.86.86,0,0,1,.26.3.93.93,0,0,1,.09.42.91.91,0,0,1-.09.41.81.81,0,0,1-.26.29.7.7,0,0,1-.37.11.7.7,0,0,1-.38-.11.73.73,0,0,1-.26-.29.8.8,0,0,1-.1-.41.82.82,0,0,1,.1-.42.7.7,0,0,1,.26-.3A.7.7,0,0,1,78,24.69ZM78,26a.24.24,0,0,0,.23-.13.83.83,0,0,0,.07-.38.9.9,0,0,0-.07-.4A.25.25,0,0,0,78,25a.19.19,0,0,0-.16.07.32.32,0,0,0-.1.18.85.85,0,0,0,0,.29.75.75,0,0,0,.08.37A.22.22,0,0,0,78,26Zm2.07-1.33-1.94,2.94h-.35l2-2.93ZM79.9,26a.67.67,0,0,1,.37.11,1,1,0,0,1,.27.3,1,1,0,0,1,.09.42.91.91,0,0,1-.09.41.85.85,0,0,1-.26.3.7.7,0,0,1-.38.1.66.66,0,0,1-.37-.1.76.76,0,0,1-.26-.3.8.8,0,0,1-.1-.41.87.87,0,0,1,.1-.42.83.83,0,0,1,.26-.3A.7.7,0,0,1,79.9,26Zm0,1.34a.25.25,0,0,0,.17-.06.5.5,0,0,0,.1-.18,1,1,0,0,0,0-.27,1.14,1.14,0,0,0,0-.28.67.67,0,0,0-.1-.19.27.27,0,0,0-.34,0,.48.48,0,0,0-.09.19.79.79,0,0,0,0,.28.7.7,0,0,0,0,.27.38.38,0,0,0,.09.18A.25.25,0,0,0,79.9,27.36Z"/><path class="a4bd7a06-e9b5-4d1e-a76a-0d6423c53613" d="M71.21,29.46a3.76,3.76,0,0,0-.33.85,3.31,3.31,0,0,0-.13.93,3.17,3.17,0,0,0,.12.88,4.34,4.34,0,0,0,.33.88h-.41c-.11-.19-.21-.37-.3-.56a3.69,3.69,0,0,1-.19-.56,2.62,2.62,0,0,1-.07-.64,2.75,2.75,0,0,1,.16-.95,3.21,3.21,0,0,1,.41-.83Z"/><path class="a4bd7a06-e9b5-4d1e-a76a-0d6423c53613" d="M73.55,29.53h.58v2.89H73.6l-1.37-2v2h-.58V29.53h.58l1.32,1.92Z"/><path class="a4bd7a06-e9b5-4d1e-a76a-0d6423c53613" d="M76.58,30.38v.42H74.69v-.42Zm0,.91v.43H74.69v-.43Z"/><path class="a4bd7a06-e9b5-4d1e-a76a-0d6423c53613" d="M77,30.42a.83.83,0,0,1,.15-.51.85.85,0,0,1,.39-.31,1.47,1.47,0,0,1,.56-.11,1.72,1.72,0,0,1,.58.09.86.86,0,0,1,.4.25.7.7,0,0,1,.14.44.64.64,0,0,1-.12.38.86.86,0,0,1-.4.25A1.11,1.11,0,0,1,79,31a.8.8,0,0,1,.22.23.67.67,0,0,1,.08.33.76.76,0,0,1-.09.38,1,1,0,0,1-.26.27,1.14,1.14,0,0,1-.39.16,1.71,1.71,0,0,1-.46.05,1.37,1.37,0,0,1-.6-.11.83.83,0,0,1-.37-.32,1,1,0,0,1-.14-.5h.56a.58.58,0,0,0,.2.36.6.6,0,0,0,.35.1.71.71,0,0,0,.43-.11.35.35,0,0,0,.15-.29.32.32,0,0,0-.07-.22.6.6,0,0,0-.2-.14.84.84,0,0,0-.29-.05h-.27V30.7h.24a.77.77,0,0,0,.28-.06.49.49,0,0,0,.18-.14.34.34,0,0,0,.06-.2.28.28,0,0,0-.06-.18.52.52,0,0,0-.19-.12.67.67,0,0,0-.26,0,.75.75,0,0,0-.26,0,.38.38,0,0,0-.18.15.58.58,0,0,0-.09.28Z"/><path class="a4bd7a06-e9b5-4d1e-a76a-0d6423c53613" d="M79.93,29.46a3.57,3.57,0,0,1,.41.83,3,3,0,0,1,.16.95,3.22,3.22,0,0,1-.07.64,2.88,2.88,0,0,1-.2.56,5,5,0,0,1-.29.56h-.41a6,6,0,0,0,.33-.88,3.17,3.17,0,0,0,.11-.88,3.71,3.71,0,0,0-.12-.93,4.31,4.31,0,0,0-.34-.85Z"/></svg>