<svg id="ff1b65bc-5f02-4476-9d96-4f0e6038b6e7" data-name="date" xmlns="http://www.w3.org/2000/svg" viewBox="0 0 284 87.18"><defs><style>.b7272d90-7bac-439a-b24b-39a99ddd928e,.ebe7dc22-d03c-4d97-9e40-e60d97a635f0{fill:none;}.b7272d90-7bac-439a-b24b-39a99ddd928e,.b8fd4ca5-d114-499f-93f1-efbc99b3bd09{stroke:#000;stroke-width:0.19px;}.b7272d90-7bac-439a-b24b-39a99ddd928e,.b8fd4ca5-d114-499f-93f1-efbc99b3bd09,.ebe7dc22-d03c-4d97-9e40-e60d97a635f0{stroke-miterlimit:10;}.ebe7dc22-d03c-4d97-9e40-e60d97a635f0{stroke:#031f2a;stroke-width:0.25px;}.b5799aa3-9f09-4e81-aa6a-158721018f39{fill:#031f2a;}.b8fd4ca5-d114-499f-93f1-efbc99b3bd09{fill:#8a7c73;}</style></defs><path class="b7272d90-7bac-439a-b24b-39a99ddd928e" d="M28,17.74a4.19,4.19,0,0,0-1-.17c-.37,0-.94.09-1,.29A3,3,0,0,0,26.25,19c.12.37.65,1,.53,1.38a30.8,30.8,0,0,1-1.44,3.41,28.23,28.23,0,0,1-.88-3.85c0-.37,0-.74.08-1.1a2.64,2.64,0,0,0-.16-1,3,3,0,0,0-1.47.17c-.18.08-.29.79-.13,1,.92,1.51.44,3.15.62,4.75-.49-.4-.9-1-1.3-1-.69,0-1.14.58-1.09,1.43-.59-1.16-1.09-2.31-1.57-3.46a.93.93,0,0,1-.06-.52c.27-1.09-.1-1.54-1.26-1.29-.39.08-.95.41-1,.71s.38.74.63,1.09c.13.19.44.3.48.49.21,1,.35,2.05.52,3.08l-.25.09c-.58-1.35-1.1-2.71-1.68-4.06-.14-.32-.55-.79-.73-.75a1.9,1.9,0,0,0-1.14.75c-.21.37,0,.84.58.92a.55.55,0,0,1,.36.25c.53,1.26,1,2.53,1.65,4-.45-.19-.67-.21-.75-.33A7,7,0,0,1,16,23.77c-.53-1.16-1.55-2.16-1.51-3.63,0-.93-.88-1.24-1.65-.72A9.75,9.75,0,0,0,12,20a1.09,1.09,0,0,0-.31,1.51,1.13,1.13,0,0,0,.45.39c.56.41,1.06.92,1.58,1.38-.43.16-.79,0-1,.15a4.75,4.75,0,0,0-1.18,1.27c-.09.15.27.82.53.9,1.06.33,1.37,1.27,1.89,2.05a1.32,1.32,0,0,1,.08.52h-.58a3.08,3.08,0,0,0-1,.16c-.34.17-.6.65-.91.67a2.33,2.33,0,0,1-1.18-.49c-.93-.6-1.84-1.24-2.74-1.89-.19-.13-.26-.41-.45-.55s-.78-.53-.86-.47A11,11,0,0,0,5.17,27a9.43,9.43,0,0,0,1,.64c.42.21.88.34,1.32.51v.26c-1,.1-1.38.74-1.65,1.56s0,1.3.77,1.19c1.48-.21,2,1,2.85,1.78a30.85,30.85,0,0,1-4.34-1.27c-.27-.1-.39-.57-.66-.72s-.87-.35-1-.21c-.42.37-1.09.78-.68,1.51.1.2.67.38.77.29.76-.68,1.22-.07,1.76.31l2.31,1.55c.25.18.49.4.53.43a6.47,6.47,0,0,0-1.06,1.52c-.06.19.55.6.94,1l-.29,1A13.42,13.42,0,0,1,6,37.61a1.2,1.2,0,0,0-1.69.19,1,1,0,0,0-.15.25,1.79,1.79,0,0,1-2,.46c-1.36-.81-1.85-.57-1.91,1a1.12,1.12,0,0,0,.43.88,2.08,2.08,0,0,0,1.08-.08c.28-.06.56-.31.8-.27,1.31.21,2.6.49,3.9.75A1.24,1.24,0,0,1,7.5,42a4.12,4.12,0,0,1-.86,0,5.72,5.72,0,0,0-3.52.08c-.19.08-.49-.15-.74-.17-.44,0-1-.17-1.3,0a1.52,1.52,0,0,0-.45,1.28,4.51,4.51,0,0,0,.83,1.4c.23.25.2.64.32,1s.32.67.56.73.93,0,1-.19c.32-.76.91-.55,1.46-.58S6,45.48,6.55,45.4c1.57-.27,1.57-.26,1.85,1.27.09.58.24,1.51,0,1.73C6.93,49.52,5.71,51.18,3.52,51a3.52,3.52,0,0,0-1,.31c.34.72.58,1.36.93,1.94a.94.94,0,0,0,1.62,0,1.81,1.81,0,0,1,.42-.6C6.63,52.06,7.76,51.5,8.92,51s2.63.77,2.29,1.89a8.32,8.32,0,0,1-1.56,2.41,1.5,1.5,0,0,1-.92.39c-.6.07-1.11.33-1,.94a4.66,4.66,0,0,0,.83,1.72,1.4,1.4,0,0,0,1,.4c.14,0,.36-.56.37-.87a1.45,1.45,0,0,1,1.51-1.39,1.17,1.17,0,0,1,.45.09,1,1,0,0,0,1.3-.56.94.94,0,0,0,.07-.37,2.11,2.11,0,0,0-.06-.6c1.23.07,2.58,1.72,2.21,2.67C15,58.87,14.53,60,14,61.09c-.09.21-.42.32-.62.49s-.68.6-1,.9a6.61,6.61,0,0,0,1.4,1c.31.11.78-.2,1.16-.35,0,0,0-.28,0-.43a2.13,2.13,0,0,1,.15-1c.58-.87,1.33-1.64,1.83-2.55A1.64,1.64,0,0,1,19,58.26a15.79,15.79,0,0,1,2.14.6.91.91,0,0,1,.54.69A7.1,7.1,0,0,1,20.55,64c-.51.66-.31,1.15.51,1.35a4.78,4.78,0,0,0,1.54.25A2.38,2.38,0,0,0,23.86,65c.11-.1-.12-.67-.28-1a1.32,1.32,0,0,1,.66-1.7c1.07-.39,1.19-.89.33-1.88l.76-.6a8,8,0,0,1,.38.84,3.44,3.44,0,0,1,.36,1.22c0,1.26.74,2.48,0,3.78a.61.61,0,0,0,.66.91,4.57,4.57,0,0,0,.74,0c.39-.08,1-.15,1.1-.38s-.22-.81-.27-1.23a11.07,11.07,0,0,1-.3-3.29c.15-.8.41-1.44-.38-2.2.81-.08,1.46-.16,2.1-.18.05,0,.1.38.17.57.15.38.3,1.08.46,1.08A3.1,3.1,0,0,0,32,60.6c.18-.11.09-.8,0-1.2a3.16,3.16,0,0,0-.46-.87c1.72,1.65,3.12,3.46,2.7,6.12a9.83,9.83,0,0,0,1.31-.38c.28-.14.72-.41.71-.6s-.35-.58-.57-.85a7.19,7.19,0,0,1-1-1.09c-.44-1-.78-2.13-1.13-3.21a3.1,3.1,0,0,1,0-.86c.62.66,1.54,1.05,1.38,2.1a.42.42,0,0,0,.16.32c.65.25.68.78.77,1.37,0,.25.58.67.77.61a4.25,4.25,0,0,0,1.47-.78.89.89,0,0,0-.3-.67c-1.08-.37-.77-1.11-.54-1.89.84.6,1.68,1.11,1.2,2.38-.09.22.24.69.49.89a1,1,0,0,0,.81-.1,3.78,3.78,0,0,0,.89-.8c.16-.18.36-.53.29-.66a2,2,0,0,0-.73-.61c-.25-.14-.67-.13-.79-.33-.82-1.33-1.59-2.7-2.37-4.05l-.07.08c.61,0,1.16.16,1.45,0,.56-.38,1-1,.42-1.72-.11-.14,0-.41,0-.82,1.1.68,2,1.22,2.91,1.82.2.15.24.51.4.75a8.47,8.47,0,0,0,.58.76,6,6,0,0,0,.87-1.19c.06-.15-.39-.75-.55-.73-1.47.12-2-1-3-1.78,1.51-.48,2.16.88,3.24,1s1.76,1.17,2.52,2l1.24-2a21.34,21.34,0,0,1-2.06-.79c-.67-.36-1.27-.87-1.92-1.26s-1.39-.47-1.63-1.35c1.18.3,2.28.55,3.36.89a3.5,3.5,0,0,1,1,.75c.34.28.71.85,1,.8a1.84,1.84,0,0,0,1-.92,1.15,1.15,0,0,0,0-1.08c-.19-.23-.7-.22-1.07-.25s-.66.18-.87.07c-1.18-.68-2.32-1.42-3.47-2.14l.16-.29c1.15.5,2.57-.11,3.59,1.07a1.43,1.43,0,0,0,1.37-.17,2,2,0,0,0,.23-1.58,1.27,1.27,0,0,0-1.11-.52c-1.15.68-1.89-.17-2.55-.4l.28-2a6.71,6.71,0,0,1,1.18-.17,6.81,6.81,0,0,1,2.54.27c1.2.57,1.37.6,1.54-.74,0-.27-.06-.78-.17-.8a2.42,2.42,0,0,0-1,.12c-.39.08-.8.34-1.16.28a27.64,27.64,0,0,1-3.25-.7c-.31-.08-.76-.36-.8-.61a.85.85,0,0,1,.6-1l.21,0c1-.11,2.09,1,3.11-.06,0,0,.14.13.22.13.44,0,1,.16,1.27-.07a2.32,2.32,0,0,0,.47-1.41,2.64,2.64,0,0,0-.26-1c.41,0,1,.08,1,0a3.13,3.13,0,0,0,0-1.22c0-.67-.39-.6-.89-.37a5,5,0,0,1-1.66.49c-1.19.05-2.38,0-3.58-.06a.81.81,0,0,1-.55-.25c-.38-.67-.74-1.35-1-2.05-.06-.12,0-.43.11-.47.59-.29,1.06-.94,1.91-.48A.79.79,0,0,0,45.31,34a.81.81,0,0,0,.13-.45,16.68,16.68,0,0,0,0-2c.39-.05.87-.13,1.35-.16s1,0,.82-.61A8.19,8.19,0,0,0,46.42,29c-.15.29-.28.43-.29.57,0,1-.82,1.27-1.58,1.55-.57.22-1.14.46-1.71.71-1.8.78-3,.27-3.65-1.66.59-.41,1.17-.82.8-1.72-.06-.15.16-.5.33-.65,1-.84,2-1.62,3-2.47.19-.17.32-.71.21-.84-.39-.44-.91-1.11-1.35-1.09a5.48,5.48,0,0,0-2,.9.51.51,0,0,0-.11.43c.46,1.23-.5,1.66-1.25,2.15a2.73,2.73,0,0,1-3.44-.13,1.26,1.26,0,0,1-.3-1,19.41,19.41,0,0,1,1-1.92c.13-.25.11-.57.23-.82a4.29,4.29,0,0,1,.93-1.73c.65-.5.79-.57.11-1.08a10.27,10.27,0,0,0-1.16-.67,6,6,0,0,1-.29,1.72c-.23.44-.73.75-1.29,1.29-.17-1.34-1-1.5-1.72-1.65s-1,.28-.83,1a1.53,1.53,0,0,1,.06.85c-.3.7-.68,1.37-1.14,2.28-.64-.61-1.73-1.16-1.75-1.75a8.72,8.72,0,0,1,1.1-5,1.3,1.3,0,0,0,0-1.21C29.85,16.37,28.38,16.79,28,17.74Z"/><path d="M7.67,13.17v-3.1h.71v.44a1.25,1.25,0,0,1,.37-.35A1.05,1.05,0,0,1,9.34,10a1.4,1.4,0,0,1,.34.05,1.17,1.17,0,0,1,.31.17.77.77,0,0,1,.23.28,1.07,1.07,0,0,1,.4-.36,1,1,0,0,1,.55-.14,1,1,0,0,1,.34.05,1.06,1.06,0,0,1,.33.18,1,1,0,0,1,.25.34,1.47,1.47,0,0,1,.09.55v2h-.73V11.22a.75.75,0,0,0-.08-.37.51.51,0,0,0-.21-.18.66.66,0,0,0-.27-.06.86.86,0,0,0-.27.05.56.56,0,0,0-.24.17.5.5,0,0,0-.1.31v2H9.56V11.1a.4.4,0,0,0-.09-.27.47.47,0,0,0-.21-.16A.62.62,0,0,0,9,10.61a.66.66,0,0,0-.27.06.59.59,0,0,0-.24.17.49.49,0,0,0-.09.3v2Z"/><path d="M13,13.17v-3.1h.72v.44a1.34,1.34,0,0,1,.36-.35,1.11,1.11,0,0,1,.6-.15,1.26,1.26,0,0,1,.33.05,1.23,1.23,0,0,1,.32.17,1,1,0,0,1,.23.28,1.12,1.12,0,0,1,.39-.36,1,1,0,0,1,.55-.14,1.1,1.1,0,0,1,.35.05,1.14,1.14,0,0,1,.32.18.89.89,0,0,1,.25.34,1.47,1.47,0,0,1,.09.55v2h-.73V11.22a.75.75,0,0,0-.08-.37.41.41,0,0,0-.21-.18.6.6,0,0,0-.27-.06.91.91,0,0,0-.27.05.56.56,0,0,0-.24.17.5.5,0,0,0-.09.31v2h-.73V11.1a.46.46,0,0,0-.08-.27.5.5,0,0,0-.22-.16.57.57,0,0,0-.25-.06.67.67,0,0,0-.28.06.55.55,0,0,0-.23.17.44.44,0,0,0-.1.3v2Z"/><path d="M17.93,13.33l1.51-4.5H20l-1.51,4.5Z"/><path d="M21.62,13.23a1.21,1.21,0,0,1-1-.42,1.89,1.89,0,0,1-.35-1.21,2.17,2.17,0,0,1,.15-.84,1.09,1.09,0,0,1,1.1-.75,1.25,1.25,0,0,1,.35,0,1,1,0,0,1,.28.12,1,1,0,0,1,.21.17,1.1,1.1,0,0,1,.14.18V8.71h.73v4.46h-.54l-.08-.64a1.66,1.66,0,0,1-.11.24,1,1,0,0,1-.19.22.92.92,0,0,1-.29.17A1.11,1.11,0,0,1,21.62,13.23Zm.15-.54a.68.68,0,0,0,.58-.25,1.57,1.57,0,0,0,.18-.86,1.77,1.77,0,0,0-.09-.56.65.65,0,0,0-.24-.35.7.7,0,0,0-.42-.12.68.68,0,0,0-.54.24,1.22,1.22,0,0,0-.21.79,1.46,1.46,0,0,0,.19.83A.62.62,0,0,0,21.77,12.69Z"/><path d="M25.24,13.23a1.21,1.21,0,0,1-1-.42,1.89,1.89,0,0,1-.35-1.21,2.38,2.38,0,0,1,.14-.84,1.23,1.23,0,0,1,.43-.56,1.14,1.14,0,0,1,.68-.19,1.25,1.25,0,0,1,.35,0,1,1,0,0,1,.28.12,1.93,1.93,0,0,1,.21.17.68.68,0,0,1,.13.18V8.71h.74v4.46h-.54l-.08-.64a1.66,1.66,0,0,1-.11.24A1,1,0,0,1,26,13a.87.87,0,0,1-.3.17A1.06,1.06,0,0,1,25.24,13.23Zm.15-.54a.65.65,0,0,0,.57-.25,1.57,1.57,0,0,0,.18-.86,1.54,1.54,0,0,0-.08-.56.65.65,0,0,0-.24-.35.7.7,0,0,0-.42-.12.68.68,0,0,0-.54.24,1.22,1.22,0,0,0-.22.79,1.45,1.45,0,0,0,.2.83A.62.62,0,0,0,25.39,12.69Z"/><path d="M27.37,13.33l1.51-4.5h.53l-1.51,4.5Z"/><path d="M30.32,14.16a1.44,1.44,0,0,1-.53-.09V13.6h.31a1.42,1.42,0,0,0,.31,0,.38.38,0,0,0,.18-.09.35.35,0,0,0,.1-.11.93.93,0,0,0,0-.1l.08-.23-1.21-3h.73l.82,2.19L32,10.07h.72l-1.28,3.21a1.88,1.88,0,0,1-.31.54.9.9,0,0,1-.36.27A1.55,1.55,0,0,1,30.32,14.16Z"/><path d="M33.71,14.16a1.51,1.51,0,0,1-.53-.09V13.6h.31a1.37,1.37,0,0,0,.31,0A.38.38,0,0,0,34,13.5a.26.26,0,0,0,.1-.11l.05-.1.08-.23-1.21-3h.73l.82,2.19.83-2.19h.71l-1.28,3.21a1.67,1.67,0,0,1-.31.54.9.9,0,0,1-.36.27A1.43,1.43,0,0,1,33.71,14.16Z"/><path d="M37.11,14.16a1.53,1.53,0,0,1-.54-.09V13.6h.31a1.37,1.37,0,0,0,.31,0,.48.48,0,0,0,.19-.09.31.31,0,0,0,.09-.11l.05-.1.08-.23-1.2-3h.72L38,12.26l.82-2.19h.71L38.2,13.28a1.67,1.67,0,0,1-.31.54.9.9,0,0,1-.36.27A1.42,1.42,0,0,1,37.11,14.16Z"/><path d="M40.5,14.16a1.44,1.44,0,0,1-.53-.09V13.6h.31a1.28,1.28,0,0,0,.3,0,.42.42,0,0,0,.19-.09.35.35,0,0,0,.1-.11.93.93,0,0,1,.05-.1l.08-.23-1.21-3h.73l.82,2.19.82-2.19h.72L41.6,13.28a1.88,1.88,0,0,1-.31.54.86.86,0,0,1-.37.27A1.42,1.42,0,0,1,40.5,14.16Z"/><path d="M8.1,68.49v-.66h3.38v.66h-1.3v3.68H9.45V68.49Z"/><path d="M12.88,72.23a1.47,1.47,0,0,1-.77-.19,1.38,1.38,0,0,1-.52-.55,2.12,2.12,0,0,1,0-1.71A1.35,1.35,0,0,1,12.88,69a1.44,1.44,0,0,1,.77.19,1.32,1.32,0,0,1,.51.56,1.93,1.93,0,0,1,.18.87,2,2,0,0,1-.17.83,1.24,1.24,0,0,1-.5.56A1.41,1.41,0,0,1,12.88,72.23Zm0-.56a.64.64,0,0,0,.42-.13.83.83,0,0,0,.24-.38,1.55,1.55,0,0,0,.08-.55,1.72,1.72,0,0,0-.07-.52.85.85,0,0,0-.23-.39.63.63,0,0,0-.44-.14.64.64,0,0,0-.42.13.84.84,0,0,0-.25.37,1.86,1.86,0,0,0,0,1.08.7.7,0,0,0,.23.38A.63.63,0,0,0,12.88,71.67Z"/><path d="M16.64,69.58H16v1.78a.49.49,0,0,0,0,.2.16.16,0,0,0,.11.09l.19,0h.38v.46a.6.6,0,0,1-.18,0,1.42,1.42,0,0,1-.33,0,1.39,1.39,0,0,1-.57-.1.55.55,0,0,1-.28-.28,1.1,1.1,0,0,1-.08-.43V69.58h-.5v-.51h.52l.18-.92H16v.91h.69Z"/><path d="M18.23,72.23a1.29,1.29,0,0,1-.53-.11.83.83,0,0,1-.37-.32.85.85,0,0,1-.13-.49.88.88,0,0,1,.37-.78,2.18,2.18,0,0,1,1.18-.27h.46V70a.53.53,0,0,0-.14-.39.61.61,0,0,0-.45-.13.84.84,0,0,0-.42.1A.53.53,0,0,0,18,70h-.62a.94.94,0,0,1,.18-.54,1,1,0,0,1,.46-.32,2,2,0,0,1,.67-.1,2,2,0,0,1,.72.11.78.78,0,0,1,.41.34,1,1,0,0,1,.14.53v2.18H19.3l-.06-.56a1,1,0,0,1-.42.49A1.38,1.38,0,0,1,18.23,72.23Zm.24-.5a.65.65,0,0,0,.27,0,.76.76,0,0,0,.23-.13.8.8,0,0,0,.18-.19.43.43,0,0,0,.06-.22v-.49h-.38a1.77,1.77,0,0,0-.49.06.75.75,0,0,0-.33.18.45.45,0,0,0-.12.33.45.45,0,0,0,.17.37A.63.63,0,0,0,18.47,71.73Z"/><path d="M21.68,72.21a1.28,1.28,0,0,1-.48-.07.64.64,0,0,1-.27-.2.74.74,0,0,1-.12-.29c0-.1,0-.21,0-.32V67.71h.71v3.54a.54.54,0,0,0,.08.31.39.39,0,0,0,.27.13H22v.46l-.17,0Z"/><path d="M25.79,72.23a1.84,1.84,0,0,1-1-.27,1.69,1.69,0,0,1-.66-.76A2.72,2.72,0,0,1,23.89,70a2.79,2.79,0,0,1,.24-1.2A1.8,1.8,0,0,1,24.8,68a2,2,0,0,1,1-.27,1.76,1.76,0,0,1,.66.12,1.74,1.74,0,0,1,.54.33,1.6,1.6,0,0,1,.36.46,1.29,1.29,0,0,1,.15.54h-.78a1.05,1.05,0,0,0-.17-.41,1,1,0,0,0-.32-.3,1,1,0,0,0-.46-.11,1.12,1.12,0,0,0-.58.16,1.07,1.07,0,0,0-.4.52,2.34,2.34,0,0,0-.15.91,2.65,2.65,0,0,0,.09.75,1.41,1.41,0,0,0,.25.49,1.07,1.07,0,0,0,.37.27,1.33,1.33,0,0,0,.45.08.87.87,0,0,0,.4-.08.93.93,0,0,0,.3-.2,1.06,1.06,0,0,0,.18-.27.63.63,0,0,0,.08-.29l0-.31h-1v-.52H27.6v2.25h-.52v-.61a2.07,2.07,0,0,1-.28.32,1.42,1.42,0,0,1-.42.25A1.49,1.49,0,0,1,25.79,72.23Z"/><path d="M29.38,72.21a1.28,1.28,0,0,1-.48-.07.64.64,0,0,1-.27-.2.61.61,0,0,1-.11-.29,1.66,1.66,0,0,1,0-.32V67.71h.71v3.54a.54.54,0,0,0,.08.31.39.39,0,0,0,.27.13h.16v.46l-.17,0Z"/><path d="M31.62,72.23a1.5,1.5,0,0,1-.78-.19,1.29,1.29,0,0,1-.51-.55,2.12,2.12,0,0,1,0-1.71,1.32,1.32,0,0,1,.5-.57,1.43,1.43,0,0,1,.79-.2,1.49,1.49,0,0,1,.77.19,1.24,1.24,0,0,1,.5.56,1.93,1.93,0,0,1,.18.87,1.81,1.81,0,0,1-.17.83,1.22,1.22,0,0,1-.49.56A1.43,1.43,0,0,1,31.62,72.23Zm0-.56a.59.59,0,0,0,.41-.13.94.94,0,0,0,.25-.38,1.82,1.82,0,0,0,.08-.55,1.72,1.72,0,0,0-.07-.52.86.86,0,0,0-.24-.39.6.6,0,0,0-.43-.14.64.64,0,0,0-.42.13.76.76,0,0,0-.25.37,2,2,0,0,0,0,1.08.78.78,0,0,0,.24.38A.62.62,0,0,0,31.62,71.67Z"/><path d="M35.37,72.23a1.09,1.09,0,0,1-.42-.07.87.87,0,0,1-.3-.17,1,1,0,0,1-.19-.22,1.54,1.54,0,0,1-.1-.24l-.08.64h-.54V67.71h.73v1.81a.73.73,0,0,1,.14-.18,1,1,0,0,1,.48-.29,1.29,1.29,0,0,1,.35,0,1.11,1.11,0,0,1,.92.41,1.84,1.84,0,0,1,.33,1.18,2.28,2.28,0,0,1-.15.86,1.26,1.26,0,0,1-.44.57A1.28,1.28,0,0,1,35.37,72.23Zm-.15-.54a.67.67,0,0,0,.54-.26,1.34,1.34,0,0,0,.21-.85,1.22,1.22,0,0,0-.2-.77.65.65,0,0,0-.55-.26.71.71,0,0,0-.43.12.66.66,0,0,0-.24.35,1.79,1.79,0,0,0-.08.56,1.57,1.57,0,0,0,.18.86A.65.65,0,0,0,35.22,71.69Z"/><path d="M38.21,72.23a1.25,1.25,0,0,1-.53-.11.83.83,0,0,1-.37-.32.85.85,0,0,1-.13-.49.88.88,0,0,1,.37-.78,2.18,2.18,0,0,1,1.18-.27h.46V70a.53.53,0,0,0-.14-.39.62.62,0,0,0-.46-.13.8.8,0,0,0-.41.1.55.55,0,0,0-.25.35h-.62a1,1,0,0,1,.19-.54,1,1,0,0,1,.45-.32,2,2,0,0,1,.68-.1,2.1,2.1,0,0,1,.72.11.82.82,0,0,1,.41.34,1,1,0,0,1,.13.53v2.18h-.61l-.06-.56a1,1,0,0,1-.42.49A1.42,1.42,0,0,1,38.21,72.23Zm.24-.5a.58.58,0,0,0,.26,0,.7.7,0,0,0,.24-.13.75.75,0,0,0,.17-.19.36.36,0,0,0,.07-.22v-.49h-.38a1.77,1.77,0,0,0-.49.06.75.75,0,0,0-.33.18.45.45,0,0,0-.12.33.45.45,0,0,0,.17.37A.61.61,0,0,0,38.45,71.73Z"/><path d="M41.66,72.21a1.28,1.28,0,0,1-.48-.07.64.64,0,0,1-.27-.2.74.74,0,0,1-.12-.29,1.66,1.66,0,0,1,0-.32V67.71h.72v3.54a.54.54,0,0,0,.08.31.37.37,0,0,0,.27.13H42v.46l-.16,0Z"/><path d="M15.5,73.77a1.8,1.8,0,0,1,.85.19,1.67,1.67,0,0,1,.59.53,1.58,1.58,0,0,1,.27.73h-.77a1.25,1.25,0,0,0-.17-.43.93.93,0,0,0-.32-.3,1,1,0,0,0-.47-.11,1,1,0,0,0-.59.17,1,1,0,0,0-.37.51,3,3,0,0,0-.13.92,2.15,2.15,0,0,0,.29,1.25.93.93,0,0,0,.8.39.81.81,0,0,0,.47-.13.82.82,0,0,0,.32-.32,1.3,1.3,0,0,0,.17-.44h.77a2.73,2.73,0,0,1-.15.56,1.55,1.55,0,0,1-.32.48,1.34,1.34,0,0,1-.51.34,2,2,0,0,1-.73.12,1.77,1.77,0,0,1-1-.28,1.69,1.69,0,0,1-.66-.78,2.89,2.89,0,0,1-.23-1.2,2.82,2.82,0,0,1,.23-1.18,1.73,1.73,0,0,1,.65-.76A2,2,0,0,1,15.5,73.77Z"/><path d="M18.76,78.23a1.25,1.25,0,0,1-.53-.11.83.83,0,0,1-.37-.32.87.87,0,0,1-.14-.5.89.89,0,0,1,.37-.77,2.21,2.21,0,0,1,1.18-.27h.47V76a.5.5,0,0,0-.15-.39.58.58,0,0,0-.45-.13.8.8,0,0,0-.41.1.49.49,0,0,0-.25.35h-.62a.88.88,0,0,1,.19-.54,1,1,0,0,1,.45-.32,2,2,0,0,1,.68-.1,2.1,2.1,0,0,1,.72.11.87.87,0,0,1,.41.34,1,1,0,0,1,.13.53v2.18h-.61l-.06-.56a1.11,1.11,0,0,1-.43.49A1.34,1.34,0,0,1,18.76,78.23Zm.24-.5a.6.6,0,0,0,.26,0,.7.7,0,0,0,.24-.13.75.75,0,0,0,.17-.19.44.44,0,0,0,.07-.22v-.49h-.38a1.77,1.77,0,0,0-.49.06.65.65,0,0,0-.33.18.51.51,0,0,0,0,.7A.64.64,0,0,0,19,77.73Z"/><path d="M22.43,78.23a1.84,1.84,0,0,1-.62-.11,1,1,0,0,1-.48-.32,1.07,1.07,0,0,1-.25-.57h.64a.69.69,0,0,0,.15.28.64.64,0,0,0,.25.15.79.79,0,0,0,.3,0,1,1,0,0,0,.46-.09.34.34,0,0,0,.17-.3.26.26,0,0,0-.1-.23.6.6,0,0,0-.3-.14l-.59-.13a1.52,1.52,0,0,1-.64-.29.69.69,0,0,1-.24-.57.93.93,0,0,1,.14-.49.91.91,0,0,1,.42-.34,1.78,1.78,0,0,1,.69-.12,1.45,1.45,0,0,1,.87.24.83.83,0,0,1,.34.69H23a.52.52,0,0,0-.19-.32.73.73,0,0,0-.41-.11.77.77,0,0,0-.42.1.34.34,0,0,0-.17.3.25.25,0,0,0,.13.22,1.08,1.08,0,0,0,.38.14l.56.14a1.17,1.17,0,0,1,.39.16,1,1,0,0,1,.24.22.72.72,0,0,1,.12.25,1.12,1.12,0,0,1,0,.24.85.85,0,0,1-.15.51.92.92,0,0,1-.44.32A1.66,1.66,0,0,1,22.43,78.23Z"/><path d="M25,76.79a1.11,1.11,0,0,0,.09.46.64.64,0,0,0,.26.32.7.7,0,0,0,.42.12.73.73,0,0,0,.43-.12.65.65,0,0,0,.27-.35h.67a1.28,1.28,0,0,1-.27.56,1.25,1.25,0,0,1-.49.33,1.53,1.53,0,0,1-.6.12A1.64,1.64,0,0,1,25,78a1.36,1.36,0,0,1-.54-.55,1.8,1.8,0,0,1-.19-.84,1.93,1.93,0,0,1,.18-.85,1.34,1.34,0,0,1,.5-.58,1.62,1.62,0,0,1,1.56,0,1.23,1.23,0,0,1,.48.55,2,2,0,0,1,.16.81v.23Zm0-.46h1.46a1,1,0,0,0-.08-.4.62.62,0,0,0-.24-.29.72.72,0,0,0-.4-.11.69.69,0,0,0-.41.12A.81.81,0,0,0,25,76,1,1,0,0,0,25,76.33Z"/><path d="M28.94,78.23a1.84,1.84,0,0,1-.62-.11,1,1,0,0,1-.48-.32,1.07,1.07,0,0,1-.25-.57h.64a.69.69,0,0,0,.15.28.64.64,0,0,0,.25.15.79.79,0,0,0,.3,0,1,1,0,0,0,.46-.09.34.34,0,0,0,.17-.3.26.26,0,0,0-.1-.23.6.6,0,0,0-.3-.14l-.59-.13a1.52,1.52,0,0,1-.64-.29.69.69,0,0,1-.24-.57.93.93,0,0,1,.14-.49.91.91,0,0,1,.42-.34,1.78,1.78,0,0,1,.69-.12,1.45,1.45,0,0,1,.87.24.83.83,0,0,1,.34.69h-.62a.52.52,0,0,0-.19-.32.73.73,0,0,0-.41-.11.77.77,0,0,0-.42.1.34.34,0,0,0-.17.3.25.25,0,0,0,.13.22,1.08,1.08,0,0,0,.38.14l.56.14a1.17,1.17,0,0,1,.39.16,1,1,0,0,1,.24.22.72.72,0,0,1,.12.25,1.12,1.12,0,0,1,0,.24.85.85,0,0,1-.15.51.92.92,0,0,1-.44.32A1.66,1.66,0,0,1,28.94,78.23Z"/><path d="M31.6,75.16V76h-.82v-.84Zm0,2.16v.83h-.82v-.83Z"/><path d="M36.51,76.39v.4H33.45v-.4Zm.19-1.23v.4H33.64v-.4ZM35,73.86l-.64,4.32-.41-.05.65-4.31Zm1.25,0-.64,4.32-.4-.05.64-4.31Z"/><path d="M12.4,79.83h1.17a2.94,2.94,0,0,1,1.29.27,1.61,1.61,0,0,1,.73.73A2.6,2.6,0,0,1,15.82,82a2.54,2.54,0,0,1-.25,1.18,1.6,1.6,0,0,1-.75.75,2.89,2.89,0,0,1-1.3.26H12.4Zm.74.6v3.14h.4a2,2,0,0,0,.79-.16,1.16,1.16,0,0,0,.53-.5,2.36,2.36,0,0,0,0-1.83,1.12,1.12,0,0,0-.51-.5,2,2,0,0,0-.81-.15Z"/><path d="M17.13,82.79a1.11,1.11,0,0,0,.08.46.71.71,0,0,0,.68.44.78.78,0,0,0,.44-.12.6.6,0,0,0,.26-.35h.67a1.09,1.09,0,0,1-.27.56,1.15,1.15,0,0,1-.48.33,1.53,1.53,0,0,1-.6.12,1.68,1.68,0,0,1-.79-.19,1.34,1.34,0,0,1-.53-.55,1.68,1.68,0,0,1-.19-.84,2.08,2.08,0,0,1,.17-.85,1.41,1.41,0,0,1,.5-.58,1.47,1.47,0,0,1,.8-.21,1.44,1.44,0,0,1,.77.19,1.27,1.27,0,0,1,.47.55,1.86,1.86,0,0,1,.16.81v.23Zm0-.46h1.46a.87.87,0,0,0-.08-.4.62.62,0,0,0-.24-.29.7.7,0,0,0-.4-.11.65.65,0,0,0-.4.12.72.72,0,0,0-.25.3A.85.85,0,0,0,17.12,82.33Z"/><path d="M20.82,84.23a1.29,1.29,0,0,1-.53-.11.83.83,0,0,1-.37-.32,1,1,0,0,1,.24-1.27,2.18,2.18,0,0,1,1.18-.27h.46V82a.53.53,0,0,0-.14-.39.62.62,0,0,0-.46-.13.8.8,0,0,0-.41.1.52.52,0,0,0-.25.35h-.62a1,1,0,0,1,.19-.54,1,1,0,0,1,.46-.32,1.93,1.93,0,0,1,.67-.1,2.1,2.1,0,0,1,.72.11.82.82,0,0,1,.41.34,1,1,0,0,1,.13.53v2.18h-.61l-.06-.56a1,1,0,0,1-.42.49A1.38,1.38,0,0,1,20.82,84.23Zm.24-.5a.65.65,0,0,0,.27,0,.8.8,0,0,0,.4-.32.36.36,0,0,0,.07-.22v-.49h-.38a1.77,1.77,0,0,0-.49.06.75.75,0,0,0-.33.18.45.45,0,0,0-.12.33.45.45,0,0,0,.17.37A.61.61,0,0,0,21.06,83.73Z"/><path d="M25,81.58h-.69v1.78a.49.49,0,0,0,0,.2.16.16,0,0,0,.11.09l.19,0H25v.46a.6.6,0,0,1-.18,0,1.42,1.42,0,0,1-.33,0,1.39,1.39,0,0,1-.57-.1.55.55,0,0,1-.28-.28,1.14,1.14,0,0,1-.08-.43V81.58h-.5v-.51h.52l.18-.92h.53v.91H25Z"/><path d="M25.7,84.17V79.71h.72v1.81a.85.85,0,0,1,.2-.23,1.09,1.09,0,0,1,.3-.18,1.06,1.06,0,0,1,.42-.07,1.42,1.42,0,0,1,.55.11,1,1,0,0,1,.39.33.88.88,0,0,1,.15.51v2.18h-.74v-2a.44.44,0,0,0-.17-.38.7.7,0,0,0-.42-.13.88.88,0,0,0-.33.06.58.58,0,0,0-.25.18.49.49,0,0,0-.1.3v2Z"/><path d="M30.34,84.23a1.84,1.84,0,0,1-.62-.11,1,1,0,0,1-.48-.32,1.07,1.07,0,0,1-.25-.57h.64a.69.69,0,0,0,.15.28.64.64,0,0,0,.25.15.79.79,0,0,0,.3,0,1,1,0,0,0,.46-.09.34.34,0,0,0,.17-.3.26.26,0,0,0-.1-.23.6.6,0,0,0-.3-.14l-.6-.13a1.53,1.53,0,0,1-.63-.29.69.69,0,0,1-.24-.57.93.93,0,0,1,.14-.49.91.91,0,0,1,.42-.34,1.78,1.78,0,0,1,.69-.12,1.45,1.45,0,0,1,.87.24.83.83,0,0,1,.34.69h-.63a.47.47,0,0,0-.18-.32.73.73,0,0,0-.41-.11.77.77,0,0,0-.42.1.34.34,0,0,0-.17.3.23.23,0,0,0,.13.22,1.08,1.08,0,0,0,.38.14l.55.14a1.24,1.24,0,0,1,.4.16,1,1,0,0,1,.24.22.72.72,0,0,1,.12.25,1.12,1.12,0,0,1,0,.24.85.85,0,0,1-.15.51.92.92,0,0,1-.44.32A1.69,1.69,0,0,1,30.34,84.23Z"/><path d="M33,81.16V82h-.82v-.84Zm0,2.16v.83h-.82v-.83Z"/><path d="M37.91,82.39v.4H34.85v-.4Zm.19-1.23v.4H35v-.4Zm-1.71-1.3-.64,4.32-.41-.05L36,79.82Zm1.25,0L37,84.18l-.41-.05.65-4.31Z"/><path d="M88.1,69.49v-.66h3.38v.66h-1.3v3.68h-.73V69.49Z"/><path d="M92.88,73.23a1.47,1.47,0,0,1-.77-.19,1.38,1.38,0,0,1-.52-.55,2.12,2.12,0,0,1,0-1.71A1.35,1.35,0,0,1,92.88,70a1.44,1.44,0,0,1,.77.19,1.32,1.32,0,0,1,.51.56,1.93,1.93,0,0,1,.18.87,2,2,0,0,1-.17.83,1.24,1.24,0,0,1-.5.56A1.41,1.41,0,0,1,92.88,73.23Zm0-.56a.64.64,0,0,0,.42-.13.83.83,0,0,0,.24-.38,1.55,1.55,0,0,0,.08-.55,1.72,1.72,0,0,0-.07-.52.85.85,0,0,0-.23-.39.63.63,0,0,0-.44-.14.64.64,0,0,0-.42.13.84.84,0,0,0-.25.37,1.86,1.86,0,0,0,0,1.08.7.7,0,0,0,.23.38A.63.63,0,0,0,92.88,72.67Z"/><path d="M96.64,70.58H96v1.78a.49.49,0,0,0,0,.2.16.16,0,0,0,.11.09l.19,0h.38v.46a.6.6,0,0,1-.18,0,1.73,1.73,0,0,1-.9-.07.55.55,0,0,1-.28-.28,1.1,1.1,0,0,1-.08-.43V70.58h-.5v-.51h.52l.18-.92H96v.91h.69Z"/><path d="M98.23,73.23a1.32,1.32,0,0,1-.53-.11.83.83,0,0,1-.37-.32.85.85,0,0,1-.13-.49.88.88,0,0,1,.37-.78,2.21,2.21,0,0,1,1.18-.27h.46V71a.53.53,0,0,0-.14-.39.61.61,0,0,0-.45-.13.84.84,0,0,0-.42.1A.53.53,0,0,0,98,71h-.62a.94.94,0,0,1,.18-.54,1,1,0,0,1,.46-.32,2,2,0,0,1,.67-.1,2,2,0,0,1,.72.11.78.78,0,0,1,.41.34,1,1,0,0,1,.14.53v2.18H99.3l-.06-.56a1,1,0,0,1-.42.49A1.38,1.38,0,0,1,98.23,73.23Zm.24-.5a.65.65,0,0,0,.27,0,.8.8,0,0,0,.24-.13,1,1,0,0,0,.17-.19.43.43,0,0,0,.06-.22v-.49h-.38a1.77,1.77,0,0,0-.49.06.75.75,0,0,0-.33.18.45.45,0,0,0-.12.33.45.45,0,0,0,.17.37A.63.63,0,0,0,98.47,72.73Z"/><path d="M101.68,73.21a1.28,1.28,0,0,1-.48-.07.64.64,0,0,1-.27-.2.74.74,0,0,1-.12-.29c0-.1,0-.21,0-.32V68.71h.71v3.54a.54.54,0,0,0,.08.31.39.39,0,0,0,.27.13H102v.46l-.17,0Z"/><path d="M105.79,73.23a1.84,1.84,0,0,1-1-.27,1.69,1.69,0,0,1-.66-.76,2.72,2.72,0,0,1-.23-1.19,2.79,2.79,0,0,1,.24-1.2,1.8,1.8,0,0,1,.67-.77,2,2,0,0,1,1-.27,1.76,1.76,0,0,1,.66.12,1.74,1.74,0,0,1,.54.33,1.6,1.6,0,0,1,.36.46,1.29,1.29,0,0,1,.15.54h-.78a1.05,1.05,0,0,0-.17-.41,1,1,0,0,0-.32-.3,1,1,0,0,0-.46-.11,1.12,1.12,0,0,0-.58.16,1.07,1.07,0,0,0-.4.52,2.34,2.34,0,0,0-.15.91,2.65,2.65,0,0,0,.09.75,1.27,1.27,0,0,0,.26.49,1,1,0,0,0,.36.27,1.33,1.33,0,0,0,.45.08.87.87,0,0,0,.4-.08.93.93,0,0,0,.3-.2,1.06,1.06,0,0,0,.18-.27.63.63,0,0,0,.08-.29l0-.31h-1v-.52h1.74v2.25h-.52v-.61a2.07,2.07,0,0,1-.28.32,1.42,1.42,0,0,1-.42.25A1.49,1.49,0,0,1,105.79,73.23Z"/><path d="M109.38,73.21a1.28,1.28,0,0,1-.48-.07.64.64,0,0,1-.27-.2.61.61,0,0,1-.11-.29,1.66,1.66,0,0,1,0-.32V68.71h.71v3.54a.54.54,0,0,0,.08.31.39.39,0,0,0,.27.13h.16v.46l-.17,0Z"/><path d="M111.62,73.23a1.5,1.5,0,0,1-.78-.19,1.29,1.29,0,0,1-.51-.55,2.12,2.12,0,0,1,0-1.71,1.32,1.32,0,0,1,.5-.57,1.43,1.43,0,0,1,.79-.2,1.49,1.49,0,0,1,.77.19,1.32,1.32,0,0,1,.51.56,2.08,2.08,0,0,1,.17.87,1.81,1.81,0,0,1-.17.83,1.22,1.22,0,0,1-.49.56A1.43,1.43,0,0,1,111.62,73.23Zm0-.56a.59.59,0,0,0,.41-.13.94.94,0,0,0,.25-.38,1.82,1.82,0,0,0,.08-.55,1.72,1.72,0,0,0-.07-.52.86.86,0,0,0-.24-.39.6.6,0,0,0-.43-.14.64.64,0,0,0-.42.13.76.76,0,0,0-.25.37,2,2,0,0,0,0,1.08.78.78,0,0,0,.24.38A.62.62,0,0,0,111.62,72.67Z"/><path d="M115.37,73.23a1.09,1.09,0,0,1-.42-.07.87.87,0,0,1-.3-.17,1,1,0,0,1-.19-.22,1.54,1.54,0,0,1-.1-.24l-.08.64h-.54V68.71h.73v1.81a.73.73,0,0,1,.14-.18,1,1,0,0,1,.48-.29,1.29,1.29,0,0,1,.35,0,1.11,1.11,0,0,1,.92.41,1.84,1.84,0,0,1,.33,1.18,2.28,2.28,0,0,1-.15.86,1.26,1.26,0,0,1-.44.57A1.28,1.28,0,0,1,115.37,73.23Zm-.14-.54a.67.67,0,0,0,.53-.26,1.34,1.34,0,0,0,.21-.85,1.22,1.22,0,0,0-.2-.77.65.65,0,0,0-.55-.26.71.71,0,0,0-.43.12.66.66,0,0,0-.24.35,1.79,1.79,0,0,0-.08.56,1.57,1.57,0,0,0,.18.86A.65.65,0,0,0,115.23,72.69Z"/><path d="M118.21,73.23a1.25,1.25,0,0,1-.53-.11.83.83,0,0,1-.37-.32.85.85,0,0,1-.13-.49.88.88,0,0,1,.37-.78,2.18,2.18,0,0,1,1.18-.27h.46V71a.53.53,0,0,0-.14-.39.62.62,0,0,0-.46-.13.8.8,0,0,0-.41.1.55.55,0,0,0-.25.35h-.62a1,1,0,0,1,.19-.54,1,1,0,0,1,.45-.32,2,2,0,0,1,.68-.1,2.1,2.1,0,0,1,.72.11.82.82,0,0,1,.41.34,1,1,0,0,1,.13.53v2.18h-.61l-.06-.56a1,1,0,0,1-.42.49A1.42,1.42,0,0,1,118.21,73.23Zm.24-.5a.58.58,0,0,0,.26,0,.7.7,0,0,0,.24-.13.75.75,0,0,0,.17-.19.36.36,0,0,0,.07-.22v-.49h-.38a1.77,1.77,0,0,0-.49.06.75.75,0,0,0-.33.18.45.45,0,0,0-.12.33.45.45,0,0,0,.17.37A.61.61,0,0,0,118.45,72.73Z"/><path d="M121.66,73.21a1.28,1.28,0,0,1-.48-.07.64.64,0,0,1-.27-.2.74.74,0,0,1-.12-.29,1.66,1.66,0,0,1,0-.32V68.71h.72v3.54a.54.54,0,0,0,.08.31.37.37,0,0,0,.27.13H122v.46l-.16,0Z"/><path d="M95.5,74.77a1.8,1.8,0,0,1,.85.19,1.67,1.67,0,0,1,.59.53,1.58,1.58,0,0,1,.27.73h-.77a1.25,1.25,0,0,0-.17-.43.93.93,0,0,0-.32-.3,1,1,0,0,0-.47-.11,1,1,0,0,0-.59.17,1,1,0,0,0-.37.51,3,3,0,0,0-.13.92,2.15,2.15,0,0,0,.29,1.25.93.93,0,0,0,.8.39.81.81,0,0,0,.47-.13.82.82,0,0,0,.32-.32,1.3,1.3,0,0,0,.17-.44h.77a2.73,2.73,0,0,1-.15.56,1.55,1.55,0,0,1-.32.48,1.34,1.34,0,0,1-.51.34,2,2,0,0,1-.73.12,1.77,1.77,0,0,1-1-.28,1.69,1.69,0,0,1-.66-.78,2.89,2.89,0,0,1-.23-1.2,2.82,2.82,0,0,1,.23-1.18,1.73,1.73,0,0,1,.65-.76A2,2,0,0,1,95.5,74.77Z"/><path d="M98.76,79.23a1.25,1.25,0,0,1-.53-.11.83.83,0,0,1-.37-.32.87.87,0,0,1-.14-.5.89.89,0,0,1,.37-.77,2.21,2.21,0,0,1,1.18-.27h.47V77a.5.5,0,0,0-.15-.39.58.58,0,0,0-.45-.13.8.8,0,0,0-.41.1.49.49,0,0,0-.25.35h-.62a1,1,0,0,1,.19-.54,1,1,0,0,1,.45-.32,2,2,0,0,1,.68-.1,2.1,2.1,0,0,1,.72.11.87.87,0,0,1,.41.34,1,1,0,0,1,.13.53v2.18h-.61l-.06-.56a1.11,1.11,0,0,1-.43.49A1.34,1.34,0,0,1,98.76,79.23Zm.24-.5a.6.6,0,0,0,.26,0,.7.7,0,0,0,.24-.13.75.75,0,0,0,.17-.19.44.44,0,0,0,.07-.22v-.49h-.38a1.77,1.77,0,0,0-.49.06.69.69,0,0,0-.33.18.51.51,0,0,0,0,.7A.64.64,0,0,0,99,78.73Z"/><path d="M102.43,79.23a1.84,1.84,0,0,1-.62-.11,1,1,0,0,1-.48-.32,1.15,1.15,0,0,1-.25-.57h.64a.69.69,0,0,0,.15.28.64.64,0,0,0,.25.15.79.79,0,0,0,.3,0,1,1,0,0,0,.46-.09.34.34,0,0,0,.17-.3.26.26,0,0,0-.1-.23.6.6,0,0,0-.3-.14l-.59-.13a1.52,1.52,0,0,1-.64-.29.69.69,0,0,1-.24-.57.93.93,0,0,1,.14-.49.91.91,0,0,1,.42-.34,1.78,1.78,0,0,1,.69-.12,1.45,1.45,0,0,1,.87.24.83.83,0,0,1,.34.69H103a.52.52,0,0,0-.19-.32.73.73,0,0,0-.41-.11.77.77,0,0,0-.42.1.34.34,0,0,0-.17.3.25.25,0,0,0,.13.22,1.08,1.08,0,0,0,.38.14l.56.14a1.17,1.17,0,0,1,.39.16,1,1,0,0,1,.24.22.72.72,0,0,1,.12.25,1.12,1.12,0,0,1,0,.24.85.85,0,0,1-.15.51.92.92,0,0,1-.44.32A1.66,1.66,0,0,1,102.43,79.23Z"/><path d="M105,77.79a1.11,1.11,0,0,0,.09.46.64.64,0,0,0,.26.32.7.7,0,0,0,.42.12.78.78,0,0,0,.44-.12.69.69,0,0,0,.26-.35h.67a1.28,1.28,0,0,1-.27.56,1.25,1.25,0,0,1-.49.33,1.53,1.53,0,0,1-.6.12A1.64,1.64,0,0,1,105,79a1.36,1.36,0,0,1-.54-.55,1.8,1.8,0,0,1-.19-.84,1.93,1.93,0,0,1,.18-.85,1.34,1.34,0,0,1,.5-.58,1.62,1.62,0,0,1,1.56,0,1.23,1.23,0,0,1,.48.55,2,2,0,0,1,.16.81v.23Zm0-.46h1.46a1,1,0,0,0-.08-.4.62.62,0,0,0-.24-.29.72.72,0,0,0-.4-.11.69.69,0,0,0-.41.12.7.7,0,0,0-.24.3A.85.85,0,0,0,105,77.33Z"/><path d="M108.94,79.23a1.84,1.84,0,0,1-.62-.11,1,1,0,0,1-.48-.32,1.07,1.07,0,0,1-.25-.57h.64a.69.69,0,0,0,.15.28.64.64,0,0,0,.25.15.79.79,0,0,0,.3,0,1,1,0,0,0,.46-.09.34.34,0,0,0,.17-.3.26.26,0,0,0-.1-.23.6.6,0,0,0-.3-.14l-.59-.13a1.52,1.52,0,0,1-.64-.29.69.69,0,0,1-.24-.57.93.93,0,0,1,.14-.49.91.91,0,0,1,.42-.34,1.78,1.78,0,0,1,.69-.12,1.45,1.45,0,0,1,.87.24.83.83,0,0,1,.34.69h-.62a.52.52,0,0,0-.19-.32.73.73,0,0,0-.41-.11.77.77,0,0,0-.42.1.34.34,0,0,0-.17.3.25.25,0,0,0,.13.22,1.08,1.08,0,0,0,.38.14l.56.14a1.17,1.17,0,0,1,.39.16,1,1,0,0,1,.24.22.72.72,0,0,1,.12.25,1.12,1.12,0,0,1,0,.24.85.85,0,0,1-.15.51.92.92,0,0,1-.44.32A1.66,1.66,0,0,1,108.94,79.23Z"/><path d="M111.6,76.16V77h-.82v-.84Zm0,2.16v.83h-.82v-.83Z"/><path d="M116.51,77.39v.4h-3.06v-.4Zm.19-1.23v.4h-3.06v-.4ZM115,74.86l-.64,4.32-.41-.05.65-4.31Zm1.25,0-.64,4.32-.4-.05.64-4.31Z"/><path d="M92.4,80.83h1.17a2.94,2.94,0,0,1,1.29.27,1.61,1.61,0,0,1,.73.73A2.6,2.6,0,0,1,95.82,83a2.54,2.54,0,0,1-.25,1.18,1.6,1.6,0,0,1-.75.75,2.87,2.87,0,0,1-1.29.26H92.4Zm.74.6v3.14h.4a2,2,0,0,0,.79-.16,1.16,1.16,0,0,0,.53-.5,2.36,2.36,0,0,0,0-1.83,1.12,1.12,0,0,0-.51-.5,2,2,0,0,0-.81-.15Z"/><path d="M97.13,83.79a1.11,1.11,0,0,0,.08.46.71.71,0,0,0,.68.44.76.76,0,0,0,.44-.12.6.6,0,0,0,.26-.35h.67a1.09,1.09,0,0,1-.27.56,1.15,1.15,0,0,1-.48.33,1.53,1.53,0,0,1-.6.12,1.68,1.68,0,0,1-.79-.19,1.34,1.34,0,0,1-.53-.55,1.68,1.68,0,0,1-.19-.84,2.08,2.08,0,0,1,.17-.85,1.41,1.41,0,0,1,.5-.58,1.47,1.47,0,0,1,.8-.21,1.44,1.44,0,0,1,.77.19,1.27,1.27,0,0,1,.47.55,1.86,1.86,0,0,1,.16.81v.23Zm0-.46h1.46a.87.87,0,0,0-.08-.4.62.62,0,0,0-.24-.29.68.68,0,0,0-.4-.11.65.65,0,0,0-.4.12.72.72,0,0,0-.25.3A.85.85,0,0,0,97.12,83.33Z"/><path d="M100.82,85.23a1.29,1.29,0,0,1-.53-.11.83.83,0,0,1-.37-.32,1,1,0,0,1,.24-1.27,2.18,2.18,0,0,1,1.18-.27h.46V83a.53.53,0,0,0-.14-.39.62.62,0,0,0-.46-.13.8.8,0,0,0-.41.1.52.52,0,0,0-.25.35h-.62a1,1,0,0,1,.19-.54,1,1,0,0,1,.46-.32,1.93,1.93,0,0,1,.67-.1,2.06,2.06,0,0,1,.72.11.82.82,0,0,1,.41.34,1,1,0,0,1,.13.53v2.18h-.61l-.06-.56a1,1,0,0,1-.42.49A1.38,1.38,0,0,1,100.82,85.23Zm.24-.5a.65.65,0,0,0,.27,0,.8.8,0,0,0,.4-.32.36.36,0,0,0,.07-.22v-.49h-.38a1.77,1.77,0,0,0-.49.06.75.75,0,0,0-.33.18.45.45,0,0,0-.12.33.45.45,0,0,0,.17.37A.61.61,0,0,0,101.06,84.73Z"/><path d="M105,82.58h-.69v1.78a.49.49,0,0,0,0,.2.16.16,0,0,0,.11.09l.19,0H105v.46a.6.6,0,0,1-.18,0,1.73,1.73,0,0,1-.9-.07.55.55,0,0,1-.28-.28,1.14,1.14,0,0,1-.08-.43V82.58h-.5v-.51h.52l.18-.92h.53v.91H105Z"/><path d="M105.7,85.17V80.71h.72v1.81a.85.85,0,0,1,.2-.23,1.09,1.09,0,0,1,.3-.18,1.06,1.06,0,0,1,.42-.07,1.42,1.42,0,0,1,.55.11,1,1,0,0,1,.39.33.88.88,0,0,1,.15.51v2.18h-.74v-2a.44.44,0,0,0-.17-.38.7.7,0,0,0-.42-.13.88.88,0,0,0-.33.06.58.58,0,0,0-.25.18.49.49,0,0,0-.1.3v2Z"/><path d="M110.34,85.23a1.84,1.84,0,0,1-.62-.11,1,1,0,0,1-.48-.32,1.07,1.07,0,0,1-.25-.57h.64a.69.69,0,0,0,.15.28.64.64,0,0,0,.25.15.79.79,0,0,0,.3,0,1,1,0,0,0,.46-.09.34.34,0,0,0,.17-.3.26.26,0,0,0-.1-.23.6.6,0,0,0-.3-.14l-.6-.13a1.53,1.53,0,0,1-.63-.29.69.69,0,0,1-.24-.57.93.93,0,0,1,.14-.49.91.91,0,0,1,.42-.34,1.78,1.78,0,0,1,.69-.12,1.45,1.45,0,0,1,.87.24.83.83,0,0,1,.34.69h-.63a.47.47,0,0,0-.18-.32.73.73,0,0,0-.41-.11.77.77,0,0,0-.42.1.34.34,0,0,0-.17.3.25.25,0,0,0,.13.22,1.08,1.08,0,0,0,.38.14l.55.14a1.24,1.24,0,0,1,.4.16,1,1,0,0,1,.24.22.72.72,0,0,1,.12.25,1.12,1.12,0,0,1,0,.24.85.85,0,0,1-.15.51.92.92,0,0,1-.44.32A1.66,1.66,0,0,1,110.34,85.23Z"/><path d="M113,82.16V83h-.82v-.84Zm0,2.16v.83h-.82v-.83Z"/><path d="M117.91,83.39v.4h-3.06v-.4Zm.19-1.23v.4H115v-.4Zm-1.71-1.3-.64,4.32-.41-.05.65-4.31Zm1.25,0L117,85.18l-.41-.05.65-4.31Z"/><path d="M204.5,69.49v-.66h3.38v.66h-1.3v3.68h-.73V69.49Z"/><path d="M209.28,73.23a1.47,1.47,0,0,1-.77-.19,1.38,1.38,0,0,1-.52-.55,2.12,2.12,0,0,1,0-1.71,1.35,1.35,0,0,1,1.29-.77,1.44,1.44,0,0,1,.77.19,1.32,1.32,0,0,1,.51.56,1.93,1.93,0,0,1,.18.87,2,2,0,0,1-.17.83,1.24,1.24,0,0,1-.5.56A1.41,1.41,0,0,1,209.28,73.23Zm0-.56a.64.64,0,0,0,.42-.13.83.83,0,0,0,.24-.38,1.55,1.55,0,0,0,.08-.55,1.72,1.72,0,0,0-.07-.52.85.85,0,0,0-.23-.39.63.63,0,0,0-.44-.14.64.64,0,0,0-.42.13.84.84,0,0,0-.25.37,1.86,1.86,0,0,0,0,1.08.7.7,0,0,0,.23.38A.63.63,0,0,0,209.28,72.67Z"/><path d="M213,70.58h-.69v1.78a.49.49,0,0,0,0,.2.16.16,0,0,0,.11.09l.19,0h.38v.46a.6.6,0,0,1-.18,0,1.42,1.42,0,0,1-.33,0,1.39,1.39,0,0,1-.57-.1.55.55,0,0,1-.28-.28,1.1,1.1,0,0,1-.08-.43V70.58h-.5v-.51h.52l.19-.92h.52v.91H213Z"/><path d="M214.63,73.23a1.29,1.29,0,0,1-.53-.11.83.83,0,0,1-.37-.32.85.85,0,0,1-.13-.49.88.88,0,0,1,.37-.78,2.18,2.18,0,0,1,1.18-.27h.46V71a.49.49,0,0,0-.14-.39.61.61,0,0,0-.45-.13.87.87,0,0,0-.42.1.53.53,0,0,0-.24.35h-.62a.94.94,0,0,1,.18-.54,1,1,0,0,1,.46-.32,2,2,0,0,1,.67-.1,2,2,0,0,1,.72.11.78.78,0,0,1,.41.34,1,1,0,0,1,.14.53v2.18h-.62l-.06-.56a1,1,0,0,1-.42.49A1.38,1.38,0,0,1,214.63,73.23Zm.24-.5a.65.65,0,0,0,.27,0,.76.76,0,0,0,.23-.13.8.8,0,0,0,.18-.19.43.43,0,0,0,.06-.22v-.49h-.38a1.77,1.77,0,0,0-.49.06.75.75,0,0,0-.33.18.45.45,0,0,0-.12.33.45.45,0,0,0,.17.37A.63.63,0,0,0,214.87,72.73Z"/><path d="M218.08,73.21a1.28,1.28,0,0,1-.48-.07.64.64,0,0,1-.27-.2.74.74,0,0,1-.12-.29c0-.1,0-.21,0-.32V68.71h.71v3.54a.54.54,0,0,0,.08.31.39.39,0,0,0,.27.13h.16v.46l-.17,0Z"/><path d="M222.19,73.23a1.84,1.84,0,0,1-1-.27,1.69,1.69,0,0,1-.66-.76,2.87,2.87,0,0,1-.23-1.19,2.79,2.79,0,0,1,.24-1.2,1.8,1.8,0,0,1,.67-.77,1.93,1.93,0,0,1,1-.27,1.76,1.76,0,0,1,.66.12,1.74,1.74,0,0,1,.54.33,1.6,1.6,0,0,1,.36.46,1.29,1.29,0,0,1,.15.54h-.78a1.05,1.05,0,0,0-.17-.41,1,1,0,0,0-.33-.3.94.94,0,0,0-.45-.11,1.12,1.12,0,0,0-.58.16,1.07,1.07,0,0,0-.4.52,2.34,2.34,0,0,0-.15.91,2.65,2.65,0,0,0,.09.75,1.41,1.41,0,0,0,.25.49,1.07,1.07,0,0,0,.37.27,1.33,1.33,0,0,0,.45.08.87.87,0,0,0,.4-.08.93.93,0,0,0,.3-.2,1.06,1.06,0,0,0,.18-.27.63.63,0,0,0,.08-.29l0-.31h-1v-.52H224v2.25h-.52v-.61a2.07,2.07,0,0,1-.28.32,1.42,1.42,0,0,1-.42.25A1.49,1.49,0,0,1,222.19,73.23Z"/><path d="M225.78,73.21a1.28,1.28,0,0,1-.48-.07.64.64,0,0,1-.27-.2.74.74,0,0,1-.12-.29c0-.1,0-.21,0-.32V68.71h.71v3.54a.54.54,0,0,0,.08.31.39.39,0,0,0,.27.13h.16v.46l-.17,0Z"/><path d="M228,73.23a1.5,1.5,0,0,1-.78-.19,1.29,1.29,0,0,1-.51-.55,2.12,2.12,0,0,1,0-1.71,1.32,1.32,0,0,1,.5-.57A1.43,1.43,0,0,1,228,70a1.49,1.49,0,0,1,.77.19,1.24,1.24,0,0,1,.5.56,1.93,1.93,0,0,1,.18.87,1.81,1.81,0,0,1-.17.83,1.22,1.22,0,0,1-.49.56A1.43,1.43,0,0,1,228,73.23Zm0-.56a.59.59,0,0,0,.41-.13.94.94,0,0,0,.25-.38,1.82,1.82,0,0,0,.08-.55,1.72,1.72,0,0,0-.07-.52.86.86,0,0,0-.24-.39.6.6,0,0,0-.43-.14.64.64,0,0,0-.42.13.76.76,0,0,0-.25.37,2,2,0,0,0,0,1.08.78.78,0,0,0,.24.38A.62.62,0,0,0,228,72.67Z"/><path d="M231.78,73.23a1.11,1.11,0,0,1-.43-.07.87.87,0,0,1-.3-.17,1,1,0,0,1-.19-.22,1.54,1.54,0,0,1-.1-.24l-.08.64h-.54V68.71h.73v1.81a.73.73,0,0,1,.14-.18,1,1,0,0,1,.48-.29,1.29,1.29,0,0,1,.35,0,1.11,1.11,0,0,1,.92.41,1.84,1.84,0,0,1,.33,1.18,2.28,2.28,0,0,1-.15.86,1.16,1.16,0,0,1-1.16.77Zm-.16-.54a.67.67,0,0,0,.54-.26,1.34,1.34,0,0,0,.21-.85,1.22,1.22,0,0,0-.2-.77.65.65,0,0,0-.55-.26.73.73,0,0,0-.43.12A.66.66,0,0,0,231,71a1.79,1.79,0,0,0-.08.56,1.57,1.57,0,0,0,.18.86A.65.65,0,0,0,231.62,72.69Z"/><path d="M234.61,73.23a1.25,1.25,0,0,1-.53-.11.83.83,0,0,1-.37-.32.85.85,0,0,1-.13-.49.88.88,0,0,1,.37-.78,2.18,2.18,0,0,1,1.18-.27h.46V71a.53.53,0,0,0-.14-.39.62.62,0,0,0-.46-.13.8.8,0,0,0-.41.1.55.55,0,0,0-.25.35h-.62a1,1,0,0,1,.19-.54,1,1,0,0,1,.46-.32A1.93,1.93,0,0,1,235,70a2.1,2.1,0,0,1,.72.11.82.82,0,0,1,.41.34,1,1,0,0,1,.13.53v2.18h-.61l-.06-.56a1,1,0,0,1-.42.49A1.38,1.38,0,0,1,234.61,73.23Zm.24-.5a.58.58,0,0,0,.26,0,.7.7,0,0,0,.24-.13.75.75,0,0,0,.17-.19.36.36,0,0,0,.07-.22v-.49h-.38a1.77,1.77,0,0,0-.49.06.75.75,0,0,0-.33.18.45.45,0,0,0-.12.33.45.45,0,0,0,.17.37A.61.61,0,0,0,234.85,72.73Z"/><path d="M238.06,73.21a1.28,1.28,0,0,1-.48-.07.64.64,0,0,1-.27-.2.74.74,0,0,1-.12-.29,1.66,1.66,0,0,1,0-.32V68.71h.72v3.54a.54.54,0,0,0,.08.31.37.37,0,0,0,.27.13h.15v.46l-.16,0Z"/><path d="M211.9,74.77a1.74,1.74,0,0,1,.84.19,1.62,1.62,0,0,1,.6.53,1.58,1.58,0,0,1,.27.73h-.77a1.25,1.25,0,0,0-.17-.43.93.93,0,0,0-.32-.3,1,1,0,0,0-.47-.11,1,1,0,0,0-.59.17,1,1,0,0,0-.37.51,3,3,0,0,0-.13.92,2.15,2.15,0,0,0,.29,1.25.93.93,0,0,0,.8.39.81.81,0,0,0,.47-.13.82.82,0,0,0,.32-.32,1.3,1.3,0,0,0,.17-.44h.77a2.73,2.73,0,0,1-.15.56,1.55,1.55,0,0,1-.32.48,1.34,1.34,0,0,1-.51.34,2,2,0,0,1-.73.12,1.77,1.77,0,0,1-1-.28,1.69,1.69,0,0,1-.66-.78A2.89,2.89,0,0,1,210,77a2.82,2.82,0,0,1,.23-1.18,1.73,1.73,0,0,1,.65-.76A2,2,0,0,1,211.9,74.77Z"/><path d="M215.16,79.23a1.25,1.25,0,0,1-.53-.11.83.83,0,0,1-.37-.32.87.87,0,0,1-.14-.5.89.89,0,0,1,.37-.77,2.21,2.21,0,0,1,1.18-.27h.47V77a.5.5,0,0,0-.15-.39.58.58,0,0,0-.45-.13.8.8,0,0,0-.41.1.49.49,0,0,0-.25.35h-.62a.88.88,0,0,1,.19-.54,1,1,0,0,1,.45-.32,2,2,0,0,1,.68-.1,2.1,2.1,0,0,1,.72.11.87.87,0,0,1,.41.34,1,1,0,0,1,.13.53v2.18h-.61l-.06-.56a1.11,1.11,0,0,1-.43.49A1.34,1.34,0,0,1,215.16,79.23Zm.24-.5a.6.6,0,0,0,.26,0,.7.7,0,0,0,.24-.13.75.75,0,0,0,.17-.19.36.36,0,0,0,.07-.22v-.49h-.38a1.77,1.77,0,0,0-.49.06.65.65,0,0,0-.33.18.51.51,0,0,0,0,.7A.64.64,0,0,0,215.4,78.73Z"/><path d="M218.83,79.23a1.84,1.84,0,0,1-.62-.11,1,1,0,0,1-.48-.32,1.07,1.07,0,0,1-.25-.57h.64a.69.69,0,0,0,.15.28.64.64,0,0,0,.25.15.81.81,0,0,0,.31,0,1,1,0,0,0,.45-.09.34.34,0,0,0,.17-.3.26.26,0,0,0-.1-.23.6.6,0,0,0-.3-.14l-.59-.13a1.52,1.52,0,0,1-.64-.29.69.69,0,0,1-.24-.57.93.93,0,0,1,.14-.49.91.91,0,0,1,.42-.34,1.78,1.78,0,0,1,.69-.12,1.45,1.45,0,0,1,.87.24.83.83,0,0,1,.34.69h-.62a.52.52,0,0,0-.19-.32.73.73,0,0,0-.41-.11.77.77,0,0,0-.42.1.34.34,0,0,0-.17.3.25.25,0,0,0,.13.22,1.08,1.08,0,0,0,.38.14l.56.14a1.17,1.17,0,0,1,.39.16,1,1,0,0,1,.24.22.72.72,0,0,1,.12.25,1.12,1.12,0,0,1,0,.24.85.85,0,0,1-.15.51.92.92,0,0,1-.44.32A1.66,1.66,0,0,1,218.83,79.23Z"/><path d="M221.35,77.79a1.11,1.11,0,0,0,.09.46.64.64,0,0,0,.26.32.7.7,0,0,0,.42.12.73.73,0,0,0,.43-.12.65.65,0,0,0,.27-.35h.67a1.28,1.28,0,0,1-.27.56,1.25,1.25,0,0,1-.49.33,1.53,1.53,0,0,1-.6.12,1.64,1.64,0,0,1-.78-.19,1.28,1.28,0,0,1-.53-.55,1.68,1.68,0,0,1-.2-.84,1.93,1.93,0,0,1,.18-.85,1.34,1.34,0,0,1,.5-.58,1.62,1.62,0,0,1,1.56,0,1.23,1.23,0,0,1,.48.55,2,2,0,0,1,.16.81v.23Zm0-.46h1.46a1,1,0,0,0-.08-.4.62.62,0,0,0-.24-.29.72.72,0,0,0-.4-.11.69.69,0,0,0-.41.12.81.81,0,0,0-.25.3A1,1,0,0,0,221.35,77.33Z"/><path d="M225.34,79.23a1.84,1.84,0,0,1-.62-.11,1,1,0,0,1-.48-.32,1.07,1.07,0,0,1-.25-.57h.64a.69.69,0,0,0,.15.28.64.64,0,0,0,.25.15.79.79,0,0,0,.3,0,1,1,0,0,0,.46-.09.34.34,0,0,0,.17-.3.26.26,0,0,0-.1-.23.6.6,0,0,0-.3-.14l-.59-.13a1.52,1.52,0,0,1-.64-.29.69.69,0,0,1-.24-.57.93.93,0,0,1,.14-.49.91.91,0,0,1,.42-.34,1.78,1.78,0,0,1,.69-.12,1.45,1.45,0,0,1,.87.24.83.83,0,0,1,.34.69h-.62a.52.52,0,0,0-.19-.32.73.73,0,0,0-.41-.11.77.77,0,0,0-.42.1.34.34,0,0,0-.17.3.25.25,0,0,0,.13.22,1.08,1.08,0,0,0,.38.14l.56.14a1.17,1.17,0,0,1,.39.16,1,1,0,0,1,.24.22.72.72,0,0,1,.12.25,1.12,1.12,0,0,1,0,.24.85.85,0,0,1-.15.51.92.92,0,0,1-.44.32A1.66,1.66,0,0,1,225.34,79.23Z"/><path d="M228,76.16V77h-.82v-.84Zm0,2.16v.83h-.82v-.83Z"/><path d="M232.91,77.39v.4h-3.06v-.4Zm.19-1.23v.4H230v-.4Zm-1.71-1.3-.64,4.32-.41-.05.65-4.31Zm1.26,0L232,79.18l-.4-.05.64-4.31Z"/><path d="M208.8,80.83H210a2.94,2.94,0,0,1,1.29.27,1.61,1.61,0,0,1,.73.73,2.6,2.6,0,0,1,.23,1.14,2.54,2.54,0,0,1-.25,1.18,1.6,1.6,0,0,1-.75.75,2.89,2.89,0,0,1-1.3.26H208.8Zm.74.6v3.14h.4a2,2,0,0,0,.79-.16,1.16,1.16,0,0,0,.53-.5,2.42,2.42,0,0,0,0-1.83,1.14,1.14,0,0,0-.52-.5,2,2,0,0,0-.81-.15Z"/><path d="M213.53,83.79a1.11,1.11,0,0,0,.08.46.71.71,0,0,0,.68.44.78.78,0,0,0,.44-.12.6.6,0,0,0,.26-.35h.67a1.09,1.09,0,0,1-.27.56,1.15,1.15,0,0,1-.48.33,1.53,1.53,0,0,1-.6.12,1.68,1.68,0,0,1-.79-.19,1.34,1.34,0,0,1-.53-.55,1.68,1.68,0,0,1-.19-.84,2.08,2.08,0,0,1,.17-.85,1.41,1.41,0,0,1,.5-.58,1.47,1.47,0,0,1,.8-.21,1.44,1.44,0,0,1,.77.19,1.27,1.27,0,0,1,.47.55,1.86,1.86,0,0,1,.16.81v.23Zm0-.46H215a.87.87,0,0,0-.08-.4.62.62,0,0,0-.24-.29.7.7,0,0,0-.4-.11.65.65,0,0,0-.4.12.72.72,0,0,0-.25.3A.84.84,0,0,0,213.53,83.33Z"/><path d="M217.22,85.23a1.29,1.29,0,0,1-.53-.11.83.83,0,0,1-.37-.32,1,1,0,0,1,.24-1.27,2.18,2.18,0,0,1,1.18-.27h.46V83a.53.53,0,0,0-.14-.39.61.61,0,0,0-.45-.13.84.84,0,0,0-.42.1A.51.51,0,0,0,217,83h-.63a1,1,0,0,1,.19-.54,1,1,0,0,1,.46-.32,1.93,1.93,0,0,1,.67-.1,2.1,2.1,0,0,1,.72.11.82.82,0,0,1,.41.34,1,1,0,0,1,.13.53v2.18h-.61l-.06-.56a1,1,0,0,1-.42.49A1.38,1.38,0,0,1,217.22,85.23Zm.24-.5a.65.65,0,0,0,.27,0,.8.8,0,0,0,.4-.32.36.36,0,0,0,.07-.22v-.49h-.38a1.77,1.77,0,0,0-.49.06.75.75,0,0,0-.33.18.45.45,0,0,0-.12.33.45.45,0,0,0,.17.37A.61.61,0,0,0,217.46,84.73Z"/><path d="M221.37,82.58h-.69v1.78a.49.49,0,0,0,0,.2.16.16,0,0,0,.11.09l.19,0h.38v.46a.6.6,0,0,1-.18,0,1.42,1.42,0,0,1-.33,0,1.39,1.39,0,0,1-.57-.1.55.55,0,0,1-.28-.28,1.14,1.14,0,0,1-.08-.43V82.58h-.5v-.51H220l.19-.92h.52v.91h.69Z"/><path d="M222.1,85.17V80.71h.72v1.81a.85.85,0,0,1,.2-.23,1.09,1.09,0,0,1,.3-.18,1.06,1.06,0,0,1,.42-.07,1.42,1.42,0,0,1,.55.11,1,1,0,0,1,.39.33.88.88,0,0,1,.15.51v2.18h-.74v-2a.44.44,0,0,0-.17-.38.7.7,0,0,0-.42-.13.88.88,0,0,0-.33.06.64.64,0,0,0-.25.18.49.49,0,0,0-.09.3v2Z"/><path d="M226.74,85.23a1.84,1.84,0,0,1-.62-.11,1,1,0,0,1-.48-.32,1.07,1.07,0,0,1-.25-.57H226a.69.69,0,0,0,.15.28.64.64,0,0,0,.25.15.79.79,0,0,0,.3,0,1,1,0,0,0,.46-.09.34.34,0,0,0,.17-.3.26.26,0,0,0-.1-.23A.6.6,0,0,0,227,84l-.59-.13a1.52,1.52,0,0,1-.64-.29.69.69,0,0,1-.24-.57.93.93,0,0,1,.14-.49.91.91,0,0,1,.42-.34,1.78,1.78,0,0,1,.69-.12,1.45,1.45,0,0,1,.87.24.83.83,0,0,1,.34.69h-.62a.52.52,0,0,0-.19-.32.73.73,0,0,0-.41-.11.77.77,0,0,0-.42.1.34.34,0,0,0-.17.3.23.23,0,0,0,.13.22,1.08,1.08,0,0,0,.38.14l.55.14a1.15,1.15,0,0,1,.4.16,1,1,0,0,1,.24.22A.72.72,0,0,1,228,84a1.12,1.12,0,0,1,0,.24.85.85,0,0,1-.15.51.92.92,0,0,1-.44.32A1.69,1.69,0,0,1,226.74,85.23Z"/><path d="M229.4,82.16V83h-.82v-.84Zm0,2.16v.83h-.82v-.83Z"/><path d="M234.31,83.39v.4h-3.06v-.4Zm.19-1.23v.4h-3.06v-.4Zm-1.71-1.3-.64,4.32-.41-.05.65-4.31Zm1.25,0-.64,4.32-.41-.05.65-4.31Z"/><circle class="b7272d90-7bac-439a-b24b-39a99ddd928e" cx="25.1" cy="41.18" r="1.75"/><path class="b7272d90-7bac-439a-b24b-39a99ddd928e" d="M108,17.74a4.19,4.19,0,0,0-1-.17c-.37,0-.94.09-1,.29a3,3,0,0,0,.22,1.13c.12.37.65,1,.53,1.38a30.8,30.8,0,0,1-1.44,3.41,28.23,28.23,0,0,1-.88-3.85c0-.37,0-.74.08-1.1a2.64,2.64,0,0,0-.16-1,3,3,0,0,0-1.47.17c-.18.08-.29.79-.13,1,.92,1.51.44,3.15.62,4.75-.49-.4-.9-1-1.3-1-.69,0-1.14.58-1.09,1.43-.59-1.16-1.09-2.31-1.57-3.46a.93.93,0,0,1-.06-.52c.27-1.09-.1-1.54-1.26-1.29-.39.08-1,.41-1,.71s.38.74.63,1.09c.13.19.44.3.48.49.21,1,.35,2.05.52,3.08l-.25.09c-.58-1.35-1.1-2.71-1.68-4.06-.14-.32-.55-.79-.73-.75a1.9,1.9,0,0,0-1.14.75c-.21.37,0,.84.58.92a.55.55,0,0,1,.36.25c.53,1.26,1,2.53,1.65,4-.45-.19-.67-.21-.75-.33A7,7,0,0,1,96,23.77c-.53-1.16-1.55-2.16-1.51-3.63,0-.93-.88-1.24-1.65-.72A9.75,9.75,0,0,0,92,20a1.09,1.09,0,0,0-.31,1.51,1.13,1.13,0,0,0,.45.39c.56.41,1.06.92,1.58,1.38-.43.16-.79,0-1,.15a4.75,4.75,0,0,0-1.18,1.27c-.09.15.27.82.53.9,1.06.33,1.37,1.27,1.89,2.05a1.32,1.32,0,0,1,.08.52h-.58a3.08,3.08,0,0,0-1,.16c-.34.17-.6.65-.91.67a2.33,2.33,0,0,1-1.18-.49c-.93-.6-1.84-1.24-2.74-1.89-.19-.13-.26-.41-.45-.55s-.78-.53-.86-.47A11,11,0,0,0,85.17,27a9.43,9.43,0,0,0,1,.64c.42.21.88.34,1.32.51v.26c-1,.1-1.38.74-1.65,1.56s0,1.3.77,1.19c1.48-.21,2,1,2.85,1.78a30.85,30.85,0,0,1-4.34-1.27c-.27-.1-.39-.57-.66-.72s-.87-.35-1-.21c-.42.37-1.09.78-.68,1.51.1.2.67.38.77.29.76-.68,1.22-.07,1.76.31l2.31,1.55c.25.18.49.4.53.43a6.47,6.47,0,0,0-1.06,1.52c-.06.19.55.6.94,1l-.29,1A13.42,13.42,0,0,1,86,37.61a1.2,1.2,0,0,0-1.69.19,1,1,0,0,0-.15.25,1.79,1.79,0,0,1-2,.46c-1.36-.81-1.85-.57-1.91,1a1.12,1.12,0,0,0,.43.88,2.08,2.08,0,0,0,1.08-.08c.28-.06.56-.31.8-.27,1.31.21,2.6.49,3.9.75A1.24,1.24,0,0,1,87.5,42a4.12,4.12,0,0,1-.86,0,5.72,5.72,0,0,0-3.52.08c-.19.08-.49-.15-.74-.17-.44,0-1-.17-1.3,0a1.52,1.52,0,0,0-.45,1.28,4.51,4.51,0,0,0,.83,1.4c.23.25.2.64.32,1s.32.67.56.73.93,0,1-.19c.32-.76.91-.55,1.46-.58s1.17-.09,1.75-.17c1.57-.27,1.57-.26,1.85,1.27.09.58.24,1.51,0,1.73-1.47,1.12-2.69,2.78-4.88,2.56a3.52,3.52,0,0,0-1,.31c.34.72.58,1.36.93,1.94a.94.94,0,0,0,1.62,0,1.81,1.81,0,0,1,.42-.6c1.14-.55,2.27-1.11,3.43-1.58s2.63.77,2.29,1.89a8.32,8.32,0,0,1-1.56,2.41,1.5,1.5,0,0,1-.92.39c-.6.07-1.11.33-1,.94a4.66,4.66,0,0,0,.83,1.72,1.4,1.4,0,0,0,1,.4c.14,0,.36-.56.37-.87a1.45,1.45,0,0,1,1.51-1.39,1.17,1.17,0,0,1,.45.09,1,1,0,0,0,1.3-.56.94.94,0,0,0,.07-.37,2.11,2.11,0,0,0-.06-.6c1.23.07,2.58,1.72,2.21,2.67C95,58.87,94.53,60,94,61.09c-.09.21-.42.32-.62.49s-.68.6-1,.9a6.61,6.61,0,0,0,1.4,1c.31.11.78-.2,1.16-.35,0,0,0-.28,0-.43a2.13,2.13,0,0,1,.15-1c.58-.87,1.33-1.64,1.83-2.55A1.64,1.64,0,0,1,99,58.26a15.79,15.79,0,0,1,2.14.6.91.91,0,0,1,.54.69A7.1,7.1,0,0,1,100.55,64c-.51.66-.31,1.15.51,1.35a4.78,4.78,0,0,0,1.54.25,2.38,2.38,0,0,0,1.26-.59c.11-.1-.12-.67-.28-1a1.32,1.32,0,0,1,.66-1.7c1.07-.39,1.19-.89.33-1.88l.76-.6a8,8,0,0,1,.38.84,3.44,3.44,0,0,1,.36,1.22c0,1.26.74,2.48,0,3.78a.61.61,0,0,0,.66.91,4.57,4.57,0,0,0,.74,0c.39-.08,1-.15,1.1-.38s-.22-.81-.27-1.23a11.07,11.07,0,0,1-.3-3.29c.15-.8.41-1.44-.38-2.2.81-.08,1.46-.16,2.1-.18,0,0,.1.38.17.57.15.38.3,1.08.46,1.08A3.1,3.1,0,0,0,112,60.6c.18-.11.09-.8,0-1.2a3.16,3.16,0,0,0-.46-.87c1.72,1.65,3.12,3.46,2.7,6.12a9.83,9.83,0,0,0,1.31-.38c.28-.14.72-.41.71-.6s-.35-.58-.57-.85a7.19,7.19,0,0,1-1-1.09c-.44-1-.78-2.13-1.13-3.21a3.1,3.1,0,0,1,0-.86c.62.66,1.54,1.05,1.38,2.1a.42.42,0,0,0,.16.32c.65.25.68.78.77,1.37,0,.25.58.67.77.61a4.25,4.25,0,0,0,1.47-.78.89.89,0,0,0-.3-.67c-1.08-.37-.77-1.11-.54-1.89.84.6,1.68,1.11,1.2,2.38-.09.22.24.69.49.89a1,1,0,0,0,.81-.1,3.78,3.78,0,0,0,.89-.8c.16-.18.36-.53.29-.66a2,2,0,0,0-.73-.61c-.25-.14-.67-.13-.79-.33-.82-1.33-1.59-2.7-2.37-4.05l-.07.08c.61,0,1.16.16,1.45,0,.56-.38,1-1,.42-1.72-.11-.14,0-.41,0-.82,1.1.68,2,1.22,2.91,1.82.2.15.24.51.4.75a8.47,8.47,0,0,0,.58.76,6,6,0,0,0,.87-1.19c.06-.15-.39-.75-.55-.73-1.47.12-2-1-3-1.78,1.51-.48,2.16.88,3.24,1s1.76,1.17,2.52,2l1.24-2a21.34,21.34,0,0,1-2.06-.79c-.67-.36-1.27-.87-1.92-1.26s-1.39-.47-1.63-1.35c1.18.3,2.28.55,3.36.89a3.5,3.5,0,0,1,1,.75c.34.28.71.85,1,.8a1.84,1.84,0,0,0,1-.92,1.15,1.15,0,0,0,0-1.08c-.19-.23-.7-.22-1.07-.25s-.66.18-.87.07c-1.18-.68-2.32-1.42-3.47-2.14l.16-.29c1.15.5,2.57-.11,3.59,1.07a1.43,1.43,0,0,0,1.37-.17,2,2,0,0,0,.23-1.58,1.27,1.27,0,0,0-1.11-.52c-1.15.68-1.89-.17-2.55-.4l.28-2a6.71,6.71,0,0,1,1.18-.17,6.81,6.81,0,0,1,2.54.27c1.2.57,1.37.6,1.54-.74,0-.27-.06-.78-.17-.8a2.42,2.42,0,0,0-1,.12c-.39.08-.8.34-1.16.28a27.64,27.64,0,0,1-3.25-.7c-.31-.08-.76-.36-.8-.61a.85.85,0,0,1,.6-1l.21,0c1-.11,2.09,1,3.11-.06,0,0,.14.13.22.13.44,0,1,.16,1.27-.07a2.32,2.32,0,0,0,.47-1.41,2.64,2.64,0,0,0-.26-1c.41,0,1,.08,1,0a3.13,3.13,0,0,0,0-1.22c0-.67-.39-.6-.89-.37a5,5,0,0,1-1.66.49c-1.19.05-2.38,0-3.58-.06a.81.81,0,0,1-.55-.25c-.38-.67-.74-1.35-1-2.05-.06-.12,0-.43.11-.47.59-.29,1.06-.94,1.91-.48a.79.79,0,0,0,1.09-.23.81.81,0,0,0,.13-.45,16.68,16.68,0,0,0,0-2c.39-.05.87-.13,1.35-.16s1,0,.82-.61A8.19,8.19,0,0,0,126.42,29c-.15.29-.28.43-.29.57,0,1-.82,1.27-1.58,1.55-.57.22-1.14.46-1.71.71-1.8.78-3,.27-3.65-1.66.59-.41,1.17-.82.8-1.72-.06-.15.16-.5.33-.65,1-.84,2-1.62,3-2.47.19-.17.32-.71.21-.84-.39-.44-.91-1.11-1.35-1.09a5.48,5.48,0,0,0-2,.9.51.51,0,0,0-.11.43c.46,1.23-.5,1.66-1.25,2.15a2.73,2.73,0,0,1-3.44-.13,1.26,1.26,0,0,1-.3-1,19.41,19.41,0,0,1,1-1.92c.13-.25.11-.57.23-.82a4.29,4.29,0,0,1,.93-1.73c.65-.5.79-.57.11-1.08a10.27,10.27,0,0,0-1.16-.67,6,6,0,0,1-.29,1.72c-.23.44-.73.75-1.29,1.29-.17-1.34-1-1.5-1.72-1.65s-1,.28-.83,1a1.53,1.53,0,0,1,.06.85c-.3.7-.68,1.37-1.14,2.28-.64-.61-1.73-1.16-1.75-1.75a8.72,8.72,0,0,1,1.1-5,1.3,1.3,0,0,0,0-1.21C109.85,16.37,108.38,16.79,108,17.74Z"/><path d="M87.67,13.17v-3.1h.71v.44a1.25,1.25,0,0,1,.37-.35,1.05,1.05,0,0,1,.59-.15,1.4,1.4,0,0,1,.34.05,1.17,1.17,0,0,1,.31.17.77.77,0,0,1,.23.28,1.07,1.07,0,0,1,.4-.36,1,1,0,0,1,.55-.14,1,1,0,0,1,.34.05,1.06,1.06,0,0,1,.33.18,1,1,0,0,1,.25.34,1.47,1.47,0,0,1,.09.55v2h-.73V11.22a.75.75,0,0,0-.08-.37.51.51,0,0,0-.21-.18.66.66,0,0,0-.27-.06.86.86,0,0,0-.27.05.56.56,0,0,0-.24.17.5.5,0,0,0-.1.31v2h-.72V11.1a.4.4,0,0,0-.09-.27.47.47,0,0,0-.21-.16.62.62,0,0,0-.26-.06.66.66,0,0,0-.27.06.59.59,0,0,0-.24.17.49.49,0,0,0-.09.3v2Z"/><path d="M93,13.17v-3.1h.72v.44a1.34,1.34,0,0,1,.36-.35,1.11,1.11,0,0,1,.6-.15,1.26,1.26,0,0,1,.33.05,1.23,1.23,0,0,1,.32.17,1,1,0,0,1,.23.28,1.12,1.12,0,0,1,.39-.36,1,1,0,0,1,.55-.14,1.1,1.1,0,0,1,.35.05,1,1,0,0,1,.32.18.89.89,0,0,1,.25.34,1.47,1.47,0,0,1,.09.55v2h-.73V11.22a.75.75,0,0,0-.08-.37.41.41,0,0,0-.21-.18.6.6,0,0,0-.27-.06.91.91,0,0,0-.27.05.48.48,0,0,0-.23.17.45.45,0,0,0-.1.31v2h-.73V11.1a.46.46,0,0,0-.08-.27.5.5,0,0,0-.22-.16.57.57,0,0,0-.25-.06.67.67,0,0,0-.28.06.55.55,0,0,0-.23.17.49.49,0,0,0-.1.3v2Z"/><path d="M97.93,13.33l1.51-4.5H100l-1.51,4.5Z"/><path d="M101.62,13.23a1.21,1.21,0,0,1-1-.42,1.89,1.89,0,0,1-.35-1.21,2.17,2.17,0,0,1,.15-.84,1.09,1.09,0,0,1,1.1-.75,1.25,1.25,0,0,1,.35,0,1,1,0,0,1,.28.12,1,1,0,0,1,.21.17,1.1,1.1,0,0,1,.14.18V8.71h.73v4.46h-.54l-.08-.64a1.66,1.66,0,0,1-.11.24,1,1,0,0,1-.19.22.92.92,0,0,1-.29.17A1.11,1.11,0,0,1,101.62,13.23Zm.15-.54a.68.68,0,0,0,.58-.25,1.57,1.57,0,0,0,.18-.86,1.77,1.77,0,0,0-.09-.56.65.65,0,0,0-.24-.35.7.7,0,0,0-.42-.12.68.68,0,0,0-.54.24,1.22,1.22,0,0,0-.21.79,1.46,1.46,0,0,0,.19.83A.63.63,0,0,0,101.77,12.69Z"/><path d="M105.24,13.23a1.21,1.21,0,0,1-1-.42,1.89,1.89,0,0,1-.35-1.21,2.38,2.38,0,0,1,.14-.84,1.23,1.23,0,0,1,.43-.56,1.14,1.14,0,0,1,.68-.19,1.25,1.25,0,0,1,.35,0,1,1,0,0,1,.28.12,1.93,1.93,0,0,1,.21.17.68.68,0,0,1,.13.18V8.71h.74v4.46h-.54l-.08-.64a1.66,1.66,0,0,1-.11.24A1,1,0,0,1,106,13a.87.87,0,0,1-.3.17A1,1,0,0,1,105.24,13.23Zm.15-.54a.65.65,0,0,0,.57-.25,1.57,1.57,0,0,0,.18-.86,1.54,1.54,0,0,0-.08-.56.65.65,0,0,0-.24-.35.7.7,0,0,0-.42-.12.68.68,0,0,0-.54.24,1.22,1.22,0,0,0-.22.79,1.45,1.45,0,0,0,.2.83A.62.62,0,0,0,105.39,12.69Z"/><path d="M107.37,13.33l1.51-4.5h.53l-1.51,4.5Z"/><path d="M110.32,14.16a1.47,1.47,0,0,1-.53-.09V13.6h.31a1.37,1.37,0,0,0,.31,0,.38.38,0,0,0,.18-.09.35.35,0,0,0,.1-.11.93.93,0,0,0,0-.1l.08-.23-1.21-3h.73l.82,2.19.82-2.19h.72l-1.28,3.21a1.88,1.88,0,0,1-.31.54.9.9,0,0,1-.36.27A1.55,1.55,0,0,1,110.32,14.16Z"/><path d="M113.71,14.16a1.51,1.51,0,0,1-.53-.09V13.6h.31a1.37,1.37,0,0,0,.31,0,.38.38,0,0,0,.18-.09.26.26,0,0,0,.1-.11.93.93,0,0,0,0-.1l.08-.23-1.21-3h.73l.82,2.19.83-2.19h.71l-1.28,3.21a1.67,1.67,0,0,1-.31.54.9.9,0,0,1-.36.27A1.43,1.43,0,0,1,113.71,14.16Z"/><path d="M117.11,14.16a1.53,1.53,0,0,1-.54-.09V13.6h.31a1.37,1.37,0,0,0,.31,0,.48.48,0,0,0,.19-.09.31.31,0,0,0,.09-.11.93.93,0,0,0,0-.1l.08-.23-1.2-3h.72l.83,2.19.82-2.19h.71l-1.28,3.21a1.67,1.67,0,0,1-.31.54.9.9,0,0,1-.36.27A1.42,1.42,0,0,1,117.11,14.16Z"/><path d="M120.5,14.16a1.44,1.44,0,0,1-.53-.09V13.6h.31a1.28,1.28,0,0,0,.3,0,.42.42,0,0,0,.19-.09.35.35,0,0,0,.1-.11l0-.1.08-.23-1.21-3h.73l.82,2.19.82-2.19h.72l-1.28,3.21a1.88,1.88,0,0,1-.31.54.86.86,0,0,1-.37.27A1.42,1.42,0,0,1,120.5,14.16Z"/><path d="M140.17,23.24h-1.82v1.93h-.73V20.83h.73v1.79h1.82V20.83h.73v4.34h-.73Z"/><path d="M142.61,20.83v.69h-.72v-.69Zm0,1.24v3.1h-.7v-3.1Z"/><path d="M144.65,25.23a1.78,1.78,0,0,1-.61-.11,1.13,1.13,0,0,1-.49-.32,1.06,1.06,0,0,1-.24-.57H144a.69.69,0,0,0,.15.28.58.58,0,0,0,.25.15.79.79,0,0,0,.3.05,1,1,0,0,0,.45-.09.33.33,0,0,0,.18-.3.29.29,0,0,0-.1-.23.64.64,0,0,0-.31-.14l-.59-.13a1.42,1.42,0,0,1-.63-.29.69.69,0,0,1-.24-.57.85.85,0,0,1,.14-.49.91.91,0,0,1,.42-.34,1.71,1.71,0,0,1,.69-.12,1.45,1.45,0,0,1,.87.24.83.83,0,0,1,.33.69h-.62a.45.45,0,0,0-.19-.32.7.7,0,0,0-.4-.11.77.77,0,0,0-.42.1.34.34,0,0,0-.17.3.23.23,0,0,0,.13.22,1.1,1.1,0,0,0,.37.14l.56.14a1.34,1.34,0,0,1,.4.16,1,1,0,0,1,.24.22,1.42,1.42,0,0,1,.12.25,1.12,1.12,0,0,1,0,.24.85.85,0,0,1-.15.51,1.07,1.07,0,0,1-.44.33A1.92,1.92,0,0,1,144.65,25.23Z"/><path d="M148.29,22.58h-.69v1.78a.49.49,0,0,0,0,.2.16.16,0,0,0,.11.09l.19,0h.38v.46a.6.6,0,0,1-.18,0,1.42,1.42,0,0,1-.33,0,1.46,1.46,0,0,1-.57-.1.55.55,0,0,1-.28-.28,1.14,1.14,0,0,1-.08-.43V22.58h-.5v-.51h.52l.19-.92h.52v.91h.69Z"/><path d="M150.24,25.23a1.49,1.49,0,0,1-.77-.19,1.29,1.29,0,0,1-.51-.55,2.18,2.18,0,0,1,0-1.71,1.41,1.41,0,0,1,.51-.57,1.52,1.52,0,0,1,.79-.2,1.49,1.49,0,0,1,.77.19,1.3,1.3,0,0,1,.5.56,1.93,1.93,0,0,1,.18.87,2,2,0,0,1-.17.83A1.36,1.36,0,0,1,151,25,1.53,1.53,0,0,1,150.24,25.23Zm0-.56a.63.63,0,0,0,.41-.13.94.94,0,0,0,.25-.38,1.82,1.82,0,0,0,.08-.55,1.72,1.72,0,0,0-.08-.52.77.77,0,0,0-.23-.39.6.6,0,0,0-.43-.14.64.64,0,0,0-.42.13.7.7,0,0,0-.25.37,1.55,1.55,0,0,0-.08.55,1.72,1.72,0,0,0,.07.52.84.84,0,0,0,.24.4A.64.64,0,0,0,150.25,24.67Z"/><path d="M152.36,25.17v-3.1h.7v.67a1.51,1.51,0,0,1,.22-.37.92.92,0,0,1,.35-.26,1,1,0,0,1,.47-.1h.07v.7h-.06a1.46,1.46,0,0,0-.58.05.6.6,0,0,0-.33.24.65.65,0,0,0-.11.37v1.8Z"/><path d="M155.51,20.83v.69h-.72v-.69Zm0,1.24v3.1h-.7v-3.1Z"/><path d="M157.68,22a1.48,1.48,0,0,1,.65.14,1.21,1.21,0,0,1,.44.4,1.37,1.37,0,0,1,.19.58h-.62a1,1,0,0,0-.1-.27.88.88,0,0,0-.22-.21.63.63,0,0,0-.32-.08.74.74,0,0,0-.58.26,1.18,1.18,0,0,0-.22.79,1.34,1.34,0,0,0,.21.79.69.69,0,0,0,.6.29.57.57,0,0,0,.32-.09.53.53,0,0,0,.21-.21.52.52,0,0,0,.1-.26H159a1.06,1.06,0,0,1-.18.55,1,1,0,0,1-.43.39,1.34,1.34,0,0,1-.66.15,1.45,1.45,0,0,1-.76-.19,1.29,1.29,0,0,1-.52-.54,1.8,1.8,0,0,1-.19-.87,1.93,1.93,0,0,1,.18-.85,1.41,1.41,0,0,1,.51-.57A1.48,1.48,0,0,1,157.68,22Z"/><path d="M160.5,25.23a1.25,1.25,0,0,1-.53-.11.83.83,0,0,1-.37-.32.87.87,0,0,1-.13-.5.88.88,0,0,1,.37-.77,2.18,2.18,0,0,1,1.18-.27h.46V23a.53.53,0,0,0-.14-.39.62.62,0,0,0-.46-.13.8.8,0,0,0-.41.1.55.55,0,0,0-.25.35h-.62a1,1,0,0,1,.19-.54,1,1,0,0,1,.45-.32,2,2,0,0,1,.68-.1,2.1,2.1,0,0,1,.72.11.82.82,0,0,1,.41.34,1,1,0,0,1,.13.53v2.18h-.61l-.06-.56a1,1,0,0,1-.42.49A1.42,1.42,0,0,1,160.5,25.23Zm.24-.5a.58.58,0,0,0,.26-.05.7.7,0,0,0,.24-.13.75.75,0,0,0,.17-.19.36.36,0,0,0,.07-.22v-.49h-.38a1.77,1.77,0,0,0-.49.06.75.75,0,0,0-.33.18.45.45,0,0,0-.12.33.45.45,0,0,0,.17.37A.61.61,0,0,0,160.74,24.73Z"/><path d="M164,25.21a1.28,1.28,0,0,1-.48-.07.64.64,0,0,1-.27-.2.74.74,0,0,1-.12-.29,1.66,1.66,0,0,1,0-.32V20.71h.72v3.54a.54.54,0,0,0,.08.31.37.37,0,0,0,.27.13h.15v.45l-.16.05Z"/><path d="M139.32,25.77a1.74,1.74,0,0,1,.84.19,1.62,1.62,0,0,1,.6.53,1.58,1.58,0,0,1,.27.73h-.77a1.25,1.25,0,0,0-.17-.43.93.93,0,0,0-.32-.3,1,1,0,0,0-.47-.11,1,1,0,0,0-.59.17,1.06,1.06,0,0,0-.37.51,3,3,0,0,0-.13.92,2.15,2.15,0,0,0,.29,1.25.93.93,0,0,0,.8.39.89.89,0,0,0,.47-.12.92.92,0,0,0,.32-.33,1.3,1.3,0,0,0,.17-.44H141a2.73,2.73,0,0,1-.15.56,1.55,1.55,0,0,1-.32.48,1.24,1.24,0,0,1-.51.34,2,2,0,0,1-.73.12,1.77,1.77,0,0,1-1-.28,1.69,1.69,0,0,1-.66-.78,2.89,2.89,0,0,1-.23-1.2,2.82,2.82,0,0,1,.23-1.18,1.73,1.73,0,0,1,.65-.76A2,2,0,0,1,139.32,25.77Z"/><path d="M143.6,30.23a2,2,0,0,1-1-.27,1.67,1.67,0,0,1-.67-.76,3.1,3.1,0,0,1,0-2.39,1.77,1.77,0,0,1,.68-.77,2.08,2.08,0,0,1,2.05,0,1.77,1.77,0,0,1,.68.77,3.22,3.22,0,0,1,0,2.39,1.72,1.72,0,0,1-.67.76A1.91,1.91,0,0,1,143.6,30.23Zm0-.61a1.09,1.09,0,0,0,.61-.17,1,1,0,0,0,.39-.52,2.56,2.56,0,0,0,.14-.91,2.68,2.68,0,0,0-.14-.93,1,1,0,0,0-1-.71,1,1,0,0,0-.61.18,1.06,1.06,0,0,0-.4.53,2.68,2.68,0,0,0-.14.93,2.56,2.56,0,0,0,.14.91,1,1,0,0,0,.4.52A1.09,1.09,0,0,0,143.6,29.62Z"/><path d="M149.74,25.83l-1.52,4.34h-.85l-1.49-4.34h.7l1.22,3.5,1.23-3.5Z"/><path d="M150.39,25.83h.73v4.34h-.73Z"/><path d="M152.17,25.83h1.17a2.93,2.93,0,0,1,1.28.27,1.57,1.57,0,0,1,.73.73,2.46,2.46,0,0,1,.24,1.14,2.67,2.67,0,0,1-.25,1.18,1.67,1.67,0,0,1-.76.75,2.87,2.87,0,0,1-1.29.26h-1.12Zm.74.6v3.14h.39a2,2,0,0,0,.79-.16,1.14,1.14,0,0,0,.54-.5,2.36,2.36,0,0,0,0-1.83,1.1,1.1,0,0,0-.52-.5,1.94,1.94,0,0,0-.8-.15Z"/><path d="M157.85,28.35v.54h-1.59v-.55Z"/><path d="M159.27,28.79a1.11,1.11,0,0,0,.09.46.62.62,0,0,0,.25.32.75.75,0,0,0,.43.12.81.81,0,0,0,.43-.11.72.72,0,0,0,.27-.36h.67a1.28,1.28,0,0,1-.27.56,1.39,1.39,0,0,1-.49.34,1.73,1.73,0,0,1-.6.11,1.57,1.57,0,0,1-.79-.19,1.4,1.4,0,0,1-.53-.55,1.8,1.8,0,0,1-.19-.84,1.93,1.93,0,0,1,.18-.85,1.34,1.34,0,0,1,.5-.58,1.62,1.62,0,0,1,1.56,0,1.23,1.23,0,0,1,.48.55,2,2,0,0,1,.16.81v.23Zm0-.46h1.46a1,1,0,0,0-.08-.4.68.68,0,0,0-.24-.29.72.72,0,0,0-.4-.11.69.69,0,0,0-.41.12.81.81,0,0,0-.25.3A1,1,0,0,0,159.27,28.33Z"/><path d="M162.11,30.17v-3.1h.7v.67a1.07,1.07,0,0,1,.22-.37,1,1,0,0,1,.34-.26,1.06,1.06,0,0,1,.48-.1h.07v.7h-.07a1.48,1.48,0,0,0-.58.05.6.6,0,0,0-.33.24.64.64,0,0,0-.1.37v1.8Z"/><path d="M165.31,30.23a1.32,1.32,0,0,1-.53-.11.83.83,0,0,1-.37-.32.87.87,0,0,1-.13-.5.88.88,0,0,1,.37-.77,2.21,2.21,0,0,1,1.18-.27h.47V28a.5.5,0,0,0-.15-.39.61.61,0,0,0-.45-.13.87.87,0,0,0-.42.1A.51.51,0,0,0,165,28h-.62a.94.94,0,0,1,.18-.54,1,1,0,0,1,.46-.32,2,2,0,0,1,.67-.1,2,2,0,0,1,.72.11.85.85,0,0,1,.42.34A1.12,1.12,0,0,1,167,28v2.18h-.62l-.06-.56a1,1,0,0,1-.42.49A1.38,1.38,0,0,1,165.31,30.23Zm.24-.5a.65.65,0,0,0,.27-.05.7.7,0,0,0,.24-.13,1,1,0,0,0,.17-.19.57.57,0,0,0,.07-.22v-.49h-.39a1.83,1.83,0,0,0-.49.06.75.75,0,0,0-.33.18.53.53,0,0,0,0,.7A.63.63,0,0,0,165.55,29.73Z"/><path d="M169.71,28.79a1.3,1.3,0,0,0,.08.46.7.7,0,0,0,.26.32.72.72,0,0,0,.42.12.84.84,0,0,0,.44-.11.72.72,0,0,0,.27-.36h.66a1.09,1.09,0,0,1-.27.56,1.27,1.27,0,0,1-.48.34,1.73,1.73,0,0,1-.6.11,1.57,1.57,0,0,1-.79-.19,1.34,1.34,0,0,1-.53-.55,1.68,1.68,0,0,1-.19-.84,2.08,2.08,0,0,1,.17-.85,1.41,1.41,0,0,1,.5-.58,1.47,1.47,0,0,1,.8-.21,1.44,1.44,0,0,1,.77.19,1.21,1.21,0,0,1,.47.55,1.86,1.86,0,0,1,.16.81v.23Zm0-.46h1.45a.87.87,0,0,0-.08-.4.66.66,0,0,0-.23-.29.73.73,0,0,0-.41-.11.65.65,0,0,0-.4.12.81.81,0,0,0-.25.3A.84.84,0,0,0,169.71,28.33Z"/><path d="M175,27.07l-1.14,3.1h-.58l-1.15-3.1h.67l.75,2.17h0l.74-2.17Z"/><path d="M176,28.79a1,1,0,0,0,.08.46.64.64,0,0,0,.26.32.7.7,0,0,0,.42.12.87.87,0,0,0,.44-.11.65.65,0,0,0,.26-.36h.67a1.09,1.09,0,0,1-.27.56,1.31,1.31,0,0,1-.49.34,1.63,1.63,0,0,1-.59.11A1.57,1.57,0,0,1,176,30a1.34,1.34,0,0,1-.53-.55,1.68,1.68,0,0,1-.19-.84,1.93,1.93,0,0,1,.17-.85,1.41,1.41,0,0,1,.5-.58,1.43,1.43,0,0,1,.79-.21,1.46,1.46,0,0,1,.78.19,1.27,1.27,0,0,1,.47.55,1.86,1.86,0,0,1,.16.81v.23Zm0-.46h1.46a.87.87,0,0,0-.08-.4.62.62,0,0,0-.24-.29.7.7,0,0,0-.4-.11.69.69,0,0,0-.41.12.78.78,0,0,0-.24.3A.85.85,0,0,0,176,28.33Z"/><path d="M178.8,30.17v-3.1h.72v.44a1,1,0,0,1,.19-.23,1.33,1.33,0,0,1,.31-.18,1.38,1.38,0,0,1,.43-.07,1.25,1.25,0,0,1,.54.12.9.9,0,0,1,.4.35,1.18,1.18,0,0,1,.15.63v2h-.73v-2a.59.59,0,0,0-.17-.46.63.63,0,0,0-.43-.15,1,1,0,0,0-.33.06.64.64,0,0,0-.25.18.48.48,0,0,0-.1.29v2Z"/><path d="M183.93,27.58h-.69v1.78a.49.49,0,0,0,0,.2.15.15,0,0,0,.1.09l.2,0H184v.46a.6.6,0,0,1-.18,0,1.48,1.48,0,0,1-.33,0,1.39,1.39,0,0,1-.57-.1.55.55,0,0,1-.28-.28,1.14,1.14,0,0,1-.08-.43V27.58H182v-.51h.52l.18-.92h.53v.91h.69Z"/><circle cx="105.1" cy="41.18" r="1.75"/><line class="ebe7dc22-d03c-4d97-9e40-e60d97a635f0" x1="108.36" y1="39.52" x2="136" y2="26.18"/><path class="b5799aa3-9f09-4e81-aa6a-158721018f39" d="M107,40.18a7.64,7.64,0,0,1,2.44.14l-.91-.88-.12-1.26A8,8,0,0,1,107,40.18Z"/><path class="b8fd4ca5-d114-499f-93f1-efbc99b3bd09" d="M224.43,17.74a4.19,4.19,0,0,0-1-.17c-.37,0-.94.09-1,.29a3,3,0,0,0,.22,1.13c.12.37.65,1,.53,1.38a30.8,30.8,0,0,1-1.44,3.41,28.23,28.23,0,0,1-.88-3.85c0-.37,0-.74.08-1.1a2.64,2.64,0,0,0-.16-1,3,3,0,0,0-1.47.17c-.18.08-.29.79-.13,1,.92,1.51.44,3.15.62,4.75-.49-.4-.9-1-1.3-1-.69,0-1.14.58-1.09,1.43-.59-1.16-1.09-2.31-1.57-3.46a.93.93,0,0,1-.06-.52c.27-1.09-.1-1.54-1.26-1.29-.39.08-1,.41-1,.71s.38.74.63,1.09c.13.19.44.3.48.49.21,1,.35,2.05.52,3.08l-.25.09c-.58-1.35-1.1-2.71-1.68-4.06-.14-.32-.55-.79-.73-.75a1.93,1.93,0,0,0-1.14.75c-.21.37,0,.84.58.92a.55.55,0,0,1,.36.25c.53,1.26,1,2.53,1.65,4-.45-.19-.67-.21-.75-.33a7,7,0,0,1-.81-1.33c-.53-1.16-1.55-2.16-1.51-3.63,0-.93-.88-1.24-1.65-.72a9.75,9.75,0,0,0-.84.59,1.09,1.09,0,0,0-.31,1.51,1.13,1.13,0,0,0,.45.39c.56.41,1.06.92,1.58,1.38-.43.16-.79,0-1,.15a4.75,4.75,0,0,0-1.18,1.27c-.09.15.27.82.53.9,1.06.33,1.37,1.27,1.89,2.05a1.32,1.32,0,0,1,.08.52h-.58a3.08,3.08,0,0,0-1,.16c-.34.17-.6.65-.91.67a2.33,2.33,0,0,1-1.18-.49c-.93-.6-1.84-1.24-2.74-1.89-.19-.13-.26-.41-.45-.55s-.78-.53-.86-.47a11,11,0,0,0-1.13,1.4,9.43,9.43,0,0,0,1,.64c.42.21.88.34,1.32.51v.26c-1,.1-1.38.74-1.65,1.56s0,1.3.77,1.19c1.48-.21,2,1,2.85,1.78a30.85,30.85,0,0,1-4.34-1.27c-.27-.1-.39-.57-.66-.72s-.87-.35-1-.21c-.42.37-1.09.78-.68,1.51.1.2.67.38.77.29.76-.68,1.22-.07,1.76.31L204,34.41c.25.18.49.4.53.43a6.47,6.47,0,0,0-1.06,1.52c-.06.19.55.6.94,1l-.29,1a13.42,13.42,0,0,1-1.74-.75,1.2,1.2,0,0,0-1.69.19,1,1,0,0,0-.15.25,1.79,1.79,0,0,1-2,.46c-1.36-.81-1.85-.57-1.91,1a1.12,1.12,0,0,0,.43.88,2.08,2.08,0,0,0,1.08-.08c.28-.06.56-.31.8-.27,1.31.21,2.6.49,3.9.75A1.24,1.24,0,0,1,203.9,42a4.12,4.12,0,0,1-.86,0,5.72,5.72,0,0,0-3.52.08c-.19.08-.49-.15-.74-.17-.44,0-1-.17-1.3,0a1.52,1.52,0,0,0-.45,1.28,4.51,4.51,0,0,0,.83,1.4c.23.25.2.64.32,1s.32.67.56.73.93,0,1-.19c.32-.76.91-.55,1.46-.58s1.17-.09,1.75-.17c1.57-.27,1.57-.26,1.85,1.27.09.58.24,1.51,0,1.73-1.47,1.12-2.69,2.78-4.88,2.56a3.52,3.52,0,0,0-1,.31c.34.72.58,1.36.93,1.94a.94.94,0,0,0,1.62,0,1.81,1.81,0,0,1,.42-.6c1.14-.55,2.27-1.11,3.43-1.58s2.63.77,2.29,1.89a8.32,8.32,0,0,1-1.56,2.41,1.5,1.5,0,0,1-.92.39c-.6.07-1.11.33-1,.94a4.66,4.66,0,0,0,.83,1.72,1.4,1.4,0,0,0,1,.4c.14,0,.36-.56.37-.87a1.45,1.45,0,0,1,1.51-1.39,1.17,1.17,0,0,1,.45.09,1,1,0,0,0,1.3-.56.94.94,0,0,0,.07-.37,2.11,2.11,0,0,0-.06-.6c1.23.07,2.58,1.72,2.21,2.67-.43,1.12-.88,2.24-1.38,3.34-.09.21-.42.32-.62.49s-.68.6-1,.9a6.61,6.61,0,0,0,1.4,1c.31.11.78-.2,1.16-.35,0,0,0-.28,0-.43a2.13,2.13,0,0,1,.15-1c.58-.87,1.33-1.64,1.83-2.55a1.64,1.64,0,0,1,2.06-.89,15.79,15.79,0,0,1,2.14.6.91.91,0,0,1,.54.69A7.1,7.1,0,0,1,217,64c-.51.66-.31,1.15.51,1.35a4.78,4.78,0,0,0,1.54.25,2.38,2.38,0,0,0,1.26-.59c.11-.1-.12-.67-.28-1a1.32,1.32,0,0,1,.66-1.7c1.07-.39,1.19-.89.33-1.88l.76-.6a8,8,0,0,1,.38.84,3.44,3.44,0,0,1,.36,1.22c0,1.26.74,2.48,0,3.78a.61.61,0,0,0,.66.91,4.57,4.57,0,0,0,.74,0c.39-.08,1-.15,1.1-.38s-.22-.81-.27-1.23a11.07,11.07,0,0,1-.3-3.29c.15-.8.41-1.44-.38-2.2.81-.08,1.46-.16,2.1-.18,0,0,.1.38.17.57.15.38.3,1.08.46,1.08a3.1,3.1,0,0,0,1.66-.38c.18-.11.09-.8,0-1.2a3.16,3.16,0,0,0-.46-.87c1.72,1.65,3.12,3.46,2.7,6.12a9.83,9.83,0,0,0,1.31-.38c.28-.14.72-.41.71-.6s-.35-.58-.57-.85a7.19,7.19,0,0,1-1-1.09c-.44-1-.78-2.13-1.13-3.21a3.1,3.1,0,0,1,0-.86c.62.66,1.54,1.05,1.38,2.1a.42.42,0,0,0,.16.32c.65.25.68.78.77,1.37,0,.25.58.67.77.61a4.25,4.25,0,0,0,1.47-.78.89.89,0,0,0-.3-.67c-1.08-.37-.77-1.11-.54-1.89.84.6,1.68,1.11,1.2,2.38-.09.22.24.69.49.89a1,1,0,0,0,.81-.1,3.78,3.78,0,0,0,.89-.8c.16-.18.36-.53.29-.66a2,2,0,0,0-.73-.61c-.25-.14-.67-.13-.79-.33-.82-1.33-1.59-2.7-2.37-4.05l-.07.08c.61,0,1.16.16,1.45,0,.56-.38,1-1,.42-1.72-.11-.14,0-.41,0-.82,1.1.68,2,1.22,2.91,1.82.2.15.24.51.4.75a8.47,8.47,0,0,0,.58.76,6,6,0,0,0,.87-1.19c.06-.15-.39-.75-.55-.73-1.47.12-2-1-3-1.78,1.51-.48,2.16.88,3.24,1s1.76,1.17,2.52,2l1.24-2a21.34,21.34,0,0,1-2.06-.79c-.67-.36-1.27-.87-1.92-1.26s-1.39-.47-1.63-1.35c1.18.3,2.28.55,3.36.89a3.5,3.5,0,0,1,1,.75c.34.28.71.85,1,.8a1.84,1.84,0,0,0,1-.92,1.15,1.15,0,0,0,0-1.08c-.19-.23-.7-.22-1.07-.25s-.66.18-.87.07c-1.18-.68-2.32-1.42-3.47-2.14L239,48c1.15.5,2.57-.11,3.59,1.07a1.43,1.43,0,0,0,1.37-.17,2,2,0,0,0,.23-1.58,1.27,1.27,0,0,0-1.11-.52c-1.15.68-1.89-.17-2.55-.4l.28-2a6.71,6.71,0,0,1,1.18-.17,6.81,6.81,0,0,1,2.54.27c1.2.57,1.37.6,1.54-.74,0-.27-.06-.78-.17-.8a2.42,2.42,0,0,0-1,.12c-.39.08-.8.34-1.16.28a27.64,27.64,0,0,1-3.25-.7c-.31-.08-.76-.36-.8-.61a.85.85,0,0,1,.6-1l.21,0c1-.11,2.09,1,3.11-.06,0,0,.14.13.22.13.44,0,1,.16,1.27-.07a2.32,2.32,0,0,0,.47-1.41,2.64,2.64,0,0,0-.26-1c.41,0,1,.08,1,0a3.13,3.13,0,0,0,0-1.22c0-.67-.39-.6-.89-.37a5,5,0,0,1-1.66.49c-1.19.05-2.38,0-3.58-.06a.81.81,0,0,1-.55-.25c-.38-.67-.73-1.35-1.05-2.05-.06-.12,0-.43.11-.47.59-.29,1.06-.94,1.91-.48a.79.79,0,0,0,1.09-.23.81.81,0,0,0,.13-.45,16.68,16.68,0,0,0,0-2c.39-.05.87-.13,1.35-.16s1,0,.82-.61A8.19,8.19,0,0,0,242.82,29c-.15.29-.28.43-.29.57,0,1-.82,1.27-1.58,1.55-.57.22-1.14.46-1.71.71-1.8.78-3,.27-3.65-1.66.59-.41,1.17-.82.8-1.72-.06-.15.16-.5.33-.65,1-.84,2-1.62,3-2.47.19-.17.32-.71.21-.84-.39-.44-.91-1.11-1.35-1.09a5.48,5.48,0,0,0-2,.9.51.51,0,0,0-.11.43c.46,1.23-.5,1.66-1.25,2.15a2.73,2.73,0,0,1-3.44-.13,1.26,1.26,0,0,1-.3-1,19.41,19.41,0,0,1,1-1.92c.13-.25.11-.57.23-.82a4.29,4.29,0,0,1,.93-1.73c.65-.5.79-.57.11-1.08a10.27,10.27,0,0,0-1.16-.67,6,6,0,0,1-.29,1.72c-.23.44-.73.75-1.29,1.29-.17-1.34-1-1.5-1.72-1.65s-1,.28-.83,1a1.53,1.53,0,0,1,.06.85c-.3.7-.68,1.37-1.14,2.28-.64-.61-1.73-1.16-1.75-1.75a8.72,8.72,0,0,1,1.1-5,1.3,1.3,0,0,0,0-1.21C226.25,16.37,224.78,16.79,224.43,17.74Z"/><path d="M204.47,13.17v-3.1h.71v.44a1.25,1.25,0,0,1,.37-.35,1.05,1.05,0,0,1,.59-.15,1.4,1.4,0,0,1,.34.05,1.17,1.17,0,0,1,.31.17.77.77,0,0,1,.23.28,1.07,1.07,0,0,1,.4-.36A1,1,0,0,1,208,10a1,1,0,0,1,.34.05,1.06,1.06,0,0,1,.33.18.87.87,0,0,1,.24.34,1.29,1.29,0,0,1,.1.55v2h-.73V11.22a.75.75,0,0,0-.08-.37.51.51,0,0,0-.21-.18.66.66,0,0,0-.27-.06.86.86,0,0,0-.27.05.56.56,0,0,0-.24.17.5.5,0,0,0-.1.31v2h-.72V11.1a.4.4,0,0,0-.09-.27.54.54,0,0,0-.21-.16.62.62,0,0,0-.26-.06.66.66,0,0,0-.27.06.53.53,0,0,0-.24.17.49.49,0,0,0-.09.3v2Z"/><path d="M209.77,13.17v-3.1h.72v.44a1.34,1.34,0,0,1,.36-.35,1.09,1.09,0,0,1,.6-.15,1.26,1.26,0,0,1,.33.05,1.23,1.23,0,0,1,.32.17.31.31,0,1,0,.62-.08,1,1,0,0,1,.55-.14,1.1,1.1,0,0,1,.35.05,1.14,1.14,0,0,1,.32.18.89.89,0,0,1,.25.34,1.47,1.47,0,0,1,.09.55v2h-.73V11.22a.75.75,0,0,0-.08-.37.41.41,0,0,0-.21-.18.6.6,0,0,0-.27-.06.86.86,0,0,0-.27.05.56.56,0,0,0-.24.17.5.5,0,0,0-.09.31v2h-.73V11.1a.46.46,0,0,0-.08-.27.5.5,0,0,0-.22-.16.57.57,0,0,0-.25-.06.67.67,0,0,0-.28.06.55.55,0,0,0-.23.17.44.44,0,0,0-.1.3v2Z"/><path d="M214.73,13.33l1.51-4.5h.53l-1.51,4.5Z"/><path d="M218.42,13.23a1.21,1.21,0,0,1-1-.42,1.89,1.89,0,0,1-.35-1.21,2.38,2.38,0,0,1,.14-.84,1.23,1.23,0,0,1,.43-.56,1.14,1.14,0,0,1,.68-.19,1.25,1.25,0,0,1,.35,0,1,1,0,0,1,.28.12,1,1,0,0,1,.21.17,1.1,1.1,0,0,1,.14.18V8.71h.73v4.46h-.54l-.08-.64a1.66,1.66,0,0,1-.11.24,1,1,0,0,1-.19.22.92.92,0,0,1-.29.17A1.11,1.11,0,0,1,218.42,13.23Zm.15-.54a.65.65,0,0,0,.57-.25,1.48,1.48,0,0,0,.19-.86,1.77,1.77,0,0,0-.09-.56.65.65,0,0,0-.24-.35.7.7,0,0,0-.42-.12.68.68,0,0,0-.54.24,1.22,1.22,0,0,0-.21.79,1.46,1.46,0,0,0,.19.83A.62.62,0,0,0,218.57,12.69Z"/><path d="M222,13.23a1.21,1.21,0,0,1-1-.42,1.89,1.89,0,0,1-.35-1.21,2.38,2.38,0,0,1,.14-.84,1.23,1.23,0,0,1,.43-.56A1.14,1.14,0,0,1,222,10a1.25,1.25,0,0,1,.35,0,1,1,0,0,1,.28.12,1.93,1.93,0,0,1,.21.17.68.68,0,0,1,.13.18V8.71h.74v4.46h-.54l-.08-.64a1.66,1.66,0,0,1-.11.24,1,1,0,0,1-.19.22.87.87,0,0,1-.3.17A1.06,1.06,0,0,1,222,13.23Zm.15-.54a.65.65,0,0,0,.57-.25,1.57,1.57,0,0,0,.18-.86,1.79,1.79,0,0,0-.08-.56.65.65,0,0,0-.24-.35.7.7,0,0,0-.42-.12.68.68,0,0,0-.54.24,1.17,1.17,0,0,0-.22.79,1.45,1.45,0,0,0,.2.83A.62.62,0,0,0,222.19,12.69Z"/><path d="M224.17,13.33l1.51-4.5h.53l-1.51,4.5Z"/><path d="M227.12,14.16a1.44,1.44,0,0,1-.53-.09V13.6h.31a1.42,1.42,0,0,0,.31,0,.38.38,0,0,0,.18-.09.35.35,0,0,0,.1-.11.93.93,0,0,0,0-.1l.08-.23-1.21-3h.73l.82,2.19.82-2.19h.72l-1.28,3.21a1.88,1.88,0,0,1-.31.54.86.86,0,0,1-.37.27A1.42,1.42,0,0,1,227.12,14.16Z"/><path d="M230.51,14.16a1.51,1.51,0,0,1-.53-.09V13.6h.31a1.37,1.37,0,0,0,.31,0,.38.38,0,0,0,.18-.09.26.26,0,0,0,.1-.11l.05-.1.08-.23-1.21-3h.73l.82,2.19.82-2.19h.72l-1.28,3.21a1.88,1.88,0,0,1-.31.54.9.9,0,0,1-.36.27A1.49,1.49,0,0,1,230.51,14.16Z"/><path d="M233.91,14.16a1.53,1.53,0,0,1-.54-.09V13.6h.31a1.37,1.37,0,0,0,.31,0,.48.48,0,0,0,.19-.09.31.31,0,0,0,.09-.11.93.93,0,0,0,0-.1l.08-.23-1.2-3h.72l.83,2.19.82-2.19h.71L235,13.28a1.67,1.67,0,0,1-.31.54.9.9,0,0,1-.36.27A1.42,1.42,0,0,1,233.91,14.16Z"/><path d="M237.3,14.16a1.44,1.44,0,0,1-.53-.09V13.6h.31a1.28,1.28,0,0,0,.3,0,.42.42,0,0,0,.19-.09.35.35,0,0,0,.1-.11.93.93,0,0,1,.05-.1l.08-.23-1.21-3h.73l.82,2.19.82-2.19h.71l-1.27,3.21a1.88,1.88,0,0,1-.31.54.93.93,0,0,1-.37.27A1.42,1.42,0,0,1,237.3,14.16Z"/><path d="M192.32,5.17V.83h1.05l1.14,3.32L195.65.83h1V5.17H196V1.77l-1.14,3.4h-.61l-1.13-3.38V5.17Z"/><path d="M198.15,3.79a1.3,1.3,0,0,0,.08.46.7.7,0,0,0,.26.32.75.75,0,0,0,.43.12.83.83,0,0,0,.43-.11.72.72,0,0,0,.27-.36h.66a1.09,1.09,0,0,1-.27.56,1.27,1.27,0,0,1-.48.34,1.73,1.73,0,0,1-.6.11,1.57,1.57,0,0,1-.79-.19,1.4,1.4,0,0,1-.53-.55,1.8,1.8,0,0,1-.19-.84,2.08,2.08,0,0,1,.17-.85,1.49,1.49,0,0,1,.5-.58,1.47,1.47,0,0,1,.8-.21,1.44,1.44,0,0,1,.77.19,1.15,1.15,0,0,1,.47.55,1.86,1.86,0,0,1,.17.81v.23Zm0-.46h1.46a1,1,0,0,0-.08-.4.76.76,0,0,0-.24-.29.72.72,0,0,0-.4-.11.66.66,0,0,0-.41.12.81.81,0,0,0-.25.3A1,1,0,0,0,198.15,3.33Z"/><path d="M201,5.17V2.07h.71v.44a1.25,1.25,0,0,1,.37-.35,1.05,1.05,0,0,1,.59-.15,1.26,1.26,0,0,1,.33.05,1.23,1.23,0,0,1,.32.17.89.89,0,0,1,.23.28,1.12,1.12,0,0,1,.39-.36,1,1,0,0,1,.55-.14,1,1,0,0,1,.68.23.87.87,0,0,1,.24.34,1.29,1.29,0,0,1,.1.55v2h-.73V3.22a.65.65,0,0,0-.09-.37.43.43,0,0,0-.2-.18.67.67,0,0,0-.28-.06.85.85,0,0,0-.26.05.46.46,0,0,0-.24.17.45.45,0,0,0-.1.31v2h-.72V3.1a.4.4,0,0,0-.09-.27.54.54,0,0,0-.21-.16.62.62,0,0,0-.26-.06.74.74,0,0,0-.28.06.55.55,0,0,0-.23.17.49.49,0,0,0-.09.3v2Z"/><path d="M207.58,5.23a1.47,1.47,0,0,1-.77-.19,1.26,1.26,0,0,1-.52-.55,1.88,1.88,0,0,1-.18-.86,1.9,1.9,0,0,1,.18-.85,1.46,1.46,0,0,1,.5-.57,1.54,1.54,0,0,1,.79-.2,1.44,1.44,0,0,1,.77.19,1.32,1.32,0,0,1,.51.56,1.93,1.93,0,0,1,.18.87,2,2,0,0,1-.17.83,1.38,1.38,0,0,1-.5.57A1.49,1.49,0,0,1,207.58,5.23Zm0-.56a.64.64,0,0,0,.42-.13.83.83,0,0,0,.24-.38,1.55,1.55,0,0,0,.08-.55,1.72,1.72,0,0,0-.07-.52A.94.94,0,0,0,208,2.7a.63.63,0,0,0-.44-.14.64.64,0,0,0-.42.13.84.84,0,0,0-.25.37,1.82,1.82,0,0,0-.08.55,2.11,2.11,0,0,0,.07.52.84.84,0,0,0,.24.4A.68.68,0,0,0,207.58,4.67Z"/><path d="M209.7,5.17V2.07h.7v.67a1.07,1.07,0,0,1,.22-.37,1,1,0,0,1,.34-.26,1.06,1.06,0,0,1,.48-.1h.07v.7h-.07a1.46,1.46,0,0,0-.58,0,.6.6,0,0,0-.33.24.64.64,0,0,0-.1.37v1.8Z"/><path d="M212.9,5.23a1.32,1.32,0,0,1-.53-.11A.83.83,0,0,1,212,4.8a.87.87,0,0,1-.13-.5.88.88,0,0,1,.37-.77,2.21,2.21,0,0,1,1.18-.27h.47V3a.5.5,0,0,0-.15-.39.61.61,0,0,0-.45-.13.87.87,0,0,0-.42.1.53.53,0,0,0-.24.35H212a.94.94,0,0,1,.18-.54,1,1,0,0,1,.46-.32,2,2,0,0,1,.67-.1,2,2,0,0,1,.72.11.78.78,0,0,1,.41.34,1,1,0,0,1,.14.53V5.17H214l-.06-.56a1,1,0,0,1-.42.49A1.38,1.38,0,0,1,212.9,5.23Zm.24-.5a.65.65,0,0,0,.27-.05.7.7,0,0,0,.24-.13,1,1,0,0,0,.17-.19.57.57,0,0,0,.07-.22V3.65h-.39a1.83,1.83,0,0,0-.49.06.75.75,0,0,0-.33.18.44.44,0,0,0-.11.33.44.44,0,0,0,.16.37A.63.63,0,0,0,213.14,4.73Z"/><path d="M217.1,5.23a1.11,1.11,0,0,1-.43-.07.87.87,0,0,1-.3-.17,1,1,0,0,1-.19-.22,1.54,1.54,0,0,1-.1-.24l-.08.64h-.54V.71h.73V2.52a.73.73,0,0,1,.14-.18,1.18,1.18,0,0,1,.2-.17,1.18,1.18,0,0,1,.28-.12,1.29,1.29,0,0,1,.35,0,1.11,1.11,0,0,1,.92.41,1.84,1.84,0,0,1,.33,1.18,2.28,2.28,0,0,1-.15.86,1.16,1.16,0,0,1-1.16.77ZM217,4.69a.67.67,0,0,0,.53-.26,1.34,1.34,0,0,0,.21-.85,1.24,1.24,0,0,0-.2-.77.65.65,0,0,0-.55-.26.73.73,0,0,0-.43.12.78.78,0,0,0-.24.35,1.79,1.79,0,0,0-.08.56,1.57,1.57,0,0,0,.18.86A.65.65,0,0,0,217,4.69Z"/><path d="M220,5.21a1.28,1.28,0,0,1-.48-.07.64.64,0,0,1-.27-.2.74.74,0,0,1-.12-.29,1.67,1.67,0,0,1,0-.32V.71h.71V4.25a.54.54,0,0,0,.08.31.39.39,0,0,0,.27.13h.16v.45l-.17,0Z"/><path d="M221.49,3.79a1.11,1.11,0,0,0,.09.46.64.64,0,0,0,.26.32.7.7,0,0,0,.42.12.87.87,0,0,0,.44-.11.77.77,0,0,0,.26-.36h.67a1.28,1.28,0,0,1-.27.56,1.39,1.39,0,0,1-.49.34,1.73,1.73,0,0,1-.6.11,1.53,1.53,0,0,1-.78-.19,1.36,1.36,0,0,1-.54-.55,1.8,1.8,0,0,1-.19-.84,1.93,1.93,0,0,1,.18-.85,1.34,1.34,0,0,1,.5-.58,1.62,1.62,0,0,1,1.56,0,1.23,1.23,0,0,1,.48.55,2,2,0,0,1,.16.81v.23Zm0-.46H223a1,1,0,0,0-.08-.4.62.62,0,0,0-.24-.29.72.72,0,0,0-.4-.11.69.69,0,0,0-.41.12.7.7,0,0,0-.24.3A.85.85,0,0,0,221.49,3.33Z"/><path d="M225.73.83h1.17a2.94,2.94,0,0,1,1.29.27,1.61,1.61,0,0,1,.73.73A2.6,2.6,0,0,1,229.15,3a2.54,2.54,0,0,1-.25,1.18,1.6,1.6,0,0,1-.75.75,2.89,2.89,0,0,1-1.3.26h-1.12Zm.74.6V4.57h.4a2,2,0,0,0,.79-.16,1.16,1.16,0,0,0,.53-.5,1.89,1.89,0,0,0,.19-.93,1.78,1.78,0,0,0-.18-.9,1.05,1.05,0,0,0-.51-.49,1.83,1.83,0,0,0-.81-.16Z"/><path d="M230.76,5.23a1.32,1.32,0,0,1-.53-.11.83.83,0,0,1-.37-.32.87.87,0,0,1-.13-.5.88.88,0,0,1,.37-.77,2.21,2.21,0,0,1,1.18-.27h.46V3a.49.49,0,0,0-.14-.39.61.61,0,0,0-.45-.13.87.87,0,0,0-.42.1.53.53,0,0,0-.24.35h-.62a.94.94,0,0,1,.18-.54,1,1,0,0,1,.46-.32,2,2,0,0,1,.67-.1,2,2,0,0,1,.72.11.78.78,0,0,1,.41.34,1,1,0,0,1,.14.53V5.17h-.62l-.06-.56a1,1,0,0,1-.42.49A1.38,1.38,0,0,1,230.76,5.23Zm.24-.5a.65.65,0,0,0,.27-.05.7.7,0,0,0,.24-.13,1,1,0,0,0,.17-.19.43.43,0,0,0,.06-.22V3.65h-.38a1.83,1.83,0,0,0-.49.06.75.75,0,0,0-.33.18.45.45,0,0,0-.12.33.45.45,0,0,0,.17.37A.63.63,0,0,0,231,4.73Z"/><path d="M233.61,6.16a1.53,1.53,0,0,1-.54-.09V5.6h.32a1.32,1.32,0,0,0,.3,0,.48.48,0,0,0,.19-.09.52.52,0,0,0,.1-.11l0-.1.09-.23-1.21-3h.73l.82,2.19.82-2.19H236l-1.27,3.21a1.88,1.88,0,0,1-.31.54,1,1,0,0,1-.37.27A1.42,1.42,0,0,1,233.61,6.16Z"/><path d="M239.62,2.07v.51h-.7V5.17h-.73V2.58h-.61V2.07h.61V1.6A.77.77,0,0,1,238.4,1a.81.81,0,0,1,.59-.2h.66v.5h-.43a.3.3,0,0,0-.25.09.55.55,0,0,0-.06.29v.36Z"/><path d="M241.48,5.23a1.47,1.47,0,0,1-.77-.19,1.29,1.29,0,0,1-.51-.55,1.76,1.76,0,0,1-.19-.86,1.9,1.9,0,0,1,.18-.85,1.41,1.41,0,0,1,.51-.57,1.48,1.48,0,0,1,.78-.2,1.44,1.44,0,0,1,.77.19,1.32,1.32,0,0,1,.51.56,1.93,1.93,0,0,1,.18.87,2,2,0,0,1-.17.83,1.32,1.32,0,0,1-.5.57A1.49,1.49,0,0,1,241.48,5.23Zm0-.56a.64.64,0,0,0,.42-.13.83.83,0,0,0,.24-.38,1.55,1.55,0,0,0,.08-.55,1.72,1.72,0,0,0-.07-.52.85.85,0,0,0-.23-.39.63.63,0,0,0-.44-.14.64.64,0,0,0-.42.13.84.84,0,0,0-.25.37,1.82,1.82,0,0,0-.08.55,1.72,1.72,0,0,0,.08.52.76.76,0,0,0,.23.4A.68.68,0,0,0,241.48,4.67Z"/><path d="M243.6,5.17V2.07h.7v.67a1.07,1.07,0,0,1,.22-.37,1,1,0,0,1,.34-.26,1.06,1.06,0,0,1,.48-.1h.07v.7h-.07a1.48,1.48,0,0,0-.58,0,.6.6,0,0,0-.33.24.73.73,0,0,0-.1.37v1.8Z"/><path d="M248.2,5.23a1.29,1.29,0,0,1-.53-.11.83.83,0,0,1-.37-.32.87.87,0,0,1-.14-.5.89.89,0,0,1,.38-.77,2.18,2.18,0,0,1,1.18-.27h.46V3a.53.53,0,0,0-.14-.39.62.62,0,0,0-.46-.13.8.8,0,0,0-.41.1.55.55,0,0,0-.25.35h-.62a1,1,0,0,1,.19-.54,1,1,0,0,1,.46-.32,1.93,1.93,0,0,1,.67-.1,2.1,2.1,0,0,1,.72.11.82.82,0,0,1,.41.34,1,1,0,0,1,.13.53V5.17h-.61l-.06-.56a1.09,1.09,0,0,1-.42.49A1.38,1.38,0,0,1,248.2,5.23Zm.24-.5a.58.58,0,0,0,.26-.05.7.7,0,0,0,.24-.13.75.75,0,0,0,.17-.19.36.36,0,0,0,.07-.22V3.65h-.38a1.77,1.77,0,0,0-.49.06.75.75,0,0,0-.33.18.45.45,0,0,0-.12.33.45.45,0,0,0,.17.37A.61.61,0,0,0,248.44,4.73Z"/><path d="M252.18,5.17V.83h1.54a2.06,2.06,0,0,1,.84.16,1.36,1.36,0,0,1,.58.47,1.37,1.37,0,0,1,.22.77,1.34,1.34,0,0,1-.2.74,1.3,1.3,0,0,1-.54.47,2,2,0,0,1-.8.16h-.9V5.17ZM252.92,3h.88a.84.84,0,0,0,.62-.23.78.78,0,0,0,.24-.59.7.7,0,0,0-.25-.58,1,1,0,0,0-.63-.2h-.86Z"/><path d="M256.76,5.23a1.29,1.29,0,0,1-.53-.11.83.83,0,0,1-.37-.32.87.87,0,0,1-.13-.5.88.88,0,0,1,.37-.77,2.18,2.18,0,0,1,1.18-.27h.46V3a.53.53,0,0,0-.14-.39.61.61,0,0,0-.45-.13.84.84,0,0,0-.42.1.53.53,0,0,0-.24.35h-.62a.94.94,0,0,1,.18-.54,1,1,0,0,1,.46-.32,1.93,1.93,0,0,1,.67-.1,2.06,2.06,0,0,1,.72.11.82.82,0,0,1,.41.34,1,1,0,0,1,.14.53V5.17h-.62l-.06-.56a1,1,0,0,1-.42.49A1.38,1.38,0,0,1,256.76,5.23Zm.24-.5a.65.65,0,0,0,.27-.05.76.76,0,0,0,.23-.13.8.8,0,0,0,.18-.19.43.43,0,0,0,.06-.22V3.65h-.38a1.77,1.77,0,0,0-.49.06.75.75,0,0,0-.33.18.45.45,0,0,0-.12.33.45.45,0,0,0,.17.37A.61.61,0,0,0,257,4.73Z"/><path d="M259.31,5.17V2.07h.7v.67a1.51,1.51,0,0,1,.22-.37.92.92,0,0,1,.35-.26,1,1,0,0,1,.47-.1h.05s0,0,0,0v.7h-.06a1.46,1.46,0,0,0-.58,0,.6.6,0,0,0-.33.24.65.65,0,0,0-.11.37v1.8Z"/><path d="M263.5,2.58h-.69V4.36a.49.49,0,0,0,0,.2.15.15,0,0,0,.1.09l.19,0h.39v.46a.69.69,0,0,1-.19,0,1.69,1.69,0,0,1-.89-.07.55.55,0,0,1-.28-.28,1,1,0,0,1-.08-.43V2.58h-.51V2.07h.53l.18-.92h.53v.91h.69Z"/><path d="M265,.83v.69h-.72V.83Zm0,1.24v3.1h-.7V2.07Z"/><path d="M267.16,2a1.48,1.48,0,0,1,.65.14,1.21,1.21,0,0,1,.44.4,1.37,1.37,0,0,1,.19.58h-.62a.77.77,0,0,0-.11-.27.7.7,0,0,0-.21-.21.64.64,0,0,0-.33-.08.72.72,0,0,0-.57.26,1.18,1.18,0,0,0-.22.79,1.34,1.34,0,0,0,.21.79.69.69,0,0,0,.6.29.54.54,0,0,0,.31-.09.56.56,0,0,0,.22-.21.52.52,0,0,0,.1-.26h.61a1.06,1.06,0,0,1-.18.55,1,1,0,0,1-.43.39,1.37,1.37,0,0,1-.66.15A1.45,1.45,0,0,1,266.4,5a1.24,1.24,0,0,1-.52-.54,1.8,1.8,0,0,1-.19-.87,1.93,1.93,0,0,1,.18-.85,1.41,1.41,0,0,1,.51-.57A1.48,1.48,0,0,1,267.16,2Z"/><path d="M269.89.83v.69h-.72V.83Zm0,1.24v3.1h-.7V2.07Z"/><path d="M270.8,6.13V2.07h.73v.49l.16-.21a1,1,0,0,1,.22-.17,1,1,0,0,1,.28-.13,1.32,1.32,0,0,1,1,.13,1.13,1.13,0,0,1,.43.52,2.25,2.25,0,0,1,.16.89,2.21,2.21,0,0,1-.17.91,1.13,1.13,0,0,1-.45.55,1.25,1.25,0,0,1-.68.18,1.13,1.13,0,0,1-.32-.05,1.26,1.26,0,0,1-.26-.13l-.2-.18-.14-.21V6.13Zm1.49-1.45a.68.68,0,0,0,.55-.26,1.3,1.3,0,0,0,.21-.82,1.26,1.26,0,0,0-.2-.77.7.7,0,0,0-1.13,0,1.3,1.3,0,0,0-.19.75,1.91,1.91,0,0,0,.08.54.84.84,0,0,0,.26.39A.6.6,0,0,0,272.29,4.68Z"/><path d="M275.26,5.23a1.29,1.29,0,0,1-.53-.11.83.83,0,0,1-.37-.32.87.87,0,0,1-.13-.5.88.88,0,0,1,.37-.77,2.21,2.21,0,0,1,1.18-.27h.46V3a.49.49,0,0,0-.14-.39.61.61,0,0,0-.45-.13.84.84,0,0,0-.42.1A.53.53,0,0,0,275,3h-.62a.94.94,0,0,1,.18-.54,1,1,0,0,1,.46-.32,2,2,0,0,1,.67-.1,2,2,0,0,1,.72.11.78.78,0,0,1,.41.34A1,1,0,0,1,277,3V5.17h-.62l-.06-.56a1,1,0,0,1-.42.49A1.38,1.38,0,0,1,275.26,5.23Zm.24-.5a.65.65,0,0,0,.27-.05.94.94,0,0,0,.24-.13,1,1,0,0,0,.17-.19.43.43,0,0,0,.06-.22V3.65h-.38a1.77,1.77,0,0,0-.49.06.75.75,0,0,0-.33.18.45.45,0,0,0-.12.33.45.45,0,0,0,.17.37A.63.63,0,0,0,275.5,4.73Z"/><path d="M277.82,5.17V2.07h.71v.44a.85.85,0,0,1,.2-.23,1.09,1.09,0,0,1,.3-.18,1.43,1.43,0,0,1,.43-.07,1.25,1.25,0,0,1,.54.12.9.9,0,0,1,.4.35,1.18,1.18,0,0,1,.15.63v2h-.73V3.22a.59.59,0,0,0-.17-.46.6.6,0,0,0-.42-.15.88.88,0,0,0-.33.06.61.61,0,0,0-.26.18.48.48,0,0,0-.1.29v2Z"/><path d="M282.94,2.58h-.69V4.36a.49.49,0,0,0,0,.2.14.14,0,0,0,.11.09l.19,0H283v.46a.6.6,0,0,1-.18,0,1.42,1.42,0,0,1-.33,0,1.39,1.39,0,0,1-.57-.1.55.55,0,0,1-.28-.28,1.14,1.14,0,0,1-.08-.43V2.58H281V2.07h.52l.18-.92h.53v.91h.69Z"/><path d="M191.8,6.49V6.07h91.45v.42Z"/><path d="M22,5.17,23.57.83h.79l1.56,4.34h-.74L24.8,4.08H23.14l-.4,1.09Zm1.3-1.74h1.31L24,1.54Z"/><path d="M28,.83h1.16a2.94,2.94,0,0,1,1.29.27,1.57,1.57,0,0,1,.73.73A2.47,2.47,0,0,1,31.39,3a2.67,2.67,0,0,1-.24,1.18,1.67,1.67,0,0,1-.76.75,2.87,2.87,0,0,1-1.29.26H28Zm.74.6V4.57h.39a2,2,0,0,0,.79-.16,1.07,1.07,0,0,0,.53-.5,1.89,1.89,0,0,0,.2-.93,1.89,1.89,0,0,0-.18-.9,1,1,0,0,0-.52-.49,1.78,1.78,0,0,0-.8-.16Z"/><path d="M33,5.23a1.33,1.33,0,0,1-.54-.11.8.8,0,0,1-.36-.32A.87.87,0,0,1,32,4.3a.9.9,0,0,1,.37-.77,2.21,2.21,0,0,1,1.18-.27H34V3a.5.5,0,0,0-.15-.39.58.58,0,0,0-.45-.13.8.8,0,0,0-.41.1.51.51,0,0,0-.25.35h-.62a.94.94,0,0,1,.18-.54,1.09,1.09,0,0,1,.46-.32,2,2,0,0,1,.67-.1,2.12,2.12,0,0,1,.73.11.87.87,0,0,1,.41.34,1,1,0,0,1,.13.53V5.17h-.61L34,4.61a1.11,1.11,0,0,1-.43.49A1.34,1.34,0,0,1,33,5.23Zm.23-.5a.65.65,0,0,0,.27-.05.7.7,0,0,0,.24-.13.75.75,0,0,0,.17-.19A.44.44,0,0,0,34,4.14V3.65h-.38a1.85,1.85,0,0,0-.5.06.66.66,0,0,0-.32.18.45.45,0,0,0-.12.33.44.44,0,0,0,.16.37A.63.63,0,0,0,33.24,4.73Z"/><path d="M35.85,6.16a1.47,1.47,0,0,1-.53-.09V5.6h.31a1.37,1.37,0,0,0,.31,0,.38.38,0,0,0,.18-.09.26.26,0,0,0,.1-.11l.05-.1.08-.23-1.21-3h.73l.82,2.19.82-2.19h.72L37,5.28a1.88,1.88,0,0,1-.31.54.9.9,0,0,1-.36.27A1.55,1.55,0,0,1,35.85,6.16Z"/><path d="M40.81.83v.69h-.73V.83Zm0,1.24v3.1h-.7V2.07Z"/><path d="M41.72,5.17V2.07h.71v.44a.85.85,0,0,1,.2-.23,1.09,1.09,0,0,1,.3-.18A1.43,1.43,0,0,1,43.36,2a1.22,1.22,0,0,1,.54.12.9.9,0,0,1,.4.35,1.18,1.18,0,0,1,.15.63v2h-.73V3.22a.59.59,0,0,0-.17-.46.6.6,0,0,0-.42-.15.88.88,0,0,0-.33.06.61.61,0,0,0-.26.18.48.48,0,0,0-.09.29v2Z"/><path d="M48.3,2.58h-.7V4.36a.49.49,0,0,0,0,.2.13.13,0,0,0,.1.09l.19,0h.38v.46a.6.6,0,0,1-.18,0,1.39,1.39,0,0,1-.32,0,1.48,1.48,0,0,1-.58-.1A.63.63,0,0,1,47,4.82a1.14,1.14,0,0,1-.07-.43V2.58h-.51V2.07h.53l.18-.92h.52v.91h.7Z"/><path d="M49,5.17V.71h.72V2.52a1.07,1.07,0,0,1,.2-.23,1.09,1.09,0,0,1,.3-.18A1.11,1.11,0,0,1,50.67,2a1.33,1.33,0,0,1,.54.11.91.91,0,0,1,.39.33.9.9,0,0,1,.15.51V5.17H51v-2a.44.44,0,0,0-.17-.37.64.64,0,0,0-.42-.14.88.88,0,0,0-.33.06.52.52,0,0,0-.25.18.44.44,0,0,0-.1.3v2Z"/><path d="M53.12,3.79a1.11,1.11,0,0,0,.09.46.62.62,0,0,0,.25.32.75.75,0,0,0,.43.12.83.83,0,0,0,.43-.11.72.72,0,0,0,.27-.36h.66a1.16,1.16,0,0,1-.26.56,1.39,1.39,0,0,1-.49.34,1.73,1.73,0,0,1-.6.11A1.57,1.57,0,0,1,53.11,5a1.4,1.4,0,0,1-.53-.55,1.8,1.8,0,0,1-.19-.84,1.93,1.93,0,0,1,.18-.85,1.34,1.34,0,0,1,.5-.58,1.62,1.62,0,0,1,1.56,0,1.15,1.15,0,0,1,.47.55,1.86,1.86,0,0,1,.17.81v.23Zm0-.46h1.46a1,1,0,0,0-.08-.4.76.76,0,0,0-.24-.29.72.72,0,0,0-.4-.11.66.66,0,0,0-.41.12.81.81,0,0,0-.25.3A1,1,0,0,0,53.12,3.33Z"/><path d="M57,1.49V.83h3.39v.66h-1.3V5.17h-.74V1.49Z"/><path d="M61.66.83v.69h-.72V.83Zm0,1.24v3.1H61V2.07Z"/><path d="M62.57,5.17V2.07h.71v.44a1.25,1.25,0,0,1,.37-.35A1.08,1.08,0,0,1,64.24,2a1.4,1.4,0,0,1,.34.05,1.17,1.17,0,0,1,.31.17.77.77,0,0,1,.23.28,1.07,1.07,0,0,1,.4-.36A1,1,0,0,1,66.07,2a1,1,0,0,1,.34.05,1.06,1.06,0,0,1,.33.18,1,1,0,0,1,.25.34,1.47,1.47,0,0,1,.09.55v2h-.73V3.22a.75.75,0,0,0-.08-.37.51.51,0,0,0-.21-.18.66.66,0,0,0-.27-.06.86.86,0,0,0-.27.05.56.56,0,0,0-.24.17.5.5,0,0,0-.1.31v2h-.72V3.1a.4.4,0,0,0-.09-.27.47.47,0,0,0-.21-.16.58.58,0,0,0-.26-.06.66.66,0,0,0-.27.06.59.59,0,0,0-.24.17.49.49,0,0,0-.09.3v2Z"/><path d="M68.45,3.79a1.11,1.11,0,0,0,.09.46.62.62,0,0,0,.25.32.75.75,0,0,0,.43.12.83.83,0,0,0,.43-.11.72.72,0,0,0,.27-.36h.66a1.16,1.16,0,0,1-.26.56,1.39,1.39,0,0,1-.49.34,1.73,1.73,0,0,1-.6.11A1.57,1.57,0,0,1,68.44,5a1.4,1.4,0,0,1-.53-.55,1.8,1.8,0,0,1-.19-.84,2.08,2.08,0,0,1,.17-.85A1.52,1.52,0,0,1,70,2.2a1.15,1.15,0,0,1,.47.55,1.86,1.86,0,0,1,.17.81v.23Zm0-.46h1.46a1,1,0,0,0-.08-.4.76.76,0,0,0-.24-.29.72.72,0,0,0-.4-.11.66.66,0,0,0-.41.12.81.81,0,0,0-.25.3A1,1,0,0,0,68.45,3.33Z"/><path d="M73.82,5.23A1.5,1.5,0,0,1,73,5a1.29,1.29,0,0,1-.51-.55,1.88,1.88,0,0,1-.18-.86,1.9,1.9,0,0,1,.18-.85,1.32,1.32,0,0,1,.5-.57,1.52,1.52,0,0,1,.79-.2,1.49,1.49,0,0,1,.77.19,1.24,1.24,0,0,1,.5.56,1.93,1.93,0,0,1,.18.87,1.81,1.81,0,0,1-.17.83,1.3,1.3,0,0,1-.49.57A1.52,1.52,0,0,1,73.82,5.23Zm0-.56a.61.61,0,0,0,.41-.13.94.94,0,0,0,.25-.38,1.82,1.82,0,0,0,.08-.55,1.72,1.72,0,0,0-.07-.52.86.86,0,0,0-.24-.39.6.6,0,0,0-.43-.14.64.64,0,0,0-.42.13.76.76,0,0,0-.25.37,1.82,1.82,0,0,0-.08.55,1.72,1.72,0,0,0,.07.52.84.84,0,0,0,.24.4A.66.66,0,0,0,73.82,4.67Z"/><path d="M77.66,2.07v.51H77V5.17h-.73V2.58h-.61V2.07h.61V1.6a.81.81,0,0,1,.2-.57.85.85,0,0,1,.6-.2h.65v.5h-.44a.28.28,0,0,0-.24.09.55.55,0,0,0-.06.29v.36Z"/><path d="M81.38.77a1.93,1.93,0,0,1,.85.19,1.67,1.67,0,0,1,.59.53,1.58,1.58,0,0,1,.27.73h-.77a1.08,1.08,0,0,0-.17-.43.93.93,0,0,0-.32-.3,1,1,0,0,0-.47-.11,1,1,0,0,0-.59.17,1.06,1.06,0,0,0-.37.51,3,3,0,0,0-.12.92,2.16,2.16,0,0,0,.28,1.25.94.94,0,0,0,.8.39.89.89,0,0,0,.47-.12.92.92,0,0,0,.32-.33,1.12,1.12,0,0,0,.17-.44h.77a1.86,1.86,0,0,1-.15.56,1.52,1.52,0,0,1-.31.48,1.39,1.39,0,0,1-.51.34,2.09,2.09,0,0,1-.74.12,1.77,1.77,0,0,1-1-.28,1.69,1.69,0,0,1-.66-.78A2.89,2.89,0,0,1,79.47,3a2.82,2.82,0,0,1,.23-1.18A1.73,1.73,0,0,1,80.35,1,2,2,0,0,1,81.38.77Z"/><path d="M85.66,5.23a2,2,0,0,1-1-.27A1.67,1.67,0,0,1,84,4.2,2.72,2.72,0,0,1,83.71,3,2.73,2.73,0,0,1,84,1.81,1.77,1.77,0,0,1,84.63,1a2.1,2.1,0,0,1,2.06,0,1.75,1.75,0,0,1,.67.77A2.73,2.73,0,0,1,87.6,3a2.72,2.72,0,0,1-.24,1.19,1.72,1.72,0,0,1-.67.76A1.91,1.91,0,0,1,85.66,5.23Zm0-.61a1.09,1.09,0,0,0,.61-.17,1,1,0,0,0,.39-.52A2.56,2.56,0,0,0,86.8,3a2.68,2.68,0,0,0-.14-.93,1.12,1.12,0,0,0-.39-.54,1.09,1.09,0,0,0-.61-.17,1,1,0,0,0-.61.18,1.12,1.12,0,0,0-.4.53,2.68,2.68,0,0,0-.14.93,2.56,2.56,0,0,0,.14.91,1.09,1.09,0,0,0,.4.52A1.12,1.12,0,0,0,85.66,4.62Z"/><path d="M91.8.83,90.28,5.17h-.84L87.94.83h.7l1.22,3.5L91.09.83Z"/><path d="M92.45.83h.73V5.17h-.73Z"/><path d="M94.23.83H95.4a2.94,2.94,0,0,1,1.29.27,1.61,1.61,0,0,1,.73.73A2.6,2.6,0,0,1,97.65,3a2.54,2.54,0,0,1-.25,1.18,1.63,1.63,0,0,1-.76.75,2.84,2.84,0,0,1-1.29.26H94.23Zm.74.6V4.57h.4a1.9,1.9,0,0,0,.78-.16,1.14,1.14,0,0,0,.54-.5A1.89,1.89,0,0,0,96.88,3a1.89,1.89,0,0,0-.18-.9,1.05,1.05,0,0,0-.51-.49,1.83,1.83,0,0,0-.81-.16Z"/><path d="M21.8,6.49V6.07H98v.42Z"/><circle cx="221.5" cy="41.18" r="1.75"/></svg>