<svg xmlns="http://www.w3.org/2000/svg" viewBox="0 0 864 360"><defs><style>.a9c1494a-2d5a-4e3e-96ad-3d0d9385c030{fill:#d99255;}.bef02e47-6521-4731-968e-a0f11aa4eb94{fill:#733f34;}.ba751123-7884-468a-8456-9e21b61c64a2{fill:#006887;}.a6aa5a5c-85cb-4a83-8b6d-afb8401e1a32{fill:none;stroke:#000;stroke-miterlimit:10;}</style></defs><g id="e2178166-0308-4c7f-9fd8-5beaac1c2821" data-name="Layer 5"><path d="M660.2,331.34a4.74,4.74,0,0,1-.35,1.88,2.54,2.54,0,0,1-1.14,1.24,5.22,5.22,0,0,1-4.24,0,2.52,2.52,0,0,1-1.14-1.25,4.81,4.81,0,0,1-.35-1.9v-5.2h2.08v5.32a1.77,1.77,0,0,0,.44,1.34,1.53,1.53,0,0,0,1.09.41,1.66,1.66,0,0,0,.78-.18,1.26,1.26,0,0,0,.56-.56,2.27,2.27,0,0,0,.2-1v-5.32h2.07Z"/><path d="M665.41,334.91a5.19,5.19,0,0,1-1.29-.17,4.05,4.05,0,0,1-1.17-.5,3,3,0,0,1-.87-.83,2.44,2.44,0,0,1-.4-1.19h2.09a1.3,1.3,0,0,0,.29.6,1.41,1.41,0,0,0,.57.37,2.13,2.13,0,0,0,.78.13,3.21,3.21,0,0,0,.78-.09,1.59,1.59,0,0,0,.58-.3.75.75,0,0,0,.22-.55.6.6,0,0,0-.2-.47,1.48,1.48,0,0,0-.53-.28,6.88,6.88,0,0,0-.72-.18l-1.42-.27a2.87,2.87,0,0,1-1.58-.79,2.39,2.39,0,0,1-.61-1.68,2.26,2.26,0,0,1,.45-1.45,2.83,2.83,0,0,1,1.25-.93,4.44,4.44,0,0,1,1.75-.33,4.89,4.89,0,0,1,2,.35,2.65,2.65,0,0,1,1.2,1,2.42,2.42,0,0,1,.43,1.37h-2a1.19,1.19,0,0,0-.24-.63,1.12,1.12,0,0,0-.52-.35,2.5,2.5,0,0,0-.76-.1,2.12,2.12,0,0,0-.59.07,1.16,1.16,0,0,0-.42.19.83.83,0,0,0-.25.28.73.73,0,0,0-.08.33.69.69,0,0,0,.22.54,1.87,1.87,0,0,0,.84.34l1.41.27a3.71,3.71,0,0,1,1.36.47,2.38,2.38,0,0,1,.75.73,2.51,2.51,0,0,1,.31.82,4.08,4.08,0,0,1,.07.74,2,2,0,0,1-.46,1.29,3.16,3.16,0,0,1-1.28.91A5,5,0,0,1,665.41,334.91Z"/><path d="M669.68,334.79l3.09-8.68h2.12l3.09,8.68h-2l-.64-1.84h-2.93l-.65,1.84Zm3.14-3.61h2l-1-3.11Z"/><path d="M432.37,334.79v-8.68h3.32a4.11,4.11,0,0,1,1.71.34,2.71,2.71,0,0,1,1.2,1,2.67,2.67,0,0,1,.45,1.57,2.7,2.7,0,0,1-.39,1.48,2.46,2.46,0,0,1-1.07.94,3.76,3.76,0,0,1-1.63.33h-1.53v3Zm2-4.59h1.49a1.17,1.17,0,0,0,.9-.39,1.29,1.29,0,0,0,.35-.92,1.13,1.13,0,0,0-.38-.89,1.24,1.24,0,0,0-.89-.35h-1.47Z"/><path d="M445.31,331.18h-3v3.61h-2v-8.68h2v3.39h3v-3.39h2v8.68h-2Z"/><path d="M449.13,326.11h2.05v7h3.62v1.7h-5.67Z"/><path d="M208.48,326a3.89,3.89,0,0,1,1.79.4,3.42,3.42,0,0,1,1.28,1.1,3.35,3.35,0,0,1,.57,1.59H210a2.08,2.08,0,0,0-.27-.75,1.41,1.41,0,0,0-.53-.5,1.61,1.61,0,0,0-.78-.18,1.55,1.55,0,0,0-.91.26,1.69,1.69,0,0,0-.61.86,5,5,0,0,0-.21,1.61,3.84,3.84,0,0,0,.47,2.2,1.47,1.47,0,0,0,1.26.67,1.42,1.42,0,0,0,.78-.21,1.74,1.74,0,0,0,.53-.58,2.74,2.74,0,0,0,.27-.79h2.13a5.07,5.07,0,0,1-.3,1.22,3,3,0,0,1-.63,1,2.66,2.66,0,0,1-1.07.72,4.58,4.58,0,0,1-1.64.26,4,4,0,0,1-2.15-.58,3.86,3.86,0,0,1-1.4-1.61,5.37,5.37,0,0,1-.5-2.37,5.18,5.18,0,0,1,.49-2.31,3.58,3.58,0,0,1,1.41-1.52A4.2,4.2,0,0,1,208.48,326Z"/><path d="M212.62,334.79l3.09-8.68h2.12l3.09,8.68h-2l-.64-1.84h-2.93l-.65,1.84Zm3.15-3.61h2l-1-3.11Z"/><path d="M227.78,326.11h2v8.68H228l-3.87-5.57v5.57h-2v-8.68h2l3.67,5.29Z"/><rect class="a9c1494a-2d5a-4e3e-96ad-3d0d9385c030" x="164.46" y="293.86" width="111.39" height="21.72"/><rect class="bef02e47-6521-4731-968e-a0f11aa4eb94" x="387.24" y="293.16" width="111.39" height="21.72"/><rect class="ba751123-7884-468a-8456-9e21b61c64a2" x="610.01" y="55.83" width="111.39" height="259.75"/><rect class="a6aa5a5c-85cb-4a83-8b6d-afb8401e1a32" x="109.11" y="43.38" width="669.2" height="272.99"/><path d="M68.48,268.19v-2.38H78.6V268l-6.49,4.51H78.6v2.39H68.48v-2.39l6.18-4.28Z"/><path d="M78.74,261.31a3.19,3.19,0,0,1-.15.95,3,3,0,0,1-.45.89,2.27,2.27,0,0,1-.73.65,1.93,1.93,0,0,1-1,.25h-5v-2.39H76.1a.88.88,0,0,0,.67-.28,1.09,1.09,0,0,0,.27-.8,1.14,1.14,0,0,0-.26-.8.89.89,0,0,0-.7-.29H71.36v-2.43l7.24.06v1.78l-1.46.28a1.88,1.88,0,0,1,1,.49,1.71,1.71,0,0,1,.46.8A3.21,3.21,0,0,1,78.74,261.31Z"/><path d="M78.6,255.55H71.37V253.2h1a3,3,0,0,1-.82-.91,2.81,2.81,0,0,1-.33-1.42,2.43,2.43,0,0,1,.12-.74,2.6,2.6,0,0,1,.39-.71,2.27,2.27,0,0,1,.63-.56,3.46,3.46,0,0,1-.81-.92,2.58,2.58,0,0,1-.19-2.1,2,2,0,0,1,.45-.76,2.21,2.21,0,0,1,.79-.56,2.89,2.89,0,0,1,1.2-.22H78.6v2.39H74.12a.94.94,0,0,0-.55.15.9.9,0,0,0-.32.38,1.19,1.19,0,0,0-.1.49,1.17,1.17,0,0,0,.1.47.9.9,0,0,0,.3.4.81.81,0,0,0,.52.17H78.6v2.37H74a.76.76,0,0,0-.48.15,1,1,0,0,0-.3.38,1.14,1.14,0,0,0-.1.47,1.19,1.19,0,0,0,.1.49,1,1,0,0,0,.31.39.8.8,0,0,0,.51.16H78.6Z"/><path d="M78.74,238.56a2.79,2.79,0,0,1-.12.86,2.13,2.13,0,0,1-.35.65,2,2,0,0,1-.52.45,3.64,3.64,0,0,1-.63.3l1.48.27v1.71H68.2v-2.4h4.07a1.74,1.74,0,0,1-.45-.36,2,2,0,0,1-.32-.5,2.34,2.34,0,0,1-.2-.58,2.76,2.76,0,0,1-.07-.65,2.47,2.47,0,0,1,1-2.09,4.41,4.41,0,0,1,2.73-.75,5.3,5.3,0,0,1,2,.35,2.93,2.93,0,0,1,1.33,1.05A2.88,2.88,0,0,1,78.74,238.56Zm-1.68.55a1.19,1.19,0,0,0-.48-1,2.74,2.74,0,0,0-1.65-.38,2.47,2.47,0,0,0-1.54.37,1.26,1.26,0,0,0-.25,1.67,1.26,1.26,0,0,0,.65.43,3.66,3.66,0,0,0,1.14.15,3,3,0,0,0,1.65-.33A1.12,1.12,0,0,0,77.06,239.11Z"/><path d="M75.53,232.23a2.1,2.1,0,0,0,.84-.15,1.14,1.14,0,0,0,.51-.46,1.31,1.31,0,0,0,.18-.69,1.5,1.5,0,0,0-.19-.78,1.13,1.13,0,0,0-.65-.52v-2.12a2.64,2.64,0,0,1,1.36.63,3.36,3.36,0,0,1,.87,1.23,4.06,4.06,0,0,1,.29,1.51,4,4,0,0,1-.45,1.93,3.2,3.2,0,0,1-1.28,1.3,3.9,3.9,0,0,1-1.94.47,4.24,4.24,0,0,1-1.93-.43,3.31,3.31,0,0,1-1.39-1.23,3.47,3.47,0,0,1-.52-1.94,3.6,3.6,0,0,1,.48-1.92A2.88,2.88,0,0,1,73,227.91a4.51,4.51,0,0,1,1.92-.39h.59Zm-1.37,0v-2.51a1.59,1.59,0,0,0-.66.14,1.12,1.12,0,0,0-.47.42,1.36,1.36,0,0,0-.17.69,1.21,1.21,0,0,0,.18.66,1.44,1.44,0,0,0,.48.44A1.29,1.29,0,0,0,74.16,232.24Z"/><path d="M78.6,226.24H71.37v-2.31h1.85a3.5,3.5,0,0,1-1-.48,2.42,2.42,0,0,1-.73-.8,2.35,2.35,0,0,1-.27-1.15v-.11H73.5s0,0,0,.11a3.58,3.58,0,0,0,.09,1.46,1.25,1.25,0,0,0,.55.7,1.54,1.54,0,0,0,.77.19H78.6Z"/><path d="M78.74,214.34a3.74,3.74,0,0,1-.46,1.9,3.26,3.26,0,0,1-1.3,1.25,4.58,4.58,0,0,1-3.94,0,3.4,3.4,0,0,1-1.34-1.26,3.63,3.63,0,0,1-.47-1.89,3.69,3.69,0,0,1,.48-1.91A3.17,3.17,0,0,1,73,211.19a4.35,4.35,0,0,1,2-.44,4.12,4.12,0,0,1,1.92.44,3.24,3.24,0,0,1,1.31,1.23A3.7,3.7,0,0,1,78.74,214.34Zm-1.75,0a1,1,0,0,0-.3-.76,1.79,1.79,0,0,0-.78-.39,4.4,4.4,0,0,0-1.91,0,1.54,1.54,0,0,0-.75.39,1.15,1.15,0,0,0,0,1.54,1.68,1.68,0,0,0,.75.39,4.21,4.21,0,0,0,1,.11,4.38,4.38,0,0,0,1-.1,1.8,1.8,0,0,0,.78-.39A1,1,0,0,0,77,214.33Z"/><path d="M71.37,205.15H73v1.42h5.6V209H73v1.25H71.37V209h-1a1.75,1.75,0,0,1-1.38-.55,2.21,2.21,0,0,1-.5-1.52V205.1l1.56,0v.9a.63.63,0,0,0,.17.5,1,1,0,0,0,.6.14h.56Z"/><path d="M68.34,196.71a4.56,4.56,0,0,1,.47-2.09,3.79,3.79,0,0,1,1.28-1.49,3.84,3.84,0,0,1,1.86-.68V195a2.36,2.36,0,0,0-.88.31,1.75,1.75,0,0,0-.59.62,1.88,1.88,0,0,0-.21.91,1.81,1.81,0,0,0,.31,1.06,1.92,1.92,0,0,0,1,.71,5.65,5.65,0,0,0,1.88.25,4.5,4.5,0,0,0,2.56-.55,1.72,1.72,0,0,0,.78-1.47,1.61,1.61,0,0,0-.25-.91,1.94,1.94,0,0,0-.68-.62A2.86,2.86,0,0,0,75,195v-2.5a7.57,7.57,0,0,1,1.44.35,3.87,3.87,0,0,1,1.21.74,3.26,3.26,0,0,1,.83,1.26,5.28,5.28,0,0,1,.3,1.91,4.37,4.37,0,0,1-2.54,4.14,6.38,6.38,0,0,1-2.77.58,5.84,5.84,0,0,1-2.7-.58A4.17,4.17,0,0,1,69,199.22,4.92,4.92,0,0,1,68.34,196.71Z"/><path d="M78.74,186.38a4.91,4.91,0,0,1-.63,2.54,4.28,4.28,0,0,1-1.8,1.67,6.8,6.8,0,0,1-5.52,0A4.43,4.43,0,0,1,69,188.91a5,5,0,0,1-.64-2.53,4.88,4.88,0,0,1,.64-2.51,4.34,4.34,0,0,1,1.81-1.66,6.15,6.15,0,0,1,2.77-.59,6,6,0,0,1,2.75.58,4.24,4.24,0,0,1,1.8,1.65A4.92,4.92,0,0,1,78.74,186.38Zm-1.93,0a2,2,0,0,0-.32-1.14,2,2,0,0,0-1-.76,5.36,5.36,0,0,0-1.87-.27,5.7,5.7,0,0,0-1.93.27,2.13,2.13,0,0,0-1.06.76,1.94,1.94,0,0,0-.34,1.14,2,2,0,0,0,.34,1.14,2.17,2.17,0,0,0,1.07.77,5.63,5.63,0,0,0,1.92.27,5.36,5.36,0,0,0,1.87-.27,2.07,2.07,0,0,0,1-.77A2,2,0,0,0,76.81,186.38Z"/><path d="M68.48,171.55,78.6,175v2.66L68.48,181.1v-2.26l7.34-2.51-7.34-2.52Z"/><path d="M68.48,170.27v-2.39H78.6v2.39Z"/><path d="M68.48,165.81v-2.49c0-.34,0-.63,0-.85a6.44,6.44,0,0,1,.69-3,3.94,3.94,0,0,1,1.73-1.7,5.83,5.83,0,0,1,2.58-.54,5.9,5.9,0,0,1,2.67.57A4,4,0,0,1,78,159.55a6.11,6.11,0,0,1,.64,3v3.29Zm1.9-2.39h6.33v-1a2.85,2.85,0,0,0-.32-1.31,2.39,2.39,0,0,0-1-1,3.81,3.81,0,0,0-1.9-.4,3.88,3.88,0,0,0-1.74.34,2.23,2.23,0,0,0-1,.94,3,3,0,0,0-.33,1.44Z"/><path d="M74.15,151.83h1.71v3.93h-1.7Z"/><path d="M78.6,149.59H71.23v1.74H69.94a4.54,4.54,0,0,0-.18-1.4,1.82,1.82,0,0,0-.51-.84,1.37,1.37,0,0,0-.77-.35v-1.55H78.6Z"/><path d="M78.7,141.33a4.56,4.56,0,0,1-.37,1.85,3.64,3.64,0,0,1-1.06,1.4,2.75,2.75,0,0,1-1.61.56V142.9a1.49,1.49,0,0,0,.86-.49,1.47,1.47,0,0,0,.33-1,2.46,2.46,0,0,0-.28-1.16,1.83,1.83,0,0,0-.92-.77,3.77,3.77,0,0,0-1.7-.17,2.06,2.06,0,0,1,.52.54,2.7,2.7,0,0,1,.33.75,3.63,3.63,0,0,1,.12,1,4.22,4.22,0,0,1-.39,1.85,3,3,0,0,1-2.79,1.74,3.17,3.17,0,0,1-1.75-.5,3.34,3.34,0,0,1-1.2-1.39,4.49,4.49,0,0,1-.44-2.06,4.19,4.19,0,0,1,.61-2.31,3.9,3.9,0,0,1,1.72-1.48,6.2,6.2,0,0,1,2.61-.52,7.49,7.49,0,0,1,3.06.54A3.73,3.73,0,0,1,78.12,139,4.46,4.46,0,0,1,78.7,141.33Zm-5.64-.18a1.88,1.88,0,0,0-.16-.73,2.35,2.35,0,0,0-.4-.59.7.7,0,0,0-.46-.23,2.63,2.63,0,0,0-1.07.19,1.49,1.49,0,0,0-.66.54,1.59,1.59,0,0,0-.22.82,1.44,1.44,0,0,0,.2.74,1.4,1.4,0,0,0,.54.54,1.62,1.62,0,0,0,.81.19,1.28,1.28,0,0,0,1-.43A1.51,1.51,0,0,0,73.06,141.15Z"/><path d="M78.6,132.44H68.48v-3.51l6.69-2-6.69-2v-3.49H78.6v2.39H71.06l7.54,2.21v1.78l-7.51,2.2H78.6Z"/><path d="M75.53,117.85a2.1,2.1,0,0,0,.84-.15,1.14,1.14,0,0,0,.51-.46,1.29,1.29,0,0,0,.18-.69,1.53,1.53,0,0,0-.19-.78,1.17,1.17,0,0,0-.65-.52v-2.12a2.64,2.64,0,0,1,1.36.63,3.36,3.36,0,0,1,.87,1.23,4.1,4.1,0,0,1,.29,1.51,4,4,0,0,1-.45,1.93A3.29,3.29,0,0,1,77,119.74a3.89,3.89,0,0,1-1.94.46,4.24,4.24,0,0,1-1.93-.43,3.31,3.31,0,0,1-1.39-1.23,3.45,3.45,0,0,1-.52-1.94,3.54,3.54,0,0,1,.48-1.91A2.9,2.9,0,0,1,73,113.53a4.51,4.51,0,0,1,1.92-.39h.59Zm-1.37,0v-2.51a1.59,1.59,0,0,0-.66.14,1.12,1.12,0,0,0-.47.42,1.36,1.36,0,0,0-.17.69,1.19,1.19,0,0,0,.18.66,1.44,1.44,0,0,0,.48.44A1.29,1.29,0,0,0,74.16,117.86Z"/><path d="M78.6,111.86H71.37v-2.35h1a3,3,0,0,1-.82-.91,2.79,2.79,0,0,1-.33-1.42,2.43,2.43,0,0,1,.12-.74,2.6,2.6,0,0,1,.39-.71,2.27,2.27,0,0,1,.63-.56,3.31,3.31,0,0,1-.81-.92,2.47,2.47,0,0,1-.33-1.26,2.41,2.41,0,0,1,.14-.83,2,2,0,0,1,.45-.77,2.21,2.21,0,0,1,.79-.56,3.07,3.07,0,0,1,1.2-.21H78.6V103H74.12a.94.94,0,0,0-.55.15.9.9,0,0,0-.32.38,1.19,1.19,0,0,0-.1.49,1.14,1.14,0,0,0,.1.47.93.93,0,0,0,.3.41.81.81,0,0,0,.52.16H78.6v2.37H74a.76.76,0,0,0-.48.15,1,1,0,0,0-.3.39,1.09,1.09,0,0,0-.1.46,1.19,1.19,0,0,0,.1.49.92.92,0,0,0,.31.39.8.8,0,0,0,.51.16H78.6Z"/><path d="M78.74,95.9a3.7,3.7,0,0,1-.46,1.89A3.19,3.19,0,0,1,77,99,4.58,4.58,0,0,1,73,99a3.26,3.26,0,0,1-1.34-1.26,4,4,0,0,1,0-3.79A3.13,3.13,0,0,1,73,92.74a4.35,4.35,0,0,1,2-.43,4.11,4.11,0,0,1,1.92.43A3.19,3.19,0,0,1,78.26,94,3.65,3.65,0,0,1,78.74,95.9Zm-1.75,0a1,1,0,0,0-.3-.76,1.68,1.68,0,0,0-.78-.38,3.83,3.83,0,0,0-1-.12,4.33,4.33,0,0,0-1,.11,1.62,1.62,0,0,0-.75.38,1.15,1.15,0,0,0,0,1.54A1.68,1.68,0,0,0,74,97a3.71,3.71,0,0,0,1,.12,4.4,4.4,0,0,0,1-.11,1.78,1.78,0,0,0,.78-.38A1,1,0,0,0,77,95.88Z"/><path d="M78.6,91.1H71.37V88.79h1.85a3.5,3.5,0,0,1-1-.48,2.36,2.36,0,0,1-.73-.81,2.29,2.29,0,0,1-.27-1.14v-.11H73.5s0,0,0,.11a3.58,3.58,0,0,0,.09,1.46,1.25,1.25,0,0,0,.55.7,1.54,1.54,0,0,0,.77.19H78.6Z"/><path d="M68.48,82.91h2.07V85.2H68.48Zm2.89,0H78.6V85.2H71.37Z"/><path d="M75.53,79.23a1.94,1.94,0,0,0,.84-.15,1.14,1.14,0,0,0,.51-.46,1.25,1.25,0,0,0,.18-.68,1.57,1.57,0,0,0-.19-.79,1.17,1.17,0,0,0-.65-.52V74.51a2.65,2.65,0,0,1,1.36.64,3.25,3.25,0,0,1,.87,1.22,4.14,4.14,0,0,1,.29,1.51,4.05,4.05,0,0,1-.45,1.94A3.27,3.27,0,0,1,77,81.12a3.89,3.89,0,0,1-1.94.46,4.37,4.37,0,0,1-1.93-.42A3.38,3.38,0,0,1,71.23,78a3.55,3.55,0,0,1,.48-1.92A2.9,2.9,0,0,1,73,74.91a4.51,4.51,0,0,1,1.92-.39h.59Zm-1.37,0V76.73a1.59,1.59,0,0,0-.66.14,1.19,1.19,0,0,0-.47.42,1.37,1.37,0,0,0-.17.7,1.15,1.15,0,0,0,.18.65,1.34,1.34,0,0,0,.48.44A1.3,1.3,0,0,0,74.16,79.25Z"/><path d="M78.74,70.26a4.38,4.38,0,0,1-.25,1.48,3,3,0,0,1-.8,1.23,2.75,2.75,0,0,1-1.45.66v-2a1,1,0,0,0,.57-.33,1.4,1.4,0,0,0,.27-.51,2.33,2.33,0,0,0,.07-.47,2,2,0,0,0-.15-.84.47.47,0,0,0-.45-.32.43.43,0,0,0-.39.2,1.7,1.7,0,0,0-.23.69l-.22,1.17A3.46,3.46,0,0,1,75,72.79a1.8,1.8,0,0,1-1.44.62,2.09,2.09,0,0,1-1.2-.36A2.42,2.42,0,0,1,71.54,72a4.27,4.27,0,0,1-.31-1.74A3.72,3.72,0,0,1,71.84,68a2,2,0,0,1,1.7-.84v2a.88.88,0,0,0-.56.4,1.43,1.43,0,0,0-.19.76,1.67,1.67,0,0,0,.15.75.49.49,0,0,0,.45.31.42.42,0,0,0,.37-.27,3.26,3.26,0,0,0,.25-.85l.22-1a3.39,3.39,0,0,1,.43-1.06,2.38,2.38,0,0,1,.58-.63,1.81,1.81,0,0,1,.63-.3,2,2,0,0,1,.55-.09,2,2,0,0,1,1.27.42,2.55,2.55,0,0,1,.78,1.13A4.59,4.59,0,0,1,78.74,70.26Z"/><path d="M93.42,309.6a3.18,3.18,0,0,1,1.84.52,3.42,3.42,0,0,1,1.19,1.53,6.5,6.5,0,0,1,.41,2.43,5.15,5.15,0,0,1-.91,3.28,3.06,3.06,0,0,1-2.54,1.15,3.09,3.09,0,0,1-2.55-1.15,5.11,5.11,0,0,1-.91-3.27,6.3,6.3,0,0,1,.42-2.43,3.39,3.39,0,0,1,1.19-1.54A3.25,3.25,0,0,1,93.42,309.6Zm0,7.29a1.07,1.07,0,0,0,1-.64,5.47,5.47,0,0,0,.3-2.15,5.69,5.69,0,0,0-.31-2.24,1,1,0,0,0-1-.67,1.07,1.07,0,0,0-1,.67,5.54,5.54,0,0,0-.32,2.24,5.31,5.31,0,0,0,.31,2.15A1.08,1.08,0,0,0,93.41,316.89Z"/><path d="M89.88,275.84v-1.43a2.52,2.52,0,0,1,.24-1.14,2.92,2.92,0,0,1,.65-.83,5.05,5.05,0,0,1,.89-.62c.32-.18.64-.34,1-.49s.62-.3.89-.45a2.9,2.9,0,0,0,.65-.49.92.92,0,0,0,.24-.63.93.93,0,0,0-.32-.75,1.21,1.21,0,0,0-.87-.3,1.6,1.6,0,0,0-1,.34,1.64,1.64,0,0,0-.55,1.07H89.73a3.23,3.23,0,0,1,.4-1.56,2.77,2.77,0,0,1,1.16-1.11,4.27,4.27,0,0,1,2-.4,4.12,4.12,0,0,1,1.76.34,2.63,2.63,0,0,1,1.13.94,2.52,2.52,0,0,1,.39,1.4,2.48,2.48,0,0,1-.23,1.13,2.72,2.72,0,0,1-.63.8,4.58,4.58,0,0,1-.86.57c-.31.16-.62.31-.93.44s-.6.26-.86.39a2.13,2.13,0,0,0-.63.45.81.81,0,0,0-.24.59v0h4.35v1.7Z"/><path d="M93.81,224.87h2v5.2h1.3v1.69h-1.3v1.79h-2v-1.79h-4v-1.63Zm-2,5.2h2.09v-2.79Z"/><path d="M93.6,181.24a3.91,3.91,0,0,1,1.58.31,2.79,2.79,0,0,1,1.18.89,2.32,2.32,0,0,1,.47,1.41H95a1.49,1.49,0,0,0-.49-.77,1.33,1.33,0,0,0-.84-.25,1.32,1.32,0,0,0-.93.32,1.68,1.68,0,0,0-.53.86,3.23,3.23,0,0,0-.07,1.22,1.82,1.82,0,0,1,.51-.36,2.85,2.85,0,0,1,.64-.22,3.35,3.35,0,0,1,.71-.07,3.51,3.51,0,0,1,1.56.33A2.43,2.43,0,0,1,97,187.2a2.66,2.66,0,0,1-.43,1.5,3,3,0,0,1-1.22,1,3.84,3.84,0,0,1-1.77.38,3.67,3.67,0,0,1-2-.52,3.42,3.42,0,0,1-1.27-1.48,5.34,5.34,0,0,1-.44-2.23,6.05,6.05,0,0,1,.46-2.49,3.39,3.39,0,0,1,3.3-2.15Zm-.13,4.83a1.56,1.56,0,0,0-.63.14,1.69,1.69,0,0,0-.5.34.61.61,0,0,0-.2.39,2.3,2.3,0,0,0,.16.92,1.37,1.37,0,0,0,.47.56,1.32,1.32,0,0,0,.69.19,1.42,1.42,0,0,0,.67-.17,1.35,1.35,0,0,0,.49-.46,1.23,1.23,0,0,0,.19-.69,1.15,1.15,0,0,0-.19-.69,1.07,1.07,0,0,0-.49-.4A1.85,1.85,0,0,0,93.47,186.07Z"/><path d="M93.4,138a4.44,4.44,0,0,1,1.64.28,2.6,2.6,0,0,1,1.15.82,2.15,2.15,0,0,1,.42,1.35,1.72,1.72,0,0,1-.36,1.11,2.59,2.59,0,0,1-.87.71,1.67,1.67,0,0,1,.75.38,2.63,2.63,0,0,1,.62.74,2,2,0,0,1,.24.94,2.11,2.11,0,0,1-.45,1.35,2.89,2.89,0,0,1-1.26.88,6,6,0,0,1-3.76,0,2.92,2.92,0,0,1-1.25-.88,2.11,2.11,0,0,1-.45-1.35,2,2,0,0,1,.24-.94,2.44,2.44,0,0,1,.61-.74,1.78,1.78,0,0,1,.75-.38,2.66,2.66,0,0,1-.86-.71,1.67,1.67,0,0,1-.37-1.11,2.15,2.15,0,0,1,.42-1.35,2.6,2.6,0,0,1,1.15-.82A4.48,4.48,0,0,1,93.4,138Zm0,7.37a1.64,1.64,0,0,0,1-.3,1.09,1.09,0,0,0,.2-1.4,1.14,1.14,0,0,0-.48-.41,2,2,0,0,0-.77-.14,2,2,0,0,0-.76.14,1.16,1.16,0,0,0-.49.41,1.07,1.07,0,0,0-.17.59,1,1,0,0,0,.38.81A1.63,1.63,0,0,0,93.4,145.39Zm0-3.87a1.24,1.24,0,0,0,.84-.29,1,1,0,0,0,.34-.8,1,1,0,0,0-.34-.8,1.19,1.19,0,0,0-.84-.29,1.23,1.23,0,0,0-.84.29,1,1,0,0,0-.34.8,1,1,0,0,0,.34.8A1.28,1.28,0,0,0,93.4,141.52Z"/><path d="M88.81,102.75V96.43H87.32V95.32a4,4,0,0,0,1.2-.15,1.7,1.7,0,0,0,.72-.44,1.25,1.25,0,0,0,.3-.66h1.33v8.68Z"/><path d="M96.05,93.94a3.12,3.12,0,0,1,1.84.53A3.23,3.23,0,0,1,99.07,96a6.24,6.24,0,0,1,.41,2.43,5.18,5.18,0,0,1-.9,3.27A3,3,0,0,1,96,102.85a3.07,3.07,0,0,1-2.55-1.15,5.11,5.11,0,0,1-.91-3.27A6.3,6.3,0,0,1,93,96a3.25,3.25,0,0,1,1.19-1.53A3.18,3.18,0,0,1,96.05,93.94Zm0,7.29a1,1,0,0,0,1-.63,5.34,5.34,0,0,0,.31-2.16,5.69,5.69,0,0,0-.31-2.24,1.07,1.07,0,0,0-1-.67,1.08,1.08,0,0,0-1,.68,5.67,5.67,0,0,0-.31,2.23,5.28,5.28,0,0,0,.31,2.15A1.06,1.06,0,0,0,96,101.23Z"/><line class="a6aa5a5c-85cb-4a83-8b6d-afb8401e1a32" x1="121.2" y1="99.15" x2="104.29" y2="99.15"/><path d="M88.6,59.6V53.28H87.11v-1.1a4,4,0,0,0,1.2-.16,1.61,1.61,0,0,0,.72-.44,1.25,1.25,0,0,0,.3-.66h1.33V59.6Z"/><path d="M92.51,59.6V58.16A2.45,2.45,0,0,1,92.75,57a2.79,2.79,0,0,1,.65-.83,4.29,4.29,0,0,1,.89-.62c.32-.18.64-.35,1-.5s.62-.3.89-.45a2.57,2.57,0,0,0,.64-.49.88.88,0,0,0,.25-.63,1,1,0,0,0-.32-.75,1.25,1.25,0,0,0-.87-.29,1.49,1.49,0,0,0-1.54,1.41H92.36a3.3,3.3,0,0,1,.4-1.57,2.69,2.69,0,0,1,1.16-1.1,4.26,4.26,0,0,1,2-.41,4.12,4.12,0,0,1,1.76.34,2.65,2.65,0,0,1,1.13,1,2.76,2.76,0,0,1,.16,2.52,2.6,2.6,0,0,1-.63.8,5,5,0,0,1-.86.58c-.31.16-.62.3-.94.43l-.86.4a2.41,2.41,0,0,0-.63.44.88.88,0,0,0-.23.6v0h4.35v1.7Z"/><line class="a6aa5a5c-85cb-4a83-8b6d-afb8401e1a32" x1="121.2" y1="56" x2="104.29" y2="56"/><line class="a6aa5a5c-85cb-4a83-8b6d-afb8401e1a32" x1="121.2" y1="142.18" x2="104.29" y2="142.18"/><line class="a6aa5a5c-85cb-4a83-8b6d-afb8401e1a32" x1="121.2" y1="185.6" x2="104.29" y2="185.6"/><line class="a6aa5a5c-85cb-4a83-8b6d-afb8401e1a32" x1="121.2" y1="228.75" x2="104.29" y2="228.75"/><line class="a6aa5a5c-85cb-4a83-8b6d-afb8401e1a32" x1="121.2" y1="271.8" x2="104.29" y2="271.8"/><line class="a6aa5a5c-85cb-4a83-8b6d-afb8401e1a32" x1="121.2" y1="316.78" x2="104.29" y2="316.78"/><path d="M235.71,24.77h3.07V35.24h5.43v2.54H235.7Z"/><path d="M249.87,38a4.87,4.87,0,0,1-2.44-.59,4.05,4.05,0,0,1-1.6-1.68,5.28,5.28,0,0,1-.57-2.51,5.4,5.4,0,0,1,.58-2.56,4.31,4.31,0,0,1,1.62-1.71,5.17,5.17,0,0,1,4.87,0,4.28,4.28,0,0,1,1.6,1.72,5.63,5.63,0,0,1,.55,2.55,5.33,5.33,0,0,1-.55,2.48,4.24,4.24,0,0,1-1.59,1.69A4.74,4.74,0,0,1,249.87,38Zm0-2.25a1.25,1.25,0,0,0,1-.39,2.1,2.1,0,0,0,.5-1,5.05,5.05,0,0,0,.15-1.23,5.5,5.5,0,0,0-.14-1.22,2.07,2.07,0,0,0-.49-1,1.48,1.48,0,0,0-2,0,2,2,0,0,0-.5,1,5,5,0,0,0-.15,1.24,5.14,5.14,0,0,0,.14,1.22,2.14,2.14,0,0,0,.49,1A1.25,1.25,0,0,0,249.89,35.71Z"/><path d="M260.15,28.3a4.11,4.11,0,0,1,2.14.52,3.58,3.58,0,0,1,1.36,1.37,4.19,4.19,0,0,1,.51,1.88h-2.51a2.6,2.6,0,0,0-.2-.66,1.66,1.66,0,0,0-.46-.59,1.25,1.25,0,0,0-.8-.24,1.56,1.56,0,0,0-1.3.64,3.07,3.07,0,0,0-.49,1.91,3.39,3.39,0,0,0,.5,2,1.59,1.59,0,0,0,1.35.71,1.12,1.12,0,0,0,.78-.26,1.79,1.79,0,0,0,.46-.6,2.61,2.61,0,0,0,.19-.61h2.44a3.59,3.59,0,0,1-.49,1.79,3.53,3.53,0,0,1-1.36,1.32,4.13,4.13,0,0,1-2.12.5,4.61,4.61,0,0,1-2.35-.59,4.22,4.22,0,0,1-1.64-1.66,5.12,5.12,0,0,1-.6-2.53,5.32,5.32,0,0,1,.59-2.54,4.33,4.33,0,0,1,1.62-1.72A4.52,4.52,0,0,1,260.15,28.3Z"/><path d="M268.51,38a3.78,3.78,0,0,1-1.6-.33,2.69,2.69,0,0,1-1.58-2.57,2.67,2.67,0,0,1,1.17-2.34,6.5,6.5,0,0,1,3.68-.83h.95V31.4a1,1,0,0,0-.32-.82,1.39,1.39,0,0,0-1-.26,2.29,2.29,0,0,0-.94.21,1.3,1.3,0,0,0-.68.78h-2.51a2.76,2.76,0,0,1,.62-1.72,3.37,3.37,0,0,1,1.52-1A6.81,6.81,0,0,1,270,28.3a6.54,6.54,0,0,1,2.41.36,2.53,2.53,0,0,1,1.28,1,2.93,2.93,0,0,1,.39,1.53v6.57h-2.55l-.27-1.53a2.71,2.71,0,0,1-1.1,1.34A3.27,3.27,0,0,1,268.51,38Zm1.06-2a1.62,1.62,0,0,0,1.07-.41,2,2,0,0,0,.35-.42,1.29,1.29,0,0,0,.14-.51V33.38h-.76a4.18,4.18,0,0,0-1,.13,2.21,2.21,0,0,0-.84.42,1,1,0,0,0-.34.8,1.12,1.12,0,0,0,.4.92A1.45,1.45,0,0,0,269.57,36Z"/><path d="M281.86,30.58h-2v4.58a.89.89,0,0,0,.08.42.43.43,0,0,0,.24.18,1.38,1.38,0,0,0,.38,0h1.35v1.85a4.2,4.2,0,0,1-.59.17,5.57,5.57,0,0,1-1.16.09,5,5,0,0,1-2.07-.34,2,2,0,0,1-1-.93,3.06,3.06,0,0,1-.28-1.34V30.58h-1.51v-2.1h1.62l.78-2.86h2.17v2.84h2Z"/><path d="M286.66,24.77v2.66h-2.94V24.77Zm0,3.71v9.3h-2.93v-9.3Z"/><path d="M292.92,38a4.9,4.9,0,0,1-2.44-.59,4.11,4.11,0,0,1-1.6-1.68,5.28,5.28,0,0,1-.57-2.51,5.4,5.4,0,0,1,.59-2.56,4.17,4.17,0,0,1,1.62-1.71,4.65,4.65,0,0,1,2.42-.61,4.71,4.71,0,0,1,2.45.61A4.19,4.19,0,0,1,297,30.63a5.63,5.63,0,0,1,.56,2.55,5.33,5.33,0,0,1-.56,2.48,4.17,4.17,0,0,1-1.59,1.69A4.71,4.71,0,0,1,292.92,38Zm0-2.25a1.27,1.27,0,0,0,1-.39,2.3,2.3,0,0,0,.5-1,5.59,5.59,0,0,0,.14-1.23,5.49,5.49,0,0,0-.13-1.22,2.16,2.16,0,0,0-.49-1,1.32,1.32,0,0,0-1-.38,1.27,1.27,0,0,0-1,.38,2,2,0,0,0-.51,1,5,5,0,0,0-.15,1.24,5.71,5.71,0,0,0,.14,1.22,2.35,2.35,0,0,0,.49,1A1.27,1.27,0,0,0,292.94,35.71Z"/><path d="M299.1,37.78v-9.3h3v1.3a3.78,3.78,0,0,1,.54-.63,2.51,2.51,0,0,1,.83-.52,3.25,3.25,0,0,1,1.24-.21,4,4,0,0,1,1.58.32,2.74,2.74,0,0,1,1.21,1,3.32,3.32,0,0,1,.46,1.85v6.16h-3.07V32a1.1,1.1,0,0,0-.4-.92,1.41,1.41,0,0,0-.91-.31,1.79,1.79,0,0,0-.68.13,1.34,1.34,0,0,0-.54.39,1,1,0,0,0-.21.64v5.83Z"/><path d="M317.66,38a4.9,4.9,0,0,1-2.44-.59,4.11,4.11,0,0,1-1.6-1.68,5.28,5.28,0,0,1-.56-2.51,5.4,5.4,0,0,1,.58-2.56,4.17,4.17,0,0,1,1.62-1.71,4.65,4.65,0,0,1,2.42-.61,4.71,4.71,0,0,1,2.45.61,4.19,4.19,0,0,1,1.59,1.72,5.63,5.63,0,0,1,.56,2.55,5.33,5.33,0,0,1-.56,2.48,4.17,4.17,0,0,1-1.59,1.69A4.71,4.71,0,0,1,317.66,38Zm0-2.25a1.26,1.26,0,0,0,1-.39,2.2,2.2,0,0,0,.5-1,5.59,5.59,0,0,0,.14-1.23,5.49,5.49,0,0,0-.13-1.22,2.16,2.16,0,0,0-.49-1,1.32,1.32,0,0,0-1-.38,1.27,1.27,0,0,0-1,.38,2,2,0,0,0-.51,1,5,5,0,0,0-.15,1.24,5.71,5.71,0,0,0,.14,1.22,2.35,2.35,0,0,0,.49,1A1.27,1.27,0,0,0,317.68,35.71Z"/><path d="M329.48,28.48v2.1h-1.83v7.2h-3.07v-7.2H323v-2.1h1.61V27.19a2.25,2.25,0,0,1,.72-1.78,2.78,2.78,0,0,1,1.95-.64h2.3l0,2h-1.15a.8.8,0,0,0-.65.22,1.21,1.21,0,0,0-.18.76v.72Z"/><path d="M334.78,37.78v-13h5a6.35,6.35,0,0,1,2.56.5,4.2,4.2,0,0,1,1.81,1.48,4.56,4.56,0,0,1,.09,4.57,3.76,3.76,0,0,1-1.61,1.41,5.68,5.68,0,0,1-2.46.49h-2.29v4.56Zm3.05-6.88h2.23a1.8,1.8,0,0,0,1.36-.58A2,2,0,0,0,342,29a1.75,1.75,0,0,0-.57-1.35,1.92,1.92,0,0,0-1.34-.53h-2.21Z"/><path d="M348.81,38a3.85,3.85,0,0,1-1.6-.33,2.67,2.67,0,0,1-1.57-2.57,2.67,2.67,0,0,1,1.17-2.34,6.48,6.48,0,0,1,3.68-.83h.94V31.4a1,1,0,0,0-.31-.82,1.42,1.42,0,0,0-1-.26,2.32,2.32,0,0,0-.94.21,1.33,1.33,0,0,0-.68.78H346a2.83,2.83,0,0,1,.63-1.72,3.37,3.37,0,0,1,1.52-1,6.72,6.72,0,0,1,2.13-.31,6.58,6.58,0,0,1,2.41.36,2.58,2.58,0,0,1,1.28,1,2.93,2.93,0,0,1,.39,1.53v6.57h-2.55l-.27-1.53a2.76,2.76,0,0,1-1.1,1.34A3.31,3.31,0,0,1,348.81,38Zm1.06-2a1.47,1.47,0,0,0,.59-.11,1.44,1.44,0,0,0,.49-.3,1.9,1.9,0,0,0,.34-.42,1.15,1.15,0,0,0,.14-.51V33.38h-.76a4.1,4.1,0,0,0-1,.13,2.08,2.08,0,0,0-.84.42,1,1,0,0,0-.35.8,1.15,1.15,0,0,0,.4.92A1.46,1.46,0,0,0,349.87,36Z"/><path d="M356.48,37.78v-9.3h3v2.38a4.36,4.36,0,0,1,.63-1.28,3.07,3.07,0,0,1,1-.93,2.84,2.84,0,0,1,1.46-.35h.16v2.91l-.15,0a4.46,4.46,0,0,0-1.88.12,1.56,1.56,0,0,0-.9.69,2.13,2.13,0,0,0-.24,1v4.78Z"/><path d="M370.2,30.58h-2v4.58a.77.77,0,0,0,.09.42.38.38,0,0,0,.23.18,1.43,1.43,0,0,0,.38,0h1.35v1.85a4,4,0,0,1-.58.17,5.64,5.64,0,0,1-1.16.09,5,5,0,0,1-2.08-.34,2,2,0,0,1-1-.93,3.06,3.06,0,0,1-.29-1.34V30.58h-1.51v-2.1h1.62l.78-2.86h2.17v2.84h2Z"/><path d="M375,24.77v2.66h-2.94V24.77Zm0,3.71v9.3h-2.92v-9.3Z"/><path d="M381.25,28.3a4.1,4.1,0,0,1,2.13.52,3.58,3.58,0,0,1,1.36,1.37,4.07,4.07,0,0,1,.51,1.88h-2.51a2.6,2.6,0,0,0-.2-.66,1.66,1.66,0,0,0-.46-.59,1.25,1.25,0,0,0-.8-.24,1.55,1.55,0,0,0-1.29.64,3.07,3.07,0,0,0-.5,1.91,3.32,3.32,0,0,0,.51,2,1.57,1.57,0,0,0,1.35.71,1.11,1.11,0,0,0,.77-.26,1.56,1.56,0,0,0,.46-.6,2.69,2.69,0,0,0,.2-.61h2.44a3.7,3.7,0,0,1-.5,1.79,3.57,3.57,0,0,1-1.35,1.32,4.16,4.16,0,0,1-2.12.5,4.65,4.65,0,0,1-2.36-.59,4.2,4.2,0,0,1-1.63-1.66,5.12,5.12,0,0,1-.6-2.53,5.32,5.32,0,0,1,.58-2.54,4.29,4.29,0,0,1,1.63-1.72A4.47,4.47,0,0,1,381.25,28.3Z"/><path d="M389.92,24.77v2.66H387V24.77Zm0,3.71v9.3H387v-9.3Z"/><path d="M392.08,40.68V28.48h3.08v1.2a3.14,3.14,0,0,1,.55-.6,3.59,3.59,0,0,1,.69-.43,4.36,4.36,0,0,1,.77-.26,3.63,3.63,0,0,1,.8-.09,3.26,3.26,0,0,1,1.8.51A3.43,3.43,0,0,1,401,30.39a6.72,6.72,0,0,1,.46,2.7,6.57,6.57,0,0,1-.52,2.8,3.53,3.53,0,0,1-1.39,1.57,3.72,3.72,0,0,1-1.92.5,3,3,0,0,1-.73-.09,2.71,2.71,0,0,1-.68-.28,3.37,3.37,0,0,1-.61-.46,3.44,3.44,0,0,1-.49-.62v4.17Zm4.81-4.93a1.53,1.53,0,0,0,1.23-.63,3.21,3.21,0,0,0,.52-2,3.22,3.22,0,0,0-.5-1.92,1.49,1.49,0,0,0-1.25-.68,1.39,1.39,0,0,0-1.31.76,3.63,3.63,0,0,0-.43,1.84,4.18,4.18,0,0,0,.19,1.28,2.38,2.38,0,0,0,.56,1A1.37,1.37,0,0,0,396.89,35.75Z"/><path d="M405.77,38a3.85,3.85,0,0,1-1.6-.33,2.67,2.67,0,0,1-1.57-2.57,2.67,2.67,0,0,1,1.17-2.34,6.48,6.48,0,0,1,3.68-.83h.94V31.4a1,1,0,0,0-.31-.82,1.42,1.42,0,0,0-1-.26,2.32,2.32,0,0,0-.94.21,1.33,1.33,0,0,0-.68.78H403a2.83,2.83,0,0,1,.63-1.72,3.37,3.37,0,0,1,1.52-1,6.72,6.72,0,0,1,2.13-.31,6.58,6.58,0,0,1,2.41.36,2.58,2.58,0,0,1,1.28,1,2.93,2.93,0,0,1,.39,1.53v6.57h-2.55l-.27-1.53a2.76,2.76,0,0,1-1.1,1.34A3.31,3.31,0,0,1,405.77,38Zm1.06-2a1.47,1.47,0,0,0,.59-.11,1.44,1.44,0,0,0,.49-.3,1.65,1.65,0,0,0,.34-.42,1,1,0,0,0,.14-.51V33.38h-.75a4.11,4.11,0,0,0-1,.13,2.08,2.08,0,0,0-.84.42,1,1,0,0,0-.35.8,1.15,1.15,0,0,0,.4.92A1.46,1.46,0,0,0,406.83,36Z"/><path d="M413.44,37.78v-9.3h3v1.3a3.78,3.78,0,0,1,.54-.63,2.67,2.67,0,0,1,.84-.52,3.23,3.23,0,0,1,1.23-.21,4,4,0,0,1,1.58.32,2.74,2.74,0,0,1,1.21,1,3.32,3.32,0,0,1,.46,1.85v6.16h-3.07V32a1.12,1.12,0,0,0-.39-.92,1.44,1.44,0,0,0-.92-.31,1.74,1.74,0,0,0-.67.13,1.31,1.31,0,0,0-.55.39,1,1,0,0,0-.21.64v5.83Z"/><path d="M430,30.58H427.9v4.58a.77.77,0,0,0,.09.42.37.37,0,0,0,.24.18,1.31,1.31,0,0,0,.37,0H430v1.85a4,4,0,0,1-.58.17,5.64,5.64,0,0,1-1.16.09,5,5,0,0,1-2.08-.34,2,2,0,0,1-1-.93,3.06,3.06,0,0,1-.29-1.34V30.58h-1.51v-2.1H425l.78-2.86h2.17v2.84H430Z"/><path d="M431.57,30.2l1.07-2.55-1-.11V24.77h2.92v2.46l-1.94,3Z"/><path d="M439.31,38a5.58,5.58,0,0,1-1.9-.32,3.87,3.87,0,0,1-1.59-1,3.49,3.49,0,0,1-.84-1.85h2.62a1.3,1.3,0,0,0,.43.73,1.6,1.6,0,0,0,.66.34,2.43,2.43,0,0,0,.6.09,2.58,2.58,0,0,0,1.08-.19.6.6,0,0,0,.41-.57.58.58,0,0,0-.25-.51,2.35,2.35,0,0,0-.89-.29l-1.51-.28a4.38,4.38,0,0,1-2.07-.9,2.25,2.25,0,0,1-.79-1.85,2.6,2.6,0,0,1,.45-1.54,3.25,3.25,0,0,1,1.38-1.08,5.49,5.49,0,0,1,2.23-.4,4.71,4.71,0,0,1,2.88.79,2.57,2.57,0,0,1,1.08,2.19h-2.52a1,1,0,0,0-.51-.73,1.86,1.86,0,0,0-1-.25,2.15,2.15,0,0,0-1,.2.62.62,0,0,0-.39.58.53.53,0,0,0,.34.48,4.41,4.41,0,0,0,1.09.32l1.36.28a4.42,4.42,0,0,1,1.36.55,2.91,2.91,0,0,1,.8.75,2.51,2.51,0,0,1,.39.81,2.61,2.61,0,0,1-.42,2.33,3.24,3.24,0,0,1-1.45,1A6,6,0,0,1,439.31,38Z"/><path d="M454.39,24.59a5.88,5.88,0,0,1,2.69.6A5.19,5.19,0,0,1,459,26.83a5.07,5.07,0,0,1,.86,2.39h-3.2a3,3,0,0,0-.41-1.12,2.13,2.13,0,0,0-.79-.76,2.41,2.41,0,0,0-1.17-.27,2.35,2.35,0,0,0-1.37.4,2.53,2.53,0,0,0-.91,1.29,7.53,7.53,0,0,0-.32,2.42,5.9,5.9,0,0,0,.71,3.3,2.22,2.22,0,0,0,1.89,1,2.14,2.14,0,0,0,1.17-.32,2.55,2.55,0,0,0,.79-.87,3.73,3.73,0,0,0,.41-1.19h3.2a7.86,7.86,0,0,1-.45,1.84,4.73,4.73,0,0,1-.94,1.57,4.37,4.37,0,0,1-1.62,1.07,7,7,0,0,1-2.46.38,5.61,5.61,0,0,1-5.32-3.27,8,8,0,0,1-.75-3.56,7.65,7.65,0,0,1,.74-3.47,5.31,5.31,0,0,1,2.1-2.27A6.32,6.32,0,0,1,454.39,24.59Z"/><path d="M467.67,38a6.35,6.35,0,0,1-3.27-.81,5.42,5.42,0,0,1-2.13-2.31,7.67,7.67,0,0,1-.76-3.54,7.76,7.76,0,0,1,.76-3.56,5.6,5.6,0,0,1,2.16-2.33,6.79,6.79,0,0,1,6.47,0A5.59,5.59,0,0,1,473,27.74a7.76,7.76,0,0,1,.76,3.56,7.8,7.8,0,0,1-.74,3.54,5.42,5.42,0,0,1-2.13,2.31A6.27,6.27,0,0,1,467.67,38Zm0-2.48a2.66,2.66,0,0,0,1.47-.41,2.59,2.59,0,0,0,1-1.32,6.91,6.91,0,0,0,.34-2.4,7.1,7.1,0,0,0-.35-2.48,2.74,2.74,0,0,0-1-1.37,2.56,2.56,0,0,0-1.46-.43,2.52,2.52,0,0,0-1.46.44,2.76,2.76,0,0,0-1,1.37,7.07,7.07,0,0,0-.35,2.47,6.65,6.65,0,0,0,.35,2.4,2.47,2.47,0,0,0,2.45,1.73Z"/><path d="M486.74,24.77l-4.44,13h-3.41l-4.43-13h2.91l3.23,9.43,3.23-9.43Z"/><path d="M488.38,24.77h3.07v13h-3.07Z"/><path d="M494.12,24.77h3.2l1.09,0a8.65,8.65,0,0,1,3.85.88,5.07,5.07,0,0,1,2.18,2.24,7.34,7.34,0,0,1,.7,3.31,7.61,7.61,0,0,1-.73,3.44,5.24,5.24,0,0,1-2.24,2.3,7.89,7.89,0,0,1-3.82.82h-4.23Zm3.07,2.44v8.13h1.25a3.72,3.72,0,0,0,1.69-.4,3.18,3.18,0,0,0,1.31-1.31,5,5,0,0,0,.51-2.44,5,5,0,0,0-.44-2.24,2.81,2.81,0,0,0-1.21-1.31,3.75,3.75,0,0,0-1.85-.43Z"/><path d="M512.1,32.06v2.2H507V32.07Z"/><path d="M515,37.78V28.31h-2.24V26.65a6,6,0,0,0,1.8-.23,2.49,2.49,0,0,0,1.08-.66,1.81,1.81,0,0,0,.45-1h2v13Z"/><path d="M525.6,37.91a5.89,5.89,0,0,1-2.38-.48,4.51,4.51,0,0,1-1.8-1.37,3.44,3.44,0,0,1-.73-2.06h2.89a1.82,1.82,0,0,0,1.88,1.53,2.92,2.92,0,0,0,1.49-.37,2.23,2.23,0,0,0,1-1.17,4.78,4.78,0,0,0,.23-2.19,2.55,2.55,0,0,1-.69.66,3.52,3.52,0,0,1-1,.44,4.71,4.71,0,0,1-1.23.15,5.52,5.52,0,0,1-2.39-.5,4,4,0,0,1-1.64-1.42,3.94,3.94,0,0,1-.59-2.17,4,4,0,0,1,.64-2.25,4.35,4.35,0,0,1,1.78-1.55,6,6,0,0,1,2.65-.56,5.43,5.43,0,0,1,3,.78,5,5,0,0,1,1.91,2.22,7.91,7.91,0,0,1,.66,3.35,9.7,9.7,0,0,1-.69,3.94,5,5,0,0,1-2,2.28A5.89,5.89,0,0,1,525.6,37.91Zm.22-7.25a2.06,2.06,0,0,0,.94-.22,2.53,2.53,0,0,0,.76-.51.84.84,0,0,0,.3-.58,3.31,3.31,0,0,0-.25-1.38,1.79,1.79,0,0,0-.69-.85,1.92,1.92,0,0,0-1-.28,1.86,1.86,0,0,0-1,.25,1.76,1.76,0,0,0-.68.7,2.06,2.06,0,0,0-.26,1,1.66,1.66,0,0,0,.56,1.35A2,2,0,0,0,525.82,30.66Z"/><path d="M537,37.78v-13h9.28l0,2.56h-6.17V30h5.26v2.5h-5.28V35.2h6.26v2.57Z"/><path d="M548.2,37.78v-9.3h3v2.38a4.6,4.6,0,0,1,.62-1.28,3.27,3.27,0,0,1,1-.93,2.91,2.91,0,0,1,1.47-.35h.15v2.91l-.14,0a4.44,4.44,0,0,0-1.88.12,1.56,1.56,0,0,0-.9.69,2.13,2.13,0,0,0-.24,1v4.78Z"/><path d="M558.37,38a3.78,3.78,0,0,1-1.6-.33,2.69,2.69,0,0,1-1.58-2.57,2.67,2.67,0,0,1,1.17-2.34,6.5,6.5,0,0,1,3.68-.83h1V31.4a1.06,1.06,0,0,0-.31-.82,1.44,1.44,0,0,0-1-.26,2.29,2.29,0,0,0-.94.21,1.3,1.3,0,0,0-.68.78h-2.51a2.76,2.76,0,0,1,.62-1.72,3.37,3.37,0,0,1,1.52-1,6.81,6.81,0,0,1,2.13-.31,6.64,6.64,0,0,1,2.42.36,2.55,2.55,0,0,1,1.27,1,2.93,2.93,0,0,1,.39,1.53v6.57h-2.55l-.27-1.53a2.71,2.71,0,0,1-1.1,1.34A3.25,3.25,0,0,1,558.37,38Zm1.06-2a1.62,1.62,0,0,0,1.07-.41,1.7,1.7,0,0,0,.35-.42,1.29,1.29,0,0,0,.14-.51V33.38h-.76a4.25,4.25,0,0,0-1,.13,2.21,2.21,0,0,0-.84.42,1,1,0,0,0-.34.8,1.12,1.12,0,0,0,.4.92A1.45,1.45,0,0,0,559.43,36Z"/><path d="M570,37.78v-13h4.52l2.54,8.6,2.56-8.6h4.49v13h-3.07V28.09l-2.84,9.69h-2.28l-2.84-9.66v9.66Z"/><path d="M588.79,33.83a2.49,2.49,0,0,0,.19,1.08,1.52,1.52,0,0,0,.59.66,1.69,1.69,0,0,0,.88.22,2,2,0,0,0,1-.23,1.5,1.5,0,0,0,.67-.84h2.72a3.42,3.42,0,0,1-.81,1.75,4.2,4.2,0,0,1-1.58,1.11,4.93,4.93,0,0,1-1.94.38,5.14,5.14,0,0,1-2.49-.58,4.21,4.21,0,0,1-1.67-1.65,5,5,0,0,1-.6-2.49,5.64,5.64,0,0,1,.55-2.48A4.38,4.38,0,0,1,587.9,29a4.46,4.46,0,0,1,2.49-.67,4.58,4.58,0,0,1,2.46.61,3.9,3.9,0,0,1,1.49,1.7,5.63,5.63,0,0,1,.5,2.46v.76Zm0-1.76H592a1.92,1.92,0,0,0-.18-.84,1.39,1.39,0,0,0-.54-.61,1.66,1.66,0,0,0-.89-.23,1.49,1.49,0,0,0-.85.24,1.67,1.67,0,0,0-.56.62A1.7,1.7,0,0,0,588.77,32.07Z"/><path d="M596.49,37.78v-9.3h3v1.3a3.86,3.86,0,0,1,1.17-1.05,3.53,3.53,0,0,1,1.82-.43,3,3,0,0,1,1,.16,3.54,3.54,0,0,1,.91.5,3.12,3.12,0,0,1,.72.81,4.13,4.13,0,0,1,1.18-1,3.12,3.12,0,0,1,1.62-.43,3.34,3.34,0,0,1,1.07.18,3.11,3.11,0,0,1,1,.58,2.76,2.76,0,0,1,.72,1,3.9,3.9,0,0,1,.27,1.54v6.16h-3.06V32a1.19,1.19,0,0,0-.2-.71,1.14,1.14,0,0,0-.49-.41,1.64,1.64,0,0,0-.62-.13,1.67,1.67,0,0,0-.61.13,1.18,1.18,0,0,0-.52.39,1,1,0,0,0-.21.66v5.83h-3.05V31.91a1,1,0,0,0-.2-.62,1.18,1.18,0,0,0-.49-.39,1.54,1.54,0,0,0-.6-.13,1.68,1.68,0,0,0-.62.13,1.32,1.32,0,0,0-.51.4,1.07,1.07,0,0,0-.2.65v5.83Z"/><path d="M617,38a4.87,4.87,0,0,1-2.44-.59,4.11,4.11,0,0,1-1.6-1.68,5.28,5.28,0,0,1-.57-2.51,5.52,5.52,0,0,1,.58-2.56,4.31,4.31,0,0,1,1.62-1.71,5.18,5.18,0,0,1,4.88,0,4.19,4.19,0,0,1,1.59,1.72,5.63,5.63,0,0,1,.56,2.55,5.33,5.33,0,0,1-.56,2.48,4.17,4.17,0,0,1-1.59,1.69A4.74,4.74,0,0,1,617,38Zm0-2.25a1.24,1.24,0,0,0,1-.39,2.1,2.1,0,0,0,.5-1,5.05,5.05,0,0,0,.15-1.23,5.5,5.5,0,0,0-.14-1.22,2.07,2.07,0,0,0-.49-1,1.3,1.3,0,0,0-1-.38,1.31,1.31,0,0,0-1,.38,2.09,2.09,0,0,0-.5,1,5,5,0,0,0-.15,1.24,5.71,5.71,0,0,0,.14,1.22,2.24,2.24,0,0,0,.49,1A1.25,1.25,0,0,0,617,35.71Z"/><path d="M623.18,37.78v-9.3h3v2.38a4.92,4.92,0,0,1,.63-1.28,3.17,3.17,0,0,1,1-.93,2.86,2.86,0,0,1,1.47-.35h.15v2.91l-.14,0a4.43,4.43,0,0,0-1.88.12,1.56,1.56,0,0,0-.9.69,2,2,0,0,0-.25,1v4.78Z"/><path d="M633.7,24.77v2.66h-2.94V24.77Zm0,3.71v9.3h-2.92v-9.3Z"/><path d="M638.44,33.83a2.34,2.34,0,0,0,.2,1.08,1.44,1.44,0,0,0,.58.66,1.69,1.69,0,0,0,.88.22,2,2,0,0,0,1-.23,1.5,1.5,0,0,0,.67-.84h2.72a3.34,3.34,0,0,1-.81,1.75,4.2,4.2,0,0,1-1.58,1.11,4.92,4.92,0,0,1-1.93.38,5.09,5.09,0,0,1-2.49-.58A4.17,4.17,0,0,1,636,35.73a5,5,0,0,1-.6-2.49,5.64,5.64,0,0,1,.55-2.48A4.38,4.38,0,0,1,637.55,29,4.46,4.46,0,0,1,640,28.3a4.62,4.62,0,0,1,2.47.61,4,4,0,0,1,1.49,1.7,5.78,5.78,0,0,1,.49,2.46v.76Zm0-1.76h3.23a1.92,1.92,0,0,0-.18-.84,1.39,1.39,0,0,0-.54-.61,1.66,1.66,0,0,0-.89-.23,1.51,1.51,0,0,0-.85.24,1.75,1.75,0,0,0-.56.62A1.7,1.7,0,0,0,638.42,32.07Z"/><path d="M650,38a5.62,5.62,0,0,1-1.9-.32,3.87,3.87,0,0,1-1.59-1,3.49,3.49,0,0,1-.84-1.85h2.63a1.24,1.24,0,0,0,.42.73,1.6,1.6,0,0,0,.66.34,2.43,2.43,0,0,0,.6.09,2.58,2.58,0,0,0,1.08-.19.62.62,0,0,0,.16-1.08,2.29,2.29,0,0,0-.89-.29l-1.51-.28a4.38,4.38,0,0,1-2.07-.9,2.28,2.28,0,0,1-.79-1.85,2.54,2.54,0,0,1,.46-1.54,3.21,3.21,0,0,1,1.37-1.08,5.49,5.49,0,0,1,2.23-.4,4.71,4.71,0,0,1,2.88.79A2.57,2.57,0,0,1,654,31.28h-2.52a1.06,1.06,0,0,0-.5-.73,1.93,1.93,0,0,0-1-.25,2.15,2.15,0,0,0-1,.2.62.62,0,0,0-.39.58.53.53,0,0,0,.34.48,4.41,4.41,0,0,0,1.09.32l1.36.28a4.42,4.42,0,0,1,1.36.55,2.91,2.91,0,0,1,.8.75,2.77,2.77,0,0,1,.4.81,2.81,2.81,0,0,1,.1.71,2.47,2.47,0,0,1-.53,1.62,3.24,3.24,0,0,1-1.45,1A6,6,0,0,1,650,38Z"/></g></svg>