<?xml version="1.0" encoding="utf-8"?>
<!-- Generator: Adobe Illustrator 25.2.1, SVG Export Plug-In . SVG Version: 6.00 Build 0)  -->
<svg version="1.1" id="Layer_1" xmlns="http://www.w3.org/2000/svg" xmlns:xlink="http://www.w3.org/1999/xlink" x="0px" y="0px"
	 viewBox="0 0 60.5 34" style="enable-background:new 0 0 60.5 34;" xml:space="preserve">
<style type="text/css">
	.st0{fill:#BD8D5C;stroke:#000000;stroke-width:4.722222e-02;stroke-miterlimit:10;}
	.st1{fill:#031F2A;stroke:#BD8D5C;stroke-width:4.722222e-02;stroke-miterlimit:10;}
	.st2{fill:#F2F2F2;stroke:#26445E;stroke-width:4.722222e-02;stroke-miterlimit:10;}
</style>
<g id="b081c03d-b2ac-458d-964b-52bee6afac9e">
	<rect x="0" y="0" class="st0" width="60.4" height="34"/>
</g>
<g id="b1cdf5b7-7573-4439-b965-d6deb57f0107">
	<path class="st1" d="M8.9,10h1.2v5.1H8.9V10z"/>
	<path class="st1" d="M14.5,10h1.2v5.1h-1.1l-2.3-3.3v3.3h-1.2V10h1.2l2.2,3.1L14.5,10z"/>
	<path class="st1" d="M17.8,11.1V10H22v1.1h-1.5v4.1h-1.2v-4.1H17.8z"/>
	<path class="st1" d="M25.6,13h-1.8v2.1h-1.2V10h1.2v2h1.8v-2h1.2v5.1h-1.2V13z"/>
	<path class="st1" d="M27.9,15.1V10h3.7l0,1h-2.4v1h2.1v1h-2.1v1.1l2.5,0v1L27.9,15.1z"/>
	<path class="st1" d="M33.5,11.1V10h4.2v1.1h-1.5v4.1H35v-4.1H33.5z"/>
	<path class="st1" d="M38.3,10h1.2v5.1h-1.2V10z"/>
	<path class="st1" d="M40.6,15.1V10h1.8l1,3.4l1-3.4h1.8v5.1h-1.2v-3.8l-1.1,3.8h-0.9l-1.1-3.8v3.8L40.6,15.1z"/>
	<path class="st1" d="M47.2,15.1V10h3.7l0,1h-2.4v1h2.1v1h-2.1v1.1l2.5,0v1L47.2,15.1z"/>
	<path class="st1" d="M11.1,23.7c-0.5,0-0.9-0.1-1.3-0.3c-0.4-0.2-0.7-0.5-0.8-0.9c-0.2-0.4-0.3-0.9-0.3-1.4c0-0.5,0.1-1,0.3-1.4
		c0.2-0.4,0.5-0.7,0.8-0.9c0.4-0.2,0.8-0.3,1.3-0.3c0.5,0,0.9,0.1,1.3,0.3c0.4,0.2,0.7,0.5,0.8,0.9c0.2,0.4,0.3,0.9,0.3,1.4
		s-0.1,1-0.3,1.4c-0.2,0.4-0.5,0.7-0.8,0.9C12,23.6,11.6,23.7,11.1,23.7z M11.1,22.7c0.2,0,0.4-0.1,0.6-0.2c0.2-0.1,0.3-0.3,0.4-0.5
		c0.1-0.2,0.1-0.6,0.1-0.9c0-0.4,0-0.7-0.1-1c-0.1-0.2-0.2-0.4-0.4-0.5c-0.4-0.2-0.8-0.2-1.2,0c-0.2,0.1-0.3,0.3-0.4,0.5
		c-0.1,0.2-0.1,0.6-0.1,1c0,0.4,0,0.7,0.1,0.9c0.1,0.2,0.2,0.4,0.4,0.5C10.7,22.7,10.9,22.7,11.1,22.7L11.1,22.7z"/>
	<path class="st1" d="M14.4,18.5H18l0,1h-2.4v1.1h2v1h-2v2.1h-1.2V18.5z"/>
	<path class="st2" d="M23.5,16.9c0.6,0,1.1,0.1,1.6,0.4c0.5,0.2,0.8,0.6,1.1,1c0.3,0.4,0.5,0.9,0.5,1.4h-1.9c0-0.2-0.1-0.5-0.2-0.7
		c-0.1-0.2-0.3-0.3-0.5-0.4c-0.5-0.2-1-0.2-1.5,0.1c-0.2,0.2-0.4,0.4-0.5,0.8c-0.1,0.4-0.2,0.8-0.2,1.4c0,0.9,0.1,1.6,0.4,1.9
		c0.3,0.4,0.6,0.6,1.1,0.6c0.2,0,0.5-0.1,0.7-0.2c0.2-0.1,0.4-0.3,0.5-0.5c0.1-0.2,0.2-0.5,0.2-0.7h1.9c0,0.4-0.1,0.7-0.3,1.1
		c-0.1,0.3-0.3,0.7-0.6,0.9c-0.3,0.3-0.6,0.5-1,0.6c-0.4,0.2-0.9,0.2-1.5,0.2c-0.7,0-1.4-0.2-1.9-0.5c-0.5-0.3-1-0.8-1.2-1.4
		c-0.3-0.6-0.4-1.3-0.4-2.1c0-0.8,0.1-1.5,0.4-2.1c0.3-0.6,0.7-1,1.2-1.3C22.1,17.1,22.8,16.9,23.5,16.9z"/>
	<path class="st2" d="M30.7,24.8c-0.7,0-1.4-0.2-1.9-0.5c-0.5-0.3-1-0.8-1.3-1.4c-0.3-0.6-0.4-1.3-0.4-2.1c0-0.8,0.2-1.5,0.5-2.1
		c0.3-0.6,0.7-1,1.3-1.4c0.5-0.3,1.2-0.5,1.9-0.5c0.7,0,1.4,0.2,1.9,0.5c0.5,0.3,1,0.8,1.3,1.4c0.3,0.6,0.4,1.3,0.4,2.1
		c0,0.8-0.1,1.5-0.4,2.1c-0.3,0.6-0.7,1-1.3,1.4C32.1,24.6,31.5,24.8,30.7,24.8z M30.7,23.3c0.3,0,0.6-0.1,0.9-0.2
		c0.2-0.2,0.4-0.4,0.6-0.8c0.1-0.4,0.2-0.8,0.2-1.4c0-0.6-0.1-1.1-0.2-1.5s-0.3-0.6-0.6-0.8c-0.5-0.3-1.2-0.3-1.7,0
		c-0.2,0.2-0.4,0.4-0.6,0.8s-0.2,0.9-0.2,1.5c0,0.6,0.1,1.1,0.2,1.4c0.1,0.4,0.3,0.6,0.6,0.8C30.1,23.3,30.4,23.3,30.7,23.3
		L30.7,23.3z"/>
	<path class="st2" d="M41.4,17l-2.6,7.7h-2L34.1,17h1.7l1.9,5.6l1.9-5.6H41.4z"/>
	<path class="st2" d="M41.7,17h1.8v7.7h-1.8V17z"/>
	<path class="st2" d="M44.5,17h0.4c0.2,0,0.4,0,0.7,0c0.3,0,0.5,0,0.8,0c0.3,0,0.5,0,0.6,0c0.9,0,1.7,0.2,2.3,0.5
		c0.6,0.3,1,0.8,1.3,1.3c0.3,0.6,0.4,1.2,0.4,2c0,0.8-0.1,1.4-0.4,2c-0.3,0.6-0.8,1.1-1.3,1.4c-0.6,0.3-1.3,0.5-2.3,0.5h-2.5V17z
		 M46.3,18.5v4.8H47c0.3,0,0.7-0.1,1-0.2c0.3-0.2,0.6-0.4,0.8-0.8c0.2-0.4,0.3-0.8,0.3-1.4c0-0.5-0.1-1-0.3-1.3
		c-0.2-0.3-0.4-0.6-0.7-0.8c-0.3-0.2-0.7-0.3-1.1-0.3L46.3,18.5z"/>
</g>
</svg>
